<svg width="82" height="62" viewBox="0 0 82 62" fill="none" xmlns="http://www.w3.org/2000/svg">
<path d="M77.2817 56.3435C77.2817 58.0361 75.8823 59.3936 74.1905 59.3421L41.2817 58.3405L8.373 59.3421C6.68117 59.3936 5.28174 58.0361 5.28174 56.3435V49.1048C5.28174 47.5188 6.51632 46.2067 8.09946 46.1104L23.2817 45.1862L41.2817 46.2819L74.1905 45.2803C75.8823 45.2288 77.2817 46.5863 77.2817 48.2789V56.3435ZM76.9283 24.3159C78.7159 24.418 80.0166 26.0533 79.714 27.8181L79.2662 30.4291C79.2086 30.7647 79.2086 31.1077 79.2662 31.4433L79.6803 33.8578C79.9946 35.6906 78.583 37.3649 76.7234 37.3649H42.7817L24.0317 38.4362L8.11061 37.5265C6.52282 37.4358 5.28174 36.1218 5.28174 34.5314V27.5075C5.28174 25.8506 6.62488 24.5075 8.28174 24.5075H42.7817L61.5317 23.4362L76.9283 24.3159ZM77.2817 12.2603C77.2817 13.9843 75.8322 15.3536 74.111 15.2555L58.2817 14.3532L39.2817 15.4362H4.28174C2.62488 15.4362 1.28174 14.093 1.28174 12.4362V5.61206C1.28174 3.8881 2.73129 2.51881 4.45246 2.61692L20.2817 3.5192L39.2817 2.43619H74.2817C75.9386 2.43619 77.2817 3.77933 77.2817 5.43619V12.2603Z" fill="#FFD633"/>
<path d="M67.3911 43.0299C69.7916 42.9015 72.1836 43.1334 74.5474 43.7331C75.9466 44.0891 77.1849 44.7743 78.0786 45.8893C78.9725 47.0074 79.3742 48.3771 79.4224 49.8268C79.5043 52.2989 79.1939 54.7119 78.5005 57.0456C78.176 58.1369 77.8368 59.0837 77.4536 59.7799C77.2673 60.1173 76.994 60.5384 76.6099 60.8737C76.2043 61.226 75.4538 61.6555 74.5005 61.4518C74.1221 61.3701 72.8842 61.1871 70.6567 60.9049C68.5861 60.6427 66.5041 60.5718 64.4224 60.6862C62.1888 60.8093 59.95 60.8837 57.7192 60.9049C55.4177 60.9268 53.1181 60.7736 50.8286 60.4518C48.7624 60.1614 46.6869 60.0651 44.6099 60.1706C42.4036 60.2826 40.2007 60.3898 38.0005 60.4831C35.7817 60.5771 33.5494 60.6451 31.3286 60.6706C29.1308 60.6957 26.9329 60.7142 24.7349 60.7331C22.5552 60.7518 20.3656 60.8026 18.188 60.8893C16.0384 60.975 13.8873 61.1365 11.7349 61.3737C10.3485 61.5265 9.00558 61.3643 7.78174 60.7956C6.55268 60.224 5.57537 59.3067 4.84424 58.1393C3.47919 55.9563 2.94656 53.5126 3.23486 50.9049C3.38723 49.5301 3.83249 48.2626 4.62549 47.1862C5.42151 46.1057 6.49798 45.3281 7.76611 44.8112C9.95865 43.9175 12.2797 43.4505 14.7192 43.4206C16.8823 43.3946 19.0529 43.3061 21.2192 43.1549C23.5765 42.9904 25.933 43.0949 28.2661 43.4674C30.3608 43.8016 32.4681 44.0036 34.5786 44.0612C36.7451 44.1202 38.9155 44.1219 41.0786 44.0768C43.2283 44.0319 45.3837 43.9094 47.5317 43.7174C49.8336 43.5121 52.1414 43.5076 54.4536 43.6862C56.535 43.8473 58.6195 43.8072 60.688 43.5768C62.9177 43.3285 65.1571 43.1501 67.3911 43.0299ZM61.1255 47.5612C58.8092 47.8191 56.4854 47.8504 54.1567 47.6706C52.0607 47.5084 49.9595 47.5155 47.8755 47.7018C45.637 47.9018 43.3977 48.0301 41.1567 48.0768C38.9292 48.1233 36.6999 48.122 34.4692 48.0612C32.1811 47.9987 29.8943 47.7828 27.6255 47.4206C25.5938 47.0964 23.5533 47.0117 21.5005 47.1549C19.257 47.3115 17.007 47.3937 14.7661 47.4206C12.8057 47.4449 10.9732 47.8185 9.26611 48.5143C8.58696 48.7925 8.14385 49.1545 7.84424 49.5612C7.54145 49.9732 7.30857 50.5372 7.21924 51.3424C7.02472 53.0975 7.36839 54.6286 8.23486 56.0143C8.61915 56.6283 9.04221 56.972 9.46924 57.1706C9.90288 57.3715 10.4858 57.4944 11.2974 57.4049C13.5431 57.1575 15.7873 56.9787 18.0317 56.8893C20.2493 56.801 22.4683 56.7522 24.688 56.7331C26.8844 56.7142 29.0855 56.6957 31.2817 56.6706C33.4614 56.6456 35.651 56.5753 37.8286 56.4831C40.0181 56.3903 42.2111 56.2977 44.4067 56.1862C46.7382 56.0678 49.074 56.173 51.3911 56.4987C53.4808 56.7921 55.5747 56.9246 57.6724 56.9049C59.8409 56.8843 62.0162 56.8214 64.188 56.7018C66.5134 56.5736 68.8445 56.6434 71.1567 56.9362C72.3897 57.0923 73.3858 57.249 74.1255 57.3581C74.2673 57.0117 74.4812 56.5481 74.6724 55.9049C75.2399 53.995 75.4895 52.0165 75.4224 49.9674C75.3955 49.1555 75.1842 48.6778 74.9536 48.3893C74.7241 48.1045 74.326 47.8024 73.563 47.6081C71.5805 47.1051 69.5862 46.9072 67.5942 47.0143C65.4364 47.1305 63.2799 47.3212 61.1255 47.5612ZM67.188 21.4987C69.398 21.6259 71.6057 21.7905 73.813 21.9674C76.2572 22.1634 78.5013 22.9511 79.7349 24.9049C80.092 25.471 80.3576 25.8504 80.5317 26.0768C80.5643 26.1191 80.592 26.149 80.6099 26.1706C80.9864 26.4417 81.1936 26.7562 81.2505 26.8581C81.3896 27.1079 81.4645 27.346 81.5005 27.4831C81.5774 27.7776 81.6107 28.116 81.6411 28.4206C81.7047 29.0577 81.7491 29.9459 81.7661 31.0456C81.809 33.8205 80.713 36.1244 78.313 37.4674C76.3669 38.5559 74.1478 39.1554 71.7036 39.3268C69.4953 39.4817 67.287 39.6234 65.0786 39.7487C62.7606 39.8802 60.4415 39.8117 58.1255 39.5299C55.9963 39.2707 53.8624 39.1208 51.7349 39.0924C49.6123 39.0642 47.4926 39.1602 45.3755 39.3737C43.1821 39.5949 40.988 39.8096 38.7974 40.0299C36.4765 40.2634 34.1401 40.2806 31.7974 40.0612C30.73 39.9613 29.6678 39.8918 28.6099 39.8581H12.2661C9.50904 39.9335 7.11717 38.9764 5.28174 36.9674C3.4699 34.9829 2.66668 32.5456 2.84424 29.8112C2.93506 28.4129 3.32777 27.0979 4.15674 26.0143C4.99702 24.9168 6.16725 24.225 7.50049 23.8581C9.55917 23.2916 11.7302 22.828 14.0005 22.4831C16.3044 22.1334 18.6147 21.97 20.9224 21.9987C23.1413 22.0263 25.3598 22.1027 27.5786 22.2018C29.7334 22.2982 31.8927 22.3114 34.0474 22.2643C36.291 22.2152 38.5379 22.2427 40.7817 22.3424C42.9029 22.4368 45.026 22.4065 47.1411 22.2487C49.4101 22.0796 51.6863 22.0445 53.9692 22.1393C56.0532 22.226 58.137 22.1141 60.2036 21.8112C62.5252 21.4712 64.8572 21.3645 67.188 21.4987ZM60.7817 25.7643C58.4701 26.1032 56.1449 26.236 53.813 26.1393C51.6822 26.0506 49.5536 26.0754 47.438 26.2331C45.166 26.4025 42.8879 26.4436 40.6099 26.3424C38.4548 26.2466 36.2957 26.2173 34.1411 26.2643C31.8973 26.3134 29.6504 26.2865 27.4067 26.1862C25.2303 26.0889 23.0519 26.0258 20.8755 25.9987C18.7858 25.9727 16.6876 26.1181 14.5942 26.4362C12.4665 26.7595 10.4581 27.1961 8.56299 27.7174C7.91858 27.8948 7.54952 28.1633 7.32861 28.4518C7.09942 28.7546 6.89765 29.2545 6.84424 30.0768C6.7342 31.7912 7.20611 33.1357 8.23486 34.2643C9.24637 35.3715 10.4997 35.919 12.1567 35.8737C14.399 35.8124 16.6399 35.8125 18.8755 35.8737C21.0361 35.9328 23.1873 35.924 25.3286 35.8581C27.5943 35.7883 29.8762 35.8617 32.1724 36.0768C34.2588 36.2723 36.3317 36.268 38.3911 36.0612C40.581 35.8409 42.7766 35.6105 44.9692 35.3893C47.2384 35.1604 49.5213 35.0621 51.7974 35.0924C54.0676 35.1229 56.3412 35.2849 58.6099 35.5612C60.689 35.8141 62.7671 35.8818 64.8442 35.7643C67.0348 35.64 69.2318 35.496 71.4224 35.3424C73.3746 35.2055 75.0071 34.7389 76.3599 33.9831C77.2602 33.4792 77.7904 32.6787 77.7661 31.1081C77.7502 30.0762 77.7162 29.3421 77.6724 28.8737C77.5636 28.7525 77.451 28.6328 77.3599 28.5143C77.0728 28.1409 76.7383 27.6298 76.3599 27.0299C76.1173 26.6497 75.4301 26.1077 73.5005 25.9518C71.3218 25.7771 69.135 25.6243 66.9536 25.4987C64.8945 25.3802 62.8373 25.4632 60.7817 25.7643ZM78.5005 29.5299L79.0942 29.7487C78.795 29.6973 78.5702 29.5597 78.4067 29.4674C78.4378 29.4868 78.4665 29.5115 78.5005 29.5299ZM60.063 0.0455627C62.301 0.122527 64.5441 0.273674 66.7817 0.483063C68.9109 0.682113 71.0836 0.78107 73.2974 0.764313C74.7574 0.753503 76.1829 1.1026 77.2974 2.09244C78.4105 3.08189 78.9331 4.45523 79.0942 5.90494C79.3764 8.46272 79.1029 10.9302 78.2349 13.2487C77.8493 14.278 77.4654 15.1498 77.0942 15.7799C76.9164 16.0815 76.6605 16.4448 76.3286 16.7487C76.04 17.0126 75.246 17.6291 74.1567 17.3424C74.1351 17.3383 74.0701 17.3149 73.938 17.2956C73.7616 17.2698 73.5126 17.2364 73.2036 17.2018C72.5883 17.133 71.741 17.0609 70.6567 16.9674C68.5587 16.7866 66.4453 16.7559 64.3286 16.8737C62.0647 16.9997 59.8141 17.0305 57.5786 16.9674C55.4837 16.9082 53.3739 16.9775 51.2661 17.1862C49.0279 17.4077 46.7793 17.5498 44.5317 17.6081C42.2686 17.6665 40.0029 17.6128 37.7349 17.4518C35.6563 17.3043 33.5742 17.3578 31.5005 17.6081C29.2221 17.8827 26.9369 18.0199 24.6567 18.0143C22.4229 18.0087 20.1873 17.9367 17.9536 17.8112C15.7194 17.6856 13.4843 17.5115 11.2505 17.2643C9.03283 17.0189 6.91434 16.7501 4.90674 16.4674C3.57857 16.28 2.34079 15.7541 1.42236 14.7331C0.511661 13.717 0.114198 12.4205 0.0317383 11.0768C-0.109968 8.73777 0.2186 6.57204 1.10986 4.65494C2.2123 2.28418 4.40475 1.09345 7.06299 0.795563C9.35357 0.538883 11.6517 0.474587 13.9536 0.576813C16.1592 0.674762 18.3596 0.781848 20.5474 0.904938C22.7132 1.02677 24.9 1.12093 27.0942 1.20181C29.1515 1.27717 31.2019 1.12976 33.2349 0.748688C35.5626 0.312896 37.9075 0.141571 40.2661 0.248688C42.4305 0.347233 44.5941 0.381368 46.7505 0.342438C48.9266 0.303084 51.1056 0.221959 53.2817 0.108063C55.5394 -0.010137 57.8052 -0.0319972 60.063 0.0455627ZM53.5005 4.10806C51.2786 4.22439 49.0506 4.30222 46.8286 4.34244C44.5883 4.38295 42.3418 4.35088 40.0942 4.24869C38.0421 4.15525 35.9977 4.30622 33.9692 4.68619C31.6438 5.12207 29.2949 5.28869 26.938 5.20181C24.7178 5.11996 22.5053 5.01266 20.313 4.88931C18.1449 4.76736 15.9678 4.65829 13.7817 4.56119C11.6899 4.46829 9.59782 4.54701 7.51611 4.77994C5.80003 4.97225 5.0818 5.59618 4.73486 6.34244C4.17744 7.54208 3.90654 9.01389 4.01611 10.8268C4.06038 11.5574 4.24732 11.9008 4.39111 12.0612C4.52769 12.2134 4.81554 12.4067 5.46924 12.4987C7.43355 12.7752 9.50615 13.0385 11.688 13.2799C13.8498 13.5192 16.011 13.7052 18.1724 13.8268C20.3367 13.9484 22.5082 14.009 24.6724 14.0143C26.79 14.0195 28.9123 13.8951 31.0317 13.6393C33.3562 13.359 35.6846 13.302 38.0161 13.4674C40.158 13.6195 42.3025 13.6634 44.438 13.6081C46.5884 13.5522 48.7339 13.4138 50.8755 13.2018C53.1501 12.9766 55.4223 12.9034 57.688 12.9674C59.8112 13.0274 61.9546 12.9936 64.1099 12.8737C66.4127 12.7457 68.7145 12.7861 71.0005 12.9831C72.1005 13.0779 72.9923 13.1587 73.6567 13.2331C73.7195 13.2401 73.7825 13.2415 73.8442 13.2487C74.0058 12.905 74.2539 12.4591 74.4849 11.8424C75.1181 10.1512 75.342 8.33091 75.1255 6.35806C75.0356 5.54363 74.7915 5.21048 74.6411 5.07681C74.4891 4.94331 74.1404 4.75856 73.3286 4.76431C70.9839 4.78206 68.6747 4.67955 66.4067 4.46744C64.2461 4.26525 62.0826 4.11979 59.9224 4.04556C57.7822 3.97204 55.6408 3.99618 53.5005 4.10806Z" fill="black"/>
</svg>
