<svg id="visual" viewBox="0 0 2000 50" width="2000" height="50" xmlns="http://www.w3.org/2000/svg" xmlns:xlink="http://www.w3.org/1999/xlink" version="1.1"><path d="M0 35L30.3 33.5C60.7 32 121.3 29 182 26.8C242.7 24.7 303.3 23.3 363.8 22.2C424.3 21 484.7 20 545.2 18.5C605.7 17 666.3 15 727 15.2C787.7 15.3 848.3 17.7 909 21.5C969.7 25.3 1030.3 30.7 1091 31.2C1151.7 31.7 1212.3 27.3 1273 23.7C1333.7 20 1394.3 17 1454.8 17C1515.3 17 1575.7 20 1636.2 21C1696.7 22 1757.3 21 1818 23C1878.7 25 1939.3 30 1969.7 32.5L2000 35L2000 51L1969.7 51C1939.3 51 1878.7 51 1818 51C1757.3 51 1696.7 51 1636.2 51C1575.7 51 1515.3 51 1454.8 51C1394.3 51 1333.7 51 1273 51C1212.3 51 1151.7 51 1091 51C1030.3 51 969.7 51 909 51C848.3 51 787.7 51 727 51C666.3 51 605.7 51 545.2 51C484.7 51 424.3 51 363.8 51C303.3 51 242.7 51 182 51C121.3 51 60.7 51 30.3 51L0 51Z" fill="#FFF292" stroke-linecap="round" stroke-linejoin="miter"></path></svg>