<svg id="visual" viewBox="0 0 2000 50" width="2000" height="50" xmlns="http://www.w3.org/2000/svg" xmlns:xlink="http://www.w3.org/1999/xlink" version="1.1"><path d="M0 14L22.2 15.8C44.3 17.7 88.7 21.3 133.2 26.2C177.7 31 222.3 37 266.8 33.2C311.3 29.3 355.7 15.7 400 9.5C444.3 3.3 488.7 4.7 533.2 10.8C577.7 17 622.3 28 666.8 30C711.3 32 755.7 25 800 21.7C844.3 18.3 888.7 18.7 933.2 22.5C977.7 26.3 1022.3 33.7 1066.8 31.7C1111.3 29.7 1155.7 18.3 1200 12.2C1244.3 6 1288.7 5 1333.2 7.8C1377.7 10.7 1422.3 17.3 1466.8 19.5C1511.3 21.7 1555.7 19.3 1600 17.7C1644.3 16 1688.7 15 1733.2 15.5C1777.7 16 1822.3 18 1866.8 18.2C1911.3 18.3 1955.7 16.7 1977.8 15.8L2000 15L2000 0L1977.8 0C1955.7 0 1911.3 0 1866.8 0C1822.3 0 1777.7 0 1733.2 0C1688.7 0 1644.3 0 1600 0C1555.7 0 1511.3 0 1466.8 0C1422.3 0 1377.7 0 1333.2 0C1288.7 0 1244.3 0 1200 0C1155.7 0 1111.3 0 1066.8 0C1022.3 0 977.7 0 933.2 0C888.7 0 844.3 0 800 0C755.7 0 711.3 0 666.8 0C622.3 0 577.7 0 533.2 0C488.7 0 444.3 0 400 0C355.7 0 311.3 0 266.8 0C222.3 0 177.7 0 133.2 0C88.7 0 44.3 0 22.2 0L0 0Z" fill="#FFF292" stroke-linecap="round" stroke-linejoin="miter"></path></svg>