<svg id="visual" viewBox="0 0 2000 50" width="2000" height="50" xmlns="http://www.w3.org/2000/svg" xmlns:xlink="http://www.w3.org/1999/xlink" version="1.1"><path d="M0 20L30.3 19.7C60.7 19.3 121.3 18.7 182 20.7C242.7 22.7 303.3 27.3 363.8 29.5C424.3 31.7 484.7 31.3 545.2 29.7C605.7 28 666.3 25 727 25.3C787.7 25.7 848.3 29.3 909 29C969.7 28.7 1030.3 24.3 1091 21.5C1151.7 18.7 1212.3 17.3 1273 18.8C1333.7 20.3 1394.3 24.7 1454.8 26C1515.3 27.3 1575.7 25.7 1636.2 26.3C1696.7 27 1757.3 30 1818 29.5C1878.7 29 1939.3 25 1969.7 23L2000 21L2000 51L1969.7 51C1939.3 51 1878.7 51 1818 51C1757.3 51 1696.7 51 1636.2 51C1575.7 51 1515.3 51 1454.8 51C1394.3 51 1333.7 51 1273 51C1212.3 51 1151.7 51 1091 51C1030.3 51 969.7 51 909 51C848.3 51 787.7 51 727 51C666.3 51 605.7 51 545.2 51C484.7 51 424.3 51 363.8 51C303.3 51 242.7 51 182 51C121.3 51 60.7 51 30.3 51L0 51Z" fill="#FFD633" stroke-linecap="round" stroke-linejoin="miter"></path></svg>