<svg width="227" height="40" viewBox="0 0 227 40" fill="none" xmlns="http://www.w3.org/2000/svg">
<g filter="url(#filter0_d_43_42)">
<path d="M14.9158 37.152C12.3558 37.152 10.1024 36.6453 8.15578 35.632C6.23578 34.6453 4.72912 33.2586 3.63578 31.472C2.56912 29.6853 2.03578 27.6186 2.03578 25.272C2.03578 23.8586 2.27578 22.3786 2.75578 20.832C3.23578 19.2586 4.00912 17.792 5.07578 16.432C6.14245 15.072 7.54245 13.9653 9.27578 13.112C11.0358 12.2586 13.1691 11.832 15.6758 11.832C17.4891 11.832 19.0091 12.032 20.2358 12.432C21.4891 12.832 22.5025 13.352 23.2758 13.992C24.0758 14.632 24.6758 15.312 25.0758 16.032C25.5025 16.752 25.7824 17.4453 25.9158 18.112C26.0758 18.752 26.1558 19.2853 26.1558 19.712C26.1558 22.2986 25.0625 24.2986 22.8758 25.712C20.7158 27.0986 17.6491 27.792 13.6758 27.792C12.7691 27.792 11.9025 27.752 11.0758 27.672C10.2758 27.592 9.52912 27.4986 8.83578 27.392C9.34245 28.7253 10.1824 29.712 11.3558 30.352C12.5291 30.9653 13.7425 31.272 14.9958 31.272C16.8091 31.272 18.4091 30.952 19.7958 30.312C21.1825 29.6453 22.4891 28.632 23.7158 27.272L27.2758 32.392C26.4225 33.0853 25.4625 33.8053 24.3958 34.552C23.3558 35.2986 22.0758 35.912 20.5558 36.392C19.0358 36.8986 17.1558 37.152 14.9158 37.152ZM15.7958 17.832C14.2225 17.832 12.8358 18.232 11.6358 19.032C10.4358 19.832 9.55578 20.8853 8.99578 22.192C9.66245 22.2986 10.3158 22.392 10.9558 22.472C11.6225 22.5253 12.2758 22.552 12.9158 22.552C13.5025 22.552 14.1691 22.4986 14.9158 22.392C15.6891 22.2853 16.4358 22.1253 17.1558 21.912C17.9025 21.6986 18.5158 21.432 18.9958 21.112C19.4758 20.7653 19.7158 20.3653 19.7158 19.912C19.7158 19.6986 19.6091 19.432 19.3958 19.112C19.1825 18.792 18.7958 18.4986 18.2358 18.232C17.6758 17.9653 16.8625 17.832 15.7958 17.832ZM40.4548 37.112C39.0682 37.112 37.7082 36.872 36.3748 36.392C35.0682 35.912 33.8815 35.1653 32.8148 34.152C31.7748 33.1653 30.9482 31.9253 30.3348 30.432C29.7215 28.912 29.4148 27.1386 29.4148 25.112C29.4148 22.8186 29.7615 20.8453 30.4548 19.192C31.1748 17.512 32.1215 16.1386 33.2948 15.072C34.4682 13.9786 35.7748 13.1653 37.2148 12.632C38.6548 12.0986 40.0948 11.832 41.5348 11.832C42.3882 11.832 43.2015 11.8986 43.9748 12.032C44.7482 12.1386 45.4682 12.2986 46.1348 12.512C46.2148 10.5653 46.3082 8.6053 46.4148 6.63196C46.5482 4.65863 46.6948 2.71196 46.8548 0.791962L53.5748 1.23196C53.3615 3.4453 53.1748 5.83196 53.0148 8.39196C52.8548 10.9253 52.7348 13.512 52.6548 16.152C52.6015 18.792 52.5748 21.3653 52.5748 23.872C52.5748 26.2186 52.6015 28.4586 52.6548 30.592C52.7348 32.6986 52.8282 34.6186 52.9348 36.352L46.0148 36.872C45.9882 36.3653 45.9748 35.872 45.9748 35.392C45.2015 35.8986 44.3482 36.312 43.4148 36.632C42.5082 36.952 41.5215 37.112 40.4548 37.112ZM35.8548 24.752C35.8548 26.1386 36.1215 27.232 36.6548 28.032C37.1882 28.8053 37.8415 29.352 38.6148 29.672C39.3882 29.992 40.1348 30.152 40.8548 30.152C41.7082 30.152 42.5615 29.9653 43.4148 29.592C44.2682 29.2186 45.0682 28.5653 45.8148 27.632C45.8148 27.312 45.8148 27.0053 45.8148 26.712C45.8148 24.552 45.8415 22.3386 45.8948 20.072C44.6415 18.9786 43.2815 18.432 41.8148 18.432C41.2015 18.432 40.5482 18.5253 39.8548 18.712C39.1615 18.8986 38.5082 19.232 37.8948 19.712C37.3082 20.1653 36.8148 20.8053 36.4148 21.632C36.0415 22.432 35.8548 23.472 35.8548 24.752ZM65.6611 37.232C63.9544 37.232 62.5411 36.9253 61.4211 36.312C60.3278 35.7253 59.4478 34.912 58.7811 33.872C58.1411 32.832 57.6611 31.672 57.3411 30.392C57.0478 29.0853 56.8478 27.7386 56.7411 26.352C56.6611 24.9386 56.6211 23.5786 56.6211 22.272C56.6211 20.7786 56.6611 19.2586 56.7411 17.712C56.8478 16.1653 56.9544 14.472 57.0611 12.632L64.3811 12.192C64.3011 12.752 64.1811 13.592 64.0211 14.712C63.8611 15.832 63.7144 17.112 63.5811 18.552C63.4478 19.992 63.3811 21.4986 63.3811 23.072C63.3811 25.6586 63.6078 27.5786 64.0611 28.832C64.5144 30.0586 65.1944 30.672 66.1011 30.672C67.9144 30.672 69.2478 29.352 70.1011 26.712C70.9544 24.072 71.3811 19.8986 71.3811 14.192V12.352L74.7811 12.272L78.9011 12.192C78.5278 14.6986 78.2478 17.0053 78.0611 19.112C77.8744 21.2186 77.7544 22.992 77.7011 24.432C77.6478 25.8453 77.6211 26.792 77.6211 27.272C77.6211 28.4986 77.7278 29.3786 77.9411 29.912C78.1544 30.4186 78.5278 30.672 79.0611 30.672C79.3278 30.672 79.6211 30.6186 79.9411 30.512C80.2611 30.4053 80.6344 30.2186 81.0611 29.952L80.7811 36.832C79.7678 36.992 78.8878 37.072 78.1411 37.072C76.8611 37.072 75.8078 36.832 74.9811 36.352C74.1811 35.872 73.5411 35.232 73.0611 34.432C72.2344 35.312 71.2078 35.992 69.9811 36.472C68.7811 36.9786 67.3411 37.232 65.6611 37.232ZM96.1192 37.192C93.8792 37.192 91.8126 36.7253 89.9192 35.792C88.0259 34.8586 86.5059 33.5253 85.3592 31.792C84.2126 30.032 83.6392 27.9386 83.6392 25.512C83.6392 22.792 84.1726 20.4053 85.2392 18.352C86.3059 16.2986 87.7992 14.712 89.7192 13.592C91.6392 12.4453 93.8792 11.872 96.4392 11.872C98.8926 11.872 100.973 12.3786 102.679 13.392C104.386 14.3786 105.906 15.952 107.239 18.112L101.679 21.952C100.933 20.752 100.173 19.8453 99.3992 19.232C98.6259 18.592 97.5726 18.272 96.2392 18.272C94.4259 18.272 92.9592 18.912 91.8392 20.192C90.7192 21.4453 90.1592 23.1253 90.1592 25.232C90.1592 26.4586 90.4526 27.4586 91.0392 28.232C91.6526 29.0053 92.3992 29.5786 93.2792 29.952C94.1592 30.3253 94.9859 30.512 95.7592 30.512C96.5592 30.512 97.3326 30.4186 98.0792 30.232C98.8259 30.0186 99.5326 29.5653 100.199 28.872C100.866 28.1786 101.466 27.1253 101.999 25.712L107.999 28.912C107.199 30.3786 106.306 31.7386 105.319 32.992C104.333 34.2453 103.106 35.2586 101.639 36.032C100.199 36.8053 98.3592 37.192 96.1192 37.192ZM120.688 37.112C118.688 37.112 116.875 36.592 115.248 35.552C113.622 34.5386 112.328 33.1653 111.368 31.432C110.435 29.672 109.968 27.712 109.968 25.552C109.968 23.5253 110.342 21.6986 111.088 20.072C111.835 18.4186 112.848 17.0053 114.128 15.832C115.435 14.6586 116.915 13.7653 118.568 13.152C120.222 12.512 121.955 12.192 123.768 12.192C125.288 12.192 126.782 12.4053 128.248 12.832C128.355 12.272 128.448 11.712 128.528 11.152L135.368 12.312C135.182 12.8186 134.995 13.5786 134.808 14.592C134.622 15.6053 134.462 16.7386 134.328 17.992C134.222 19.2453 134.128 20.4986 134.048 21.752C133.968 23.0053 133.928 24.1386 133.928 25.152C133.928 25.9786 133.982 26.792 134.088 27.592C134.222 28.3653 134.488 29.0053 134.888 29.512C135.288 29.992 135.902 30.232 136.728 30.232H137.288L136.288 37.192C134.528 37.192 133.075 36.8853 131.928 36.272C130.782 35.6853 129.862 34.8853 129.168 33.872C128.022 35.152 126.715 36.0053 125.248 36.432C123.782 36.8853 122.262 37.112 120.688 37.112ZM116.528 26.352C116.662 27.632 117.182 28.6586 118.088 29.432C119.022 30.1786 120.195 30.552 121.608 30.552C122.968 30.552 124.102 30.192 125.008 29.472C125.915 28.7253 126.662 27.712 127.248 26.432C127.222 26.0053 127.208 25.5653 127.208 25.112C127.208 24.1786 127.235 23.2186 127.288 22.232C127.342 21.2453 127.408 20.272 127.488 19.312C126.368 18.8853 125.195 18.672 123.968 18.672C122.528 18.672 121.235 18.9653 120.088 19.552C118.968 20.112 118.088 20.8986 117.448 21.912C116.808 22.9253 116.488 24.0986 116.488 25.432C116.488 25.592 116.488 25.752 116.488 25.912C116.488 26.072 116.502 26.2186 116.528 26.352ZM151.789 37.112C150.189 37.112 148.922 36.7653 147.989 36.072C147.056 35.4053 146.376 34.472 145.949 33.272C145.522 32.072 145.242 30.6986 145.109 29.152C145.002 27.6053 144.949 25.9786 144.949 24.272C144.949 22.512 145.016 20.6853 145.149 18.792C143.362 19.032 141.642 19.3386 139.989 19.712L138.749 13.432C140.962 12.8453 143.322 12.4186 145.829 12.152C146.016 10.792 146.216 9.3653 146.429 7.87196C146.642 6.35196 146.882 4.75196 147.149 3.07196L154.029 3.67196C153.709 5.05863 153.429 6.4453 153.189 7.83196C152.949 9.19196 152.736 10.512 152.549 11.792C154.042 11.792 155.442 11.832 156.749 11.912C158.082 11.9653 159.309 12.072 160.429 12.232L159.629 18.512C158.696 18.4053 157.722 18.3386 156.709 18.312C155.722 18.2586 154.722 18.232 153.709 18.232C153.096 18.232 152.482 18.2453 151.869 18.272C151.709 20.2186 151.602 21.8853 151.549 23.272C151.522 24.6586 151.509 25.6453 151.509 26.232C151.509 27.6986 151.589 28.752 151.749 29.392C151.936 30.032 152.229 30.352 152.629 30.352C153.082 30.352 153.589 30.2053 154.149 29.912C154.709 29.592 155.256 29.1653 155.789 28.632C156.349 28.0986 156.816 27.5253 157.189 26.912L160.269 33.352C157.629 35.8586 154.802 37.112 151.789 37.112ZM163.145 8.11196C163.145 7.87196 163.132 7.63196 163.105 7.39196C163.105 7.1253 163.105 6.83196 163.105 6.51196C163.105 5.65863 163.132 4.75196 163.185 3.79196C163.239 2.83196 163.292 2.01863 163.345 1.35196L170.465 1.47196C170.385 2.37863 170.292 3.4053 170.185 4.55196C170.105 5.69863 170.052 6.8853 170.025 8.11196H163.145ZM162.985 36.752C162.905 35.0986 162.852 33.3386 162.825 31.472C162.799 29.5786 162.785 27.6853 162.785 25.792C162.785 23.312 162.812 20.8986 162.865 18.552C162.919 16.2053 162.985 14.072 163.065 12.152L169.945 12.112C169.839 13.3386 169.772 14.8586 169.745 16.672C169.719 18.4586 169.705 20.3386 169.705 22.312C169.705 24.2586 169.719 26.1786 169.745 28.072C169.772 29.9653 169.799 31.6853 169.825 33.232C169.879 34.752 169.919 35.9253 169.945 36.752H162.985ZM185.692 37.232C183.559 37.232 181.692 36.8853 180.092 36.192C178.519 35.4986 177.212 34.552 176.172 33.352C175.132 32.1253 174.359 30.7253 173.852 29.152C173.346 27.5786 173.092 25.9253 173.092 24.192C173.092 22.432 173.399 20.8053 174.012 19.312C174.652 17.792 175.519 16.472 176.612 15.352C177.732 14.232 179.039 13.3653 180.532 12.752C182.026 12.112 183.652 11.792 185.412 11.792C187.252 11.792 188.959 12.112 190.532 12.752C192.106 13.392 193.479 14.2853 194.652 15.432C195.826 16.5786 196.732 17.9253 197.372 19.472C198.039 21.0186 198.372 22.6986 198.372 24.512C198.372 28.5386 197.266 31.672 195.052 33.912C192.839 36.1253 189.719 37.232 185.692 37.232ZM185.652 30.752C187.599 30.752 189.079 30.2053 190.092 29.112C191.132 28.0186 191.652 26.4453 191.652 24.392C191.652 22.552 191.092 21.072 189.972 19.952C188.852 18.832 187.386 18.272 185.572 18.272C184.479 18.272 183.479 18.5653 182.572 19.152C181.666 19.712 180.932 20.472 180.372 21.432C179.839 22.3653 179.572 23.4053 179.572 24.552C179.572 25.5653 179.772 26.552 180.172 27.512C180.599 28.472 181.266 29.2586 182.172 29.872C183.079 30.4586 184.239 30.752 185.652 30.752ZM201.828 36.832C201.748 34.4853 201.681 32.312 201.628 30.312C201.601 28.312 201.588 26.3386 201.588 24.392C201.588 22.4453 201.601 20.4986 201.628 18.552C201.681 16.5786 201.761 14.472 201.868 12.232H208.628C208.521 13.432 208.428 14.6453 208.348 15.872C209.254 14.7253 210.334 13.7786 211.588 13.032C212.841 12.2586 214.321 11.872 216.028 11.872C217.708 11.872 219.081 12.152 220.148 12.712C221.241 13.272 222.094 14.0453 222.708 15.032C223.348 16.0186 223.801 17.152 224.068 18.432C224.361 19.6853 224.548 21.0453 224.628 22.512C224.708 23.952 224.748 25.4053 224.748 26.872C224.748 28.472 224.721 30.0053 224.668 31.472C224.614 32.9386 224.561 34.1653 224.508 35.152C224.454 36.1386 224.414 36.7253 224.388 36.912H217.668C217.721 35.8186 217.774 34.6586 217.828 33.432C217.881 32.1786 217.934 30.952 217.988 29.752C218.041 28.5253 218.068 27.4186 218.068 26.432C218.068 20.752 217.148 17.912 215.308 17.912C213.788 17.912 212.401 18.5786 211.148 19.912C209.921 21.2186 208.894 22.872 208.068 24.872C208.068 25.1386 208.068 25.4053 208.068 25.672C208.068 26.952 208.068 28.2853 208.068 29.672C208.094 31.032 208.121 32.3386 208.148 33.592C208.201 34.8186 208.241 35.8853 208.268 36.792L201.828 36.832Z" fill="#FFD633"/>
<path d="M148.885 2.26446C150.75 2.37077 152.311 2.82646 153.345 3.81134C154.205 4.63143 154.511 5.70473 154.424 6.88946L154.072 8.92071C154.06 9.145 154.075 9.32556 154.111 9.46759C154.174 9.71754 154.303 9.89388 154.533 10.0379C155.174 10.4365 156.149 10.6415 157.572 10.4988C158.479 10.4078 159.423 10.5478 160.072 11.2488C160.706 11.9344 160.805 12.8914 160.697 13.8113C160.596 14.67 160.431 15.4239 160.174 16.0379C159.918 16.6472 159.535 17.2049 158.955 17.5379C158.166 17.9893 156.944 18.356 155.4 18.6707C154.125 18.9305 153.503 19.5014 153.236 20.2879C152.846 21.437 152.514 22.7454 152.244 24.2176C152.004 25.5277 152.143 26.947 152.705 28.491C152.838 28.8562 152.965 29.0818 153.064 29.2098C153.082 29.233 153.09 29.2582 153.103 29.2723H153.127C153.227 29.2223 153.4 29.0987 153.635 28.8426C154.272 28.1479 154.989 27.625 155.791 27.3895C156.617 27.1477 157.445 27.2371 158.228 27.6082C158.956 27.9529 159.55 28.4497 159.947 29.116C160.343 29.7808 160.497 30.5424 160.463 31.3504C160.396 32.9207 159.755 34.3905 158.635 35.7488C157.49 37.1359 156.045 38.072 154.322 38.5223C153.551 38.7236 152.888 38.8491 152.392 38.866C152.16 38.8739 151.838 38.866 151.541 38.741C151.379 38.6728 151.182 38.5512 151.025 38.3426C150.968 38.267 150.936 38.1817 150.9 38.1004C150.881 38.0917 150.856 38.0796 150.83 38.0692C150.534 37.9523 150.028 37.8207 149.267 37.6863C148.338 37.5221 147.512 37.1576 146.838 36.577C146.165 35.9966 145.692 35.2361 145.392 34.3426C144.851 32.726 144.612 31.0964 144.689 29.4598C144.757 28.0205 144.683 26.5832 144.463 25.1473C144.232 23.6438 144.038 22.3359 143.885 21.2254C143.843 20.9229 143.734 20.8007 143.611 20.7254C143.438 20.621 143.085 20.517 142.431 20.5535C141.522 20.6046 140.653 20.4322 139.97 19.8817C139.283 19.3266 138.94 18.5124 138.822 17.616C138.614 16.0255 138.794 14.5996 139.58 13.5145C140.437 12.3324 141.895 11.9174 143.556 11.952C144.117 11.9639 144.466 11.8181 144.705 11.6004C144.961 11.3671 145.207 10.9468 145.353 10.2098C145.677 8.57935 145.734 7.04794 145.525 5.60821C145.389 4.66935 145.509 3.69847 146.228 3.01446C146.913 2.36397 147.899 2.20844 148.885 2.26446ZM99.3064 11.9598C100.819 12.1186 102.364 12.4721 103.939 13.0145C104.813 13.3155 105.562 13.7627 106.119 14.3895C106.683 15.0247 107.001 15.7941 107.095 16.6551C107.286 18.3994 106.562 19.8575 105.111 20.952C104.403 21.4855 103.637 21.8331 102.822 21.8817C101.989 21.9308 101.218 21.6625 100.541 21.1551C99.6478 20.4851 98.5518 20.0282 97.2283 19.8113C96.0402 19.6168 95.1231 19.8917 94.3611 20.5848C93.4182 21.4425 92.5437 22.4598 91.7439 23.6473C91.0912 24.6167 90.9207 25.7466 91.322 27.1395C91.516 27.8126 91.8062 28.2809 92.1658 28.6004C92.5241 28.9186 93.0117 29.1443 93.6736 29.241C95.1595 29.4579 96.4749 29.3068 97.6502 28.827C98.9323 28.3033 99.8711 27.7122 100.51 27.077C101.073 26.5176 101.782 26.2189 102.58 26.241C103.336 26.2628 104.091 26.5716 104.814 27.0301C106.178 27.8952 107.184 28.9355 107.47 30.2098C107.763 31.5148 107.217 32.9203 106.267 34.3113C105.194 35.8846 103.661 36.7865 101.752 36.9754C100.225 37.1268 99.0437 37.4693 98.1658 37.9676C97.6414 38.2652 97.1744 38.5006 96.8064 38.616C96.6525 38.6643 96.3501 38.7495 96.0252 38.6863C95.834 38.6492 95.5717 38.549 95.3689 38.3035C95.3592 38.2918 95.3545 38.2763 95.3455 38.2645C95.0373 38.2146 94.5247 38.1876 93.7752 38.1863C91.9906 38.1836 90.3725 37.6318 88.9627 36.5379C87.6323 35.5046 86.5593 34.2901 85.7595 32.9051C85.0095 31.6061 84.3394 30.2706 83.7517 28.8973C83.1349 27.4558 82.7566 25.912 82.6189 24.2723C82.4739 22.5439 82.8091 20.8978 83.6111 19.3582C84.3739 17.8943 85.3311 16.6078 86.4861 15.5067C87.6126 14.4331 88.8463 13.4967 90.1814 12.702C91.6288 11.8407 93.2153 11.4613 94.9002 11.577C96.3935 11.6795 97.8644 11.8087 99.3064 11.9598ZM48.7908 0.0300889C50.3872 -0.11261 51.7953 0.243833 52.822 1.28009C53.8346 2.30293 54.239 3.7481 54.2127 5.42071C54.1892 6.89215 54.2668 8.37123 54.4392 9.8504C54.6343 11.5276 54.4346 13.187 53.8611 14.8192C53.3562 16.2554 53.0028 17.6998 52.7908 19.1473C52.5874 20.5368 52.6376 21.9292 52.9548 23.327C53.3118 24.8993 53.5324 26.4724 53.6033 28.0457C53.6737 29.6107 53.617 31.1816 53.4392 32.7567C53.2623 34.3231 52.7052 35.8318 51.2439 36.2254C50.388 36.4557 49.2326 36.6719 47.7986 36.8817C46.4744 37.0754 45.4586 37.4336 44.7048 37.9129C43.623 38.6016 42.4525 38.871 41.2986 38.4676C40.658 38.2439 39.6032 38.0766 38.0642 38.0145C36.2478 37.9412 34.666 37.2581 33.3689 35.9832C32.154 34.7889 31.2535 33.4338 30.6814 31.9207C30.1565 30.5317 29.67 29.1232 29.2361 27.6942C28.7823 26.1997 28.5256 24.6341 28.4627 23.0067C28.3951 21.2589 28.8373 19.6307 29.7673 18.1473C30.6503 16.7392 31.7233 15.5369 32.9939 14.5535C34.2246 13.6011 35.5431 12.7938 36.947 12.1317C38.472 11.4126 40.0842 11.1931 41.7439 11.4832C42.9476 11.6929 43.8339 11.4442 44.533 10.827C45.1498 10.2811 45.4227 9.4963 45.1111 8.21759C44.6968 6.51548 44.7186 4.82766 45.1892 3.17071C45.4385 2.29365 45.8551 1.53528 46.4861 0.975401C47.1244 0.409781 47.9141 0.108751 48.7908 0.0300889ZM61.3611 11.6004C62.1682 11.4905 63.0676 11.5173 63.7205 12.0457C64.4617 12.6471 64.5146 13.5605 64.3611 14.3192C64.1289 15.4624 64.0098 16.7761 64.0173 18.2567C64.0249 19.6911 64.2379 21.113 64.6658 22.5223C65.1477 24.1098 65.3957 25.6961 65.4002 27.2801C65.4018 27.9021 65.5374 28.21 65.6502 28.3504C65.7388 28.4601 65.9059 28.5797 66.3142 28.6004C67.1114 28.6402 67.8142 28.3027 68.4548 27.2879C69.1608 26.1682 69.5845 24.9287 69.7283 23.5692C69.8798 22.1354 69.8778 20.6982 69.7127 19.2567C69.5223 17.5954 69.6876 15.9391 70.2127 14.3035C70.494 13.4282 70.9549 12.6651 71.6814 12.202C72.4311 11.7247 73.2967 11.6742 74.158 11.8895C75.4875 12.222 76.5652 12.4423 77.4002 12.5535C78.1829 12.6578 78.7949 13.1035 79.1267 13.8192C79.4227 14.4586 79.4652 15.2476 79.3923 16.0692C79.2539 17.6261 79.0045 19.1778 78.6345 20.7176C78.2855 22.1701 78.0249 23.6397 77.8611 25.1238C77.7201 26.4014 78.0429 27.3293 78.7361 28.0379C79.6707 28.9933 80.5715 29.9178 81.4392 30.8035C81.9905 31.3669 82.3636 32.0321 82.4627 32.7957C82.5608 33.5567 82.3768 34.3098 82.0017 35.0145C81.2328 36.4583 79.8799 37.3688 78.1267 37.827C76.4671 38.2605 74.9318 38.2657 73.7595 37.491C73.3257 37.2037 72.5223 37.0839 71.0798 37.5692C69.5089 38.098 68.1922 38.4389 67.1658 38.5613C66.6915 38.6178 66.2709 38.6434 65.947 38.6238C65.7974 38.6148 65.576 38.589 65.3611 38.4988C65.273 38.4617 65.1532 38.3741 65.0252 38.2567C64.9882 38.2484 64.9437 38.2426 64.8923 38.2332C64.551 38.1707 63.9997 38.1062 63.2205 38.0457C61.3365 37.8995 59.8359 37.0128 58.7986 35.4363C57.8526 33.9986 57.2673 32.4573 57.0642 30.8192C56.8853 29.3761 56.6311 27.9347 56.3064 26.4988C55.9693 25.0077 55.6853 23.492 55.4548 21.952C55.2119 20.3276 55.2338 18.7043 55.5252 17.0926C55.8193 15.4681 56.4126 14.1227 57.408 13.2176C58.3839 12.3301 59.7435 11.8212 61.3611 11.6004ZM206.447 11.4285C207.856 11.5709 209.075 12.1237 209.635 13.3582C209.661 13.4173 209.674 13.4272 209.666 13.4207C209.655 13.4128 209.666 13.4215 209.728 13.4285C209.888 13.4457 210.237 13.4056 210.838 13.1395C212.23 12.523 213.655 12.0679 215.111 11.7801C216.61 11.4839 218.21 11.4495 219.9 11.6551C220.853 11.771 221.708 12.0932 222.416 12.6551C223.122 13.2164 223.63 13.9727 223.963 14.8738C224.54 16.4378 224.995 17.9927 225.322 19.5301C225.655 21.0995 225.783 22.6861 225.705 24.2879C225.632 25.7747 225.631 27.266 225.697 28.7488C225.764 30.2335 225.888 31.726 226.08 33.2254C226.196 34.1275 226.099 35.0067 225.611 35.7254C225.113 36.4584 224.332 36.8493 223.455 37.0067C222.01 37.2657 220.77 37.3414 219.806 37.1473C219.084 37.0012 218.544 36.5356 218.174 35.9442C217.815 35.372 217.582 34.6376 217.431 33.8113C217.143 32.226 216.997 30.6442 217.002 29.0692C217.006 27.5211 217.092 25.9609 217.26 24.3895C217.405 23.0192 217.224 21.5922 216.681 20.1004C216.432 19.4151 216.161 19.1927 216.002 19.1238C215.855 19.0606 215.544 19.017 214.939 19.3113C213.601 19.9628 212.655 20.8159 212.041 21.8504C211.297 23.1056 210.472 24.3751 209.564 25.6473C208.864 26.629 208.704 27.6729 209.103 28.8895C209.621 30.467 209.945 32.0526 210.08 33.6395C210.159 34.5736 209.98 35.4545 209.431 36.1785C208.89 36.8923 208.083 37.3365 207.15 37.5848C205.537 38.0137 204.205 38.2572 203.197 38.2879C202.738 38.3018 202.327 38.2983 202.01 38.2488C201.861 38.2256 201.648 38.1753 201.447 38.0692C201.25 37.9651 200.833 37.665 200.83 37.0848C200.83 37.1241 200.834 37.1123 200.814 36.9754C200.798 36.863 200.772 36.704 200.736 36.4988C200.665 36.0903 200.559 35.513 200.416 34.7645C200.106 33.1459 200.077 31.5147 200.33 29.8817C200.566 28.3623 200.797 26.8463 201.033 25.3348C201.254 23.9186 201.271 22.5012 201.08 21.0848C200.875 19.5664 200.684 18.0404 200.502 16.5145C200.397 15.6348 200.462 14.8005 200.775 14.0613C201.095 13.3072 201.642 12.7161 202.361 12.3035C203.631 11.5753 205.005 11.2829 206.447 11.4285ZM184.088 11.5067C185.581 11.6105 187.053 11.756 188.502 11.9363C189.993 12.122 191.535 12.4496 193.119 12.9207C194.928 13.459 196.261 14.6053 197.056 16.3113C197.747 17.7945 198.332 19.2873 198.806 20.7801C199.311 22.3693 199.456 23.9971 199.236 25.6473C199.029 27.2052 198.691 28.7329 198.236 30.2254C197.764 31.771 197.043 33.2432 196.072 34.6317C194.986 36.184 193.456 37.0553 191.564 37.2098C189.933 37.3429 188.511 37.3607 187.306 37.2567C186.952 37.2259 186.703 37.2453 186.541 37.2567C186.433 37.4591 186.284 37.6164 186.135 37.7254C185.888 37.9047 185.6 38.0068 185.353 38.0692C184.846 38.1966 184.162 38.2536 183.361 38.2645C181.567 38.2887 179.943 37.7369 178.533 36.6238C177.203 35.5735 176.15 34.3362 175.392 32.9129C174.695 31.6022 174.034 30.2658 173.408 28.9129C172.748 27.4866 172.296 25.9624 172.056 24.3426C171.8 22.6075 172.073 20.9343 172.861 19.366C173.606 17.8857 174.559 16.5844 175.713 15.4754C176.834 14.3984 178.057 13.4532 179.385 12.6473C180.827 11.7717 182.406 11.3899 184.088 11.5067ZM17.5408 11.6942C19.0758 11.7038 20.6636 11.8858 22.2986 12.241C24.2175 12.6579 25.5429 13.8472 26.1736 15.7098C26.7305 17.3548 26.9598 19.006 26.8611 20.6551C26.7545 22.4297 26.0316 23.936 24.7048 25.1082C23.4937 26.1774 22.1326 27.0156 20.6345 27.6238C19.1967 28.2073 17.6984 28.6998 16.1423 29.0926C14.4229 29.5265 12.7108 29.4036 11.0408 28.741C11.0503 28.7641 11.0617 28.7872 11.072 28.8113C11.3363 29.4272 11.6723 29.8171 12.0408 30.0535C12.4095 30.2892 12.8988 30.4285 13.5564 30.4051C15.1092 30.3496 16.5529 30.1071 17.8923 29.6863C19.2437 29.2616 20.3482 28.7226 21.2205 28.0848C21.8815 27.6009 22.6863 27.3408 23.5252 27.6238C24.2959 27.884 24.8648 28.5292 25.2986 29.2645C26.1243 30.6659 26.5577 32.0475 26.3455 33.3348C26.1222 34.688 25.1186 35.823 23.7205 36.7879C22.1832 37.8481 20.4495 38.2093 18.5877 37.8738C17.8078 37.7331 17.1957 37.6599 16.7439 37.6473C16.5194 37.6411 16.3501 37.6545 16.2283 37.6707C16.1323 37.6836 16.0852 37.6974 16.072 37.702C15.682 37.8916 15.1711 38.0006 14.6345 38.0692C14.0754 38.1405 13.388 38.1796 12.5877 38.1942C10.8085 38.2259 9.18326 37.7119 7.74391 36.6629C6.38248 35.6703 5.27297 34.4912 4.43141 33.1317C3.64424 31.8598 2.93045 30.5501 2.29078 29.202C1.61377 27.7749 1.1963 26.2316 1.04078 24.5848C0.877641 22.8536 1.20464 21.204 2.00953 19.6629C2.77056 18.2059 3.71606 16.9163 4.84547 15.7957C5.94943 14.7005 7.15369 13.7319 8.46266 12.8973C9.88215 11.9923 11.4522 11.565 13.1423 11.616C14.6246 11.6608 16.0908 11.685 17.5408 11.6942ZM130.845 10.2957C131.751 10.1815 132.616 10.2531 133.361 10.6082C134.126 10.9734 134.673 11.5948 135.01 12.3817C135.591 13.7425 135.79 15.2586 135.65 16.8973C135.52 18.4208 135.35 19.9461 135.127 21.4676C134.919 22.8849 134.889 24.2983 135.049 25.7098C135.184 26.9124 135.748 27.8477 136.791 28.5692C137.565 29.1048 138.145 29.7971 138.369 30.6707C138.591 31.5403 138.418 32.4315 138.01 33.2879C137.65 34.041 137.277 34.6805 136.885 35.1863C136.498 35.6844 136.046 36.1124 135.51 36.3504C134.524 36.7868 133.219 36.6685 131.814 36.2957C130.603 35.9748 129.561 36.0008 128.65 36.3113C127.43 36.7282 126.039 37.0048 124.494 37.1551C123.771 37.2254 123.188 37.3085 122.736 37.3973C122.272 37.4885 122.004 37.5767 121.877 37.6395C121.45 37.8518 120.905 37.9388 120.353 37.9754C119.776 38.0136 119.076 38.0001 118.267 37.9442C116.446 37.818 114.885 37.0828 113.642 35.7488C112.487 34.5086 111.631 33.123 111.088 31.6082C110.586 30.2079 110.141 28.7872 109.744 27.3504C109.323 25.8273 109.155 24.2402 109.244 22.5926C109.338 20.8381 109.943 19.2601 111.041 17.8895C112.074 16.6005 113.265 15.5138 114.611 14.6473C115.907 13.8132 117.262 13.0866 118.674 12.4676C120.208 11.7947 121.814 11.5823 123.47 11.827C124.796 12.0231 125.829 11.8696 126.627 11.4676C127.787 10.8833 129.204 10.5029 130.845 10.2957ZM64.658 37.4832C64.6582 37.6029 64.6884 37.7057 64.7205 37.7957C64.6922 37.7011 64.6581 37.6 64.658 37.4832ZM163.4 11.9129C164.779 10.8039 166.432 10.5 168.236 10.9207C169.154 11.1349 169.948 11.5441 170.541 12.1942C171.137 12.8479 171.46 13.6706 171.556 14.5926C171.731 16.2599 171.506 17.9193 170.9 19.5613C170.394 20.9334 170.218 22.2944 170.361 23.6473C170.516 25.1176 170.766 26.5866 171.111 28.0535C171.511 29.7538 171.416 31.4656 170.83 33.1629C170.29 34.7282 169.6 35.9896 168.65 36.6551C167.753 37.2831 166.516 37.5835 165.08 37.6707C164.404 37.7117 163.893 37.7394 163.549 37.7567C163.378 37.7652 163.238 37.7695 163.142 37.7723C163.097 37.7736 163.045 37.7807 163.002 37.7801C162.984 37.7798 162.94 37.777 162.892 37.7723C162.872 37.7703 162.807 37.7622 162.728 37.741C162.695 37.732 162.583 37.7054 162.463 37.6317C162.402 37.5943 162.165 37.4354 162.049 37.1317L161.986 36.7723V36.6942C161.987 36.6812 161.993 36.6689 161.994 36.6629C161.995 36.6529 161.993 36.6444 161.994 36.6395C161.995 36.6307 162.001 36.6216 162.002 36.616C162.004 36.604 161.999 36.5829 162.002 36.5692C162.006 36.5418 162.017 36.5056 162.025 36.4598C162.042 36.3612 162.063 36.2124 162.095 36.0223C162.161 35.6383 162.261 35.0627 162.392 34.3035C162.623 32.9723 162.489 31.6416 161.97 30.2957C161.326 28.6237 161.156 26.924 161.486 25.2176C161.761 23.7971 161.832 22.3787 161.697 20.9598C161.55 19.4202 161.462 17.8753 161.424 16.3348C161.379 14.5301 162.03 13.0156 163.4 11.9129ZM97.1189 37.5848C97.1187 37.5138 97.101 37.4188 97.0642 37.3113C97.0854 37.3965 97.1188 37.4839 97.1189 37.5848ZM148.767 4.26446C147.983 4.2201 147.697 4.38559 147.611 4.46759C147.56 4.5163 147.411 4.69377 147.502 5.31915C147.747 7.00877 147.685 8.77186 147.322 10.6004C147.125 11.5939 146.733 12.4688 146.056 13.0848C145.363 13.7164 144.478 13.9723 143.517 13.952C142.137 13.9228 141.493 14.278 141.197 14.6863C140.831 15.1919 140.632 16.0248 140.806 17.3582C140.881 17.9251 141.062 18.1929 141.228 18.327C141.399 18.4636 141.714 18.5867 142.314 18.5535C143.171 18.5054 143.996 18.6176 144.658 19.0223C145.368 19.4569 145.758 20.15 145.869 20.952C146.021 22.0496 146.21 23.3463 146.439 24.8426C146.679 26.4091 146.763 27.9804 146.689 29.5535C146.624 30.9299 146.823 32.3154 147.291 33.7098C147.495 34.3186 147.791 34.7518 148.15 35.0613C148.51 35.3712 148.985 35.5978 149.619 35.7098C150.419 35.8512 151.085 36.0167 151.572 36.2098C151.81 36.3043 152.068 36.4289 152.283 36.6082C152.351 36.6654 152.414 36.7525 152.486 36.8426C152.767 36.8129 153.202 36.7444 153.814 36.5848C155.125 36.2426 156.206 35.5438 157.088 34.4754C157.992 33.3786 158.418 32.3142 158.463 31.2645C158.484 30.7627 158.387 30.4057 158.228 30.1395C158.07 29.8743 157.807 29.6203 157.369 29.4129C156.991 29.2348 156.668 29.2192 156.353 29.3113C156.012 29.4118 155.588 29.6659 155.103 30.1942C154.505 30.8464 153.64 31.5028 152.619 31.2332C152.126 31.103 151.752 30.7894 151.478 30.4363C151.208 30.087 150.995 29.6534 150.822 29.1785C150.159 27.3561 149.961 25.5723 150.275 23.8582C150.559 22.309 150.919 20.9053 151.345 19.6473C151.895 18.0259 153.21 17.0742 154.994 16.7098C156.51 16.401 157.469 16.0862 157.963 15.8035C158.025 15.7668 158.172 15.6412 158.33 15.2645C158.488 14.8863 158.623 14.3343 158.713 13.577C158.795 12.8771 158.647 12.655 158.603 12.6082C158.575 12.5778 158.411 12.4275 157.775 12.491C156.11 12.6583 154.634 12.4595 153.478 11.741C152.812 11.3269 152.365 10.7132 152.174 9.95196C151.991 9.22421 152.056 8.41939 152.275 7.59259C152.613 6.31878 152.379 5.65278 151.963 5.25665C151.432 4.75242 150.44 4.35959 148.767 4.26446ZM48.9705 2.02228C48.4521 2.06863 48.0851 2.22812 47.8142 2.46759C47.5364 2.71378 47.2844 3.10785 47.1111 3.71759C46.7373 5.03401 46.7134 6.37335 47.0486 7.74884C47.4871 9.54875 47.1703 11.1596 45.8611 12.3192C44.6338 13.4052 43.0982 13.7502 41.3923 13.452C40.1407 13.2339 38.9498 13.3935 37.7986 13.9363C36.5276 14.5358 35.3357 15.2689 34.2205 16.1317C33.1438 16.9649 32.2185 17.9916 31.4548 19.2098C30.7391 20.3524 30.4108 21.5842 30.4627 22.9285C30.5193 24.3932 30.749 25.7862 31.1502 27.1082C31.5712 28.4947 32.0396 29.8629 32.5486 31.2098C33.011 32.4333 33.7429 33.5544 34.7673 34.5613C35.7103 35.4882 36.8228 35.9611 38.1423 36.0145C39.7379 36.0788 41.0365 36.2532 41.9627 36.577C42.3753 36.7206 42.8978 36.6892 43.6267 36.2254C44.6845 35.552 45.9941 35.1268 47.5095 34.9051C48.9151 34.6995 49.9833 34.4886 50.7283 34.2879C50.8704 34.2482 51.2881 34.0088 51.4548 32.5379C51.6211 31.0662 51.6688 29.5978 51.6033 28.1395C51.538 26.6888 51.3405 25.2311 51.0095 23.7723C50.6385 22.138 50.5667 20.4958 50.8064 18.8582C51.0376 17.2786 51.4321 15.7087 51.9783 14.1551C52.4543 12.7995 52.6062 11.442 52.447 10.077C52.2648 8.51231 52.1878 6.94889 52.2127 5.38946C52.2341 4.03153 51.902 3.19322 51.4002 2.68634C50.9122 2.19467 50.1654 1.91547 48.9705 2.02228ZM61.6267 13.5848C60.2388 13.7746 59.3205 14.1772 58.7517 14.6942C58.2022 15.1939 57.7447 16.0596 57.4939 17.4442C57.241 18.8409 57.2205 20.2452 57.4314 21.6551C57.6548 23.1485 57.9331 24.618 58.2595 26.0613C58.5986 27.5608 58.8615 29.0676 59.0486 30.577C59.2119 31.8914 59.6755 33.1464 60.4627 34.3426C61.1589 35.4002 62.1074 35.955 63.3767 36.0535C64.1716 36.1153 64.8056 36.1828 65.2517 36.2645C65.4651 36.3036 65.6875 36.3544 65.8767 36.4285C65.9583 36.4607 66.0858 36.5215 66.2127 36.616C66.3693 36.6131 66.604 36.6082 66.9314 36.5692C67.7564 36.4707 68.9175 36.183 70.4392 35.6707C72.0881 35.1157 73.6525 35.0193 74.8611 35.8192C75.3312 36.1305 76.1716 36.2674 77.6189 35.8895C78.9736 35.5356 79.7912 34.9051 80.2361 34.0692C80.4666 33.635 80.5107 33.3053 80.4783 33.0535C80.4462 32.806 80.3241 32.5233 80.0095 32.202C79.1415 31.3159 78.2414 30.392 77.3064 29.4363C76.1291 28.2329 75.6809 26.6795 75.8767 24.9051C76.0498 23.3374 76.3205 21.7831 76.6892 20.2488C77.0362 18.8045 77.2705 17.3537 77.4002 15.8973C77.4611 15.2116 77.3865 14.8359 77.3064 14.6629C77.2729 14.5908 77.2482 14.5723 77.2439 14.5692C77.2394 14.5658 77.2123 14.5483 77.1345 14.5379C76.1965 14.4128 75.0402 14.1688 73.6736 13.827C73.1871 13.7054 72.9175 13.7838 72.7517 13.8895C72.5631 14.0108 72.32 14.2943 72.1189 14.9207C71.6781 16.2951 71.5404 17.6625 71.697 19.0301C71.8787 20.6161 71.8874 22.2001 71.7205 23.7801C71.5454 25.4357 71.0226 26.9659 70.1502 28.3504C69.213 29.8369 67.8861 30.6845 66.2127 30.6004C65.3861 30.5585 64.6195 30.2626 64.0877 29.6004C63.5812 28.9687 63.4024 28.147 63.4002 27.2879C63.3965 25.9091 63.1806 24.5132 62.7517 23.1004C62.2691 21.5101 62.0257 19.8967 62.0173 18.2645C62.0092 16.6766 62.1353 15.2247 62.4002 13.9207C62.4356 13.745 62.4215 13.6392 62.4158 13.5848C62.3921 13.5782 62.3572 13.5675 62.3142 13.5613C62.1683 13.541 61.943 13.5416 61.6267 13.5848ZM94.7595 13.577C93.4784 13.4891 92.3012 13.7684 91.2048 14.4207C89.9988 15.1386 88.8871 15.9817 87.8689 16.952C86.8795 17.8949 86.0505 19.0024 85.3845 20.2801C84.757 21.4847 84.4976 22.7573 84.6111 24.1082C84.7321 25.5459 85.0613 26.8771 85.5877 28.1082C86.144 29.4084 86.7833 30.6743 87.4939 31.9051C88.1553 33.0505 89.0486 34.066 90.1892 34.952C91.2498 35.7756 92.4326 36.1843 93.7752 36.1863C94.5684 36.1876 95.2215 36.2231 95.697 36.3035C95.9251 36.3422 96.1915 36.4048 96.4236 36.5223C96.4435 36.5323 96.4608 36.5545 96.4861 36.5692C96.6541 36.4905 96.8911 36.398 97.1814 36.2332C98.3744 35.5561 99.8464 35.1526 101.556 34.9832C102.886 34.8516 103.884 34.2628 104.619 33.1863C105.476 31.9309 105.631 31.122 105.525 30.6473C105.412 30.1426 104.94 29.4767 103.744 28.7176C103.186 28.3641 102.781 28.2483 102.517 28.241C102.297 28.2358 102.111 28.3043 101.916 28.4988C101.035 29.3747 99.8479 30.0903 98.408 30.6785C96.8611 31.3103 95.1785 31.4795 93.3845 31.2176C92.4054 31.0744 91.5355 30.7122 90.8377 30.0926C90.1428 29.4747 89.6771 28.6549 89.4002 27.6942C88.8589 25.8161 89.0511 24.058 90.0798 22.5301C90.9607 21.222 91.9435 20.0772 93.0173 19.1004C94.272 17.9607 95.8191 17.5524 97.5486 17.8348C99.145 18.0963 100.551 18.6651 101.736 19.5535C102.097 19.8243 102.415 19.9066 102.705 19.8895C103.012 19.8708 103.41 19.7332 103.908 19.3582C104.875 18.6289 105.214 17.8236 105.111 16.8738C105.058 16.3894 104.891 16.0159 104.627 15.7176C104.354 15.4104 103.928 15.1248 103.291 14.9051C101.843 14.4063 100.443 14.0932 99.0955 13.952C97.677 13.8034 96.231 13.6779 94.7595 13.577ZM206.244 13.4129C205.226 13.3105 204.275 13.5218 203.361 14.0457C202.988 14.2596 202.755 14.523 202.619 14.8426C202.478 15.1762 202.41 15.6413 202.486 16.2801C202.667 17.7944 202.861 19.3046 203.064 20.8113C203.281 22.4204 203.26 24.0321 203.01 25.6395C202.774 27.1509 202.542 28.6671 202.306 30.1863C202.088 31.5924 202.111 32.9904 202.377 34.3817C202.521 35.1364 202.631 35.7362 202.705 36.1629C202.711 36.2003 202.714 36.2371 202.72 36.2723C202.836 36.2738 202.973 36.2928 203.135 36.2879C203.911 36.2643 205.068 36.0639 206.635 35.6473C207.29 35.4728 207.648 35.2179 207.838 34.9676C208.018 34.728 208.136 34.3714 208.088 33.8035C207.967 32.3795 207.668 30.9512 207.197 29.5145C206.607 27.7169 206.848 26.0022 207.931 24.4832C208.809 23.254 209.609 22.0375 210.322 20.8348C211.165 19.4127 212.431 18.3099 214.064 17.5145C214.945 17.086 215.9 16.9051 216.791 17.2879C217.669 17.6666 218.216 18.4798 218.556 19.4129C219.192 21.159 219.433 22.8936 219.252 24.6004C219.092 26.1057 219.006 27.5986 219.002 29.077C218.998 30.5278 219.133 31.9904 219.4 33.4598C219.528 34.1592 219.7 34.6114 219.869 34.8817C220.025 35.1299 220.14 35.1744 220.197 35.1863C220.791 35.3064 221.739 35.2824 223.103 35.0379C223.625 34.944 223.847 34.7638 223.955 34.6082C224.071 34.4376 224.183 34.1061 224.103 33.4832C223.904 31.9285 223.766 30.3769 223.697 28.8348C223.628 27.2898 223.629 25.7428 223.705 24.1942C223.775 22.7628 223.659 21.3468 223.361 19.9442C223.056 18.5075 222.634 17.0481 222.088 15.5692C221.859 14.95 221.547 14.5143 221.174 14.2176C220.8 13.9211 220.307 13.7184 219.658 13.6395C218.149 13.4559 216.766 13.4916 215.502 13.741C214.194 13.9994 212.905 14.4087 211.642 14.9676C210.919 15.2877 210.182 15.497 209.502 15.4207C208.728 15.3337 208.126 14.8917 207.806 14.1863C207.662 13.8687 207.296 13.5191 206.244 13.4129ZM183.947 13.5067C182.679 13.4189 181.513 13.6971 180.424 14.3582C179.22 15.0887 178.112 15.9439 177.095 16.9207C176.113 17.8654 175.298 18.978 174.65 20.2645C174.046 21.4654 173.845 22.7186 174.041 24.0457C174.253 25.4872 174.645 26.8322 175.22 28.077C175.83 29.3953 176.479 30.6907 177.158 31.9676C177.777 33.1314 178.646 34.1618 179.775 35.0535C180.825 35.8816 181.997 36.2821 183.33 36.2645C184.039 36.2549 184.514 36.2015 184.799 36.1395C184.873 35.971 184.987 35.8202 185.127 35.6942C185.369 35.4759 185.66 35.3736 185.885 35.3192C186.33 35.2118 186.888 35.2134 187.478 35.2645C188.536 35.3559 189.84 35.3449 191.4 35.2176C192.701 35.1113 193.688 34.5458 194.431 33.4832C195.29 32.2554 195.923 30.9737 196.33 29.6395C196.753 28.252 197.059 26.8324 197.252 25.3817C197.432 24.0231 197.317 22.6918 196.9 21.3817C196.453 19.9745 195.9 18.5641 195.244 17.1551C194.692 15.9716 193.811 15.2186 192.549 14.8426C191.06 14.3998 189.629 14.0915 188.26 13.9207C186.847 13.7448 185.405 13.6081 183.947 13.5067ZM13.0798 13.616C11.7885 13.5771 10.6188 13.8977 9.54078 14.5848C8.35265 15.3423 7.2544 16.2152 6.25172 17.2098C5.27505 18.1787 4.45247 19.3038 3.78297 20.5848C3.15691 21.7834 2.90605 23.0505 3.03297 24.3973C3.16796 25.826 3.52442 27.1388 4.09547 28.3426C4.70392 29.6251 5.3853 30.8744 6.13453 32.0848C6.83033 33.2079 7.75712 34.1953 8.9236 35.0457C10.0118 35.8386 11.2129 36.2185 12.5564 36.1942C13.3167 36.1803 13.9244 36.1435 14.3845 36.0848C14.8665 36.0231 15.1097 35.9476 15.197 35.9051C15.6619 35.6796 16.2441 35.6398 16.7986 35.6551C17.3901 35.6716 18.1099 35.7555 18.9392 35.9051C20.2949 36.1497 21.4894 35.8983 22.5798 35.1473C23.809 34.2996 24.2767 33.5659 24.3689 33.0067C24.4716 32.3803 24.2943 31.4926 23.5798 30.2801C23.2437 29.7099 22.9875 29.557 22.8845 29.5223C22.8487 29.5102 22.7238 29.4637 22.408 29.6942C21.3223 30.4888 20.008 31.1167 18.4939 31.5926C16.9677 32.0722 15.3443 32.3438 13.6267 32.4051C12.648 32.44 11.7386 32.237 10.9627 31.741C10.1889 31.2456 9.62367 30.5037 9.2361 29.6004C9.05691 29.1824 8.92279 28.7657 8.87672 28.3817C8.83342 28.0178 8.84677 27.4834 9.22828 27.0535C9.62607 26.6064 10.1765 26.5443 10.5564 26.5692C10.9436 26.5949 11.3577 26.7187 11.7673 26.8817C13.0584 27.3955 14.3447 27.4845 15.6502 27.1551C17.1212 26.7839 18.5344 26.3202 19.8845 25.7723C21.1732 25.2489 22.3353 24.5276 23.3767 23.6082C24.3026 22.7908 24.7939 21.7872 24.8689 20.5379C24.9515 19.163 24.7551 17.7681 24.2752 16.3504C23.8689 15.1525 23.1029 14.4695 21.8767 14.202C20.3645 13.8735 18.9149 13.7031 17.533 13.6942C16.0658 13.6849 14.5787 13.6613 13.0798 13.616ZM131.095 12.2801C129.602 12.4687 128.422 12.8049 127.525 13.2567C126.266 13.8908 124.796 14.0421 123.181 13.8035C121.897 13.6136 120.67 13.7811 119.478 14.3035C118.164 14.8801 116.904 15.5579 115.697 16.3348C114.539 17.0798 113.507 18.0122 112.603 19.1395C111.767 20.1833 111.317 21.3576 111.244 22.6942C111.166 24.139 111.305 25.5149 111.666 26.8192C112.05 28.2091 112.485 29.5821 112.97 30.9363C113.416 32.1779 114.128 33.3256 115.111 34.3817C116.006 35.3423 117.085 35.8601 118.4 35.952C119.16 36.0046 119.767 36.0132 120.22 35.9832C120.698 35.9515 120.921 35.8829 120.986 35.8504C121.352 35.6687 121.825 35.539 122.345 35.4363C122.883 35.3305 123.538 35.2369 124.299 35.1629C125.726 35.0241 126.959 34.7768 128.002 34.4207C129.352 33.9595 130.806 33.9543 132.33 34.3582C133.662 34.7116 134.385 34.6643 134.705 34.5223C134.822 34.4691 135.028 34.3181 135.306 33.9598C135.581 33.6059 135.883 33.1037 136.205 32.4285C136.479 31.8544 136.505 31.4487 136.431 31.1629C136.359 30.8814 136.148 30.5539 135.65 30.2098C134.149 29.1705 133.267 27.7279 133.064 25.9363C132.886 24.3531 132.91 22.7645 133.142 21.1785C133.36 19.696 133.531 18.2092 133.658 16.7254C133.775 15.3568 133.599 14.1759 133.166 13.1629C132.995 12.7655 132.765 12.5423 132.494 12.4129C132.201 12.2742 131.756 12.1967 131.095 12.2801ZM167.783 12.866C166.501 12.567 165.499 12.7989 164.658 13.4754C163.808 14.1591 163.393 15.0587 163.424 16.2879C163.461 17.7803 163.547 19.2725 163.689 20.7645C163.843 22.377 163.765 23.9937 163.455 25.6004C163.2 26.9206 163.322 28.2382 163.838 29.577C164.48 31.2436 164.656 32.9422 164.361 34.6473C164.29 35.0565 164.225 35.4102 164.174 35.7098C164.404 35.6965 164.667 35.6887 164.963 35.6707C166.243 35.5929 167.044 35.3348 167.502 35.0145C167.906 34.7313 168.426 33.9934 168.939 32.5067C169.406 31.1525 169.475 29.8292 169.166 28.5145C168.802 26.9673 168.541 25.4134 168.377 23.8582C168.2 22.184 168.419 20.5166 169.025 18.8738C169.532 17.5007 169.705 16.1402 169.564 14.7957C169.503 14.2136 169.318 13.8167 169.064 13.5379C168.806 13.2558 168.407 13.0116 167.783 12.866ZM184.666 17.2488C186.511 16.9227 188.244 17.2954 189.814 18.3504C191.422 19.432 192.329 20.9577 192.439 22.8582C192.538 24.5645 192.298 26.1976 191.72 27.741C191.083 29.4432 189.852 30.5794 188.103 31.0848C187.396 31.2889 186.914 31.4638 186.627 31.6004C186.587 31.6194 186.551 31.6332 186.525 31.6473C186.505 31.6907 186.499 31.744 186.47 31.7879C186.289 32.0613 186.014 32.2087 185.76 32.2567C185.539 32.2982 185.349 32.2693 185.236 32.241C185.114 32.2104 185.003 32.165 184.916 32.1238C184.594 31.9718 184.204 31.6897 183.791 31.3582C182.938 30.6744 182.034 29.8636 181.08 28.9285C179.991 27.8616 179.244 26.4661 178.799 24.8035C178.299 22.936 178.741 21.2238 180.064 19.7801C181.313 18.4179 182.859 17.5687 184.666 17.2488ZM119.588 18.7098C121.11 17.5138 122.843 17.2597 124.65 17.9598C126.303 18.6007 127.512 19.6634 127.666 21.2879C127.768 22.364 127.914 23.7068 128.103 25.3113C128.334 27.2731 127.628 28.9145 126.049 30.1082C124.562 31.2309 122.87 31.7534 121.017 31.6551C119.061 31.551 117.572 30.6144 116.697 28.8895C116.332 28.1699 116.053 27.5339 115.892 26.991C115.746 26.497 115.635 25.8793 115.83 25.3348C115.986 24.8963 116.28 24.0117 116.72 22.6707C117.23 21.1178 118.207 19.7956 119.588 18.7098ZM38.5408 19.1629C39.8504 18.0535 41.3989 17.7645 43.0564 18.2801C44.6916 18.7893 45.8124 19.8559 46.2205 21.4676C46.5495 22.7676 46.778 24.2714 46.9158 25.9676C46.9945 26.94 46.8402 27.8597 46.3064 28.6004C45.7642 29.3518 44.9423 29.7705 44.0017 29.9442C42.3622 30.2467 40.817 30.2571 39.3845 29.952C37.7737 29.6086 36.5886 28.6116 35.8611 27.0848C35.5581 26.4488 35.3299 25.9535 35.1892 25.6082C35.122 25.4431 35.0557 25.2743 35.0173 25.1317C35.0027 25.077 34.969 24.9355 34.9705 24.7723C34.9711 24.7016 34.977 24.4884 35.1033 24.2645C35.1511 24.1802 35.2135 24.1051 35.283 24.0379C35.305 23.9992 35.3431 23.9401 35.3845 23.8582C35.518 23.5939 35.7065 23.1776 35.9548 22.6004C36.5234 21.2796 37.3937 20.1346 38.5408 19.1629ZM185.01 19.2176C183.642 19.4602 182.496 20.09 181.541 21.1317C180.66 22.0921 180.412 23.1063 180.728 24.2879C181.1 25.6746 181.693 26.7292 182.478 27.4988C183.396 28.3981 184.251 29.1619 185.041 29.7957C185.164 29.8943 185.285 29.9623 185.377 30.0301C185.506 29.9463 185.635 29.8589 185.767 29.7957C186.204 29.588 186.81 29.376 187.549 29.1629C188.692 28.8323 189.431 28.1461 189.845 27.0379C190.321 25.7683 190.522 24.4179 190.439 22.9754C190.367 21.7285 189.816 20.7633 188.705 20.0145C187.554 19.2407 186.337 18.9825 185.01 19.2176ZM123.931 19.827C122.779 19.38 121.787 19.522 120.822 20.2801C119.713 21.1524 118.999 22.1612 118.627 23.2957C118.186 24.637 117.879 25.5489 117.713 26.0145C117.746 25.9215 117.688 25.9931 117.814 26.4207C117.926 26.7987 118.138 27.3204 118.478 27.991C119.015 29.0466 119.847 29.5865 121.119 29.6551C122.497 29.7284 123.725 29.3543 124.838 28.5145C125.856 27.7458 126.266 26.7979 126.119 25.5457C125.928 23.9324 125.777 22.5724 125.674 21.4754C125.621 20.9276 125.239 20.3346 123.931 19.827ZM42.4627 20.1863C41.4296 19.8652 40.5945 20.0386 39.8298 20.6863C38.9029 21.4718 38.2288 22.3723 37.7908 23.3895C37.537 23.9792 37.3279 24.4437 37.1658 24.7645C37.1369 24.8216 37.1013 24.8743 37.072 24.9285C37.1934 25.2189 37.3905 25.6477 37.6658 26.2254C38.1479 27.2373 38.8474 27.7872 39.7986 27.991C40.9297 28.232 42.2063 28.2386 43.6345 27.9754C44.2283 27.8658 44.5237 27.6471 44.6814 27.4285C44.8457 27.2001 44.9782 26.8115 44.9236 26.1317C44.7923 24.5155 44.5777 23.1245 44.283 21.9598C44.0668 21.106 43.52 20.5156 42.4627 20.1863ZM35.9861 25.7488C36.0692 25.7488 36.1578 25.7285 36.2517 25.702C36.1736 25.7232 36.0865 25.7488 35.9861 25.7488ZM15.8533 17.1473C16.0245 17.1783 16.2798 17.2631 16.4939 17.491C16.5037 17.5015 16.5082 17.5195 16.5173 17.5301C16.5944 17.5219 16.6907 17.5177 16.7986 17.4988C17.3561 17.4019 18.0243 17.4524 18.5408 17.9442C19.024 18.4065 19.1554 19.0599 19.1658 19.616C19.1937 21.2042 17.9182 22.1287 16.4158 22.6317C14.964 23.1176 13.4356 23.4786 11.8377 23.7176C11.4138 23.7808 11.0021 23.813 10.6423 23.7723C10.3119 23.7344 9.8198 23.6072 9.4861 23.1785C9.11576 22.7012 9.17629 22.1598 9.29078 21.8035C9.40446 21.4508 9.61385 21.1034 9.85328 20.7879C10.8009 19.5399 11.9974 18.5676 13.4236 17.8738C14.0748 17.5573 14.634 17.3215 15.0564 17.2098C15.2421 17.1608 15.5448 17.0916 15.8533 17.1473ZM14.2986 19.6707C13.2648 20.1735 12.4025 20.8559 11.6892 21.7098C13.126 21.487 14.4914 21.1656 15.783 20.7332C17.0662 20.3035 17.1697 19.8585 17.1658 19.6473L17.1423 19.4676C16.7269 19.5404 16.2819 19.5875 15.9002 19.5145C15.7319 19.4822 15.5174 19.3981 15.3064 19.241C15.0708 19.3287 14.7351 19.4585 14.2986 19.6707ZM168.095 0.873839C168.951 1.02449 169.73 1.3227 170.291 1.87384C170.886 2.46113 171.128 3.22749 171.08 4.04571C170.999 5.39619 170.541 6.65032 169.736 7.78009C168.763 9.14349 167.243 9.6009 165.478 9.38165C164.723 9.2878 164.151 9.21713 163.76 9.17071C163.565 9.14758 163.415 9.13487 163.314 9.12384C163.264 9.11839 163.228 9.11034 163.205 9.10821C163.217 9.10871 163.234 9.10844 163.252 9.10821C162.739 9.11518 162.468 8.75824 162.431 8.70978C162.355 8.61029 162.309 8.51671 162.291 8.4754C162.251 8.3834 162.229 8.28599 162.213 8.2254C162.177 8.09236 162.14 7.92042 162.103 7.7254C162.028 7.32405 161.934 6.73345 161.822 5.96759C161.694 5.08606 161.741 4.24457 162.025 3.49103C162.314 2.72718 162.825 2.1154 163.517 1.6629C164.832 0.80479 166.392 0.574537 168.095 0.873839ZM167.744 2.84259C166.43 2.61215 165.414 2.81061 164.611 3.33478C164.248 3.57247 164.021 3.8606 163.892 4.20196C163.759 4.55668 163.705 5.03576 163.799 5.67853C163.893 6.32846 163.978 6.8291 164.041 7.18634C164.436 7.23335 165 7.30681 165.728 7.39728C166.987 7.55297 167.682 7.21829 168.111 6.61603C168.708 5.77803 169.022 4.88685 169.08 3.92853C169.1 3.59557 169.015 3.42536 168.892 3.30353C168.734 3.1473 168.395 2.95703 167.744 2.84259Z" fill="black"/>
</g>
<defs>
<filter id="filter0_d_43_42" x="0" y="0" width="226.124" height="39.0182" filterUnits="userSpaceOnUse" color-interpolation-filters="sRGB">
<feFlood flood-opacity="0" result="BackgroundImageFix"/>
<feColorMatrix in="SourceAlpha" type="matrix" values="0 0 0 0 0 0 0 0 0 0 0 0 0 0 0 0 0 0 127 0" result="hardAlpha"/>
<feOffset dx="-1" dy="0.15"/>
<feComposite in2="hardAlpha" operator="out"/>
<feColorMatrix type="matrix" values="0 0 0 0 0 0 0 0 0 0 0 0 0 0 0 0 0 0 1 0"/>
<feBlend mode="normal" in2="BackgroundImageFix" result="effect1_dropShadow_43_42"/>
<feBlend mode="normal" in="SourceGraphic" in2="effect1_dropShadow_43_42" result="shape"/>
</filter>
</defs>
</svg>
