<svg width="312" height="40" viewBox="0 0 312 40" fill="none" xmlns="http://www.w3.org/2000/svg">
<g filter="url(#filter0_d_43_44)">
<path d="M8.39072 37.5609C8.36405 36.0675 8.35072 34.5475 8.35072 33.0009C8.35072 31.4275 8.35072 29.9075 8.35072 28.4409V18.9609C7.23072 19.0409 6.15072 19.1609 5.11072 19.3209C4.09739 19.4809 3.15072 19.6809 2.27072 19.9209L1.43072 13.5208C2.39072 13.3075 3.48405 13.1209 4.71072 12.9608C5.96405 12.8008 7.25739 12.6808 8.59072 12.6008C8.75072 11.1342 9.01739 9.70752 9.39072 8.32085C9.79072 6.93418 10.3507 5.69418 11.0707 4.60085C11.7907 3.48085 12.7374 2.58752 13.9107 1.92085C15.0841 1.25418 16.5374 0.920849 18.2707 0.920849C20.4841 0.920849 22.6174 1.37418 24.6707 2.28085L23.3107 8.64085C21.5507 7.84085 20.0974 7.44085 18.9507 7.44085C17.7241 7.44085 16.8707 7.88085 16.3907 8.76085C15.9107 9.61418 15.6041 10.8275 15.4707 12.4008C16.9107 12.4275 18.2707 12.4942 19.5507 12.6008C20.8574 12.6808 21.9907 12.7875 22.9507 12.9208L22.3107 19.2009C21.3774 19.0409 20.2841 18.9209 19.0307 18.8408C17.8041 18.7342 16.5107 18.6809 15.1507 18.6809C15.0974 20.0409 15.0574 21.3742 15.0307 22.6809C15.0041 23.9609 14.9907 25.2409 14.9907 26.5209C14.9907 28.2275 15.0041 29.9875 15.0307 31.8009C15.0841 33.5875 15.1374 35.5075 15.1907 37.5609H8.39072ZM35.2517 37.8409C33.2517 37.8409 31.4383 37.3209 29.8117 36.2809C28.185 35.2675 26.8917 33.8942 25.9317 32.1609C24.9983 30.4009 24.5317 28.4409 24.5317 26.2809C24.5317 24.2542 24.905 22.4275 25.6517 20.8009C26.3983 19.1475 27.4117 17.7342 28.6917 16.5609C29.9983 15.3875 31.4783 14.4942 33.1317 13.8808C34.785 13.2408 36.5183 12.9208 38.3317 12.9208C39.8517 12.9208 41.345 13.1342 42.8117 13.5609C42.9183 13.0009 43.0117 12.4408 43.0917 11.8808L49.9317 13.0409C49.745 13.5475 49.5583 14.3075 49.3717 15.3208C49.185 16.3342 49.025 17.4675 48.8917 18.7209C48.785 19.9742 48.6917 21.2275 48.6117 22.4809C48.5317 23.7342 48.4917 24.8675 48.4917 25.8809C48.4917 26.7075 48.545 27.5209 48.6517 28.3209C48.785 29.0942 49.0517 29.7342 49.4517 30.2409C49.8517 30.7209 50.465 30.9609 51.2917 30.9609H51.8517L50.8517 37.9209C49.0917 37.9209 47.6383 37.6142 46.4917 37.0009C45.345 36.4142 44.425 35.6142 43.7317 34.6009C42.585 35.8809 41.2783 36.7342 39.8117 37.1609C38.345 37.6142 36.825 37.8409 35.2517 37.8409ZM31.0917 27.0809C31.225 28.3609 31.745 29.3875 32.6517 30.1609C33.585 30.9075 34.7583 31.2809 36.1717 31.2809C37.5317 31.2809 38.665 30.9209 39.5717 30.2009C40.4783 29.4542 41.225 28.4409 41.8117 27.1609C41.785 26.7342 41.7717 26.2942 41.7717 25.8409C41.7717 24.9075 41.7983 23.9475 41.8517 22.9609C41.905 21.9742 41.9717 21.0009 42.0517 20.0408C40.9317 19.6142 39.7583 19.4008 38.5317 19.4008C37.0917 19.4008 35.7983 19.6942 34.6517 20.2809C33.5317 20.8409 32.6517 21.6275 32.0117 22.6408C31.3717 23.6542 31.0517 24.8275 31.0517 26.1609C31.0517 26.3209 31.0517 26.4809 31.0517 26.6409C31.0517 26.8009 31.065 26.9475 31.0917 27.0809ZM54.3523 37.8009C54.3256 37.4009 54.2989 36.7342 54.2723 35.8009C54.2456 34.8942 54.2189 33.8009 54.1923 32.5209C54.1656 31.2409 54.1523 29.8675 54.1523 28.4009C54.1523 26.9075 54.1523 25.4142 54.1523 23.9209C54.1523 22.2675 54.1523 20.6942 54.1523 19.2009C54.1789 17.7075 54.1923 16.4142 54.1923 15.3208C54.2189 14.2275 54.2323 13.4408 54.2323 12.9608L60.9923 12.8409C60.9389 13.5875 60.8989 14.4942 60.8723 15.5609C61.5656 14.6275 62.3656 13.8942 63.2723 13.3608C64.1789 12.8275 65.2189 12.5608 66.3923 12.5608C67.8056 12.5608 68.9656 12.9742 69.8723 13.8009C70.8056 14.6275 71.5656 15.7075 72.1523 17.0409C74.0723 14.0542 76.4323 12.5608 79.2323 12.5608C80.8056 12.5608 82.0989 12.9075 83.1123 13.6009C84.1523 14.2675 84.9656 15.1742 85.5523 16.3209C86.1389 17.4675 86.5656 18.7609 86.8323 20.2009C87.1256 21.6408 87.3123 23.1209 87.3923 24.6409C87.4723 26.1609 87.5123 27.6275 87.5123 29.0409C87.5123 30.7209 87.4856 32.2542 87.4323 33.6409C87.3789 35.0275 87.3656 36.3475 87.3923 37.6009H80.4723C80.4723 36.9609 80.4723 36.1475 80.4723 35.1609C80.4723 34.2009 80.4723 33.2275 80.4723 32.2409C80.4989 31.2275 80.5123 30.3609 80.5123 29.6409C80.5123 28.8942 80.5123 28.4542 80.5123 28.3209C80.5123 26.7209 80.4723 25.2142 80.3923 23.8009C80.3123 22.3875 80.1123 21.2409 79.7923 20.3609C79.4723 19.4808 78.9523 19.0408 78.2323 19.0408C77.5389 19.0408 76.9256 19.3742 76.3923 20.0408C75.859 20.7075 75.3789 21.5742 74.9523 22.6408C74.5523 23.7075 74.2056 24.8409 73.9123 26.0409C73.9656 27.0809 74.0056 28.1209 74.0323 29.1609C74.0589 30.1742 74.0723 31.1609 74.0723 32.1209C74.0723 33.2142 74.0589 34.1609 74.0323 34.9609C74.0323 35.7875 74.0323 36.6675 74.0323 37.6009H67.3123C67.3123 35.4409 67.2989 33.5342 67.2723 31.8809C67.2456 30.2275 67.1923 28.6275 67.1123 27.0809C66.9789 24.3075 66.6856 22.2809 66.2323 21.0009C65.8056 19.6942 65.2056 19.0408 64.4323 19.0408C63.5789 19.0408 62.8589 19.5608 62.2723 20.6008C61.6856 21.6142 61.2056 22.8542 60.8323 24.3209C60.8589 26.4542 60.9123 28.6809 60.9923 31.0009C61.0723 33.3209 61.1789 35.5609 61.3123 37.7209L54.3523 37.8009ZM90.8729 8.84085C90.8729 8.60085 90.8596 8.36085 90.8329 8.12085C90.8329 7.85418 90.8329 7.56085 90.8329 7.24085C90.8329 6.38752 90.8596 5.48085 90.9129 4.52085C90.9662 3.56085 91.0196 2.74752 91.0729 2.08085L98.1929 2.20085C98.1129 3.10752 98.0196 4.13418 97.9129 5.28085C97.8329 6.42752 97.7796 7.61418 97.7529 8.84085H90.8729ZM90.7129 37.4809C90.6329 35.8275 90.5796 34.0675 90.5529 32.2009C90.5262 30.3075 90.5129 28.4142 90.5129 26.5209C90.5129 24.0409 90.5396 21.6275 90.5929 19.2809C90.6462 16.9342 90.7129 14.8009 90.7929 12.8809L97.6729 12.8409C97.5662 14.0675 97.4996 15.5875 97.4729 17.4009C97.4462 19.1875 97.4329 21.0675 97.4329 23.0409C97.4329 24.9875 97.4462 26.9075 97.4729 28.8009C97.4996 30.6942 97.5262 32.4142 97.5529 33.9609C97.6062 35.4809 97.6462 36.6542 97.6729 37.4809H90.7129ZM109.34 37.8409C107.873 37.8409 106.66 37.5209 105.7 36.8809C104.766 36.2675 104.02 35.4142 103.46 34.3209C102.926 33.2275 102.526 31.9742 102.26 30.5609C102.02 29.1475 101.86 27.6409 101.78 26.0409C101.726 24.4142 101.7 22.7875 101.7 21.1608C101.7 19.7475 101.74 18.2008 101.82 16.5208C101.9 14.8142 101.993 13.0942 102.1 11.3609C102.233 9.60085 102.366 7.94752 102.5 6.40085C102.66 4.85418 102.806 3.50752 102.94 2.36085L110.18 2.44085C109.966 3.80085 109.766 5.34752 109.58 7.08085C109.393 8.78752 109.233 10.5208 109.1 12.2809C108.993 14.0409 108.9 15.6675 108.82 17.1609C108.766 18.6542 108.74 19.8409 108.74 20.7209C108.74 23.1475 108.78 25.0542 108.86 26.4409C108.966 27.8275 109.113 28.8142 109.3 29.4009C109.513 29.9609 109.793 30.2409 110.14 30.2409C110.593 30.2409 111.086 29.9609 111.62 29.4009C112.153 28.8142 112.673 28.1609 113.18 27.4409L116.58 34.2009C115.753 35.1075 114.766 35.9342 113.62 36.6809C112.473 37.4542 111.046 37.8409 109.34 37.8409ZM119.896 8.84085C119.896 8.60085 119.883 8.36085 119.856 8.12085C119.856 7.85418 119.856 7.56085 119.856 7.24085C119.856 6.38752 119.883 5.48085 119.936 4.52085C119.99 3.56085 120.043 2.74752 120.096 2.08085L127.216 2.20085C127.136 3.10752 127.043 4.13418 126.936 5.28085C126.856 6.42752 126.803 7.61418 126.776 8.84085H119.896ZM119.736 37.4809C119.656 35.8275 119.603 34.0675 119.576 32.2009C119.55 30.3075 119.536 28.4142 119.536 26.5209C119.536 24.0409 119.563 21.6275 119.616 19.2809C119.67 16.9342 119.736 14.8009 119.816 12.8809L126.696 12.8409C126.59 14.0675 126.523 15.5875 126.496 17.4009C126.47 19.1875 126.456 21.0675 126.456 23.0409C126.456 24.9875 126.47 26.9075 126.496 28.8009C126.523 30.6942 126.55 32.4142 126.576 33.9609C126.63 35.4809 126.67 36.6542 126.696 37.4809H119.736ZM140.603 37.8409C138.603 37.8409 136.79 37.3209 135.163 36.2809C133.537 35.2675 132.243 33.8942 131.283 32.1609C130.35 30.4009 129.883 28.4409 129.883 26.2809C129.883 24.2542 130.257 22.4275 131.003 20.8009C131.75 19.1475 132.763 17.7342 134.043 16.5609C135.35 15.3875 136.83 14.4942 138.483 13.8808C140.137 13.2408 141.87 12.9208 143.683 12.9208C145.203 12.9208 146.697 13.1342 148.163 13.5609C148.27 13.0009 148.363 12.4408 148.443 11.8808L155.283 13.0409C155.097 13.5475 154.91 14.3075 154.723 15.3208C154.537 16.3342 154.377 17.4675 154.243 18.7209C154.137 19.9742 154.043 21.2275 153.963 22.4809C153.883 23.7342 153.843 24.8675 153.843 25.8809C153.843 26.7075 153.897 27.5209 154.003 28.3209C154.137 29.0942 154.403 29.7342 154.803 30.2409C155.203 30.7209 155.817 30.9609 156.643 30.9609H157.203L156.203 37.9209C154.443 37.9209 152.99 37.6142 151.843 37.0009C150.697 36.4142 149.777 35.6142 149.083 34.6009C147.937 35.8809 146.63 36.7342 145.163 37.1609C143.697 37.6142 142.177 37.8409 140.603 37.8409ZM136.443 27.0809C136.577 28.3609 137.097 29.3875 138.003 30.1609C138.937 30.9075 140.11 31.2809 141.523 31.2809C142.883 31.2809 144.017 30.9209 144.923 30.2009C145.83 29.4542 146.577 28.4409 147.163 27.1609C147.137 26.7342 147.123 26.2942 147.123 25.8409C147.123 24.9075 147.15 23.9475 147.203 22.9609C147.257 21.9742 147.323 21.0009 147.403 20.0408C146.283 19.6142 145.11 19.4008 143.883 19.4008C142.443 19.4008 141.15 19.6942 140.003 20.2809C138.883 20.8409 138.003 21.6275 137.363 22.6408C136.723 23.6542 136.403 24.8275 136.403 26.1609C136.403 26.3209 136.403 26.4809 136.403 26.6409C136.403 26.8009 136.417 26.9475 136.443 27.0809ZM159.544 37.8009C159.651 35.5875 159.731 33.3742 159.784 31.1609C159.837 28.9475 159.864 26.7609 159.864 24.6009C159.837 22.6275 159.797 20.6809 159.744 18.7608C159.717 16.8142 159.651 14.9342 159.544 13.1208L166.264 12.9208C166.291 13.9075 166.331 14.9208 166.384 15.9609C167.237 14.8942 168.224 14.0409 169.344 13.4009C170.491 12.7342 171.797 12.4008 173.264 12.4008C173.824 12.4008 174.544 12.4808 175.424 12.6409C176.304 12.8009 177.197 13.1075 178.104 13.5609L177.344 20.3208C176.677 19.9209 175.957 19.6409 175.184 19.4808C174.437 19.2942 173.811 19.2009 173.304 19.2009C171.597 19.2009 170.144 19.9742 168.944 21.5208C167.771 23.0409 166.971 25.1609 166.544 27.8809C166.544 29.7475 166.517 31.5342 166.464 33.2409C166.437 34.9209 166.371 36.4409 166.264 37.8009H159.544ZM200.884 37.8409C199.284 37.8409 198.017 37.4942 197.084 36.8009C196.15 36.1342 195.47 35.2009 195.044 34.0009C194.617 32.8009 194.337 31.4275 194.204 29.8809C194.097 28.3342 194.044 26.7075 194.044 25.0009C194.044 23.2409 194.11 21.4142 194.244 19.5209C192.457 19.7609 190.737 20.0675 189.084 20.4409L187.844 14.1609C190.057 13.5742 192.417 13.1475 194.924 12.8809C195.11 11.5209 195.31 10.0942 195.524 8.60085C195.737 7.08085 195.977 5.48085 196.244 3.80085L203.124 4.40085C202.804 5.78752 202.524 7.17418 202.284 8.56085C202.044 9.92085 201.83 11.2408 201.644 12.5209C203.137 12.5209 204.537 12.5609 205.844 12.6409C207.177 12.6942 208.404 12.8008 209.524 12.9608L208.724 19.2409C207.79 19.1342 206.817 19.0675 205.804 19.0408C204.817 18.9875 203.817 18.9609 202.804 18.9609C202.19 18.9609 201.577 18.9742 200.964 19.0009C200.804 20.9475 200.697 22.6142 200.644 24.0009C200.617 25.3875 200.604 26.3742 200.604 26.9609C200.604 28.4275 200.684 29.4809 200.844 30.1209C201.03 30.7609 201.324 31.0809 201.724 31.0809C202.177 31.0809 202.684 30.9342 203.244 30.6409C203.804 30.3209 204.35 29.8942 204.884 29.3609C205.444 28.8275 205.91 28.2542 206.284 27.6409L209.364 34.0809C206.724 36.5875 203.897 37.8409 200.884 37.8409ZM224.24 37.9609C222.107 37.9609 220.24 37.6142 218.64 36.9209C217.067 36.2275 215.76 35.2809 214.72 34.0809C213.68 32.8542 212.907 31.4542 212.4 29.8809C211.893 28.3075 211.64 26.6542 211.64 24.9209C211.64 23.1609 211.947 21.5342 212.56 20.0408C213.2 18.5209 214.067 17.2009 215.16 16.0808C216.28 14.9608 217.587 14.0942 219.08 13.4808C220.573 12.8409 222.2 12.5209 223.96 12.5209C225.8 12.5209 227.507 12.8409 229.08 13.4808C230.653 14.1208 232.027 15.0142 233.2 16.1608C234.373 17.3075 235.28 18.6542 235.92 20.2009C236.587 21.7475 236.92 23.4275 236.92 25.2409C236.92 29.2675 235.813 32.4009 233.6 34.6409C231.387 36.8542 228.267 37.9609 224.24 37.9609ZM224.2 31.4809C226.147 31.4809 227.627 30.9342 228.64 29.8409C229.68 28.7475 230.2 27.1742 230.2 25.1209C230.2 23.2809 229.64 21.8008 228.52 20.6809C227.4 19.5609 225.933 19.0009 224.12 19.0009C223.027 19.0009 222.027 19.2942 221.12 19.8809C220.213 20.4409 219.48 21.2009 218.92 22.1609C218.387 23.0942 218.12 24.1342 218.12 25.2809C218.12 26.2942 218.32 27.2809 218.72 28.2409C219.147 29.2009 219.813 29.9875 220.72 30.6009C221.627 31.1875 222.787 31.4809 224.2 31.4809ZM251.935 37.9609C249.802 37.9609 247.935 37.6142 246.335 36.9209C244.762 36.2275 243.455 35.2809 242.415 34.0809C241.375 32.8542 240.602 31.4542 240.095 29.8809C239.589 28.3075 239.335 26.6542 239.335 24.9209C239.335 23.1609 239.642 21.5342 240.255 20.0408C240.895 18.5209 241.762 17.2009 242.855 16.0808C243.975 14.9608 245.282 14.0942 246.775 13.4808C248.269 12.8409 249.895 12.5209 251.655 12.5209C253.495 12.5209 255.202 12.8409 256.775 13.4808C258.349 14.1208 259.722 15.0142 260.895 16.1608C262.069 17.3075 262.975 18.6542 263.615 20.2009C264.282 21.7475 264.615 23.4275 264.615 25.2409C264.615 29.2675 263.509 32.4009 261.295 34.6409C259.082 36.8542 255.962 37.9609 251.935 37.9609ZM251.895 31.4809C253.842 31.4809 255.322 30.9342 256.335 29.8409C257.375 28.7475 257.895 27.1742 257.895 25.1209C257.895 23.2809 257.335 21.8008 256.215 20.6809C255.095 19.5609 253.629 19.0009 251.815 19.0009C250.722 19.0009 249.722 19.2942 248.815 19.8809C247.909 20.4409 247.175 21.2009 246.615 22.1609C246.082 23.0942 245.815 24.1342 245.815 25.2809C245.815 26.2942 246.015 27.2809 246.415 28.2409C246.842 29.2009 247.509 29.9875 248.415 30.6009C249.322 31.1875 250.482 31.4809 251.895 31.4809ZM275.551 37.8409C274.084 37.8409 272.871 37.5209 271.911 36.8809C270.977 36.2675 270.231 35.4142 269.671 34.3209C269.137 33.2275 268.737 31.9742 268.471 30.5609C268.231 29.1475 268.071 27.6409 267.991 26.0409C267.937 24.4142 267.911 22.7875 267.911 21.1608C267.911 19.7475 267.951 18.2008 268.031 16.5208C268.111 14.8142 268.204 13.0942 268.311 11.3609C268.444 9.60085 268.577 7.94752 268.711 6.40085C268.871 4.85418 269.017 3.50752 269.151 2.36085L276.391 2.44085C276.177 3.80085 275.977 5.34752 275.791 7.08085C275.604 8.78752 275.444 10.5208 275.311 12.2809C275.204 14.0409 275.111 15.6675 275.031 17.1609C274.977 18.6542 274.951 19.8409 274.951 20.7209C274.951 23.1475 274.991 25.0542 275.071 26.4409C275.177 27.8275 275.324 28.8142 275.511 29.4009C275.724 29.9609 276.004 30.2409 276.351 30.2409C276.804 30.2409 277.297 29.9609 277.831 29.4009C278.364 28.8142 278.884 28.1609 279.391 27.4409L282.791 34.2009C281.964 35.1075 280.977 35.9342 279.831 36.6809C278.684 37.4542 277.257 37.8409 275.551 37.8409ZM297.987 38.0009C296.174 38.0009 294.494 37.7875 292.947 37.3609C291.401 36.9342 290.001 36.3875 288.747 35.7209C287.494 35.0542 286.374 34.3475 285.387 33.6009L288.987 27.8009C290.107 28.8409 291.187 29.6409 292.227 30.2009C293.267 30.7609 294.347 31.1475 295.467 31.3609C296.614 31.5742 297.854 31.6809 299.187 31.6809C300.334 31.6809 301.254 31.5342 301.947 31.2409C302.641 30.9209 302.987 30.5209 302.987 30.0409C302.987 29.6409 302.654 29.3342 301.987 29.1209C301.321 28.8809 300.467 28.6809 299.427 28.5209C298.387 28.3342 297.294 28.1075 296.147 27.8409C294.521 27.4142 293.001 26.9209 291.587 26.3609C290.174 25.8009 289.027 25.0409 288.147 24.0809C287.294 23.1209 286.867 21.8408 286.867 20.2408C286.867 18.9609 287.174 17.8409 287.787 16.8809C288.401 15.8942 289.214 15.0808 290.227 14.4408C291.267 13.7742 292.441 13.2808 293.747 12.9608C295.054 12.6409 296.401 12.4809 297.787 12.4809C300.187 12.4809 302.254 12.7742 303.987 13.3608C305.747 13.9208 307.427 14.6675 309.027 15.6008L305.387 21.1209C304.587 20.5609 303.667 20.0809 302.627 19.6808C301.614 19.2542 300.587 18.9342 299.547 18.7209C298.534 18.4809 297.587 18.3609 296.707 18.3609C295.747 18.3609 294.987 18.5075 294.427 18.8009C293.894 19.0942 293.627 19.5075 293.627 20.0408C293.627 20.3609 293.961 20.6675 294.627 20.9609C295.321 21.2275 296.627 21.5875 298.547 22.0409C299.694 22.3075 300.907 22.5875 302.187 22.8809C303.467 23.1475 304.667 23.5342 305.787 24.0409C306.934 24.5209 307.854 25.2275 308.547 26.1609C309.267 27.0675 309.627 28.2809 309.627 29.8009C309.627 32.3609 308.601 34.3609 306.547 35.8009C304.494 37.2675 301.641 38.0009 297.987 38.0009Z" fill="#FFD633"/>
<path d="M197.979 2.99335C199.844 3.09966 201.406 3.55534 202.44 4.54023C203.3 5.36031 203.605 6.43361 203.518 7.61835L203.167 9.6496C203.155 9.87388 203.17 10.0545 203.206 10.1965C203.269 10.4464 203.398 10.6228 203.628 10.7668C204.269 11.1654 205.244 11.3704 206.667 11.2277C207.574 11.1367 208.518 11.2767 209.167 11.9777C209.8 12.6633 209.9 13.6203 209.792 14.5402C209.69 15.3988 209.525 16.1528 209.268 16.7668C209.013 17.3761 208.629 17.9338 208.049 18.2668C207.261 18.7182 206.039 19.0849 204.495 19.3996C203.22 19.6594 202.597 20.2303 202.331 21.0168C201.941 22.1659 201.608 23.4743 201.339 24.9465C201.098 26.2566 201.237 27.6759 201.799 29.2199C201.932 29.5851 202.06 29.8107 202.159 29.9387C202.177 29.9619 202.185 29.987 202.198 30.0012H202.221C202.321 29.9511 202.494 29.8276 202.729 29.5715C203.367 28.8768 204.084 28.3539 204.885 28.1184C205.712 27.8766 206.539 27.966 207.323 28.3371C208.05 28.6818 208.645 29.1786 209.042 29.8449C209.437 30.5097 209.591 31.2713 209.557 32.0793C209.49 33.6496 208.849 35.1194 207.729 36.4777C206.585 37.8648 205.14 38.8009 203.417 39.2512C202.645 39.4525 201.983 39.578 201.487 39.5949C201.255 39.6028 200.933 39.5949 200.635 39.4699C200.474 39.4017 200.277 39.2801 200.12 39.0715C200.063 38.9959 200.03 38.9106 199.995 38.8293C199.975 38.8206 199.951 38.8085 199.924 38.798C199.629 38.6812 199.123 38.5496 198.362 38.4152C197.432 38.251 196.606 37.8865 195.932 37.3059C195.26 36.7254 194.786 35.965 194.487 35.0715C193.945 33.4549 193.707 31.8253 193.784 30.1887C193.852 28.7494 193.777 27.3121 193.557 25.8762C193.327 24.3727 193.133 23.0648 192.979 21.9543C192.937 21.6517 192.829 21.5296 192.706 21.4543C192.533 21.3498 192.18 21.2459 191.526 21.2824C190.617 21.3335 189.748 21.1611 189.065 20.6105C188.378 20.0555 188.034 19.2413 187.917 18.3449C187.708 16.7544 187.888 15.3284 188.674 14.2434C189.532 13.0613 190.99 12.6463 192.651 12.6809C193.212 12.6927 193.56 12.5469 193.799 12.3293C194.056 12.096 194.301 11.6757 194.448 10.9387C194.772 9.30824 194.829 7.77683 194.62 6.3371C194.483 5.39824 194.604 4.42736 195.323 3.74335C196.008 3.09286 196.994 2.93733 197.979 2.99335ZM19.7057 0.024601C21.4164 0.101747 22.8516 0.656959 23.8307 1.82929C24.814 3.00718 25.0892 4.52024 24.8307 6.2121C24.6943 7.10464 24.3632 7.90636 23.737 8.48554C23.1005 9.07293 22.2787 9.31946 21.3932 9.32929C20.0803 9.34388 18.8448 9.55559 17.6823 9.94648C17.205 10.1072 17.1218 10.2747 17.1042 10.3215C17.0767 10.3965 17.0391 10.6391 17.2917 11.1809C17.5239 11.6789 17.8023 11.9542 18.0963 12.1027C18.3965 12.2537 18.8196 12.3299 19.4323 12.2355C20.2992 12.1018 21.1504 12.1378 21.862 12.509C22.6174 12.9035 23.055 13.5901 23.237 14.3996C23.5476 15.7857 23.3494 17.0851 22.3854 18.048C21.4008 19.0309 19.9112 19.2167 18.2838 18.9934C17.6739 18.9095 17.3769 19.0218 17.2292 19.134C17.0815 19.2463 16.8908 19.4999 16.8073 20.1105C16.6107 21.555 16.5975 22.9932 16.776 24.4152C16.9862 26.0933 16.7791 27.7672 16.1588 29.423C15.6706 30.7251 15.6515 31.9968 16.0963 33.2746C16.407 34.167 16.4904 35.0598 16.2526 35.9074C16.0131 36.7604 15.4745 37.4644 14.737 38.0246C13.3537 39.0746 11.8303 39.5277 10.2135 39.2824C9.54792 39.1812 9.00862 39.0854 8.62759 38.9855C8.44502 38.9376 8.25021 38.8719 8.08072 38.7902C7.9998 38.7512 7.86839 38.6849 7.74478 38.5715C7.62962 38.4652 7.39322 38.1932 7.39322 37.7746C7.39322 37.8156 7.39518 37.8085 7.37759 37.673C7.36314 37.562 7.33852 37.4007 7.30728 37.1965C7.24496 36.7892 7.15233 36.208 7.02603 35.4543C6.75401 33.83 6.75897 32.2034 7.04166 30.5793C7.30409 29.0715 7.55282 27.5635 7.79166 26.0559C8.01575 24.6412 8.02505 23.2276 7.82291 21.8137C7.73326 21.1868 7.5534 20.9205 7.42447 20.8137C7.31579 20.7239 7.09188 20.6216 6.58853 20.6965C4.96468 20.9392 3.52606 20.5587 2.44791 19.4309C1.44314 18.3795 0.959954 17.0805 1.00259 15.6027C1.02655 14.7777 1.30401 14.0288 1.87759 13.4387C2.43415 12.8673 3.19615 12.526 4.04947 12.3371C5.39843 12.0391 6.55608 11.5208 7.53384 10.798C8.42536 10.1386 9.00408 9.23299 9.26041 8.0246C9.57818 6.52603 10.0674 5.00789 10.7213 3.46991C11.4895 1.66391 12.897 0.570451 14.8385 0.282413C16.4948 0.0368102 18.1182 -0.0468475 19.7057 0.024601ZM296.323 11.1887C298.073 10.7582 299.791 10.9342 301.432 11.7121C302.885 12.4007 304.265 13.1102 305.573 13.8371C306.265 14.2216 306.856 14.6331 307.299 15.0793C307.742 15.5251 308.088 16.0608 308.198 16.6809C308.41 17.881 307.734 19.0262 306.792 20.0246C306.204 20.6475 305.476 21.0417 304.628 21.0949C303.802 21.1457 302.983 20.8623 302.214 20.3918C300.994 19.647 299.654 19.1305 298.19 18.8371C297.498 18.6986 297.049 18.7337 296.776 18.8293C296.545 18.9107 296.379 19.0489 296.26 19.3215C296.218 19.4195 296.206 19.4909 296.198 19.5324C296.224 19.5497 296.262 19.5823 296.331 19.6105C296.476 19.6696 296.697 19.7331 297.01 19.7746C298.648 19.9917 300.199 20.6019 301.651 21.5871C302.853 22.4022 304.163 22.8989 305.596 23.0715C307.512 23.3014 309.024 24.3039 310.081 25.9855C311.131 27.6585 311.409 29.4586 310.878 31.3215C310.382 33.0563 309.518 34.565 308.284 35.8137C307.013 37.0981 305.473 37.8423 303.698 38.0168C302.201 38.1639 300.943 38.3865 299.917 38.6809C299.362 38.8399 298.923 38.9554 298.62 39.0246C298.475 39.0575 298.326 39.0887 298.198 39.1027C298.146 39.1085 298.022 39.1199 297.885 39.1027C297.855 39.0988 297.806 39.0677 297.737 39.048C297.677 39.0443 297.566 39.0479 297.401 39.048C297.034 39.0485 296.469 39.0698 295.698 39.1027C293.955 39.1772 292.309 38.7813 290.792 37.923C289.432 37.1545 288.219 36.4474 287.151 35.8059C286.433 35.3749 285.903 34.7496 285.721 33.923C285.548 33.1317 285.727 32.3001 286.081 31.4934C286.764 29.9352 287.775 28.7899 289.198 28.3449C290.622 27.9002 292.077 28.2677 293.479 29.173C294.613 29.9053 295.871 30.4006 297.253 30.6652C298.529 30.9095 299.642 30.7161 300.651 30.1105C300.785 30.0301 300.865 29.9397 300.932 29.884C300.839 29.8061 300.703 29.7002 300.503 29.5871C299.26 28.8878 297.965 28.4415 296.612 28.2512C295.147 28.0454 293.616 27.877 292.026 27.7355C290.109 27.5647 288.596 26.6344 287.581 25.0012C286.645 23.4944 286.148 21.8775 286.104 20.173C286.059 18.3913 286.663 16.8347 287.901 15.5637C289.034 14.4012 290.339 13.474 291.807 12.7824C293.23 12.1124 294.737 11.5793 296.323 11.1887ZM45.4088 11.0246C46.3143 10.9104 47.1792 10.982 47.9245 11.3371C48.6891 11.7022 49.2361 12.3237 49.5729 13.1105C50.1547 14.4714 50.3533 15.9875 50.2135 17.6262C50.0835 19.1497 49.913 20.675 49.6901 22.1965C49.4827 23.6138 49.4527 25.0272 49.612 26.4387C49.7477 27.6413 50.3109 28.5765 51.3542 29.298C52.0467 29.7771 52.5653 30.3868 52.8307 31.134C52.8442 31.0378 52.8543 30.9411 52.8698 30.8449C53.1144 29.3274 53.3568 27.8104 53.5963 26.298C53.8204 24.8834 53.8297 23.4699 53.6276 22.0559C53.4112 20.5428 53.1896 19.0264 52.9713 17.509C52.716 15.7321 53.1678 14.1941 54.5417 13.1965C55.7265 12.3374 57.1025 11.9286 58.6198 11.9543C59.9783 11.9775 61.1718 12.1828 61.987 12.7434C62.1925 12.885 62.8024 13.0327 64.151 12.7902C65.6742 12.5168 67.1508 12.6027 68.5573 13.0559C69.8023 13.4571 70.7831 13.7918 71.487 14.0637C71.5673 14.0945 71.7707 14.1306 72.1823 14.0324C72.5884 13.9354 73.1157 13.7248 73.776 13.3684C75.2821 12.555 76.8539 12.0343 78.4792 11.8059C80.2291 11.5603 81.8499 11.9443 83.2838 12.9543C84.6329 13.9046 85.7071 15.1115 86.4948 16.5637C87.2359 17.9302 87.8676 19.376 88.3932 20.8996C88.9677 22.5651 89.0278 24.2743 88.5729 26.0012C88.176 27.5062 87.8679 28.9936 87.6588 30.4543C87.4615 31.8359 87.5131 33.23 87.8073 34.6418C87.9887 35.5121 87.9836 36.4006 87.5495 37.134C87.0895 37.9079 86.2921 38.2718 85.4401 38.384C83.9636 38.5778 82.6228 38.3766 81.6042 37.5637C80.487 36.6709 80.1927 35.1982 80.3229 33.5715C80.4324 32.2028 80.2641 30.8224 79.8151 29.423C79.3168 27.8709 78.9218 26.3402 78.6276 24.8371C78.3733 23.5379 78.0358 22.2927 77.6354 21.0949C77.0272 22.4195 76.6046 23.6867 76.362 24.8996C76.1019 26.2013 75.8928 27.6036 75.737 29.1027C75.582 30.5935 75.5092 32.0792 75.5182 33.5559C75.5236 34.4252 75.3754 35.2358 74.9948 35.9152C74.6036 36.6133 74.0026 37.1048 73.2526 37.3918C72.0219 37.8619 70.6523 38.0763 69.1667 38.048C68.2967 38.0311 67.4731 37.7692 66.8854 37.1184C66.3137 36.4836 66.1096 35.6332 66.1042 34.7434C66.0948 33.2161 66.1152 31.6873 66.1745 30.1574C66.231 28.6975 66.1683 27.245 65.987 25.798C65.8114 24.3978 65.4392 23.1407 64.8776 22.0246C64.6079 21.4892 64.4121 21.3743 64.3776 21.3605C64.3769 21.3601 64.3791 21.3572 64.362 21.3605C64.3304 21.3669 64.2435 21.3938 64.1042 21.4934C63.3959 21.9996 62.6822 22.8684 61.9948 24.1887C61.3596 25.4095 61.1501 26.6542 61.3463 27.9465C61.5674 29.3977 61.922 30.8445 62.4088 32.2824C63.0085 34.0539 62.7973 35.7301 61.7135 37.1809C61.184 37.8893 60.5246 38.4272 59.737 38.7434C58.9539 39.057 58.1001 39.1295 57.2057 39.009C56.4523 38.9071 55.8614 38.8402 55.4401 38.798C55.2316 38.7772 55.0721 38.7573 54.9557 38.7512C54.8916 38.7478 54.8501 38.7513 54.8307 38.7512C54.1793 38.8319 53.8055 38.3537 53.7057 38.2121C53.5649 38.0121 53.469 37.7691 53.3932 37.5559C53.236 37.1126 53.0863 36.492 52.9401 35.7277C52.8084 35.0391 52.7418 34.3486 52.7135 33.6574C52.667 33.7758 52.6288 33.8996 52.5729 34.0168C52.2138 34.7699 51.8402 35.4094 51.4479 35.9152C51.0615 36.4133 50.6091 36.8413 50.0729 37.0793C49.0877 37.5157 47.7826 37.3974 46.3776 37.0246C45.1659 36.7037 44.1242 36.7297 43.2135 37.0402C41.9934 37.457 40.6025 37.7337 39.0573 37.884C38.334 37.9543 37.7509 38.0374 37.2995 38.1262C36.8359 38.2174 36.5676 38.3056 36.4401 38.3684C36.0129 38.5807 35.4681 38.6676 34.9167 38.7043C34.3397 38.7425 33.6389 38.729 32.8307 38.673C31.0096 38.5468 29.4481 37.8117 28.2057 36.4777C27.0508 35.2375 26.1942 33.8519 25.651 32.3371C25.149 30.9368 24.7043 29.5161 24.3073 28.0793C23.8864 26.5562 23.7188 24.9691 23.8073 23.3215C23.9018 21.567 24.5061 19.989 25.6042 18.6184C26.6375 17.3294 27.8282 16.2427 29.1745 15.3762C30.4705 14.5421 31.8257 13.8155 33.237 13.1965C34.7714 12.5236 36.3777 12.3112 38.0338 12.5559C39.3598 12.7519 40.3919 12.5985 41.1901 12.1965C42.3504 11.6122 43.7677 11.2318 45.4088 11.0246ZM297.706 39.048H297.721C297.697 39.0406 297.671 39.0353 297.643 39.0246C297.674 39.0351 297.695 39.0454 297.706 39.048ZM222.635 12.2355C224.128 12.3394 225.6 12.4848 227.049 12.6652C228.541 12.8509 230.083 13.1785 231.667 13.6496C233.475 14.1878 234.809 15.3342 235.604 17.0402C236.295 18.5233 236.88 20.0162 237.354 21.509C237.859 23.0981 238.003 24.726 237.784 26.3762C237.577 27.9341 237.239 29.4618 236.784 30.9543C236.312 32.4999 235.59 33.9721 234.62 35.3605C233.534 36.9129 232.004 37.7842 230.112 37.9387C228.481 38.0718 227.059 38.0896 225.854 37.9855C225.499 37.9548 225.251 37.9742 225.089 37.9855C224.981 38.1879 224.832 38.3453 224.682 38.4543C224.436 38.6335 224.148 38.7357 223.901 38.798C223.394 38.9255 222.71 38.9825 221.909 38.9934C220.114 39.0176 218.491 38.4658 217.081 37.3527C215.75 36.3024 214.698 35.0651 213.94 33.6418C213.243 32.3311 212.581 30.9947 211.956 29.6418C211.296 28.2155 210.843 26.6913 210.604 25.0715C210.348 23.3364 210.62 21.6632 211.409 20.0949C212.154 18.6146 213.106 17.3133 214.26 16.2043C215.382 15.1273 216.605 14.1821 217.932 13.3762C219.375 12.5006 220.954 12.1188 222.635 12.2355ZM250.331 12.2355C251.824 12.3394 253.296 12.4848 254.745 12.6652C256.236 12.8509 257.778 13.1785 259.362 13.6496C261.171 14.1878 262.504 15.3342 263.299 17.0402C263.991 18.5233 264.575 20.0162 265.049 21.509C265.554 23.0981 265.699 24.726 265.479 26.3762C265.272 27.9341 264.934 29.4618 264.479 30.9543C264.007 32.4999 263.286 33.9721 262.315 35.3605C261.229 36.9129 259.699 37.7842 257.807 37.9387C256.176 38.0718 254.754 38.0896 253.549 37.9855C253.195 37.9548 252.946 37.9742 252.784 37.9855C252.676 38.1879 252.527 38.3453 252.378 38.4543C252.131 38.6335 251.843 38.7357 251.596 38.798C251.089 38.9255 250.405 38.9825 249.604 38.9934C247.81 39.0176 246.186 38.4658 244.776 37.3527C243.446 36.3024 242.393 35.0651 241.635 33.6418C240.938 32.3311 240.277 30.9947 239.651 29.6418C238.992 28.2155 238.539 26.6913 238.299 25.0715C238.044 23.3364 238.316 21.6632 239.104 20.0949C239.849 18.6146 240.802 17.3133 241.956 16.2043C243.077 15.1273 244.3 14.1821 245.628 13.3762C247.07 12.5006 248.649 12.1188 250.331 12.2355ZM297.182 38.6809C297.25 38.7715 297.327 38.8315 297.385 38.8762C297.317 38.8214 297.242 38.7635 297.182 38.6809ZM150.76 11.0246C151.666 10.9104 152.531 10.982 153.276 11.3371C154.041 11.7022 154.588 12.3237 154.924 13.1105C155.506 14.4714 155.705 15.9875 155.565 17.6262C155.435 19.1497 155.265 20.675 155.042 22.1965C154.834 23.6138 154.804 25.0272 154.964 26.4387C155.099 27.6413 155.662 28.5765 156.706 29.298C157.48 29.8337 158.06 30.526 158.284 31.3996C158.309 31.4997 158.307 31.6037 158.323 31.7043C158.365 31.3995 158.411 31.0943 158.471 30.7902C158.768 29.2969 159.037 27.796 159.284 26.2902C159.515 24.8797 159.52 23.474 159.292 22.0715C159.046 20.5672 158.784 19.0613 158.51 17.5637C158.353 16.6991 158.363 15.869 158.612 15.1184C158.866 14.3523 159.349 13.7301 160.018 13.2668C161.214 12.4388 162.572 12.0749 164.049 12.173C165.387 12.2619 166.551 12.5557 167.385 13.173C167.585 13.3177 168.147 13.4692 169.456 13.0637C170.905 12.6144 172.38 12.3533 173.878 12.2902C175.556 12.2196 177.006 12.7693 178.135 13.9543C178.716 14.5635 179.098 15.2776 179.229 16.0871C179.359 16.8884 179.232 17.7129 178.917 18.5324C178.592 19.3765 178.083 20.0836 177.331 20.509C176.577 20.9349 175.714 21.0035 174.831 20.8371C173.594 20.6034 172.424 20.7515 171.299 21.2902C170.214 21.8106 169.44 22.6378 168.956 23.8137C168.437 25.0731 168.219 26.3694 168.299 27.7043C168.397 29.326 168.169 30.9476 167.628 32.5637C167.122 34.0732 166.706 35.2238 166.385 35.9855C165.874 37.1969 164.507 37.8205 162.964 38.173C161.488 38.5096 160.492 38.7237 160.096 38.759C159.537 38.8082 159.167 38.4683 158.995 38.2434C158.825 38.0216 158.718 37.7595 158.643 37.5324C158.49 37.0629 158.376 36.4164 158.284 35.6418C158.194 34.8835 158.16 34.1235 158.182 33.3684C158.112 33.5857 158.026 33.8029 157.924 34.0168C157.565 34.7699 157.192 35.4094 156.799 35.9152C156.413 36.4133 155.961 36.8413 155.424 37.0793C154.439 37.5157 153.134 37.3974 151.729 37.0246C150.518 36.7037 149.476 36.7297 148.565 37.0402C147.345 37.457 145.954 37.7337 144.409 37.884C143.686 37.9543 143.103 38.0374 142.651 38.1262C142.187 38.2174 141.919 38.3056 141.792 38.3684C141.364 38.5807 140.82 38.6676 140.268 38.7043C139.691 38.7425 138.99 38.729 138.182 38.673C136.361 38.5468 134.8 37.8117 133.557 36.4777C132.402 35.2375 131.546 33.8519 131.003 32.3371C130.501 30.9368 130.056 29.5161 129.659 28.0793C129.238 26.5562 129.07 24.9691 129.159 23.3215C129.253 21.567 129.858 19.989 130.956 18.6184C131.989 17.3294 133.18 16.2427 134.526 15.3762C135.822 14.5421 137.177 13.8155 138.589 13.1965C140.123 12.5236 141.729 12.3112 143.385 12.5559C144.711 12.7519 145.744 12.5985 146.542 12.1965C147.702 11.6122 149.119 11.2318 150.76 11.0246ZM106.479 2.03241C108.223 1.88511 109.725 2.36716 110.612 3.74335C111.443 5.0343 111.475 6.58118 110.956 8.22773C110.52 9.60915 110.285 11.0122 110.245 12.4309C110.201 13.976 110.081 15.5176 109.885 17.0559C109.701 18.5004 109.657 19.9483 109.745 21.3996C109.833 22.8533 110.044 24.283 110.385 25.6887C110.72 27.0637 111.192 27.6895 111.604 27.9309C112.368 28.3784 112.924 28.7074 113.268 28.9152C113.566 29.0949 113.899 29.4183 114.229 29.7668C114.582 30.1395 115.011 30.6307 115.51 31.2355C116.087 31.9342 116.479 32.711 116.526 33.548C116.573 34.4091 116.244 35.188 115.682 35.8527C114.636 37.0895 113.246 37.7866 111.581 37.9543C110.88 38.0249 110.402 38.1009 110.12 38.173C110.099 38.1783 110.081 38.1841 110.065 38.1887C110.018 38.2447 109.986 38.3093 109.932 38.3527C109.745 38.5051 109.548 38.5663 109.432 38.5949C109.196 38.6531 108.939 38.6575 108.721 38.6496C108.258 38.6324 107.612 38.5487 106.823 38.4074C104.927 38.068 103.564 36.9681 102.831 35.1887C102.184 33.6188 101.829 32.0149 101.784 30.384C101.744 28.9361 101.585 27.4953 101.307 26.0637C101.017 24.5666 100.76 23.053 100.526 21.5246C100.279 19.9044 100.289 18.2844 100.557 16.673C100.808 15.1706 101.042 13.6679 101.268 12.173C101.488 10.7196 101.612 9.25919 101.628 7.79023C101.644 6.18337 101.939 4.79817 102.659 3.79023C103.459 2.67188 104.85 2.17027 106.479 2.03241ZM272.69 2.03241C274.434 1.88511 275.936 2.36716 276.823 3.74335C277.654 5.0343 277.686 6.58118 277.167 8.22773C276.731 9.60915 276.496 11.0122 276.456 12.4309C276.412 13.976 276.292 15.5176 276.096 17.0559C275.912 18.5004 275.868 19.9483 275.956 21.3996C276.043 22.8533 276.255 24.283 276.596 25.6887C276.931 27.0637 277.403 27.6895 277.815 27.9309C278.579 28.3784 279.135 28.7074 279.479 28.9152C279.777 29.0949 280.11 29.4183 280.44 29.7668C280.793 30.1395 281.222 30.6307 281.721 31.2355C282.298 31.9342 282.69 32.711 282.737 33.548C282.784 34.4091 282.455 35.188 281.893 35.8527C280.847 37.0895 279.457 37.7866 277.792 37.9543C277.091 38.0249 276.613 38.1009 276.331 38.173C276.31 38.1783 276.292 38.1841 276.276 38.1887C276.229 38.2447 276.197 38.3093 276.143 38.3527C275.956 38.5051 275.759 38.5663 275.643 38.5949C275.407 38.6531 275.149 38.6575 274.932 38.6496C274.469 38.6324 273.823 38.5487 273.034 38.4074C271.138 38.068 269.775 36.9681 269.042 35.1887C268.395 33.6188 268.04 32.0149 267.995 30.384C267.955 28.9361 267.796 27.4953 267.518 26.0637C267.228 24.5666 266.97 23.053 266.737 21.5246C266.489 19.9044 266.5 18.2844 266.768 16.673C267.019 15.1706 267.253 13.6679 267.479 12.173C267.699 10.7196 267.823 9.25919 267.839 7.79023C267.855 6.18337 268.15 4.79817 268.87 3.79023C269.67 2.67188 271.061 2.17027 272.69 2.03241ZM297.049 38.4387C297.06 38.4669 297.076 38.491 297.089 38.5168C297.076 38.4907 297.06 38.4667 297.049 38.4387ZM91.1276 12.6418C92.5062 11.5328 94.1594 11.2289 95.9635 11.6496C96.8816 11.8638 97.6754 12.273 98.2682 12.923C98.8642 13.5768 99.1872 14.3995 99.2838 15.3215C99.4583 16.9888 99.2335 18.6482 98.6276 20.2902C98.1212 21.6623 97.9458 23.0233 98.0885 24.3762C98.2438 25.8465 98.4935 27.3154 98.8385 28.7824C99.2385 30.4827 99.1429 32.1945 98.5573 33.8918C98.0171 35.457 97.3278 36.7185 96.3776 37.384C95.4806 38.012 94.2432 38.3124 92.8073 38.3996C92.1317 38.4406 91.6204 38.4683 91.276 38.4855C91.1052 38.4941 90.9657 38.4984 90.8698 38.5012C90.8242 38.5025 90.7725 38.5096 90.7292 38.509C90.7111 38.5087 90.6672 38.5059 90.6198 38.5012C90.5998 38.4992 90.5346 38.4911 90.4557 38.4699C90.4221 38.4609 90.3109 38.4342 90.1901 38.3605C90.129 38.3232 89.892 38.1642 89.776 37.8605L89.7135 37.5012V37.423C89.7146 37.4101 89.7207 37.3978 89.7213 37.3918C89.7224 37.3818 89.7207 37.3733 89.7213 37.3684C89.7225 37.3596 89.7283 37.3505 89.7292 37.3449C89.731 37.3329 89.7269 37.3117 89.7292 37.298C89.7336 37.2707 89.7449 37.2345 89.7526 37.1887C89.7692 37.0901 89.7903 36.9413 89.8229 36.7512C89.8887 36.3672 89.9884 35.7916 90.1198 35.0324C90.35 33.7012 90.2167 32.3705 89.6979 31.0246C89.0537 29.3526 88.8838 27.6529 89.2135 25.9465C89.4881 24.526 89.5592 23.1076 89.4245 21.6887C89.2779 20.1491 89.1893 18.6042 89.151 17.0637C89.1065 15.259 89.7572 13.7444 91.1276 12.6418ZM120.151 12.6418C121.53 11.5328 123.183 11.2289 124.987 11.6496C125.905 11.8638 126.699 12.273 127.292 12.923C127.888 13.5768 128.211 14.3995 128.307 15.3215C128.482 16.9888 128.257 18.6482 127.651 20.2902C127.145 21.6623 126.969 23.0233 127.112 24.3762C127.267 25.8465 127.517 27.3154 127.862 28.7824C128.262 30.4827 128.166 32.1945 127.581 33.8918C127.041 35.457 126.351 36.7185 125.401 37.384C124.504 38.012 123.267 38.3124 121.831 38.3996C121.155 38.4406 120.644 38.4683 120.299 38.4855C120.129 38.4941 119.989 38.4984 119.893 38.5012C119.848 38.5025 119.796 38.5096 119.753 38.509C119.735 38.5087 119.691 38.5059 119.643 38.5012C119.623 38.4992 119.558 38.4911 119.479 38.4699C119.446 38.4609 119.334 38.4342 119.214 38.3605C119.152 38.3232 118.915 38.1642 118.799 37.8605L118.737 37.5012V37.423C118.738 37.4101 118.744 37.3978 118.745 37.3918C118.746 37.3818 118.744 37.3733 118.745 37.3684C118.746 37.3596 118.752 37.3505 118.753 37.3449C118.754 37.3329 118.75 37.3117 118.753 37.298C118.757 37.2707 118.768 37.2345 118.776 37.1887C118.793 37.0901 118.814 36.9413 118.846 36.7512C118.912 36.3672 119.012 35.7916 119.143 35.0324C119.373 33.7012 119.24 32.3705 118.721 31.0246C118.077 29.3526 117.907 27.6529 118.237 25.9465C118.512 24.526 118.583 23.1076 118.448 21.6887C118.301 20.1491 118.213 18.6042 118.174 17.0637C118.13 15.259 118.781 13.7444 120.151 12.6418ZM298.987 38.0949C298.987 37.9831 298.956 37.8747 298.917 37.7668C298.951 37.8635 298.987 37.9691 298.987 38.0949ZM298.862 37.6262C298.85 37.6042 298.845 37.5771 298.831 37.5559C298.821 37.5404 298.802 37.5311 298.792 37.5168C298.816 37.5506 298.84 37.586 298.862 37.6262ZM197.862 4.99335C197.078 4.94898 196.792 5.11448 196.706 5.19648C196.655 5.24519 196.505 5.42266 196.596 6.04804C196.842 7.73766 196.78 9.50074 196.417 11.3293C196.219 12.3228 195.827 13.1977 195.151 13.8137C194.457 14.4453 193.573 14.7012 192.612 14.6809C191.232 14.6517 190.588 15.0069 190.292 15.4152C189.926 15.9208 189.726 16.7537 189.901 18.0871C189.975 18.654 190.157 18.9218 190.323 19.0559C190.494 19.1925 190.809 19.3156 191.409 19.2824C192.265 19.2343 193.091 19.3465 193.753 19.7512C194.463 20.1857 194.853 20.8789 194.964 21.6809C195.115 22.7785 195.304 24.0752 195.534 25.5715C195.774 27.138 195.858 28.7093 195.784 30.2824C195.719 31.6588 195.918 33.0443 196.385 34.4387C196.59 35.0475 196.885 35.4807 197.245 35.7902C197.605 36.1001 198.079 36.3267 198.714 36.4387C199.514 36.58 200.18 36.7456 200.667 36.9387C200.905 37.0332 201.163 37.1578 201.378 37.3371C201.446 37.3943 201.509 37.4814 201.581 37.5715C201.862 37.5418 202.297 37.4733 202.909 37.3137C204.22 36.9715 205.301 36.2727 206.182 35.2043C207.087 34.1075 207.513 33.0431 207.557 31.9934C207.578 31.4916 207.481 31.1346 207.323 30.8684C207.165 30.6032 206.901 30.3492 206.464 30.1418C206.086 29.9637 205.763 29.948 205.448 30.0402C205.106 30.1407 204.683 30.3947 204.198 30.923C203.6 31.5752 202.734 32.2317 201.714 31.9621C201.221 31.8319 200.846 31.5182 200.573 31.1652C200.302 30.8159 200.09 30.3823 199.917 29.9074C199.253 28.085 199.056 26.3012 199.37 24.5871C199.654 23.0379 200.014 21.6342 200.44 20.3762C200.99 18.7548 202.304 17.8031 204.089 17.4387C205.604 17.1298 206.563 16.8151 207.057 16.5324C207.119 16.4957 207.267 16.3701 207.424 15.9934C207.583 15.6152 207.718 15.0632 207.807 14.3059C207.89 13.606 207.741 13.3839 207.698 13.3371C207.67 13.3067 207.506 13.1563 206.87 13.2199C205.204 13.3872 203.729 13.1884 202.573 12.4699C201.907 12.0558 201.46 11.4421 201.268 10.6809C201.086 9.9531 201.15 9.14828 201.37 8.32148C201.707 7.04767 201.473 6.38167 201.057 5.98554C200.527 5.48131 199.535 5.08848 197.862 4.99335ZM19.612 2.01679C18.1605 1.95169 16.6641 2.03102 15.1276 2.25898C13.8757 2.4453 13.0526 3.08657 12.5573 4.25116C11.9487 5.68252 11.502 7.07853 11.2135 8.43866C10.8632 10.0904 10.0334 11.4291 8.72134 12.3996C7.49575 13.3061 6.07521 13.9376 4.47916 14.2902C3.86586 14.4263 3.51212 14.6283 3.31509 14.8293C3.13688 15.0122 3.01467 15.2632 3.00259 15.6574C2.97467 16.6252 3.2749 17.4009 3.89322 18.048C4.43835 18.6184 5.18018 18.8861 6.29166 18.7199C7.15421 18.5911 8.01488 18.7103 8.69791 19.2746C9.35991 19.8225 9.68075 20.6476 9.80728 21.5324C10.0374 23.1438 10.0234 24.7577 9.76822 26.3684C9.52773 27.8865 9.27465 29.4049 9.01041 30.923C8.76643 32.325 8.75993 33.7247 8.99478 35.1262C9.12182 35.8843 9.21937 36.4781 9.28384 36.8996C9.2935 36.9627 9.29894 37.023 9.30728 37.0793C9.58539 37.1426 9.98069 37.2253 10.5104 37.3059C11.5193 37.4592 12.5099 37.2019 13.526 36.4309C13.9879 36.08 14.2231 35.7217 14.3229 35.3684C14.4239 35.0086 14.4182 34.5411 14.2057 33.9309C13.6052 32.2048 13.636 30.4572 14.2838 28.7277C14.7994 27.3528 14.9597 25.9957 14.7917 24.6574C14.5917 23.0624 14.6037 21.4571 14.8229 19.8449C14.9477 18.928 15.2987 18.0874 16.0182 17.5402C16.7379 16.9935 17.6414 16.883 18.5573 17.009C19.9772 17.2036 20.6582 16.9454 20.9713 16.634C21.3052 16.3005 21.4957 15.7827 21.2838 14.8371C21.2042 14.484 21.0674 14.3529 20.9323 14.2824C20.7508 14.1887 20.3902 14.1114 19.737 14.2121C18.8291 14.3519 17.9571 14.2792 17.1901 13.8918C16.4162 13.5008 15.8596 12.8405 15.4792 12.0246C15.1222 11.2585 14.9314 10.4139 15.2292 9.61835C15.5384 8.79632 16.2542 8.31349 17.0417 8.04804C18.413 7.58693 19.8598 7.34619 21.3698 7.32929C21.8961 7.32345 22.1937 7.18652 22.3776 7.01679C22.5701 6.839 22.7618 6.51212 22.8542 5.90741C23.0526 4.60549 22.8117 3.72532 22.2995 3.11054C21.781 2.48976 20.9416 2.07663 19.612 2.01679ZM296.799 13.134C295.337 13.4943 293.956 13.9761 292.659 14.5871C291.407 15.1766 290.297 15.9631 289.331 16.9543C288.471 17.8362 288.072 18.8762 288.104 20.1262C288.138 21.4539 288.523 22.7228 289.284 23.9465C289.966 25.0442 290.912 25.6283 292.206 25.7434C293.826 25.8875 295.386 26.064 296.885 26.2746C298.496 26.5008 300.033 27.0262 301.487 27.8449C301.873 28.0623 302.223 28.3118 302.495 28.6027C302.768 28.8965 303.012 29.2899 303.049 29.7746C303.125 30.7769 302.329 31.4408 301.682 31.8293C300.225 32.7043 298.604 32.9638 296.878 32.634C295.254 32.3229 293.757 31.7278 292.401 30.8527C291.314 30.1508 290.471 30.0386 289.792 30.2512C289.11 30.4644 288.453 31.0506 287.909 32.2902C287.649 32.8829 287.625 33.2669 287.674 33.4934C287.716 33.6828 287.836 33.8829 288.174 34.0871C289.225 34.7181 290.427 35.4182 291.776 36.1809C292.968 36.8548 294.242 37.1613 295.612 37.1027C296.391 37.0694 296.991 37.0485 297.401 37.048C297.602 37.0478 297.784 37.0521 297.924 37.0637C297.97 37.0675 298.038 37.0735 298.112 37.0871C298.131 37.0831 298.152 37.0843 298.174 37.0793C298.422 37.023 298.816 36.9157 299.362 36.759C300.538 36.4217 301.923 36.1799 303.503 36.0246C304.802 35.8968 305.911 35.368 306.862 34.4074C307.85 33.4072 308.549 32.1996 308.956 30.7746C309.325 29.4796 309.149 28.2622 308.385 27.048C307.627 25.8411 306.636 25.209 305.362 25.0559C303.608 24.8453 301.992 24.2378 300.526 23.2434C299.308 22.417 298.048 21.9238 296.745 21.7512C295.952 21.6459 295.134 21.404 294.628 20.798C294.034 20.0868 294.12 19.2246 294.424 18.5246C294.753 17.769 295.324 17.2147 296.104 16.9387C296.845 16.6774 297.697 16.6994 298.581 16.8762C300.268 17.214 301.832 17.816 303.26 18.6887C303.815 19.027 304.22 19.1201 304.503 19.1027C304.76 19.0866 305.035 18.971 305.339 18.6496C306.18 17.7575 306.268 17.2423 306.229 17.0246C306.212 16.9343 306.139 16.7569 305.878 16.4934C305.613 16.2269 305.201 15.919 304.604 15.5871C303.336 14.882 301.991 14.1967 300.573 13.5246C299.341 12.9408 298.097 12.8144 296.799 13.134ZM78.7604 13.7824C77.3822 13.9758 76.0387 14.4268 74.7292 15.134C73.984 15.5362 73.2864 15.8255 72.651 15.9777C72.022 16.128 71.3658 16.1608 70.7682 15.9309C70.1163 15.6791 69.1739 15.3519 67.9401 14.9543C66.868 14.6092 65.7269 14.539 64.5026 14.759C63.1016 15.0109 61.7704 15.023 60.8542 14.3918C60.5476 14.1807 59.8622 13.9762 58.5885 13.9543C57.4729 13.9352 56.5301 14.2279 55.7213 14.8137C55.103 15.262 54.7749 15.9708 54.9557 17.2277C55.1739 18.7447 55.3878 20.262 55.6042 21.7746C55.8344 23.3863 55.828 24.9995 55.5729 26.6105C55.3333 28.1239 55.0833 29.6389 54.8385 31.1574C54.6123 32.5612 54.6348 33.9603 54.901 35.3527C55.0251 36.0017 55.1483 36.463 55.2448 36.7668C55.364 36.7757 55.4978 36.7913 55.6432 36.8059C56.0981 36.8514 56.7096 36.9294 57.4713 37.0324C58.09 37.1159 58.5876 37.0474 58.9948 36.884C59.399 36.7216 59.7733 36.4387 60.112 35.9855C60.7642 35.113 60.9205 34.1343 60.5104 32.923C59.9876 31.3784 59.6089 29.8207 59.3698 28.2512C59.1065 26.5231 59.3972 24.8508 60.2213 23.2668C60.9922 21.7858 61.886 20.6224 62.9401 19.8684C63.5524 19.4308 64.3244 19.1845 65.1198 19.5012C65.8345 19.7863 66.3192 20.4357 66.6667 21.1262C67.3407 22.4657 67.7781 23.9442 67.9792 25.548C68.1741 27.1035 68.2352 28.6668 68.1745 30.2355C68.1164 31.7356 68.095 33.2382 68.1042 34.7355C68.1085 35.3543 68.2488 35.6483 68.3698 35.7824C68.4763 35.9004 68.6968 36.0382 69.2057 36.048C70.4792 36.0723 71.583 35.8873 72.5338 35.5246C72.8723 35.3953 73.0955 35.2035 73.2448 34.9387C73.4049 34.6528 73.522 34.2156 73.5182 33.5715C73.5086 32.0206 73.5825 30.4621 73.7448 28.8996C73.9063 27.3452 74.1271 25.8796 74.401 24.509C74.6858 23.0848 75.1774 21.6285 75.8698 20.1418C76.0525 19.7496 76.2605 19.39 76.4948 19.1105C76.7096 18.8544 77.0813 18.5022 77.6276 18.4621C78.234 18.4177 78.6599 18.77 78.8932 19.0637C79.1248 19.3553 79.293 19.7327 79.4245 20.1105C79.9079 21.5001 80.2939 22.9492 80.5885 24.4543C80.8665 25.8744 81.2458 27.3243 81.7213 28.8059C82.2459 30.4396 82.4461 32.0851 82.3151 33.7277C82.2042 35.1133 82.5154 35.7308 82.8542 36.0012C83.2921 36.3506 84.0065 36.5544 85.1823 36.3996C85.6484 36.3382 85.7762 36.1947 85.8229 36.1184C85.8912 36.0034 85.9822 35.6997 85.8463 35.048C85.5062 33.4148 85.4507 31.7831 85.6823 30.1652C85.9027 28.6256 86.2201 27.068 86.6354 25.4934C86.9923 24.1401 86.9453 22.8315 86.5026 21.548C86.0116 20.1252 85.423 18.7819 84.737 17.5168C84.0961 16.3354 83.2316 15.3595 82.1354 14.5871C81.1234 13.8743 80.0149 13.6065 78.7604 13.7824ZM222.495 14.2355C221.226 14.1478 220.06 14.426 218.971 15.0871C217.768 15.8176 216.66 16.6728 215.643 17.6496C214.66 18.5942 213.845 19.7068 213.198 20.9934C212.594 22.1943 212.393 23.4475 212.589 24.7746C212.801 26.2161 213.193 27.5611 213.768 28.8059C214.378 30.1241 215.027 31.4196 215.706 32.6965C216.325 33.8603 217.193 34.8907 218.323 35.7824C219.373 36.6104 220.544 37.011 221.878 36.9934C222.586 36.9838 223.062 36.9304 223.346 36.8684C223.421 36.6999 223.535 36.5491 223.674 36.423C223.917 36.2048 224.208 36.1025 224.432 36.048C224.878 35.9407 225.436 35.9423 226.026 35.9934C227.084 36.0848 228.388 36.0738 229.948 35.9465C231.249 35.8402 232.236 35.2747 232.979 34.2121C233.838 32.9843 234.471 31.7026 234.878 30.3684C235.301 28.9809 235.607 27.5613 235.799 26.1105C235.98 24.752 235.864 23.4207 235.448 22.1105C235.001 20.7034 234.448 19.293 233.792 17.884C233.24 16.7004 232.359 15.9475 231.096 15.5715C229.608 15.1287 228.177 14.8203 226.807 14.6496C225.394 14.4737 223.953 14.337 222.495 14.2355ZM250.19 14.2355C248.922 14.1478 247.756 14.426 246.667 15.0871C245.463 15.8176 244.355 16.6728 243.339 17.6496C242.356 18.5942 241.541 19.7068 240.893 20.9934C240.289 22.1943 240.088 23.4475 240.284 24.7746C240.496 26.2161 240.888 27.5611 241.464 28.8059C242.073 30.1241 242.722 31.4196 243.401 32.6965C244.02 33.8603 244.889 34.8907 246.018 35.7824C247.068 36.6104 248.24 37.011 249.573 36.9934C250.282 36.9838 250.757 36.9304 251.042 36.8684C251.116 36.6999 251.23 36.5491 251.37 36.423C251.612 36.2048 251.903 36.1025 252.128 36.048C252.573 35.9407 253.131 35.9423 253.721 35.9934C254.779 36.0848 256.083 36.0738 257.643 35.9465C258.944 35.8402 259.931 35.2747 260.674 34.2121C261.533 32.9843 262.166 31.7026 262.573 30.3684C262.996 28.9809 263.302 27.5613 263.495 26.1105C263.675 24.752 263.56 23.4207 263.143 22.1105C262.696 20.7034 262.144 19.293 261.487 17.884C260.935 16.7004 260.054 15.9475 258.792 15.5715C257.303 15.1287 255.873 14.8203 254.503 14.6496C253.09 14.4737 251.648 14.337 250.19 14.2355ZM45.6588 13.009C44.1653 13.1976 42.9854 13.5338 42.0885 13.9855C40.829 14.6197 39.3595 14.7709 37.7448 14.5324C36.4602 14.3425 35.2329 14.51 34.0417 15.0324C32.7272 15.609 31.4676 16.2868 30.2604 17.0637C29.1029 17.8087 28.0705 18.7411 27.1667 19.8684C26.33 20.9122 25.88 22.0865 25.8073 23.423C25.7294 24.8679 25.8688 26.2438 26.2292 27.548C26.6133 28.938 27.0483 30.311 27.5338 31.6652C27.979 32.9068 28.691 34.0545 29.6745 35.1105C30.5694 36.0712 31.6486 36.589 32.9635 36.6809C33.7237 36.7335 34.33 36.7421 34.7838 36.7121C35.2617 36.6804 35.4841 36.6118 35.5495 36.5793C35.9156 36.3976 36.3879 36.2679 36.9088 36.1652C37.4463 36.0594 38.1011 35.9658 38.862 35.8918C40.2892 35.753 41.5226 35.5057 42.5651 35.1496C43.9152 34.6884 45.3698 34.6832 46.8932 35.0871C48.2254 35.4405 48.9483 35.3932 49.2682 35.2512C49.3854 35.198 49.5918 35.047 49.8698 34.6887C50.144 34.3348 50.4462 33.8326 50.7682 33.1574C51.0419 32.5833 51.0679 32.1776 50.9948 31.8918C50.9221 31.6103 50.7111 31.2828 50.2135 30.9387C48.7126 29.8993 47.8305 28.4568 47.6276 26.6652C47.4489 25.082 47.4737 23.4934 47.7057 21.9074C47.9229 20.4249 48.0948 18.9381 48.2213 17.4543C48.3381 16.0857 48.1627 14.9047 47.7292 13.8918C47.5583 13.4944 47.3288 13.2712 47.0573 13.1418C46.7642 13.0031 46.3195 12.9256 45.6588 13.009ZM151.01 13.009C149.517 13.1976 148.337 13.5338 147.44 13.9855C146.181 14.6197 144.711 14.7709 143.096 14.5324C141.812 14.3425 140.584 14.51 139.393 15.0324C138.079 15.609 136.819 16.2868 135.612 17.0637C134.454 17.8087 133.422 18.7411 132.518 19.8684C131.682 20.9122 131.232 22.0865 131.159 23.423C131.081 24.8679 131.22 26.2438 131.581 27.548C131.965 28.938 132.4 30.311 132.885 31.6652C133.331 32.9068 134.043 34.0545 135.026 35.1105C135.921 36.0712 137 36.589 138.315 36.6809C139.075 36.7335 139.682 36.7421 140.135 36.7121C140.613 36.6804 140.836 36.6118 140.901 36.5793C141.267 36.3976 141.74 36.2679 142.26 36.1652C142.798 36.0594 143.453 35.9658 144.214 35.8918C145.641 35.753 146.874 35.5057 147.917 35.1496C149.267 34.6884 150.721 34.6832 152.245 35.0871C153.577 35.4405 154.3 35.3932 154.62 35.2512C154.737 35.198 154.943 35.047 155.221 34.6887C155.496 34.3348 155.798 33.8326 156.12 33.1574C156.393 32.5833 156.419 32.1776 156.346 31.8918C156.274 31.6103 156.063 31.2828 155.565 30.9387C154.064 29.8993 153.182 28.4568 152.979 26.6652C152.8 25.082 152.825 23.4934 153.057 21.9074C153.274 20.4249 153.446 18.9381 153.573 17.4543C153.69 16.0857 153.514 14.9047 153.081 13.8918C152.91 13.4944 152.68 13.2712 152.409 13.1418C152.116 13.0031 151.671 12.9256 151.01 13.009ZM106.651 4.0246C105.253 4.14272 104.58 4.53907 104.284 4.95429C103.907 5.48211 103.642 6.38852 103.628 7.81366C103.611 9.3739 103.486 10.9264 103.253 12.4699C103.025 13.9749 102.779 15.4888 102.526 17.0012C102.292 18.4029 102.287 19.808 102.503 21.2199C102.732 22.7229 102.991 24.2097 103.276 25.6809C103.575 27.2194 103.741 28.7712 103.784 30.3293C103.822 31.7043 104.123 33.0663 104.682 34.423C105.155 35.5702 105.95 36.2193 107.174 36.4387C107.92 36.5722 108.44 36.6348 108.76 36.6496C108.856 36.5681 108.933 36.504 108.979 36.4777C109.183 36.3622 109.42 36.2886 109.628 36.2355C110.058 36.1254 110.653 36.0429 111.378 35.9699C112.566 35.8502 113.472 35.3756 114.159 34.5637C114.463 34.2036 114.54 33.9071 114.526 33.6574C114.51 33.3853 114.38 33.0038 113.971 32.509C113.485 31.9201 113.085 31.4686 112.776 31.1418C112.621 30.9783 112.493 30.849 112.393 30.759L112.237 30.634C111.906 30.4338 111.353 30.1053 110.589 29.6574C109.473 29.0022 108.818 27.7179 108.44 26.1652C108.07 24.6424 107.84 23.0895 107.745 21.5168C107.65 19.9427 107.702 18.372 107.901 16.8059C108.089 15.3332 108.203 13.8548 108.245 12.3762C108.29 10.7692 108.559 9.18109 109.049 7.62616C109.455 6.33904 109.333 5.45546 108.924 4.82148C108.57 4.27389 107.933 3.9168 106.651 4.0246ZM272.862 4.0246C271.464 4.14272 270.791 4.53907 270.495 4.95429C270.118 5.48211 269.853 6.38852 269.839 7.81366C269.822 9.3739 269.697 10.9264 269.464 12.4699C269.236 13.9749 268.989 15.4888 268.737 17.0012C268.503 18.4029 268.498 19.808 268.714 21.2199C268.943 22.7229 269.201 24.2097 269.487 25.6809C269.786 27.2194 269.952 28.7712 269.995 30.3293C270.033 31.7043 270.334 33.0663 270.893 34.423C271.366 35.5702 272.161 36.2193 273.385 36.4387C274.131 36.5722 274.651 36.6348 274.971 36.6496C275.066 36.5681 275.144 36.504 275.19 36.4777C275.394 36.3622 275.631 36.2886 275.839 36.2355C276.269 36.1254 276.864 36.0429 277.589 35.9699C278.777 35.8502 279.683 35.3756 280.37 34.5637C280.674 34.2036 280.751 33.9071 280.737 33.6574C280.721 33.3853 280.591 33.0038 280.182 32.509C279.696 31.9201 279.296 31.4686 278.987 31.1418C278.832 30.9783 278.704 30.849 278.604 30.759L278.448 30.634C278.117 30.4338 277.564 30.1053 276.799 29.6574C275.683 29.0022 275.029 27.7179 274.651 26.1652C274.281 24.6424 274.051 23.0895 273.956 21.5168C273.861 19.9427 273.913 18.372 274.112 16.8059C274.3 15.3332 274.414 13.8548 274.456 12.3762C274.501 10.7692 274.77 9.18109 275.26 7.62616C275.666 6.33904 275.544 5.45546 275.135 4.82148C274.781 4.27389 274.143 3.9168 272.862 4.0246ZM163.917 14.173C162.873 14.1037 161.969 14.3541 161.159 14.9152C160.826 15.1461 160.62 15.419 160.51 15.7512C160.396 16.0979 160.364 16.569 160.479 17.2043C160.755 18.7142 161.013 20.2346 161.26 21.7512C161.524 23.3675 161.526 24.9882 161.26 26.6105C161.01 28.1391 160.733 29.6649 160.432 31.1809C160.154 32.5826 160.101 33.9927 160.268 35.4074C160.333 35.9549 160.403 36.3627 160.471 36.6496C160.906 36.5643 161.584 36.4408 162.518 36.2277C163.997 35.8901 164.442 35.4415 164.542 35.2043C164.832 34.5142 165.227 33.429 165.729 31.9309C166.195 30.54 166.381 29.173 166.299 27.8215C166.201 26.182 166.473 24.5896 167.104 23.0559C167.77 21.4388 168.891 20.2354 170.44 19.4934C171.951 18.7698 173.546 18.5564 175.198 18.8684C175.757 18.974 176.111 18.8999 176.346 18.7668C176.584 18.6323 176.839 18.3607 177.049 17.8137C177.269 17.2428 177.313 16.782 177.253 16.4074C177.193 16.0421 177.024 15.688 176.69 15.3371C175.986 14.5982 175.105 14.2425 173.964 14.2902C172.641 14.3459 171.336 14.5711 170.049 14.9699C168.631 15.4097 167.212 15.5382 166.19 14.7824C165.806 14.4986 165.1 14.2516 163.917 14.173ZM95.5104 13.5949C94.2284 13.2959 93.2266 13.5278 92.3854 14.2043C91.5356 14.888 91.1205 15.7876 91.151 17.0168C91.1881 18.5092 91.2746 20.0014 91.4167 21.4934C91.5702 23.1059 91.4929 24.7225 91.1823 26.3293C90.9277 27.6494 91.0492 28.967 91.5651 30.3059C92.2075 31.9725 92.3835 33.6711 92.0885 35.3762C92.0177 35.7854 91.9527 36.1391 91.901 36.4387C92.131 36.4254 92.3945 36.4176 92.6901 36.3996C93.9707 36.3218 94.7716 36.0637 95.2292 35.7434C95.6332 35.4602 96.1536 34.7223 96.6667 33.2355C97.1333 31.8814 97.2021 30.5581 96.8932 29.2434C96.5293 27.6962 96.2685 26.1423 96.1042 24.5871C95.9275 22.9129 96.1469 21.2454 96.7526 19.6027C97.2593 18.2296 97.4325 16.8691 97.2917 15.5246C97.23 14.9425 97.0458 14.5456 96.7917 14.2668C96.5337 13.9847 96.1343 13.7405 95.5104 13.5949ZM124.534 13.5949C123.252 13.2959 122.25 13.5278 121.409 14.2043C120.559 14.888 120.144 15.7876 120.174 17.0168C120.212 18.5092 120.298 20.0014 120.44 21.4934C120.594 23.1059 120.516 24.7225 120.206 26.3293C119.951 27.6494 120.073 28.967 120.589 30.3059C121.231 31.9725 121.407 33.6711 121.112 35.3762C121.041 35.7854 120.976 36.1391 120.924 36.4387C121.154 36.4254 121.418 36.4176 121.714 36.3996C122.994 36.3218 123.795 36.0637 124.253 35.7434C124.657 35.4602 125.177 34.7223 125.69 33.2355C126.157 31.8814 126.226 30.5581 125.917 29.2434C125.553 27.6962 125.292 26.1423 125.128 24.5871C124.951 22.9129 125.17 21.2454 125.776 19.6027C126.283 18.2296 126.456 16.8691 126.315 15.5246C126.253 14.9425 126.069 14.5456 125.815 14.2668C125.557 13.9847 125.158 13.7405 124.534 13.5949ZM223.214 17.9777C225.059 17.6516 226.792 18.0242 228.362 19.0793C229.97 20.1609 230.877 21.6866 230.987 23.5871C231.085 25.2934 230.846 26.9265 230.268 28.4699C229.631 30.1721 228.399 31.3083 226.651 31.8137C225.944 32.0178 225.462 32.1927 225.174 32.3293C225.135 32.3483 225.099 32.3621 225.073 32.3762C225.052 32.4196 225.047 32.4729 225.018 32.5168C224.837 32.7902 224.562 32.9375 224.307 32.9855C224.086 33.0271 223.897 32.9982 223.784 32.9699C223.662 32.9393 223.551 32.8939 223.464 32.8527C223.141 32.7007 222.752 32.4186 222.339 32.0871C221.486 31.4033 220.582 30.5925 219.628 29.6574C218.539 28.5905 217.792 27.195 217.346 25.5324C216.846 23.6649 217.289 21.9527 218.612 20.509C219.861 19.1468 221.407 18.2976 223.214 17.9777ZM250.909 17.9777C252.754 17.6516 254.487 18.0242 256.057 19.0793C257.665 20.1609 258.572 21.6866 258.682 23.5871C258.781 25.2934 258.541 26.9265 257.964 28.4699C257.326 30.1721 256.095 31.3083 254.346 31.8137C253.639 32.0178 253.157 32.1927 252.87 32.3293C252.83 32.3483 252.794 32.3621 252.768 32.3762C252.748 32.4196 252.742 32.4729 252.714 32.5168C252.532 32.7902 252.257 32.9375 252.003 32.9855C251.782 33.0271 251.592 32.9982 251.479 32.9699C251.357 32.9393 251.246 32.8939 251.159 32.8527C250.837 32.7007 250.447 32.4186 250.034 32.0871C249.181 31.4033 248.277 30.5925 247.323 29.6574C246.234 28.5905 245.487 27.195 245.042 25.5324C244.542 23.6649 244.984 21.9527 246.307 20.509C247.556 19.1468 249.102 18.2976 250.909 17.9777ZM34.151 19.4387C35.6733 18.2427 37.406 17.9886 39.2135 18.6887C40.866 19.3296 42.0753 20.3923 42.2292 22.0168C42.331 23.0929 42.477 24.4357 42.6667 26.0402C42.8976 28.002 42.1911 29.6434 40.612 30.8371C39.1254 31.9598 37.4332 32.4823 35.5807 32.384C33.624 32.2799 32.1352 31.3433 31.2604 29.6184C30.8956 28.8988 30.6163 28.2627 30.4557 27.7199C30.3098 27.2259 30.1987 26.6082 30.3932 26.0637C30.5497 25.6252 30.8436 24.7405 31.2838 23.3996C31.7937 21.8467 32.7705 20.5245 34.151 19.4387ZM139.503 19.4387C141.025 18.2427 142.758 17.9886 144.565 18.6887C146.218 19.3296 147.427 20.3923 147.581 22.0168C147.683 23.0929 147.829 24.4357 148.018 26.0402C148.249 28.002 147.543 29.6434 145.964 30.8371C144.477 31.9598 142.785 32.4823 140.932 32.384C138.976 32.2799 137.487 31.3433 136.612 29.6184C136.247 28.8988 135.968 28.2627 135.807 27.7199C135.661 27.2259 135.55 26.6082 135.745 26.0637C135.901 25.6252 136.195 24.7405 136.635 23.3996C137.145 21.8467 138.122 20.5245 139.503 19.4387ZM223.557 19.9465C222.19 20.1891 221.044 20.8189 220.089 21.8605C219.208 22.821 218.96 23.8351 219.276 25.0168C219.647 26.4035 220.241 27.4581 221.026 28.2277C221.944 29.1269 222.798 29.8908 223.589 30.5246C223.711 30.6232 223.833 30.6912 223.924 30.759C224.054 30.6752 224.182 30.5878 224.315 30.5246C224.752 30.3169 225.358 30.1049 226.096 29.8918C227.239 29.5612 227.978 28.875 228.393 27.7668C228.868 26.4972 229.07 25.1468 228.987 23.7043C228.915 22.4574 228.364 21.4922 227.253 20.7434C226.102 19.9696 224.885 19.7114 223.557 19.9465ZM251.253 19.9465C249.885 20.1891 248.739 20.8189 247.784 21.8605C246.903 22.821 246.655 23.8351 246.971 25.0168C247.343 26.4035 247.936 27.4581 248.721 28.2277C249.639 29.1269 250.494 29.8908 251.284 30.5246C251.407 30.6232 251.528 30.6912 251.62 30.759C251.749 30.6752 251.878 30.5878 252.01 30.5246C252.447 30.3169 253.053 30.1049 253.792 29.8918C254.935 29.5612 255.674 28.875 256.089 27.7668C256.564 26.4972 256.765 25.1468 256.682 23.7043C256.61 22.4574 256.059 21.4922 254.948 20.7434C253.798 19.9696 252.58 19.7114 251.253 19.9465ZM38.4948 20.5559C37.3424 20.1089 36.3505 20.2509 35.3854 21.009C34.2763 21.8813 33.5626 22.8901 33.1901 24.0246C32.7497 25.3659 32.4423 26.2778 32.276 26.7434C32.3092 26.6504 32.2513 26.722 32.3776 27.1496C32.4893 27.5276 32.7015 28.0493 33.0417 28.7199C33.578 29.7755 34.4106 30.3154 35.6823 30.384C37.06 30.4573 38.2881 30.0831 39.401 29.2434C40.4189 28.4747 40.8295 27.5268 40.6823 26.2746C40.4916 24.6612 40.3408 23.3013 40.237 22.2043C40.1846 21.6565 39.8025 21.0635 38.4948 20.5559ZM143.846 20.5559C142.694 20.1089 141.702 20.2509 140.737 21.009C139.628 21.8813 138.914 22.8901 138.542 24.0246C138.101 25.3659 137.794 26.2778 137.628 26.7434C137.661 26.6504 137.603 26.722 137.729 27.1496C137.841 27.5276 138.053 28.0493 138.393 28.7199C138.93 29.7755 139.762 30.3154 141.034 30.384C142.412 30.4573 143.64 30.0831 144.753 29.2434C145.77 28.4747 146.181 27.5268 146.034 26.2746C145.843 24.6612 145.692 23.3013 145.589 22.2043C145.536 21.6565 145.154 21.0635 143.846 20.5559ZM95.8229 1.60273C96.6779 1.75337 97.4577 2.05159 98.0182 2.60273C98.6136 3.19002 98.8559 3.95638 98.8073 4.7746C98.726 6.12507 98.2682 7.37921 97.4635 8.50898C96.4908 9.87238 94.9701 10.3298 93.2057 10.1105C92.4505 10.0167 91.878 9.94602 91.487 9.8996C91.2921 9.87647 91.1429 9.86375 91.0417 9.85273C90.9915 9.84727 90.955 9.83922 90.9323 9.8371C90.9447 9.83759 90.961 9.83733 90.9792 9.8371C90.4669 9.84407 90.1957 9.48713 90.1588 9.43866C90.0829 9.33918 90.0361 9.2456 90.0182 9.20429C89.9785 9.11228 89.9563 9.01487 89.9401 8.95429C89.9045 8.82125 89.8671 8.64931 89.8307 8.45429C89.7558 8.05294 89.6611 7.46234 89.5495 6.69648C89.4209 5.81495 89.4682 4.97346 89.7526 4.21991C90.0417 3.45606 90.5529 2.84428 91.2448 2.39179C92.5596 1.53368 94.1197 1.30342 95.8229 1.60273ZM124.846 1.60273C125.701 1.75337 126.481 2.05159 127.042 2.60273C127.637 3.19002 127.879 3.95638 127.831 4.7746C127.749 6.12507 127.292 7.37921 126.487 8.50898C125.514 9.87238 123.994 10.3298 122.229 10.1105C121.474 10.0167 120.901 9.94602 120.51 9.8996C120.316 9.87647 120.166 9.86375 120.065 9.85273C120.015 9.84727 119.978 9.83922 119.956 9.8371C119.968 9.83759 119.984 9.83733 120.003 9.8371C119.49 9.84407 119.219 9.48713 119.182 9.43866C119.106 9.33918 119.06 9.2456 119.042 9.20429C119.002 9.11228 118.98 9.01487 118.964 8.95429C118.928 8.82125 118.891 8.64931 118.854 8.45429C118.779 8.05294 118.685 7.46234 118.573 6.69648C118.444 5.81495 118.492 4.97346 118.776 4.21991C119.065 3.45606 119.576 2.84428 120.268 2.39179C121.583 1.53368 123.143 1.30342 124.846 1.60273ZM95.4713 3.57148C94.1575 3.34103 93.1417 3.5395 92.3385 4.06366C91.975 4.30135 91.7486 4.58949 91.6198 4.93085C91.4864 5.28556 91.4324 5.76465 91.526 6.40741C91.6208 7.05735 91.7053 7.55799 91.7682 7.91523C92.1629 7.96224 92.7277 8.03569 93.4557 8.12616C94.7147 8.28186 95.4096 7.94718 95.8385 7.34491C96.435 6.50692 96.7495 5.61573 96.8073 4.65741C96.8273 4.32446 96.742 4.15425 96.6198 4.03241C96.4614 3.87618 96.1226 3.68592 95.4713 3.57148ZM124.495 3.57148C123.181 3.34103 122.165 3.5395 121.362 4.06366C120.998 4.30135 120.772 4.58949 120.643 4.93085C120.51 5.28556 120.456 5.76465 120.549 6.40741C120.644 7.05735 120.729 7.55799 120.792 7.91523C121.186 7.96224 121.751 8.03569 122.479 8.12616C123.738 8.28186 124.433 7.94718 124.862 7.34491C125.458 6.50692 125.773 5.61573 125.831 4.65741C125.851 4.32446 125.765 4.15425 125.643 4.03241C125.485 3.87618 125.146 3.68592 124.495 3.57148Z" fill="black"/>
</g>
<defs>
<filter id="filter0_d_43_44" x="0" y="0" width="311.141" height="39.7471" filterUnits="userSpaceOnUse" color-interpolation-filters="sRGB">
<feFlood flood-opacity="0" result="BackgroundImageFix"/>
<feColorMatrix in="SourceAlpha" type="matrix" values="0 0 0 0 0 0 0 0 0 0 0 0 0 0 0 0 0 0 127 0" result="hardAlpha"/>
<feOffset dx="-1" dy="0.15"/>
<feComposite in2="hardAlpha" operator="out"/>
<feColorMatrix type="matrix" values="0 0 0 0 0 0 0 0 0 0 0 0 0 0 0 0 0 0 1 0"/>
<feBlend mode="normal" in2="BackgroundImageFix" result="effect1_dropShadow_43_44"/>
<feBlend mode="normal" in="SourceGraphic" in2="effect1_dropShadow_43_44" result="shape"/>
</filter>
</defs>
</svg>
