<svg width="371" height="47" viewBox="0 0 371 47" fill="none" xmlns="http://www.w3.org/2000/svg">
<g filter="url(#filter0_d_43_38)">
<path d="M11.4004 36.4839C9.18702 36.4839 7.30702 34.7639 5.76036 31.3239C5.22702 30.0972 4.76036 28.7505 4.36036 27.2839C3.96036 25.8172 3.61369 24.3239 3.32036 22.8039C3.05369 21.2839 2.82702 19.8305 2.64036 18.4439C2.48036 17.0305 2.34702 15.7905 2.24036 14.7239C2.16036 13.6305 2.09369 12.8039 2.04036 12.2439L8.60036 10.7239C8.92036 16.7772 9.40036 21.3772 10.0404 24.5239C10.707 27.6705 11.2137 29.2439 11.5604 29.2439C11.747 29.2439 11.9737 28.8705 12.2404 28.1239C12.5337 27.3772 12.8537 26.3905 13.2004 25.1639C13.547 23.9105 13.8804 22.5372 14.2004 21.0439C14.5204 19.5505 14.8004 18.0439 15.0404 16.5239C14.7204 14.5772 14.507 13.0305 14.4004 11.8839L21.1604 11.6439V12.1239C21.1604 13.2172 21.2404 14.4972 21.4004 15.9639C21.5604 17.4305 21.7604 18.9505 22.0004 20.5239C22.2404 22.0705 22.4937 23.5105 22.7604 24.8439C23.0537 26.1772 23.3337 27.2572 23.6004 28.0839C23.867 28.9105 24.0937 29.3239 24.2804 29.3239C24.4404 29.3239 24.667 28.9639 24.9604 28.2439C25.2537 27.5239 25.5737 26.5372 25.9204 25.2839C26.2937 24.0305 26.667 22.6039 27.0404 21.0039C27.4137 19.3772 27.7737 17.6705 28.1204 15.8839C28.467 14.0705 28.747 12.2705 28.9604 10.4839L35.5604 11.8839C35.107 14.4172 34.5604 16.9372 33.9204 19.4439C33.307 21.9239 32.6537 24.2305 31.9604 26.3639C31.267 28.4705 30.587 30.2439 29.9204 31.6839C28.427 34.8572 26.5737 36.4439 24.3604 36.4439C23.6404 36.4439 22.8137 36.2172 21.8804 35.7639C20.9737 35.3372 20.1337 34.4305 19.3604 33.0439C19.0937 32.5372 18.827 31.9239 18.5604 31.2039C18.2937 30.4839 18.0404 29.6839 17.8004 28.8039C17.4804 29.7905 17.1604 30.6705 16.8404 31.4439C15.427 34.8039 13.6137 36.4839 11.4004 36.4839ZM50.7675 36.4839C48.6342 36.4839 46.7675 36.1372 45.1675 35.4439C43.5942 34.7505 42.2875 33.8039 41.2475 32.6039C40.2075 31.3772 39.4342 29.9772 38.9275 28.4039C38.4209 26.8305 38.1675 25.1772 38.1675 23.4439C38.1675 21.6839 38.4742 20.0572 39.0875 18.5639C39.7275 17.0439 40.5942 15.7239 41.6875 14.6039C42.8075 13.4839 44.1142 12.6172 45.6075 12.0039C47.1009 11.3639 48.7275 11.0439 50.4875 11.0439C52.3275 11.0439 54.0342 11.3639 55.6075 12.0039C57.1809 12.6439 58.5542 13.5372 59.7275 14.6839C60.9009 15.8305 61.8075 17.1772 62.4475 18.7239C63.1142 20.2705 63.4475 21.9505 63.4475 23.7639C63.4475 27.7905 62.3409 30.9239 60.1275 33.1639C57.9142 35.3772 54.7942 36.4839 50.7675 36.4839ZM50.7275 30.0039C52.6742 30.0039 54.1542 29.4572 55.1675 28.3639C56.2075 27.2705 56.7275 25.6972 56.7275 23.6439C56.7275 21.8039 56.1675 20.3239 55.0475 19.2039C53.9275 18.0839 52.4609 17.5239 50.6475 17.5239C49.5542 17.5239 48.5542 17.8172 47.6475 18.4039C46.7409 18.9639 46.0075 19.7239 45.4475 20.6839C44.9142 21.6172 44.6475 22.6572 44.6475 23.8039C44.6475 24.8172 44.8475 25.8039 45.2475 26.7639C45.6742 27.7239 46.3409 28.5105 47.2475 29.1239C48.1542 29.7105 49.3142 30.0039 50.7275 30.0039ZM66.4229 36.3239C66.5295 34.1105 66.6095 31.8972 66.6629 29.6839C66.7162 27.4705 66.7429 25.2839 66.7429 23.1239C66.7162 21.1505 66.6762 19.2039 66.6229 17.2839C66.5962 15.3372 66.5295 13.4572 66.4229 11.6439L73.1429 11.4439C73.1695 12.4305 73.2095 13.4439 73.2629 14.4839C74.1162 13.4172 75.1029 12.5639 76.2229 11.9239C77.3695 11.2572 78.6762 10.9239 80.1429 10.9239C80.7029 10.9239 81.4229 11.0039 82.3029 11.1639C83.1829 11.3239 84.0762 11.6305 84.9829 12.0839L84.2229 18.8439C83.5562 18.4439 82.8362 18.1639 82.0629 18.0039C81.3162 17.8172 80.6895 17.7239 80.1829 17.7239C78.4762 17.7239 77.0229 18.4972 75.8229 20.0439C74.6495 21.5639 73.8495 23.6839 73.4229 26.4039C73.4229 28.2705 73.3962 30.0572 73.3429 31.7639C73.3162 33.4439 73.2495 34.9639 73.1429 36.3239H66.4229ZM86.9019 36.1239C86.7953 34.8439 86.7019 33.2039 86.6219 31.2039C86.5686 29.2039 86.5419 27.0305 86.5419 24.6839C86.5419 22.6039 86.5553 20.4572 86.5819 18.2439C86.6353 16.0305 86.7019 13.8572 86.7819 11.7239C86.8886 9.56388 86.9953 7.55055 87.1019 5.68388C87.2353 3.79054 87.3819 2.13721 87.5419 0.723879L94.5019 1.20388C94.1286 3.92388 93.8353 6.68388 93.6219 9.48388C93.4353 12.2572 93.3153 15.0839 93.2619 17.9639C94.7553 16.9239 96.4886 15.8305 98.4619 14.6839C100.462 13.5105 102.862 12.1905 105.662 10.7239L109.422 17.0039C106.542 17.9105 103.995 18.9505 101.782 20.1239C99.5686 21.2705 97.7553 22.4305 96.3419 23.6039C96.0753 23.7905 95.9019 23.9239 95.8219 24.0039C95.7419 24.0839 95.7019 24.1372 95.7019 24.1639C95.7019 24.3239 96.1419 24.6172 97.0219 25.0439C98.1953 25.6572 99.4086 26.2572 100.662 26.8439C101.915 27.4305 103.315 28.0305 104.862 28.6439C106.409 29.2305 108.182 29.8572 110.182 30.5239L107.422 36.4439C104.995 35.7239 102.569 34.8172 100.142 33.7239C97.7153 32.6305 95.5153 31.5239 93.5419 30.4039C93.5686 31.3105 93.6086 32.2305 93.6619 33.1639C93.7419 34.0972 93.8086 35.0305 93.8619 35.9639L86.9019 36.1239ZM133.077 36.4039C130.517 36.4039 128.264 35.8972 126.317 34.8839C124.397 33.8972 122.89 32.5105 121.797 30.7239C120.73 28.9372 120.197 26.8705 120.197 24.5239C120.197 23.1105 120.437 21.6305 120.917 20.0839C121.397 18.5105 122.17 17.0439 123.237 15.6839C124.304 14.3239 125.704 13.2172 127.437 12.3639C129.197 11.5105 131.33 11.0839 133.837 11.0839C135.65 11.0839 137.17 11.2839 138.397 11.6839C139.65 12.0839 140.664 12.6039 141.437 13.2439C142.237 13.8839 142.837 14.5639 143.237 15.2839C143.664 16.0039 143.944 16.6972 144.077 17.3639C144.237 18.0039 144.317 18.5372 144.317 18.9639C144.317 21.5505 143.224 23.5505 141.037 24.9639C138.877 26.3505 135.81 27.0439 131.837 27.0439C130.93 27.0439 130.064 27.0039 129.237 26.9239C128.437 26.8439 127.69 26.7505 126.997 26.6439C127.504 27.9772 128.344 28.9639 129.517 29.6039C130.69 30.2172 131.904 30.5239 133.157 30.5239C134.97 30.5239 136.57 30.2039 137.957 29.5639C139.344 28.8972 140.65 27.8839 141.877 26.5239L145.437 31.6439C144.584 32.3372 143.624 33.0572 142.557 33.8039C141.517 34.5505 140.237 35.1639 138.717 35.6439C137.197 36.1505 135.317 36.4039 133.077 36.4039ZM133.957 17.0839C132.384 17.0839 130.997 17.4839 129.797 18.2839C128.597 19.0839 127.717 20.1372 127.157 21.4439C127.824 21.5505 128.477 21.6439 129.117 21.7239C129.784 21.7772 130.437 21.8039 131.077 21.8039C131.664 21.8039 132.33 21.7505 133.077 21.6439C133.85 21.5372 134.597 21.3772 135.317 21.1639C136.064 20.9505 136.677 20.6839 137.157 20.3639C137.637 20.0172 137.877 19.6172 137.877 19.1639C137.877 18.9505 137.77 18.6839 137.557 18.3639C137.344 18.0439 136.957 17.7505 136.397 17.4839C135.837 17.2172 135.024 17.0839 133.957 17.0839ZM153.216 36.6039L148.176 32.2439C149.456 30.7505 150.829 29.2439 152.296 27.7239C153.763 26.1772 155.269 24.6439 156.816 23.1239C154.949 21.4972 153.203 20.0439 151.576 18.7639C149.976 17.4572 148.736 16.5372 147.856 16.0039L151.856 10.7239C153.296 11.7639 154.856 12.9505 156.536 14.2839C158.216 15.6172 159.909 17.0305 161.616 18.5239C163.189 17.0839 164.736 15.6839 166.256 14.3239C167.776 12.9372 169.229 11.6305 170.616 10.4039L175.256 15.2039C174.403 15.8172 173.189 16.8305 171.616 18.2439C170.043 19.6305 168.336 21.1772 166.496 22.8839C168.256 24.4839 169.909 26.0705 171.456 27.6439C173.029 29.1905 174.416 30.6305 175.616 31.9639L170.736 36.4039C170.256 35.8172 169.563 35.0572 168.656 34.1239C167.749 33.1905 166.696 32.1505 165.496 31.0039C164.323 29.8572 163.069 28.6839 161.736 27.4839C160.456 28.7372 159.243 29.9505 158.096 31.1239C156.976 32.2972 155.989 33.3505 155.136 34.2839C154.283 35.2439 153.643 36.0172 153.216 36.6039ZM179.09 44.5639C178.904 42.4305 178.77 40.2839 178.69 38.1239C178.61 35.9639 178.57 33.4705 178.57 30.6439C178.57 27.2039 178.624 23.7772 178.73 20.3639C178.837 16.9505 178.997 13.8305 179.21 11.0039L186.09 11.2039C186.01 11.8172 185.944 12.4705 185.89 13.1639C186.85 12.5239 187.877 12.0572 188.97 11.7639C190.09 11.4705 191.224 11.3239 192.37 11.3239C193.837 11.3239 195.264 11.5639 196.65 12.0439C198.037 12.4972 199.29 13.2305 200.41 14.2439C201.53 15.2305 202.41 16.5105 203.05 18.0839C203.717 19.6572 204.05 21.5505 204.05 23.7639C204.05 25.9505 203.717 27.8572 203.05 29.4839C202.384 31.1105 201.49 32.4439 200.37 33.4839C199.25 34.5505 197.997 35.3372 196.61 35.8439C195.224 36.3772 193.797 36.6439 192.33 36.6439C189.637 36.6439 187.264 35.8439 185.21 34.2439C185.264 35.9505 185.344 37.5905 185.45 39.1639C185.557 40.7639 185.69 42.3905 185.85 44.0439L179.09 44.5639ZM191.29 17.9639C188.65 17.9639 186.664 19.2572 185.33 21.8439C185.25 23.4439 185.197 25.0705 185.17 26.7239C185.81 27.5772 186.637 28.3239 187.65 28.9639C188.664 29.5772 189.957 29.8839 191.53 29.8839C195.29 29.8839 197.17 27.7372 197.17 23.4439C197.17 22.2972 196.957 21.3639 196.53 20.6439C196.104 19.9239 195.57 19.3772 194.93 19.0039C194.29 18.6039 193.637 18.3372 192.97 18.2039C192.304 18.0439 191.744 17.9639 191.29 17.9639ZM219.053 36.4039C216.493 36.4039 214.24 35.8972 212.293 34.8839C210.373 33.8972 208.867 32.5105 207.773 30.7239C206.707 28.9372 206.173 26.8705 206.173 24.5239C206.173 23.1105 206.413 21.6305 206.893 20.0839C207.373 18.5105 208.147 17.0439 209.213 15.6839C210.28 14.3239 211.68 13.2172 213.413 12.3639C215.173 11.5105 217.307 11.0839 219.813 11.0839C221.627 11.0839 223.147 11.2839 224.373 11.6839C225.627 12.0839 226.64 12.6039 227.413 13.2439C228.213 13.8839 228.813 14.5639 229.213 15.2839C229.64 16.0039 229.92 16.6972 230.053 17.3639C230.213 18.0039 230.293 18.5372 230.293 18.9639C230.293 21.5505 229.2 23.5505 227.013 24.9639C224.853 26.3505 221.787 27.0439 217.813 27.0439C216.907 27.0439 216.04 27.0039 215.213 26.9239C214.413 26.8439 213.667 26.7505 212.973 26.6439C213.48 27.9772 214.32 28.9639 215.493 29.6039C216.667 30.2172 217.88 30.5239 219.133 30.5239C220.947 30.5239 222.547 30.2039 223.933 29.5639C225.32 28.8972 226.627 27.8839 227.853 26.5239L231.413 31.6439C230.56 32.3372 229.6 33.0572 228.533 33.8039C227.493 34.5505 226.213 35.1639 224.693 35.6439C223.173 36.1505 221.293 36.4039 219.053 36.4039ZM219.933 17.0839C218.36 17.0839 216.973 17.4839 215.773 18.2839C214.573 19.0839 213.693 20.1372 213.133 21.4439C213.8 21.5505 214.453 21.6439 215.093 21.7239C215.76 21.7772 216.413 21.8039 217.053 21.8039C217.64 21.8039 218.307 21.7505 219.053 21.6439C219.827 21.5372 220.573 21.3772 221.293 21.1639C222.04 20.9505 222.653 20.6839 223.133 20.3639C223.613 20.0172 223.853 19.6172 223.853 19.1639C223.853 18.9505 223.747 18.6839 223.533 18.3639C223.32 18.0439 222.933 17.7505 222.373 17.4839C221.813 17.2172 221 17.0839 219.933 17.0839ZM234.353 36.3239C234.459 34.1105 234.539 31.8972 234.593 29.6839C234.646 27.4705 234.673 25.2839 234.673 23.1239C234.646 21.1505 234.606 19.2039 234.553 17.2839C234.526 15.3372 234.459 13.4572 234.353 11.6439L241.073 11.4439C241.099 12.4305 241.139 13.4439 241.193 14.4839C242.046 13.4172 243.033 12.5639 244.153 11.9239C245.299 11.2572 246.606 10.9239 248.073 10.9239C248.633 10.9239 249.353 11.0039 250.233 11.1639C251.113 11.3239 252.006 11.6305 252.913 12.0839L252.153 18.8439C251.486 18.4439 250.766 18.1639 249.993 18.0039C249.246 17.8172 248.619 17.7239 248.113 17.7239C246.406 17.7239 244.953 18.4972 243.753 20.0439C242.579 21.5639 241.779 23.6839 241.353 26.4039C241.353 28.2705 241.326 30.0572 241.273 31.7639C241.246 33.4439 241.179 34.9639 241.073 36.3239H234.353ZM254.432 7.36388C254.432 7.12388 254.418 6.88388 254.392 6.64388C254.392 6.37721 254.392 6.08388 254.392 5.76388C254.392 4.91054 254.418 4.00388 254.472 3.04388C254.525 2.08388 254.578 1.27055 254.632 0.603878L261.752 0.723879C261.672 1.63054 261.578 2.65721 261.472 3.80388C261.392 4.95055 261.338 6.13721 261.312 7.36388H254.432ZM254.272 36.0039C254.192 34.3505 254.138 32.5905 254.112 30.7239C254.085 28.8305 254.072 26.9372 254.072 25.0439C254.072 22.5639 254.098 20.1505 254.152 17.8039C254.205 15.4572 254.272 13.3239 254.352 11.4039L261.232 11.3639C261.125 12.5905 261.058 14.1105 261.032 15.9239C261.005 17.7105 260.992 19.5905 260.992 21.5639C260.992 23.5105 261.005 25.4305 261.032 27.3239C261.058 29.2172 261.085 30.9372 261.112 32.4839C261.165 34.0039 261.205 35.1772 261.232 36.0039H254.272ZM277.178 36.4039C274.618 36.4039 272.365 35.8972 270.418 34.8839C268.498 33.8972 266.992 32.5105 265.898 30.7239C264.832 28.9372 264.298 26.8705 264.298 24.5239C264.298 23.1105 264.538 21.6305 265.018 20.0839C265.498 18.5105 266.272 17.0439 267.338 15.6839C268.405 14.3239 269.805 13.2172 271.538 12.3639C273.298 11.5105 275.432 11.0839 277.938 11.0839C279.752 11.0839 281.272 11.2839 282.498 11.6839C283.752 12.0839 284.765 12.6039 285.538 13.2439C286.338 13.8839 286.938 14.5639 287.338 15.2839C287.765 16.0039 288.045 16.6972 288.178 17.3639C288.338 18.0039 288.418 18.5372 288.418 18.9639C288.418 21.5505 287.325 23.5505 285.138 24.9639C282.978 26.3505 279.912 27.0439 275.938 27.0439C275.032 27.0439 274.165 27.0039 273.338 26.9239C272.538 26.8439 271.792 26.7505 271.098 26.6439C271.605 27.9772 272.445 28.9639 273.618 29.6039C274.792 30.2172 276.005 30.5239 277.258 30.5239C279.072 30.5239 280.672 30.2039 282.058 29.5639C283.445 28.8972 284.752 27.8839 285.978 26.5239L289.538 31.6439C288.685 32.3372 287.725 33.0572 286.658 33.8039C285.618 34.5505 284.338 35.1639 282.818 35.6439C281.298 36.1505 279.418 36.4039 277.178 36.4039ZM278.058 17.0839C276.485 17.0839 275.098 17.4839 273.898 18.2839C272.698 19.0839 271.818 20.1372 271.258 21.4439C271.925 21.5505 272.578 21.6439 273.218 21.7239C273.885 21.7772 274.538 21.8039 275.178 21.8039C275.765 21.8039 276.432 21.7505 277.178 21.6439C277.952 21.5372 278.698 21.3772 279.418 21.1639C280.165 20.9505 280.778 20.6839 281.258 20.3639C281.738 20.0172 281.978 19.6172 281.978 19.1639C281.978 18.9505 281.872 18.6839 281.658 18.3639C281.445 18.0439 281.058 17.7505 280.498 17.4839C279.938 17.2172 279.125 17.0839 278.058 17.0839ZM292.958 36.0839C292.878 33.7372 292.811 31.5639 292.758 29.5639C292.731 27.5639 292.718 25.5905 292.718 23.6439C292.718 21.6972 292.731 19.7505 292.758 17.8039C292.811 15.8305 292.891 13.7239 292.998 11.4839H299.758C299.651 12.6839 299.558 13.8972 299.478 15.1239C300.384 13.9772 301.464 13.0305 302.718 12.2839C303.971 11.5105 305.451 11.1239 307.158 11.1239C308.838 11.1239 310.211 11.4039 311.278 11.9639C312.371 12.5239 313.224 13.2972 313.838 14.2839C314.478 15.2705 314.931 16.4039 315.198 17.6839C315.491 18.9372 315.678 20.2972 315.758 21.7639C315.838 23.2039 315.878 24.6572 315.878 26.1239C315.878 27.7239 315.851 29.2572 315.798 30.7239C315.744 32.1905 315.691 33.4172 315.638 34.4039C315.584 35.3905 315.544 35.9772 315.518 36.1639H308.798C308.851 35.0705 308.904 33.9105 308.958 32.6839C309.011 31.4305 309.064 30.2039 309.118 29.0039C309.171 27.7772 309.198 26.6705 309.198 25.6839C309.198 20.0039 308.278 17.1639 306.438 17.1639C304.918 17.1639 303.531 17.8305 302.278 19.1639C301.051 20.4705 300.024 22.1239 299.198 24.1239C299.198 24.3905 299.198 24.6572 299.198 24.9239C299.198 26.2039 299.198 27.5372 299.198 28.9239C299.224 30.2839 299.251 31.5905 299.278 32.8439C299.331 34.0705 299.371 35.1372 299.398 36.0439L292.958 36.0839ZM331.546 36.4439C329.306 36.4439 327.239 35.9772 325.346 35.0439C323.453 34.1105 321.933 32.7772 320.786 31.0439C319.639 29.2839 319.066 27.1905 319.066 24.7639C319.066 22.0439 319.599 19.6572 320.666 17.6039C321.733 15.5505 323.226 13.9639 325.146 12.8439C327.066 11.6972 329.306 11.1239 331.866 11.1239C334.319 11.1239 336.399 11.6305 338.106 12.6439C339.813 13.6305 341.333 15.2039 342.666 17.3639L337.106 21.2039C336.359 20.0039 335.599 19.0972 334.826 18.4839C334.053 17.8439 332.999 17.5239 331.666 17.5239C329.853 17.5239 328.386 18.1639 327.266 19.4439C326.146 20.6972 325.586 22.3772 325.586 24.4839C325.586 25.7105 325.879 26.7105 326.466 27.4839C327.079 28.2572 327.826 28.8305 328.706 29.2039C329.586 29.5772 330.413 29.7639 331.186 29.7639C331.986 29.7639 332.759 29.6705 333.506 29.4839C334.253 29.2705 334.959 28.8172 335.626 28.1239C336.293 27.4305 336.893 26.3772 337.426 24.9639L343.426 28.1639C342.626 29.6305 341.733 30.9905 340.746 32.2439C339.759 33.4972 338.533 34.5105 337.066 35.2839C335.626 36.0572 333.786 36.4439 331.546 36.4439ZM358.155 36.4039C355.595 36.4039 353.342 35.8972 351.395 34.8839C349.475 33.8972 347.968 32.5105 346.875 30.7239C345.808 28.9372 345.275 26.8705 345.275 24.5239C345.275 23.1105 345.515 21.6305 345.995 20.0839C346.475 18.5105 347.248 17.0439 348.315 15.6839C349.382 14.3239 350.782 13.2172 352.515 12.3639C354.275 11.5105 356.408 11.0839 358.915 11.0839C360.728 11.0839 362.248 11.2839 363.475 11.6839C364.728 12.0839 365.742 12.6039 366.515 13.2439C367.315 13.8839 367.915 14.5639 368.315 15.2839C368.742 16.0039 369.022 16.6972 369.155 17.3639C369.315 18.0039 369.395 18.5372 369.395 18.9639C369.395 21.5505 368.302 23.5505 366.115 24.9639C363.955 26.3505 360.888 27.0439 356.915 27.0439C356.008 27.0439 355.142 27.0039 354.315 26.9239C353.515 26.8439 352.768 26.7505 352.075 26.6439C352.582 27.9772 353.422 28.9639 354.595 29.6039C355.768 30.2172 356.982 30.5239 358.235 30.5239C360.048 30.5239 361.648 30.2039 363.035 29.5639C364.422 28.8972 365.728 27.8839 366.955 26.5239L370.515 31.6439C369.662 32.3372 368.702 33.0572 367.635 33.8039C366.595 34.5505 365.315 35.1639 363.795 35.6439C362.275 36.1505 360.395 36.4039 358.155 36.4039ZM359.035 17.0839C357.462 17.0839 356.075 17.4839 354.875 18.2839C353.675 19.0839 352.795 20.1372 352.235 21.4439C352.902 21.5505 353.555 21.6439 354.195 21.7239C354.862 21.7772 355.515 21.8039 356.155 21.8039C356.742 21.8039 357.408 21.7505 358.155 21.6439C358.928 21.5372 359.675 21.3772 360.395 21.1639C361.142 20.9505 361.755 20.6839 362.235 20.3639C362.715 20.0172 362.955 19.6172 362.955 19.1639C362.955 18.9505 362.848 18.6839 362.635 18.3639C362.422 18.0439 362.035 17.7505 361.475 17.4839C360.915 17.2172 360.102 17.0839 359.035 17.0839Z" fill="#FFD633"/>
<path d="M190.483 10.4148C192.206 9.67357 193.959 9.67648 195.671 10.4304C197.174 11.0924 198.59 11.8543 199.913 12.7117C201.345 13.6407 202.429 14.8872 203.147 16.4304C203.816 17.869 204.319 19.3634 204.655 20.907C204.987 22.4298 205.207 24.0037 205.311 25.6258C205.429 27.4687 204.86 29.1146 203.632 30.5086C202.53 31.7592 201.366 32.8164 200.132 33.6648C198.965 34.4665 197.76 35.2693 196.522 36.0711C195.125 36.9757 193.566 37.4213 191.874 37.4148C190.178 37.4082 188.616 36.9379 187.218 36.0086C186.978 35.8494 186.804 35.7841 186.694 35.7586C186.595 35.7359 186.557 35.7493 186.553 35.7508C186.522 35.7654 186.322 35.8863 186.108 36.5164C185.678 37.783 185.713 39.0211 186.225 40.2742C186.582 41.1465 186.717 42.0345 186.491 42.8836C186.262 43.7428 185.702 44.4243 184.944 44.9461C183.499 45.9414 181.945 46.2109 180.405 45.5633C179.942 45.3684 179.606 45.261 179.389 45.1961C179.334 45.2157 179.282 45.2563 179.218 45.2664C178.888 45.317 178.636 45.19 178.514 45.1101C178.394 45.0305 178.314 44.9412 178.28 44.8992C178.212 44.8147 178.175 44.7371 178.163 44.7117C178.132 44.65 178.109 44.5951 178.1 44.5711C178.066 44.472 178.022 44.3249 177.983 44.1726C177.898 43.8399 177.773 43.2887 177.6 42.5398C177.229 40.9251 177.155 39.2934 177.382 37.6492C177.592 36.1206 177.805 34.5954 178.03 33.0789C178.241 31.6597 178.248 30.2392 178.053 28.8211C177.846 27.309 177.64 25.7924 177.436 24.2742C177.22 22.6602 177.244 21.0494 177.499 19.4461C177.738 17.9442 177.958 16.4429 178.171 14.9461C178.402 13.3136 178.996 11.9556 180.139 11.1648C181.175 10.45 182.378 10.182 183.678 10.3211C184.807 10.4418 185.966 10.6361 187.155 10.907C188.043 11.1094 189.141 10.9928 190.483 10.4148ZM178.069 44.2117V44.3133C178.063 44.2274 178.083 44.1362 178.1 44.0398C178.08 44.1249 178.07 44.1898 178.069 44.2117ZM194.866 12.2586C193.665 11.7295 192.488 11.7274 191.272 12.2508C189.676 12.9382 188.141 13.1837 186.718 12.8601C185.598 12.6049 184.513 12.4174 183.468 12.3054C182.592 12.2118 181.881 12.3986 181.28 12.8133C180.79 13.1521 180.349 13.8582 180.155 15.2273C179.941 16.7348 179.716 18.2463 179.475 19.7586C179.251 21.1693 179.23 22.5863 179.421 24.0086C179.624 25.5262 179.83 27.044 180.038 28.5554C180.258 30.1612 180.253 31.77 180.014 33.3758C179.79 34.8849 179.568 36.4013 179.358 37.9226C179.165 39.3271 179.228 40.7166 179.546 42.0945C179.653 42.5615 179.74 42.9414 179.811 43.2351C180.172 43.3307 180.639 43.4928 181.178 43.7195C181.977 44.0551 182.818 43.9818 183.811 43.2976C184.271 42.9806 184.474 42.6648 184.553 42.3679C184.635 42.0605 184.619 41.6331 184.374 41.032C183.68 39.3374 183.624 37.6018 184.21 35.8758C184.496 35.0343 184.982 34.2153 185.835 33.8836C186.717 33.5422 187.602 33.8632 188.327 34.3445C189.394 35.0535 190.571 35.4097 191.882 35.4148C193.196 35.4199 194.373 35.0797 195.436 34.3914C196.659 33.5991 197.848 32.8073 198.999 32.0164C200.08 31.2729 201.124 30.3314 202.132 29.1883C203.013 28.1874 203.403 27.0577 203.319 25.7508C203.221 24.2236 203.012 22.7496 202.702 21.3289C202.397 19.9304 201.942 18.5794 201.335 17.2742C200.776 16.0725 199.939 15.1094 198.819 14.3836C197.591 13.5881 196.274 12.8787 194.866 12.2586ZM334.733 11.2117C336.246 11.3705 337.791 11.724 339.366 12.2664C340.24 12.5674 340.989 13.0146 341.546 13.6414C342.109 14.2766 342.428 15.0461 342.522 15.907C342.713 17.6513 341.989 19.1095 340.538 20.2039C339.83 20.7374 339.063 21.085 338.249 21.1336C337.416 21.1827 336.645 20.9144 335.968 20.407C335.075 19.737 333.979 19.2801 332.655 19.0633C331.467 18.8687 330.55 19.1436 329.788 19.8367C328.845 20.6945 327.97 21.7117 327.171 22.8992C326.518 23.8687 326.347 24.9985 326.749 26.3914C326.943 27.0645 327.233 27.5328 327.593 27.8523C327.951 28.1705 328.438 28.3962 329.1 28.4929C330.586 28.7098 331.902 28.5588 333.077 28.0789C334.359 27.5552 335.298 26.9641 335.936 26.3289C336.499 25.7695 337.208 25.4709 338.007 25.4929C338.763 25.5147 339.518 25.8235 340.241 26.282C341.604 27.1471 342.611 28.1874 342.897 29.4617C343.19 30.7667 342.643 32.1722 341.694 33.5633C340.62 35.1365 339.087 36.0384 337.178 36.2273C335.652 36.3787 334.47 36.7212 333.593 37.2195C333.068 37.5172 332.601 37.7525 332.233 37.8679C332.079 37.9162 331.777 38.0014 331.452 37.9383C331.261 37.9011 330.999 37.8009 330.796 37.5554C330.786 37.5437 330.781 37.5282 330.772 37.5164C330.464 37.4665 329.952 37.4395 329.202 37.4383C327.417 37.4355 325.799 36.8837 324.389 35.7898C323.059 34.7566 321.986 33.542 321.186 32.157C320.436 30.858 319.766 29.5225 319.178 28.1492C318.562 26.7077 318.183 25.164 318.046 23.5242C317.901 21.7958 318.236 20.1498 319.038 18.6101C319.801 17.1462 320.758 15.8597 321.913 14.7586C323.039 13.685 324.273 12.7486 325.608 11.9539C327.056 11.0927 328.642 10.7133 330.327 10.8289C331.82 10.9314 333.291 11.0606 334.733 11.2117ZM169.827 10.9383C171.333 10.7191 172.736 11.3319 173.991 12.4851C174.66 13.1001 175.142 13.8327 175.28 14.6804C175.418 15.5346 175.182 16.3631 174.718 17.1258C173.855 18.5412 172.601 19.6124 170.999 20.3445C169.787 20.8976 168.991 21.7446 168.553 22.907C168.344 23.4629 168.354 23.8515 168.452 24.1258C168.551 24.4015 168.788 24.7169 169.311 25.032C170.696 25.8651 171.967 26.8267 173.116 27.9226C174.299 29.0514 175.065 30.363 174.788 31.782C174.572 32.8834 174.041 33.931 173.257 34.9226C172.742 35.573 172.046 35.9691 171.21 36.0164C170.42 36.0603 169.607 35.7883 168.819 35.3523C167.382 34.5563 166.033 33.6937 164.772 32.7664C163.519 31.8441 162.368 30.8935 161.327 29.9226C161.138 29.7465 161.004 29.67 160.928 29.6414L160.866 29.6258C160.853 29.6292 160.627 29.7178 160.303 30.3523C159.552 31.8269 158.671 33.1766 157.663 34.3914C156.692 35.5613 155.833 36.4437 155.1 36.9773C154.773 37.2154 154.471 37.4168 154.21 37.5476C154.084 37.6107 153.916 37.6892 153.733 37.7273C153.586 37.7578 153.181 37.8143 152.803 37.5398C152.808 37.5431 152.796 37.5374 152.764 37.5164C152.737 37.4981 152.703 37.4689 152.655 37.4383C152.556 37.3746 152.416 37.2907 152.241 37.1804C151.889 36.9588 151.383 36.6468 150.733 36.2429C149.982 35.7761 149.378 35.1999 148.991 34.5008C148.597 33.7881 148.464 33.0039 148.577 32.1883C148.792 30.6406 149.659 29.3412 151.022 28.282C152.156 27.4008 153.143 26.3809 153.991 25.2273C154.376 24.7039 154.506 24.3101 154.522 24.0398C154.535 23.8041 154.47 23.5685 154.233 23.2976C153.468 22.4222 152.562 21.4399 151.514 20.3523C150.435 19.2319 149.565 18.1993 148.921 17.2586C147.994 15.9069 148.301 14.3607 149.233 12.9148C149.697 12.1966 150.28 11.589 151.03 11.3289C151.846 11.0464 152.638 11.2501 153.311 11.7117C154.262 12.3632 155.369 13.0957 156.632 13.9148C157.888 14.7301 159.021 15.4204 160.022 15.9851C160.636 16.3313 161.421 16.3528 162.553 15.6804C163.814 14.9317 164.954 14.051 165.975 13.0476C167.156 11.8892 168.441 11.1407 169.827 10.9383ZM297.577 10.6804C298.986 10.8228 300.204 11.3756 300.764 12.6101C300.791 12.6692 300.804 12.6791 300.796 12.6726C300.785 12.6647 300.796 12.6734 300.858 12.6804C301.018 12.6976 301.366 12.6576 301.968 12.3914C303.36 11.7749 304.785 11.3198 306.241 11.032C307.74 10.7358 309.34 10.7014 311.03 10.907C311.982 11.0229 312.838 11.3451 313.546 11.907C314.252 12.4683 314.76 13.2246 315.093 14.1258C315.67 15.6897 316.125 17.2446 316.452 18.782C316.785 20.3514 316.913 21.938 316.835 23.5398C316.762 25.0267 316.761 26.5179 316.827 28.0008C316.893 29.4854 317.018 30.9779 317.21 32.4773C317.325 33.3794 317.229 34.2586 316.741 34.9773C316.243 35.7103 315.462 36.1012 314.585 36.2586C313.14 36.5176 311.9 36.5933 310.936 36.3992C310.214 36.2531 309.674 35.7875 309.303 35.1961C308.945 34.624 308.712 33.8895 308.561 33.0633C308.273 31.4779 308.127 29.8961 308.132 28.3211C308.136 26.773 308.222 25.2129 308.389 23.6414C308.535 22.2711 308.354 20.8441 307.811 19.3523C307.562 18.667 307.291 18.4446 307.132 18.3758C306.985 18.3125 306.674 18.2689 306.069 18.5633C304.731 19.2147 303.784 20.0678 303.171 21.1023C302.427 22.3575 301.602 23.627 300.694 24.8992C299.994 25.8809 299.834 26.9248 300.233 28.1414C300.75 29.719 301.075 31.3045 301.21 32.8914C301.289 33.8255 301.109 34.7064 300.561 35.4304C300.02 36.1442 299.213 36.5884 298.28 36.8367C296.667 37.2656 295.334 37.5092 294.327 37.5398C293.867 37.5537 293.457 37.5502 293.139 37.5008C292.99 37.4775 292.778 37.4272 292.577 37.3211C292.38 37.2171 291.963 36.9169 291.96 36.3367C291.96 36.376 291.964 36.3642 291.944 36.2273C291.928 36.1149 291.901 35.9559 291.866 35.7508C291.795 35.3422 291.689 34.7649 291.546 34.0164C291.236 32.3978 291.206 30.7667 291.46 29.1336C291.695 27.6143 291.927 26.0982 292.163 24.5867C292.384 23.1705 292.4 21.7531 292.21 20.3367C292.005 18.8183 291.813 17.2923 291.632 15.7664C291.527 14.8867 291.592 14.0524 291.905 13.3133C292.225 12.5592 292.771 11.968 293.491 11.5554C294.761 10.8272 296.134 10.5348 297.577 10.6804ZM49.1629 10.7586C50.6558 10.8624 52.1277 11.0079 53.5769 11.1883C55.0685 11.3739 56.6101 11.7015 58.1941 12.1726C60.0027 12.7109 61.3363 13.8572 62.1316 15.5633C62.8227 17.0464 63.407 18.5392 63.8816 20.032C64.3863 21.6212 64.5308 23.249 64.3113 24.8992C64.104 26.4571 63.7664 27.9848 63.3113 29.4773C62.8396 31.0229 62.1179 32.4951 61.1472 33.8836C60.061 35.4359 58.5313 36.3072 56.6394 36.4617C55.0086 36.5949 53.586 36.6127 52.3816 36.5086C52.0268 36.4778 51.778 36.4972 51.616 36.5086C51.508 36.711 51.359 36.8684 51.2097 36.9773C50.9633 37.1566 50.6755 37.2587 50.4285 37.3211C49.9216 37.4485 49.2372 37.5055 48.4363 37.5164C46.6418 37.5406 45.0182 36.9888 43.6082 35.8758C42.2779 34.8254 41.2253 33.5881 40.4675 32.1648C39.7703 30.8541 39.1087 29.5177 38.4832 28.1648C37.8237 26.7385 37.3708 25.2143 37.1316 23.5945C36.8757 21.8594 37.1477 20.1863 37.9363 18.6179C38.681 17.1376 39.6339 15.8363 40.7879 14.7273C41.909 13.6503 43.1322 12.7052 44.4597 11.8992C45.902 11.0236 47.481 10.6418 49.1629 10.7586ZM135.702 10.9461C137.237 10.9557 138.825 11.1378 140.46 11.4929C142.379 11.9098 143.704 13.0991 144.335 14.9617C144.892 16.6067 145.121 18.258 145.022 19.907C144.916 21.6816 144.193 23.1879 142.866 24.3601C141.655 25.4293 140.294 26.2675 138.796 26.8758C137.358 27.4592 135.86 27.9517 134.303 28.3445C132.584 28.7784 130.872 28.6555 129.202 27.9929C129.211 28.016 129.223 28.0391 129.233 28.0633C129.497 28.6792 129.833 29.069 130.202 29.3054C130.571 29.5411 131.06 29.6805 131.718 29.657C133.27 29.6015 134.714 29.359 136.053 28.9383C137.405 28.5135 138.509 27.9745 139.382 27.3367C140.043 26.8528 140.847 26.5927 141.686 26.8758C142.457 27.136 143.026 27.7811 143.46 28.5164C144.285 29.9178 144.719 31.2995 144.507 32.5867C144.283 33.9399 143.28 35.0749 141.882 36.0398C140.344 37.1 138.611 37.4612 136.749 37.1258C135.969 36.9851 135.357 36.9118 134.905 36.8992C134.681 36.893 134.511 36.9064 134.389 36.9226C134.293 36.9355 134.246 36.9493 134.233 36.9539C133.843 37.1435 133.332 37.2525 132.796 37.3211C132.237 37.3924 131.549 37.4316 130.749 37.4461C128.97 37.4778 127.344 36.9638 125.905 35.9148C124.544 34.9223 123.434 33.7431 122.593 32.3836C121.805 31.1117 121.092 29.802 120.452 28.4539C119.775 27.0268 119.357 25.4835 119.202 23.8367C119.039 22.1055 119.366 20.4559 120.171 18.9148C120.932 17.4578 121.877 16.1682 123.007 15.0476C124.111 13.9524 125.315 12.9838 126.624 12.1492C128.043 11.2442 129.613 10.8169 131.303 10.8679C132.786 10.9127 134.252 10.9369 135.702 10.9461ZM221.678 10.9461C223.214 10.9557 224.801 11.1378 226.436 11.4929C228.355 11.9098 229.681 13.0991 230.311 14.9617C230.868 16.6067 231.097 18.258 230.999 19.907C230.892 21.6816 230.169 23.1879 228.843 24.3601C227.631 25.4293 226.27 26.2675 224.772 26.8758C223.334 27.4592 221.836 27.9517 220.28 28.3445C218.561 28.7784 216.848 28.6555 215.178 27.9929C215.188 28.016 215.199 28.0391 215.21 28.0633C215.474 28.6792 215.81 29.069 216.178 29.3054C216.547 29.5411 217.036 29.6805 217.694 29.657C219.247 29.6015 220.691 29.359 222.03 28.9383C223.381 28.5135 224.486 27.9745 225.358 27.3367C226.019 26.8528 226.824 26.5927 227.663 26.8758C228.434 27.136 229.003 27.7811 229.436 28.5164C230.262 29.9178 230.695 31.2995 230.483 32.5867C230.26 33.9399 229.256 35.0749 227.858 36.0398C226.321 37.1 224.587 37.4612 222.725 37.1258C221.946 36.9851 221.333 36.9118 220.882 36.8992C220.657 36.893 220.488 36.9064 220.366 36.9226C220.27 36.9355 220.223 36.9493 220.21 36.9539C219.82 37.1435 219.309 37.2525 218.772 37.3211C218.213 37.3924 217.526 37.4316 216.725 37.4461C214.946 37.4778 213.321 36.9638 211.882 35.9148C210.52 34.9223 209.411 33.7431 208.569 32.3836C207.782 31.1117 207.068 29.802 206.428 28.4539C205.751 27.0268 205.334 25.4835 205.178 23.8367C205.015 22.1055 205.342 20.4559 206.147 18.9148C206.908 17.4578 207.854 16.1682 208.983 15.0476C210.087 13.9524 211.291 12.9838 212.6 12.1492C214.02 11.2442 215.59 10.8169 217.28 10.8679C218.762 10.9127 220.229 10.9369 221.678 10.9461ZM279.803 10.9461C281.339 10.9557 282.926 11.1378 284.561 11.4929C286.48 11.9098 287.806 13.0991 288.436 14.9617C288.993 16.6067 289.222 18.258 289.124 19.907C289.017 21.6816 288.294 23.1879 286.968 24.3601C285.756 25.4293 284.395 26.2675 282.897 26.8758C281.459 27.4592 279.961 27.9517 278.405 28.3445C276.686 28.7784 274.973 28.6555 273.303 27.9929C273.313 28.016 273.324 28.0391 273.335 28.0633C273.599 28.6792 273.935 29.069 274.303 29.3054C274.672 29.5411 275.161 29.6805 275.819 29.657C277.372 29.6015 278.816 29.359 280.155 28.9383C281.506 28.5135 282.611 27.9745 283.483 27.3367C284.144 26.8528 284.949 26.5927 285.788 26.8758C286.559 27.136 287.128 27.7811 287.561 28.5164C288.387 29.9178 288.82 31.2995 288.608 32.5867C288.385 33.9399 287.381 35.0749 285.983 36.0398C284.446 37.1 282.712 37.4612 280.85 37.1258C280.071 36.9851 279.458 36.9118 279.007 36.8992C278.782 36.893 278.613 36.9064 278.491 36.9226C278.395 36.9355 278.348 36.9493 278.335 36.9539C277.945 37.1435 277.434 37.2525 276.897 37.3211C276.338 37.3924 275.651 37.4316 274.85 37.4461C273.071 37.4778 271.446 36.9638 270.007 35.9148C268.645 34.9223 267.536 33.7431 266.694 32.3836C265.907 31.1117 265.193 29.802 264.553 28.4539C263.876 27.0268 263.459 25.4835 263.303 23.8367C263.14 22.1055 263.467 20.4559 264.272 18.9148C265.033 17.4578 265.979 16.1682 267.108 15.0476C268.212 13.9524 269.416 12.9838 270.725 12.1492C272.145 11.2442 273.715 10.8169 275.405 10.8679C276.887 10.9127 278.354 10.9369 279.803 10.9461ZM360.78 10.9461C362.315 10.9557 363.903 11.1378 365.538 11.4929C367.457 11.9098 368.782 13.0991 369.413 14.9617C369.97 16.6067 370.199 18.258 370.1 19.907C369.994 21.6816 369.271 23.1879 367.944 24.3601C366.733 25.4293 365.372 26.2675 363.874 26.8758C362.436 27.4592 360.938 27.9517 359.382 28.3445C357.662 28.7784 355.95 28.6555 354.28 27.9929C354.29 28.016 354.301 28.0391 354.311 28.0633C354.576 28.6792 354.912 29.069 355.28 29.3054C355.649 29.5411 356.138 29.6805 356.796 29.657C358.349 29.6015 359.792 29.359 361.132 28.9383C362.483 28.5135 363.587 27.9745 364.46 27.3367C365.121 26.8528 365.926 26.5927 366.764 26.8758C367.535 27.136 368.104 27.7811 368.538 28.5164C369.364 29.9178 369.797 31.2995 369.585 32.5867C369.361 33.9399 368.358 35.0749 366.96 36.0398C365.422 37.1 363.689 37.4612 361.827 37.1258C361.047 36.9851 360.435 36.9118 359.983 36.8992C359.759 36.893 359.589 36.9064 359.468 36.9226C359.372 36.9355 359.324 36.9493 359.311 36.9539C358.921 37.1435 358.41 37.2525 357.874 37.3211C357.315 37.3924 356.627 37.4316 355.827 37.4461C354.048 37.4778 352.423 36.9638 350.983 35.9148C349.622 34.9223 348.512 33.7431 347.671 32.3836C346.884 31.1117 346.17 29.802 345.53 28.4539C344.853 27.0268 344.436 25.4835 344.28 23.8367C344.117 22.1055 344.444 20.4559 345.249 18.9148C346.01 17.4578 346.955 16.1682 348.085 15.0476C349.189 13.9524 350.393 12.9838 351.702 12.1492C353.121 11.2442 354.691 10.8169 356.382 10.8679C357.864 10.9127 359.33 10.9369 360.78 10.9461ZM29.6082 10.8367C30.7509 9.45974 32.5561 9.57256 34.3582 10.282C35.3211 10.6614 36.1337 11.2089 36.5925 12.0164C37.0707 12.8579 37.0646 13.7972 36.7488 14.7195C36.2615 16.1406 35.8543 17.5784 35.5222 19.0242C35.1616 20.5936 34.5842 22.0998 33.8035 23.5398C33.1153 24.8097 32.649 26.1427 32.3972 27.5398C32.1099 29.1342 31.6085 30.6581 30.8972 32.1101C30.1521 33.631 29.0855 34.8715 27.7097 35.8054C26.2607 36.7879 24.6518 37.1081 22.9519 36.7429C21.2822 36.3835 19.8851 35.4872 18.7879 34.1023C18.303 33.4904 17.9116 32.9786 17.616 32.5711C17.5486 32.4782 17.4972 32.3771 17.4363 32.2898C17.2584 32.4478 17.0362 32.6659 16.7644 32.9539C15.6839 34.0985 14.6063 35.075 13.53 35.8758C13.0236 36.2526 12.6547 36.5326 12.4207 36.7273C12.3306 36.8022 12.2703 36.8566 12.2332 36.8914C12.1332 37.0456 12.0013 37.1693 11.866 37.2429C11.6682 37.3494 11.4857 37.3644 11.4207 37.3679C11.2728 37.3758 11.1395 37.3487 11.0769 37.3367C10.9259 37.3076 10.7358 37.2561 10.5457 37.1961C10.1521 37.0717 9.5843 36.8635 8.85036 36.5867C7.10653 35.9291 5.89546 34.6907 5.28004 32.9304C4.74222 31.3917 4.3618 29.8394 4.13942 28.2742C3.93631 26.8432 3.58554 25.4459 3.09254 24.0867C2.56918 22.6443 2.08495 21.1762 1.63942 19.6883C1.16844 18.1152 0.956388 16.5031 1.00661 14.8679C1.03501 13.9615 1.26123 13.1242 1.78004 12.4539C2.30615 11.7745 3.05756 11.3652 3.92067 11.1726C5.38323 10.8468 6.7131 10.8278 7.80348 11.2742C8.50868 11.563 8.98183 12.1152 9.23317 12.8133C9.47095 13.4743 9.50919 14.2552 9.42848 15.0945C9.29023 16.5275 9.36813 17.9473 9.66286 19.3445C9.95908 20.7476 10.4527 22.1031 11.1394 23.4148C11.4578 24.0227 11.7292 24.5855 11.9675 25.0867C12.302 23.8514 12.6554 22.6188 13.0379 21.3914C13.46 20.0369 13.6731 18.6604 13.6785 17.2664L13.7175 16.0945C13.7916 14.937 13.9719 13.8146 14.2566 12.7273C14.4824 11.8656 14.9413 11.1091 15.7488 10.7039C16.5288 10.3128 17.433 10.3524 18.3191 10.5945C19.1737 10.8284 19.9259 11.1869 20.4675 11.7351C21.039 12.3137 21.3171 13.0424 21.2879 13.8523C21.2539 14.7696 21.4555 15.9178 21.9597 17.3133C22.5075 18.8281 22.941 20.3566 23.2488 21.8914C23.5526 23.406 23.7898 24.9538 23.9597 26.532C23.9806 26.7252 24.0249 26.8678 24.0535 26.9773C24.1267 26.9328 24.2276 26.8896 24.3347 26.8054C25.2199 26.1089 25.6494 25.1786 25.5847 23.8836C25.5023 22.2516 25.5169 20.6532 25.6394 19.0945C25.7713 17.416 26.3003 15.8156 27.2097 14.3054C28.0593 12.8948 28.8623 11.7357 29.6082 10.8367ZM88.4519 0.51638C89.1882 0.174445 90.0435 0.21498 90.8894 0.42263C92.4112 0.796468 93.7712 1.44086 94.241 2.67263C94.5488 3.48005 94.8533 4.68482 95.1629 6.24294C95.4993 7.93639 95.4456 9.60656 95.0066 11.2429C94.6311 12.6416 94.4539 14.0561 94.4675 15.4773C94.4697 15.6914 94.4936 15.8516 94.5144 15.9695C94.5713 15.944 94.6514 15.9307 94.7332 15.8836C95.8739 15.2252 97.0709 14.4836 98.3191 13.657C99.5586 12.8362 100.773 11.9531 101.96 11.0164C102.678 10.4504 103.506 10.0805 104.397 10.1961C105.295 10.3133 106.002 10.887 106.538 11.6258C107.434 12.8618 108.104 13.8656 108.546 14.6179C108.955 15.3161 108.916 16.076 108.538 16.7429C108.199 17.34 107.599 17.857 106.897 18.3211C105.565 19.2014 104.217 20.0096 102.858 20.7429C101.508 21.4715 100.118 22.1641 98.6941 22.8211C98.1169 23.0879 97.9313 23.3395 97.8738 23.4851C97.8246 23.6117 97.7954 23.8692 98.0457 24.3601C98.5319 25.3127 99.3387 25.8799 100.632 26.0398C102.249 26.2399 103.811 26.522 105.319 26.8836C106.953 27.2754 108.254 28.04 109.046 29.2742C109.825 30.4898 110.031 32.0135 109.811 33.7273C109.689 34.6836 109.327 35.5308 108.647 36.1492C107.971 36.7643 107.089 37.0519 106.116 37.1101C104.299 37.2182 102.618 36.8426 101.1 35.9695C99.7857 35.2131 98.4523 34.5175 97.1004 33.8836C95.7689 33.2592 94.9443 33.1459 94.4988 33.2429C94.377 33.2696 94.2926 33.3248 94.2097 33.4539C94.107 33.6151 93.9965 33.9187 93.9519 34.4383C93.8811 35.2669 93.5499 36.0144 92.8816 36.532C92.245 37.0241 91.4244 37.2155 90.5535 37.2351C89.061 37.2684 88.0041 37.2589 87.4675 37.1961C86.6973 37.1052 86.2695 36.4618 86.0535 36.032C85.8028 35.533 85.6068 34.8662 85.4363 34.0867C85.0821 32.4666 85.0275 30.8316 85.28 29.1883C85.5146 27.6638 85.7527 26.1389 85.991 24.6258C86.2137 23.2099 86.2274 21.792 86.0379 20.3758C85.9039 19.3748 85.7754 18.3719 85.6472 17.3679C85.3222 18.0712 84.8657 18.661 84.2097 19.032C83.4563 19.4579 82.5934 19.5265 81.7097 19.3601C80.4735 19.1265 79.303 19.2745 78.1785 19.8133C77.0926 20.3336 76.3194 21.1608 75.8347 22.3367C75.3161 23.5961 75.0981 24.8924 75.1785 26.2273C75.2757 27.849 75.0477 29.4706 74.5066 31.0867C74.0009 32.5962 73.5847 33.7469 73.2644 34.5086C72.7531 35.7199 71.3861 36.3435 69.8425 36.6961C68.367 37.0326 67.3708 37.2467 66.9754 37.282C66.4163 37.3312 66.0465 36.9914 65.8738 36.7664C65.7036 36.5446 65.5965 36.2825 65.5222 36.0554C65.3688 35.586 65.2546 34.9394 65.1629 34.1648C64.9708 32.541 65.0313 30.9204 65.3504 29.3133C65.6469 27.8199 65.9163 26.3191 66.1629 24.8133C66.3938 23.4027 66.3995 21.997 66.1707 20.5945C65.9251 19.0903 65.6628 17.5843 65.3894 16.0867C65.232 15.2222 65.2422 14.392 65.491 13.6414C65.7453 12.8753 66.2282 12.2531 66.8972 11.7898C68.0931 10.9618 69.4513 10.5979 70.9285 10.6961C72.2658 10.7849 73.4297 11.0788 74.2644 11.6961C74.4636 11.8408 75.0258 11.9923 76.3347 11.5867C77.7835 11.1374 79.2588 10.8763 80.7566 10.8133C82.4346 10.7426 83.8851 11.2924 85.0144 12.4773C85.1375 12.6065 85.2456 12.745 85.3504 12.8836C85.3843 12.252 85.4543 11.6219 85.5613 10.9929C85.8164 9.4943 86.0497 7.99401 86.2722 6.50076C86.4985 4.98259 86.7515 3.61469 87.03 2.39919C87.2159 1.58854 87.6616 0.883684 88.4519 0.51638ZM254.686 11.1648C256.065 10.0558 257.718 9.75195 259.522 10.1726C260.44 10.3868 261.234 10.7961 261.827 11.4461C262.423 12.0998 262.746 12.9226 262.843 13.8445C263.017 15.5118 262.792 17.1713 262.186 18.8133C261.68 20.1854 261.504 21.5464 261.647 22.8992C261.803 24.3695 262.052 25.8385 262.397 27.3054C262.797 29.0058 262.702 30.7175 262.116 32.4148C261.576 33.9801 260.887 35.2415 259.936 35.907C259.039 36.535 257.802 36.8354 256.366 36.9226C255.69 36.9636 255.179 36.9913 254.835 37.0086C254.664 37.0171 254.524 37.0214 254.428 37.0242C254.383 37.0255 254.331 37.0326 254.288 37.032C254.27 37.0317 254.226 37.0289 254.178 37.0242C254.159 37.0222 254.093 37.0141 254.014 36.9929C253.981 36.9839 253.87 36.9573 253.749 36.8836C253.688 36.8463 253.451 36.6873 253.335 36.3836L253.272 36.0242V35.9461C253.273 35.9331 253.279 35.9208 253.28 35.9148C253.281 35.9048 253.279 35.8963 253.28 35.8914C253.281 35.8826 253.287 35.8735 253.288 35.8679C253.29 35.8559 253.286 35.8348 253.288 35.8211C253.292 35.7938 253.304 35.7575 253.311 35.7117C253.328 35.6131 253.349 35.4643 253.382 35.2742C253.447 34.8902 253.547 34.3147 253.678 33.5554C253.909 32.2242 253.775 30.8935 253.257 29.5476C252.612 27.8756 252.443 26.1759 252.772 24.4695C253.047 23.0491 253.118 21.6306 252.983 20.2117C252.928 19.6297 252.882 19.0438 252.843 18.4617C252.633 18.6791 252.409 18.8798 252.139 19.032C251.386 19.4579 250.523 19.5265 249.639 19.3601C248.403 19.1265 247.233 19.2745 246.108 19.8133C245.022 20.3336 244.249 21.1608 243.764 22.3367C243.246 23.5961 243.028 24.8924 243.108 26.2273C243.205 27.849 242.977 29.4706 242.436 31.0867C241.931 32.5962 241.514 33.7469 241.194 34.5086C240.683 35.7199 239.316 36.3435 237.772 36.6961C236.297 37.0326 235.301 37.2467 234.905 37.282C234.346 37.3312 233.976 36.9914 233.803 36.7664C233.633 36.5446 233.526 36.2825 233.452 36.0554C233.298 35.586 233.184 34.9394 233.093 34.1648C232.901 32.541 232.961 30.9204 233.28 29.3133C233.577 27.8199 233.846 26.3191 234.093 24.8133C234.323 23.4027 234.329 21.997 234.1 20.5945C233.855 19.0903 233.593 17.5843 233.319 16.0867C233.162 15.2222 233.172 14.392 233.421 13.6414C233.675 12.8753 234.158 12.2531 234.827 11.7898C236.023 10.9618 237.381 10.5979 238.858 10.6961C240.196 10.7849 241.359 11.0788 242.194 11.6961C242.393 11.8408 242.955 11.9923 244.264 11.5867C245.713 11.1374 247.189 10.8763 248.686 10.8133C250.364 10.7426 251.815 11.2924 252.944 12.4773C253.067 12.6065 253.175 12.745 253.28 12.8836C253.608 12.2374 254.074 11.6579 254.686 11.1648ZM332.546 36.8367C332.545 36.7642 332.53 36.6657 332.491 36.5554C332.513 36.6426 332.546 36.7329 332.546 36.8367ZM10.4832 35.9539C10.4258 36.085 10.3972 36.2243 10.3972 36.3523C10.3972 36.1795 10.448 36.0392 10.4832 35.9539ZM330.186 12.8289C328.905 12.741 327.728 13.0203 326.632 13.6726C325.426 14.3905 324.314 15.2337 323.296 16.2039C322.306 17.1468 321.477 18.2543 320.811 19.532C320.184 20.7366 319.924 22.0092 320.038 23.3601C320.159 24.7978 320.488 26.129 321.014 27.3601C321.571 28.6603 322.21 29.9263 322.921 31.157C323.582 32.3024 324.475 33.318 325.616 34.2039C326.677 35.0276 327.859 35.4362 329.202 35.4383C329.995 35.4395 330.648 35.475 331.124 35.5554C331.352 35.5942 331.618 35.6567 331.85 35.7742C331.87 35.7843 331.888 35.8064 331.913 35.8211C332.081 35.7424 332.318 35.6499 332.608 35.4851C333.801 34.808 335.273 34.4045 336.983 34.2351C338.313 34.1035 339.311 33.5148 340.046 32.4383C340.902 31.1828 341.057 30.3739 340.952 29.8992C340.839 29.3946 340.367 28.7286 339.171 27.9695C338.613 27.616 338.207 27.5002 337.944 27.4929C337.724 27.4877 337.538 27.5562 337.343 27.7508C336.461 28.6266 335.275 29.3423 333.835 29.9304C332.288 30.5622 330.605 30.7314 328.811 30.4695C327.832 30.3264 326.962 29.9641 326.264 29.3445C325.57 28.7266 325.104 27.9068 324.827 26.9461C324.286 25.068 324.478 23.3099 325.507 21.782C326.387 20.4739 327.37 19.3291 328.444 18.3523C329.699 17.2126 331.246 16.8043 332.975 17.0867C334.572 17.3482 335.978 17.917 337.163 18.8054C337.524 19.0762 337.842 19.1585 338.132 19.1414C338.439 19.1227 338.837 18.9851 339.335 18.6101C340.301 17.8808 340.641 17.0755 340.538 16.1258C340.485 15.6413 340.317 15.2678 340.053 14.9695C339.781 14.6623 339.355 14.3767 338.718 14.157C337.269 13.6583 335.869 13.3451 334.522 13.2039C333.104 13.0553 331.658 12.9299 330.186 12.8289ZM170.116 12.9148C169.273 13.038 168.355 13.514 167.374 14.4773C166.235 15.5957 164.965 16.5701 163.569 17.3992C162.044 18.3047 160.471 18.5358 159.038 17.7273C157.992 17.1376 156.827 16.426 155.546 15.5945C154.271 14.7675 153.147 14.0244 152.178 13.3601C151.895 13.166 151.762 13.186 151.686 13.2117C151.547 13.2601 151.271 13.4447 150.913 14.0008C150.201 15.1051 150.289 15.7159 150.569 16.1258C151.131 16.9456 151.921 17.8907 152.952 18.9617C154.016 20.0664 154.949 21.0719 155.741 21.9773C156.281 22.5945 156.569 23.3358 156.522 24.157C156.476 24.9449 156.125 25.7027 155.608 26.407C154.651 27.7104 153.529 28.8656 152.249 29.8601C151.199 30.676 150.681 31.5428 150.553 32.4617C150.496 32.8796 150.57 33.2238 150.741 33.532C150.919 33.8532 151.24 34.199 151.788 34.5398C152.554 35.0158 153.132 35.3881 153.507 35.6258C153.613 35.5587 153.755 35.4807 153.921 35.3601C154.448 34.9767 155.179 34.2485 156.124 33.1101C157.033 32.0154 157.834 30.7961 158.522 29.4461C158.919 28.669 159.49 27.9279 160.343 27.6961C161.263 27.447 162.082 27.8906 162.694 28.4617C163.673 29.3742 164.755 30.2766 165.952 31.157C167.14 32.0313 168.421 32.8452 169.788 33.6023C170.402 33.9422 170.826 34.0303 171.093 34.0164C171.31 34.0043 171.495 33.9222 171.686 33.6804C172.316 32.8843 172.677 32.1244 172.819 31.3992C172.899 30.9905 172.746 30.3354 171.741 29.3758C170.7 28.3824 169.542 27.5023 168.28 26.7429C167.483 26.2631 166.865 25.6221 166.569 24.7898C166.273 23.9547 166.353 23.0704 166.678 22.2039C167.311 20.5232 168.493 19.2868 170.163 18.5242C171.442 17.9404 172.38 17.1275 173.014 16.0867C173.297 15.6227 173.347 15.2724 173.303 15.0008C173.258 14.7214 173.085 14.3719 172.639 13.9617C171.665 13.0656 170.838 12.8103 170.116 12.9148ZM297.374 12.6648C296.356 12.5624 295.405 12.7737 294.491 13.2976C294.118 13.5115 293.884 13.7749 293.749 14.0945C293.608 14.4281 293.54 14.8932 293.616 15.532C293.796 17.0463 293.991 18.5565 294.194 20.0633C294.411 21.6724 294.39 23.284 294.139 24.8914C293.904 26.4028 293.672 27.919 293.436 29.4383C293.218 30.8443 293.241 32.2423 293.507 33.6336C293.651 34.3883 293.761 34.9881 293.835 35.4148C293.841 35.4522 293.844 35.489 293.85 35.5242C293.966 35.5257 294.103 35.5447 294.264 35.5398C295.041 35.5162 296.198 35.3158 297.764 34.8992C298.42 34.7247 298.778 34.4698 298.968 34.2195C299.148 33.9799 299.266 33.6233 299.218 33.0554C299.097 31.6315 298.798 30.2031 298.327 28.7664C297.737 26.9688 297.978 25.2541 299.061 23.7351C299.939 22.5059 300.739 21.2895 301.452 20.0867C302.295 18.6646 303.561 17.5618 305.194 16.7664C306.075 16.3379 307.03 16.157 307.921 16.5398C308.798 16.9185 309.346 17.7318 309.686 18.6648C310.322 20.4109 310.563 22.1455 310.382 23.8523C310.221 25.3576 310.136 26.8505 310.132 28.3289C310.128 29.7797 310.263 31.2423 310.53 32.7117C310.658 33.4111 310.829 33.8633 310.999 34.1336C311.154 34.3818 311.27 34.4263 311.327 34.4383C311.921 34.5583 312.869 34.5343 314.233 34.2898C314.755 34.1959 314.977 34.0157 315.085 33.8601C315.201 33.6896 315.313 33.3581 315.233 32.7351C315.034 31.1804 314.896 29.6288 314.827 28.0867C314.758 26.5417 314.759 24.9947 314.835 23.4461C314.905 22.0147 314.789 20.5987 314.491 19.1961C314.186 17.7594 313.764 16.3 313.218 14.8211C312.989 14.2019 312.677 13.7662 312.303 13.4695C311.93 13.1731 311.437 12.9704 310.788 12.8914C309.279 12.7079 307.895 12.7436 306.632 12.9929C305.324 13.2513 304.035 13.6606 302.772 14.2195C302.049 14.5396 301.312 14.7489 300.632 14.6726C299.858 14.5856 299.256 14.1436 298.936 13.4383C298.792 13.1206 298.426 12.771 297.374 12.6648ZM49.0222 12.7586C47.7538 12.6709 46.5878 12.949 45.4988 13.6101C44.2955 14.3406 43.1871 15.1958 42.1707 16.1726C41.1877 17.1173 40.3727 18.2299 39.7254 19.5164C39.1215 20.7173 38.9204 21.9705 39.116 23.2976C39.3286 24.7391 39.7201 26.0841 40.2957 27.3289C40.9053 28.6472 41.554 29.9426 42.2332 31.2195C42.8522 32.3833 43.7209 33.4137 44.8504 34.3054C45.9 35.1335 47.0718 35.534 48.405 35.5164C49.1137 35.5068 49.5894 35.4535 49.8738 35.3914C49.9485 35.2229 50.0621 35.0722 50.2019 34.9461C50.4443 34.7278 50.735 34.6255 50.9597 34.5711C51.4054 34.4637 51.9634 34.4653 52.5535 34.5164C53.6112 34.6078 54.915 34.5968 56.4754 34.4695C57.7764 34.3633 58.7632 33.7978 59.5066 32.7351C60.365 31.5073 60.9982 30.2256 61.405 28.8914C61.828 27.5039 62.134 26.0843 62.3269 24.6336C62.5076 23.275 62.3918 21.9437 61.9754 20.6336C61.528 19.2264 60.9756 17.816 60.3191 16.407C59.7671 15.2235 58.8861 14.4705 57.6238 14.0945C56.1351 13.6517 54.7047 13.3434 53.3347 13.1726C51.9219 12.9967 50.4805 12.86 49.0222 12.7586ZM131.241 12.8679C129.95 12.829 128.78 13.1497 127.702 13.8367C126.514 14.5942 125.416 15.4671 124.413 16.4617C123.436 17.4306 122.614 18.5557 121.944 19.8367C121.318 21.0354 121.067 22.3024 121.194 23.6492C121.329 25.0779 121.686 26.3908 122.257 27.5945C122.865 28.877 123.546 30.1263 124.296 31.3367C124.991 32.4598 125.918 33.4472 127.085 34.2976C128.173 35.0905 129.374 35.4704 130.718 35.4461C131.478 35.4322 132.086 35.3955 132.546 35.3367C133.028 35.275 133.271 35.1995 133.358 35.157C133.823 34.9315 134.405 34.8917 134.96 34.907C135.551 34.9235 136.271 35.0074 137.1 35.157C138.456 35.4016 139.651 35.1502 140.741 34.3992C141.97 33.5515 142.438 32.8179 142.53 32.2586C142.633 31.6322 142.455 30.7445 141.741 29.532C141.405 28.9618 141.149 28.809 141.046 28.7742C141.01 28.7621 140.885 28.7156 140.569 28.9461C139.483 29.7408 138.169 30.3686 136.655 30.8445C135.129 31.3242 133.505 31.5957 131.788 31.657C130.809 31.6919 129.9 31.4889 129.124 30.9929C128.35 30.4975 127.785 29.7556 127.397 28.8523C127.218 28.4343 127.084 28.0176 127.038 27.6336C126.995 27.2697 127.008 26.7353 127.389 26.3054C127.787 25.8583 128.338 25.7962 128.718 25.8211C129.105 25.8468 129.519 25.9707 129.928 26.1336C131.22 26.6474 132.506 26.7364 133.811 26.407C135.282 26.0358 136.695 25.5721 138.046 25.0242C139.334 24.5008 140.496 23.7795 141.538 22.8601C142.464 22.0428 142.955 21.0391 143.03 19.7898C143.113 18.4149 142.916 17.02 142.436 15.6023C142.03 14.4044 141.264 13.7214 140.038 13.4539C138.526 13.1254 137.076 12.955 135.694 12.9461C134.227 12.9368 132.74 12.9132 131.241 12.8679ZM217.218 12.8679C215.926 12.829 214.756 13.1497 213.678 13.8367C212.49 14.5942 211.392 15.4671 210.389 16.4617C209.413 17.4306 208.59 18.5557 207.921 19.8367C207.295 21.0354 207.044 22.3024 207.171 23.6492C207.306 25.0779 207.662 26.3908 208.233 27.5945C208.842 28.877 209.523 30.1263 210.272 31.3367C210.968 32.4598 211.895 33.4472 213.061 34.2976C214.15 35.0905 215.351 35.4704 216.694 35.4461C217.454 35.4322 218.062 35.3955 218.522 35.3367C219.004 35.275 219.247 35.1995 219.335 35.157C219.8 34.9315 220.382 34.8917 220.936 34.907C221.528 34.9235 222.248 35.0074 223.077 35.157C224.433 35.4016 225.627 35.1502 226.718 34.3992C227.947 33.5515 228.414 32.8179 228.507 32.2586C228.609 31.6322 228.432 30.7445 227.718 29.532C227.381 28.9618 227.125 28.809 227.022 28.7742C226.986 28.7621 226.861 28.7156 226.546 28.9461C225.46 29.7408 224.146 30.3686 222.632 30.8445C221.105 31.3242 219.482 31.5957 217.764 31.657C216.786 31.6919 215.876 31.4889 215.1 30.9929C214.327 30.4975 213.761 29.7556 213.374 28.8523C213.195 28.4343 213.06 28.0176 213.014 27.6336C212.971 27.2697 212.984 26.7353 213.366 26.3054C213.764 25.8583 214.314 25.7962 214.694 25.8211C215.081 25.8468 215.495 25.9707 215.905 26.1336C217.196 26.6474 218.482 26.7364 219.788 26.407C221.259 26.0358 222.672 25.5721 224.022 25.0242C225.311 24.5008 226.473 23.7795 227.514 22.8601C228.44 22.0428 228.932 21.0391 229.007 19.7898C229.089 18.4149 228.893 17.02 228.413 15.6023C228.007 14.4044 227.241 13.7214 226.014 13.4539C224.502 13.1254 223.053 12.955 221.671 12.9461C220.204 12.9368 218.716 12.9132 217.218 12.8679ZM275.343 12.8679C274.051 12.829 272.881 13.1497 271.803 13.8367C270.615 14.5942 269.517 15.4671 268.514 16.4617C267.538 17.4306 266.715 18.5557 266.046 19.8367C265.42 21.0354 265.169 22.3024 265.296 23.6492C265.431 25.0779 265.787 26.3908 266.358 27.5945C266.967 28.877 267.648 30.1263 268.397 31.3367C269.093 32.4598 270.02 33.4472 271.186 34.2976C272.275 35.0905 273.476 35.4704 274.819 35.4461C275.579 35.4322 276.187 35.3955 276.647 35.3367C277.129 35.275 277.372 35.1995 277.46 35.157C277.925 34.9315 278.507 34.8917 279.061 34.907C279.653 34.9235 280.373 35.0074 281.202 35.157C282.558 35.4016 283.752 35.1502 284.843 34.3992C286.072 33.5515 286.539 32.8179 286.632 32.2586C286.734 31.6322 286.557 30.7445 285.843 29.532C285.506 28.9618 285.25 28.809 285.147 28.7742C285.111 28.7621 284.986 28.7156 284.671 28.9461C283.585 29.7408 282.271 30.3686 280.757 30.8445C279.23 31.3242 277.607 31.5957 275.889 31.657C274.911 31.6919 274.001 31.4889 273.225 30.9929C272.452 30.4975 271.886 29.7556 271.499 28.8523C271.32 28.4343 271.185 28.0176 271.139 27.6336C271.096 27.2697 271.109 26.7353 271.491 26.3054C271.889 25.8583 272.439 25.7962 272.819 25.8211C273.206 25.8468 273.62 25.9707 274.03 26.1336C275.321 26.6474 276.607 26.7364 277.913 26.407C279.384 26.0358 280.797 25.5721 282.147 25.0242C283.436 24.5008 284.598 23.7795 285.639 22.8601C286.565 22.0428 287.057 21.0391 287.132 19.7898C287.214 18.4149 287.018 17.02 286.538 15.6023C286.132 14.4044 285.366 13.7214 284.139 13.4539C282.627 13.1254 281.178 12.955 279.796 12.9461C278.329 12.9368 276.841 12.9132 275.343 12.8679ZM356.319 12.8679C355.028 12.829 353.858 13.1497 352.78 13.8367C351.592 14.5942 350.494 15.4671 349.491 16.4617C348.514 17.4306 347.692 18.5557 347.022 19.8367C346.396 21.0354 346.145 22.3024 346.272 23.6492C346.407 25.0779 346.764 26.3908 347.335 27.5945C347.943 28.877 348.625 30.1263 349.374 31.3367C350.07 32.4598 350.996 33.4472 352.163 34.2976C353.251 35.0905 354.452 35.4704 355.796 35.4461C356.556 35.4322 357.164 35.3955 357.624 35.3367C358.106 35.275 358.349 35.1995 358.436 35.157C358.901 34.9315 359.483 34.8917 360.038 34.907C360.629 34.9235 361.349 35.0074 362.178 35.157C363.534 35.4016 364.729 35.1502 365.819 34.3992C367.048 33.5515 367.516 32.8179 367.608 32.2586C367.711 31.6322 367.534 30.7445 366.819 29.532C366.483 28.9618 366.227 28.809 366.124 28.7742C366.088 28.7621 365.963 28.7156 365.647 28.9461C364.562 29.7408 363.247 30.3686 361.733 30.8445C360.207 31.3242 358.584 31.5957 356.866 31.657C355.887 31.6919 354.978 31.4889 354.202 30.9929C353.428 30.4975 352.863 29.7556 352.475 28.8523C352.296 28.4343 352.162 28.0176 352.116 27.6336C352.073 27.2697 352.086 26.7353 352.468 26.3054C352.865 25.8583 353.416 25.7962 353.796 25.8211C354.183 25.8468 354.597 25.9707 355.007 26.1336C356.298 26.6474 357.584 26.7364 358.889 26.407C360.36 26.0358 361.774 25.5721 363.124 25.0242C364.412 24.5008 365.575 23.7795 366.616 22.8601C367.542 22.0428 368.033 21.0391 368.108 19.7898C368.191 18.4149 367.994 17.02 367.514 15.6023C367.108 14.4044 366.342 13.7214 365.116 13.4539C363.604 13.1254 362.154 12.955 360.772 12.9461C359.305 12.9368 357.818 12.9132 356.319 12.8679ZM33.6238 12.1414C32.0145 11.5078 31.411 11.7931 31.1472 12.1101C30.4877 12.9049 29.7479 13.9764 28.9285 15.3367C28.1682 16.599 27.7376 17.9017 27.6316 19.2508C27.5162 20.7198 27.4986 22.2316 27.5769 23.782C27.6716 25.6668 27.0156 27.2431 25.5769 28.3758C25.2391 28.6416 24.8731 28.8675 24.491 28.9929C24.0954 29.1223 23.6171 29.1587 23.155 28.9383C22.7045 28.7228 22.4277 28.3439 22.2644 27.9773C22.1021 27.6128 22.0152 27.1853 21.9675 26.7429C21.8039 25.2236 21.5793 23.7352 21.2879 22.282C21.0002 20.8482 20.5996 19.4168 20.0847 17.9929C19.5277 16.4518 19.2414 15.0416 19.2879 13.782C19.2981 13.5048 19.2169 13.3151 19.0457 13.1414C18.8437 12.937 18.4608 12.708 17.7879 12.5242C17.1467 12.349 16.8108 12.4114 16.6472 12.4929C16.5114 12.5611 16.318 12.7325 16.1863 13.2351C15.8522 14.5119 15.6838 15.8592 15.6785 17.2742C15.6723 18.8703 15.4246 20.4433 14.9441 21.9851C14.4974 23.4187 14.0895 24.8613 13.7097 26.3054C13.609 26.6884 13.4977 27.0216 13.3894 27.2976C13.2919 27.5461 13.1528 27.8539 12.9363 28.0867C12.8233 28.2081 12.6218 28.389 12.3191 28.4617C11.9735 28.5446 11.6517 28.4506 11.4129 28.2898C11.205 28.1498 11.073 27.9688 10.9988 27.8445C10.9207 27.713 10.8578 27.5752 10.8113 27.4461C10.5637 26.7572 10.0901 25.7271 9.36598 24.3445C8.59593 22.8738 8.04481 21.3393 7.70973 19.7508C7.3734 18.1549 7.27897 16.5393 7.43629 14.907C7.5029 14.2167 7.44799 13.7659 7.35036 13.4929C7.26532 13.2568 7.16111 13.1732 7.04567 13.1258C6.4949 12.9002 5.63057 12.8401 4.35036 13.1258C3.84375 13.2392 3.54919 13.4444 3.36598 13.6804C3.17627 13.9255 3.02598 14.3127 3.00661 14.9304C2.96304 16.3489 3.14436 17.7427 3.55348 19.1101C3.98826 20.5623 4.46509 21.9928 4.97536 23.3992C5.51595 24.8891 5.89333 26.4242 6.11598 27.9929C6.3195 29.4256 6.67385 30.8531 7.17067 32.2742C7.59114 33.4753 8.36498 34.2713 9.55348 34.7195C10.2258 34.973 10.729 35.1481 11.0691 35.2586C11.0939 35.2375 11.1216 35.2174 11.1472 35.1961C11.4235 34.9662 11.8215 34.656 12.3347 34.2742C13.3014 33.555 14.2954 32.6551 15.3113 31.5789C15.8431 31.0157 16.3346 30.5597 16.7566 30.2976C16.9529 30.1761 17.2616 30.0135 17.6238 30.0008C17.8272 29.9938 18.0666 30.0363 18.2957 30.1726C18.5256 30.3099 18.6739 30.5049 18.7644 30.6883C18.8094 30.7794 18.9496 31.0002 19.2332 31.3914C19.5056 31.767 19.881 32.2578 20.3582 32.8601C21.1866 33.9057 22.1856 34.5343 23.3738 34.7898C24.5324 35.0387 25.5869 34.8319 26.5925 34.1492C27.6708 33.4168 28.5043 32.4507 29.1004 31.2351C29.7298 29.9503 30.1738 28.6002 30.4285 27.1883C30.7185 25.5787 31.2575 24.041 32.0457 22.5867C32.7422 21.3019 33.2498 19.9612 33.5691 18.5711C33.9169 17.0574 34.3488 15.5565 34.8582 14.0711C35.0393 13.5415 34.9756 13.2211 34.8504 13.0008C34.7043 12.7467 34.3624 12.4322 33.6238 12.1414ZM89.2957 2.32888C89.2042 2.3714 89.0692 2.46909 88.9832 2.84451C88.7182 4.0001 88.4772 5.31729 88.2566 6.79763C88.0321 8.3046 87.7874 9.81676 87.53 11.3289C87.2908 12.7361 87.2595 14.1491 87.4363 15.5711C87.625 17.087 87.8203 18.6011 88.0222 20.1101C88.2375 21.7187 88.2204 23.3317 87.9675 24.9383C87.7296 26.4491 87.4909 27.9708 87.2566 29.4929C87.0416 30.8932 87.0883 32.2788 87.3894 33.657C87.547 34.3777 87.703 34.8558 87.8425 35.1336C87.8581 35.1644 87.8763 35.1889 87.8894 35.2117C88.3395 35.2415 89.1939 35.2644 90.5066 35.2351C91.1458 35.2209 91.4835 35.0785 91.655 34.9461C91.7954 34.8374 91.9264 34.6567 91.9597 34.2664C92.0196 33.5696 92.1832 32.9163 92.5222 32.3836C92.8819 31.8193 93.41 31.4343 94.0691 31.2898C95.1871 31.0449 96.5223 31.4124 97.9441 32.0789C99.3459 32.7362 100.732 33.4523 102.093 34.2351C103.251 34.9014 104.545 35.2046 105.999 35.1179C106.662 35.0783 107.06 34.8943 107.303 34.6726C107.543 34.4544 107.747 34.0961 107.827 33.4773C108.011 32.0422 107.806 31.0395 107.366 30.3523C106.937 29.683 106.156 29.1419 104.85 28.8289C103.419 28.4858 101.928 28.2155 100.382 28.0242C98.5124 27.7922 97.0874 26.8805 96.2644 25.2664C95.8606 24.4742 95.6821 23.6053 96.0066 22.7664C96.3254 21.9461 97.0351 21.3888 97.8582 21.0086C99.2458 20.3683 100.6 19.694 101.913 18.9851C103.218 18.2807 104.511 17.4984 105.796 16.6492C106.401 16.2487 106.688 15.9407 106.796 15.7508C106.839 15.6736 106.835 15.6426 106.835 15.6492C106.833 15.6443 106.832 15.6347 106.827 15.6258C106.435 14.9577 105.797 14.0244 104.913 12.8054C104.558 12.316 104.291 12.2003 104.139 12.1804C103.983 12.1604 103.682 12.2014 103.194 12.5867C101.965 13.5573 100.707 14.469 99.4207 15.3211C98.1423 16.1676 96.9139 16.9365 95.7332 17.6179C95.1113 17.9768 94.1557 18.3398 93.3347 17.7508C92.9529 17.4766 92.7462 17.0798 92.6316 16.7117C92.5169 16.343 92.4717 15.9256 92.4675 15.4929C92.4522 13.8877 92.6551 12.2981 93.0769 10.7273C93.4347 9.39496 93.4801 8.0346 93.2019 6.63357C92.8966 5.0967 92.619 4.02661 92.3738 3.38357C92.2904 3.16486 91.8743 2.71914 90.4129 2.36013C89.7716 2.20284 89.4415 2.26189 89.2957 2.32888ZM70.7957 12.6961C69.7523 12.6268 68.848 12.8772 68.0379 13.4383C67.7045 13.6691 67.4995 13.9421 67.3894 14.2742C67.2748 14.6209 67.2427 15.0921 67.3582 15.7273C67.6338 17.2372 67.8918 18.7576 68.1394 20.2742C68.403 21.8905 68.4048 23.5113 68.1394 25.1336C67.8892 26.6621 67.6124 28.1879 67.3113 29.7039C67.0331 31.1056 66.9799 32.5157 67.1472 33.9304C67.2121 34.4779 67.282 34.8857 67.3504 35.1726C67.785 35.0873 68.463 34.9639 69.3972 34.7508C70.8757 34.4132 71.321 33.9645 71.4207 33.7273C71.7107 33.0372 72.1062 31.952 72.6082 30.4539C73.0741 29.063 73.2599 27.6961 73.1785 26.3445C73.0798 24.705 73.3519 23.1126 73.9832 21.5789C74.6491 19.9619 75.7702 18.7585 77.3191 18.0164C78.8296 17.2929 80.4254 17.0794 82.0769 17.3914C82.6361 17.4971 82.9899 17.4229 83.2254 17.2898C83.4626 17.1554 83.718 16.8837 83.9285 16.3367C84.1478 15.7659 84.1922 15.305 84.1316 14.9304C84.0722 14.5651 83.9026 14.2111 83.5691 13.8601C82.8649 13.1213 81.9845 12.7656 80.8425 12.8133C79.5198 12.8689 78.2147 13.0941 76.9285 13.4929C75.5103 13.9327 74.0911 14.0613 73.0691 13.3054C72.6851 13.0216 71.9786 12.7747 70.7957 12.6961ZM238.725 12.6961C237.682 12.6268 236.778 12.8772 235.968 13.4383C235.634 13.6691 235.429 13.9421 235.319 14.2742C235.205 14.6209 235.172 15.0921 235.288 15.7273C235.564 17.2372 235.822 18.7576 236.069 20.2742C236.333 21.8905 236.335 23.5113 236.069 25.1336C235.819 26.6621 235.542 28.1879 235.241 29.7039C234.963 31.1056 234.91 32.5157 235.077 33.9304C235.142 34.4779 235.212 34.8857 235.28 35.1726C235.715 35.0873 236.393 34.9639 237.327 34.7508C238.805 34.4132 239.251 33.9645 239.35 33.7273C239.64 33.0372 240.036 31.952 240.538 30.4539C241.004 29.063 241.19 27.6961 241.108 26.3445C241.009 24.705 241.282 23.1126 241.913 21.5789C242.579 19.9619 243.7 18.7585 245.249 18.0164C246.759 17.2929 248.355 17.0794 250.007 17.3914C250.566 17.4971 250.92 17.4229 251.155 17.2898C251.392 17.1554 251.648 16.8837 251.858 16.3367C252.077 15.7659 252.122 15.305 252.061 14.9304C252.002 14.5651 251.832 14.2111 251.499 13.8601C250.795 13.1213 249.914 12.7656 248.772 12.8133C247.45 12.8689 246.144 13.0941 244.858 13.4929C243.44 13.9327 242.021 14.0613 240.999 13.3054C240.615 13.0216 239.908 12.7747 238.725 12.6961ZM259.069 12.1179C257.787 11.8189 256.785 12.0509 255.944 12.7273C255.094 13.411 254.679 14.3106 254.71 15.5398C254.747 17.0322 254.833 18.5244 254.975 20.0164C255.129 21.629 255.052 23.2456 254.741 24.8523C254.486 26.1725 254.608 27.4901 255.124 28.8289C255.766 30.4955 255.942 32.1941 255.647 33.8992C255.576 34.3084 255.511 34.6621 255.46 34.9617C255.69 34.9484 255.953 34.9406 256.249 34.9226C257.529 34.8448 258.33 34.5867 258.788 34.2664C259.192 33.9832 259.712 33.2454 260.225 31.7586C260.692 30.4045 260.761 29.0812 260.452 27.7664C260.088 26.2192 259.827 24.6653 259.663 23.1101C259.486 21.4359 259.706 19.7685 260.311 18.1258C260.818 16.7526 260.991 15.3921 260.85 14.0476C260.789 13.4655 260.605 13.0686 260.35 12.7898C260.092 12.5077 259.693 12.2635 259.069 12.1179ZM49.741 16.5008C51.5862 16.1746 53.3192 16.5473 54.8894 17.6023C56.4974 18.6839 57.4045 20.2096 57.5144 22.1101C57.6129 23.8165 57.3733 25.4495 56.7957 26.9929C56.1581 28.6951 54.9268 29.8314 53.1785 30.3367C52.471 30.5409 51.9892 30.7157 51.7019 30.8523C51.662 30.8713 51.6265 30.8851 51.6004 30.8992C51.5797 30.9426 51.5745 30.9959 51.5457 31.0398C51.3644 31.3132 51.0896 31.4606 50.8347 31.5086C50.6137 31.5501 50.4243 31.5212 50.3113 31.4929C50.1895 31.4623 50.0783 31.4169 49.991 31.3758C49.6689 31.2237 49.2794 30.9416 48.866 30.6101C48.0133 29.9263 47.1091 29.1155 46.155 28.1804C45.0665 27.1135 44.319 25.718 43.8738 24.0554C43.3738 22.1879 43.8163 20.4757 45.1394 19.032C46.3883 17.6698 47.9344 16.8206 49.741 16.5008ZM192.022 16.8836C192.267 17.0141 192.578 17.2318 192.928 17.4929C193.616 18.0057 194.495 18.6523 195.569 19.4304C196.961 20.4393 197.549 21.898 197.343 23.6336C197.163 25.1441 196.748 26.5652 196.1 27.8836C195.729 28.6379 195.198 29.2504 194.499 29.6648C193.804 30.0762 193.002 30.2597 192.139 30.2586C190.561 30.2564 189.05 29.9415 187.616 29.3211C186.047 28.6417 184.935 27.448 184.311 25.8133C183.989 24.9675 183.888 24.1097 184.061 23.2664C184.235 22.4244 184.669 21.667 185.296 21.0008C186.41 19.8174 187.632 18.8555 188.96 18.1179C189.568 17.7801 190.001 17.5198 190.272 17.3367C190.348 17.2854 190.399 17.2405 190.436 17.2117C190.499 17.1035 190.586 16.9919 190.71 16.8992C191.014 16.6731 191.333 16.6828 191.46 16.6961C191.713 16.7225 191.929 16.834 192.022 16.8836ZM50.0847 18.4695C48.7176 18.7121 47.571 19.3419 46.616 20.3836C45.7354 21.344 45.4871 22.3582 45.8035 23.5398C46.1749 24.9265 46.7682 25.9811 47.5535 26.7508C48.471 27.65 49.3258 28.4138 50.116 29.0476C50.2389 29.1462 50.3605 29.2142 50.4519 29.282C50.5815 29.1982 50.7099 29.1108 50.8425 29.0476C51.2791 28.8399 51.8853 28.6279 52.6238 28.4148C53.7669 28.0842 54.5058 27.398 54.9207 26.2898C55.3958 25.0202 55.5976 23.6698 55.5144 22.2273C55.4424 20.9804 54.8915 20.0152 53.78 19.2664C52.6297 18.4926 51.4122 18.2345 50.0847 18.4695ZM191.389 18.9929C191.045 19.2257 190.551 19.5143 189.928 19.8601C188.795 20.4896 187.734 21.3284 186.749 22.3758C186.327 22.8245 186.107 23.2592 186.022 23.6726C185.938 24.0843 185.969 24.5533 186.178 25.1023C186.62 26.2597 187.357 27.0311 188.405 27.4851C189.586 27.9965 190.829 28.2564 192.139 28.2586C192.722 28.2593 193.158 28.1309 193.483 27.9383C193.802 27.7483 194.08 27.4542 194.303 27.0008C194.846 25.8953 195.196 24.6949 195.35 23.3992C195.478 22.3272 195.157 21.5986 194.397 21.0476C193.319 20.2664 192.431 19.6148 191.733 19.0945C191.64 19.0251 191.549 18.9751 191.475 18.9226C191.445 18.9437 191.42 18.9722 191.389 18.9929ZM134.014 16.3992C134.186 16.4302 134.441 16.515 134.655 16.7429C134.665 16.7534 134.669 16.7714 134.678 16.782C134.756 16.7739 134.852 16.7697 134.96 16.7508C135.517 16.6538 136.185 16.7043 136.702 17.1961C137.185 17.6585 137.317 18.3118 137.327 18.8679C137.355 20.4561 136.079 21.3806 134.577 21.8836C133.125 22.3695 131.597 22.7305 129.999 22.9695C129.575 23.0328 129.163 23.0649 128.803 23.0242C128.473 22.9863 127.981 22.8591 127.647 22.4304C127.277 21.9531 127.337 21.4117 127.452 21.0554C127.566 20.7027 127.775 20.3553 128.014 20.0398C128.962 18.7918 130.158 17.8195 131.585 17.1258C132.236 16.8092 132.795 16.5734 133.218 16.4617C133.403 16.4127 133.706 16.3435 134.014 16.3992ZM219.991 16.3992C220.162 16.4302 220.418 16.515 220.632 16.7429C220.641 16.7534 220.646 16.7714 220.655 16.782C220.732 16.7739 220.828 16.7697 220.936 16.7508C221.494 16.6538 222.162 16.7043 222.678 17.1961C223.162 17.6585 223.293 18.3118 223.303 18.8679C223.331 20.4561 222.056 21.3806 220.553 21.8836C219.102 22.3695 217.573 22.7305 215.975 22.9695C215.551 23.0328 215.14 23.0649 214.78 23.0242C214.45 22.9863 213.957 22.8591 213.624 22.4304C213.253 21.9531 213.314 21.4117 213.428 21.0554C213.542 20.7027 213.752 20.3553 213.991 20.0398C214.939 18.7918 216.135 17.8195 217.561 17.1258C218.212 16.8092 218.772 16.5734 219.194 16.4617C219.38 16.4127 219.683 16.3435 219.991 16.3992ZM278.116 16.3992C278.287 16.4302 278.543 16.515 278.757 16.7429C278.766 16.7534 278.771 16.7714 278.78 16.782C278.857 16.7739 278.953 16.7697 279.061 16.7508C279.619 16.6538 280.287 16.7043 280.803 17.1961C281.287 17.6585 281.418 18.3118 281.428 18.8679C281.456 20.4561 280.181 21.3806 278.678 21.8836C277.227 22.3695 275.698 22.7305 274.1 22.9695C273.676 23.0328 273.265 23.0649 272.905 23.0242C272.575 22.9863 272.082 22.8591 271.749 22.4304C271.378 21.9531 271.439 21.4117 271.553 21.0554C271.667 20.7027 271.877 20.3553 272.116 20.0398C273.064 18.7918 274.26 17.8195 275.686 17.1258C276.337 16.8092 276.897 16.5734 277.319 16.4617C277.505 16.4127 277.808 16.3435 278.116 16.3992ZM359.093 16.3992C359.264 16.4302 359.519 16.515 359.733 16.7429C359.743 16.7534 359.747 16.7714 359.757 16.782C359.834 16.7739 359.93 16.7697 360.038 16.7508C360.595 16.6538 361.264 16.7043 361.78 17.1961C362.263 17.6585 362.395 18.3118 362.405 18.8679C362.433 20.4561 361.158 21.3806 359.655 21.8836C358.203 22.3695 356.675 22.7305 355.077 22.9695C354.653 23.0328 354.241 23.0649 353.882 23.0242C353.551 22.9863 353.059 22.8591 352.725 22.4304C352.355 21.9531 352.416 21.4117 352.53 21.0554C352.644 20.7027 352.853 20.3553 353.093 20.0398C354.04 18.7918 355.237 17.8195 356.663 17.1258C357.314 16.8092 357.873 16.5734 358.296 16.4617C358.481 16.4127 358.784 16.3435 359.093 16.3992ZM132.46 18.9226C131.426 19.4254 130.564 20.1078 129.85 20.9617C131.287 20.739 132.653 20.4175 133.944 19.9851C135.227 19.5554 135.331 19.1104 135.327 18.8992L135.303 18.7195C134.888 18.7923 134.443 18.8394 134.061 18.7664C133.893 18.7341 133.679 18.65 133.468 18.4929C133.232 18.5806 132.896 18.7104 132.46 18.9226ZM218.436 18.9226C217.403 19.4254 216.54 20.1078 215.827 20.9617C217.264 20.739 218.629 20.4175 219.921 19.9851C221.204 19.5554 221.307 19.1104 221.303 18.8992L221.28 18.7195C220.865 18.7923 220.42 18.8394 220.038 18.7664C219.87 18.7341 219.655 18.65 219.444 18.4929C219.209 18.5806 218.873 18.7104 218.436 18.9226ZM276.561 18.9226C275.528 19.4254 274.665 20.1078 273.952 20.9617C275.389 20.739 276.754 20.4175 278.046 19.9851C279.329 19.5554 279.432 19.1104 279.428 18.8992L279.405 18.7195C278.99 18.7923 278.545 18.8394 278.163 18.7664C277.995 18.7341 277.78 18.65 277.569 18.4929C277.334 18.5806 276.998 18.7104 276.561 18.9226ZM357.538 18.9226C356.504 19.4254 355.642 20.1078 354.928 20.9617C356.365 20.739 357.731 20.4175 359.022 19.9851C360.305 19.5554 360.409 19.1104 360.405 18.8992L360.382 18.7195C359.966 18.7923 359.521 18.8394 359.139 18.7664C358.971 18.7341 358.757 18.65 358.546 18.4929C358.31 18.5806 357.974 18.7104 357.538 18.9226ZM132.96 17.5164C132.96 17.6006 132.974 17.7041 133.014 17.8133C132.99 17.7138 132.96 17.6173 132.96 17.5164ZM218.936 17.5164C218.937 17.6006 218.95 17.7041 218.991 17.8133C218.966 17.7138 218.937 17.6173 218.936 17.5164ZM277.061 17.5164C277.062 17.6006 277.075 17.7041 277.116 17.8133C277.091 17.7138 277.062 17.6173 277.061 17.5164ZM358.038 17.5164C358.038 17.6006 358.052 17.7041 358.093 17.8133C358.068 17.7138 358.038 17.6173 358.038 17.5164ZM259.382 0.125755C260.237 0.276404 261.016 0.57462 261.577 1.12576C262.172 1.71305 262.415 2.47941 262.366 3.29763C262.285 4.6481 261.827 5.90224 261.022 7.03201C260.05 8.39541 258.529 8.85282 256.764 8.63357C256.009 8.53972 255.437 8.46905 255.046 8.42263C254.851 8.3995 254.702 8.38678 254.6 8.37576C254.55 8.3703 254.514 8.36225 254.491 8.36013C254.503 8.36062 254.52 8.36036 254.538 8.36013C254.026 8.3671 253.754 8.01016 253.718 7.96169C253.642 7.86221 253.595 7.76863 253.577 7.72732C253.537 7.63531 253.515 7.5379 253.499 7.47732C253.463 7.34428 253.426 7.17234 253.389 6.97732C253.315 6.57597 253.22 5.98537 253.108 5.21951C252.98 4.33797 253.027 3.49649 253.311 2.74294C253.6 1.97909 254.112 1.36731 254.803 0.914818C256.118 0.0567059 257.678 -0.173546 259.382 0.125755ZM259.03 2.09451C257.716 1.86406 256.7 2.06253 255.897 2.58669C255.534 2.82438 255.307 3.11251 255.178 3.45388C255.045 3.80859 254.991 4.28768 255.085 4.93044C255.179 5.58038 255.264 6.08102 255.327 6.43826C255.722 6.48527 256.286 6.55872 257.014 6.64919C258.273 6.80489 258.968 6.47021 259.397 5.86794C259.994 5.02995 260.308 4.13876 260.366 3.18044C260.386 2.84749 260.301 2.67728 260.178 2.55544C260.02 2.39921 259.681 2.20895 259.03 2.09451Z" fill="black"/>
</g>
<defs>
<filter id="filter0_d_43_38" x="0" y="0" width="370.126" height="46.0675" filterUnits="userSpaceOnUse" color-interpolation-filters="sRGB">
<feFlood flood-opacity="0" result="BackgroundImageFix"/>
<feColorMatrix in="SourceAlpha" type="matrix" values="0 0 0 0 0 0 0 0 0 0 0 0 0 0 0 0 0 0 127 0" result="hardAlpha"/>
<feOffset dx="-1" dy="0.15"/>
<feComposite in2="hardAlpha" operator="out"/>
<feColorMatrix type="matrix" values="0 0 0 0 0 0 0 0 0 0 0 0 0 0 0 0 0 0 1 0"/>
<feBlend mode="normal" in2="BackgroundImageFix" result="effect1_dropShadow_43_38"/>
<feBlend mode="normal" in="SourceGraphic" in2="effect1_dropShadow_43_38" result="shape"/>
</filter>
</defs>
</svg>
