<svg width="418" height="47" viewBox="0 0 418 47" fill="none" xmlns="http://www.w3.org/2000/svg">
<g filter="url(#filter0_d_43_40)">
<path d="M2.83704 44.5234C2.65037 42.39 2.51704 40.2434 2.43704 38.0834C2.35704 35.9234 2.31704 33.43 2.31704 30.6034C2.31704 27.1634 2.37037 23.7367 2.47704 20.3234C2.58371 16.91 2.74371 13.79 2.95704 10.9634L9.83704 11.1634C9.75704 11.7767 9.69037 12.43 9.63704 13.1234C10.597 12.4834 11.6237 12.0167 12.717 11.7234C13.837 11.43 14.9704 11.2834 16.117 11.2834C17.5837 11.2834 19.0104 11.5234 20.397 12.0034C21.7837 12.4567 23.037 13.19 24.157 14.2034C25.277 15.19 26.157 16.47 26.797 18.0434C27.4637 19.6167 27.797 21.51 27.797 23.7234C27.797 25.91 27.4637 27.8167 26.797 29.4434C26.1304 31.07 25.237 32.4034 24.117 33.4434C22.997 34.51 21.7437 35.2967 20.357 35.8034C18.9704 36.3367 17.5437 36.6034 16.077 36.6034C13.3837 36.6034 11.0104 35.8034 8.95704 34.2034C9.01037 35.91 9.09037 37.55 9.19704 39.1234C9.30371 40.7234 9.43704 42.35 9.59704 44.0034L2.83704 44.5234ZM15.037 17.9234C12.397 17.9234 10.4104 19.2167 9.07704 21.8034C8.99704 23.4034 8.94371 25.03 8.91704 26.6834C9.55704 27.5367 10.3837 28.2834 11.397 28.9234C12.4104 29.5367 13.7037 29.8434 15.277 29.8434C19.037 29.8434 20.917 27.6967 20.917 23.4034C20.917 22.2567 20.7037 21.3234 20.277 20.6034C19.8504 19.8834 19.317 19.3367 18.677 18.9634C18.037 18.5634 17.3837 18.2967 16.717 18.1634C16.0504 18.0034 15.4904 17.9234 15.037 17.9234ZM42.8002 36.3634C40.2402 36.3634 37.9868 35.8567 36.0402 34.8434C34.1202 33.8567 32.6135 32.47 31.5202 30.6834C30.4535 28.8967 29.9202 26.83 29.9202 24.4834C29.9202 23.07 30.1602 21.59 30.6402 20.0434C31.1202 18.47 31.8935 17.0034 32.9602 15.6434C34.0268 14.2834 35.4268 13.1767 37.1602 12.3234C38.9202 11.47 41.0535 11.0434 43.5602 11.0434C45.3735 11.0434 46.8935 11.2434 48.1202 11.6434C49.3735 12.0434 50.3868 12.5634 51.1602 13.2034C51.9602 13.8434 52.5602 14.5234 52.9602 15.2434C53.3868 15.9634 53.6668 16.6567 53.8002 17.3234C53.9602 17.9634 54.0402 18.4967 54.0402 18.9234C54.0402 21.51 52.9468 23.51 50.7602 24.9234C48.6002 26.31 45.5335 27.0034 41.5602 27.0034C40.6535 27.0034 39.7868 26.9634 38.9602 26.8834C38.1602 26.8034 37.4135 26.71 36.7202 26.6034C37.2268 27.9367 38.0668 28.9234 39.2402 29.5634C40.4135 30.1767 41.6268 30.4834 42.8802 30.4834C44.6935 30.4834 46.2935 30.1634 47.6802 29.5234C49.0668 28.8567 50.3735 27.8434 51.6002 26.4834L55.1602 31.6034C54.3068 32.2967 53.3468 33.0167 52.2802 33.7634C51.2402 34.51 49.9602 35.1234 48.4402 35.6034C46.9202 36.11 45.0402 36.3634 42.8002 36.3634ZM43.6802 17.0434C42.1068 17.0434 40.7202 17.4434 39.5202 18.2434C38.3202 19.0434 37.4402 20.0967 36.8802 21.4034C37.5468 21.51 38.2002 21.6034 38.8402 21.6834C39.5068 21.7367 40.1602 21.7634 40.8002 21.7634C41.3868 21.7634 42.0535 21.71 42.8002 21.6034C43.5735 21.4967 44.3202 21.3367 45.0402 21.1234C45.7868 20.91 46.4002 20.6434 46.8802 20.3234C47.3602 19.9767 47.6002 19.5767 47.6002 19.1234C47.6002 18.91 47.4935 18.6434 47.2802 18.3234C47.0668 18.0034 46.6802 17.71 46.1202 17.4434C45.5602 17.1767 44.7468 17.0434 43.6802 17.0434ZM58.0992 36.2834C58.2059 34.07 58.2859 31.8567 58.3392 29.6434C58.3926 27.43 58.4192 25.2434 58.4192 23.0834C58.3926 21.11 58.3526 19.1634 58.2992 17.2434C58.2726 15.2967 58.2059 13.4167 58.0992 11.6034L64.8192 11.4034C64.8459 12.39 64.8859 13.4034 64.9392 14.4434C65.7926 13.3767 66.7792 12.5234 67.8992 11.8834C69.0459 11.2167 70.3526 10.8834 71.8192 10.8834C72.3792 10.8834 73.0992 10.9634 73.9792 11.1234C74.8592 11.2834 75.7526 11.59 76.6592 12.0434L75.8992 18.8034C75.2326 18.4034 74.5126 18.1234 73.7392 17.9634C72.9926 17.7767 72.3659 17.6834 71.8592 17.6834C70.1526 17.6834 68.6992 18.4567 67.4992 20.0034C66.3259 21.5234 65.5259 23.6434 65.0992 26.3634C65.0992 28.23 65.0726 30.0167 65.0192 31.7234C64.9926 33.4034 64.9259 34.9234 64.8192 36.2834H58.0992ZM90.0583 36.4834C88.245 36.4834 86.565 36.27 85.0183 35.8434C83.4716 35.4167 82.0716 34.87 80.8183 34.2034C79.565 33.5367 78.445 32.83 77.4583 32.0834L81.0583 26.2834C82.1783 27.3234 83.2583 28.1234 84.2983 28.6834C85.3383 29.2434 86.4183 29.63 87.5383 29.8434C88.685 30.0567 89.925 30.1634 91.2583 30.1634C92.405 30.1634 93.325 30.0167 94.0183 29.7234C94.7116 29.4034 95.0583 29.0034 95.0583 28.5234C95.0583 28.1234 94.725 27.8167 94.0583 27.6034C93.3916 27.3634 92.5383 27.1634 91.4983 27.0034C90.4583 26.8167 89.365 26.59 88.2183 26.3234C86.5916 25.8967 85.0716 25.4034 83.6583 24.8434C82.245 24.2834 81.0983 23.5234 80.2183 22.5634C79.365 21.6034 78.9383 20.3234 78.9383 18.7234C78.9383 17.4434 79.245 16.3234 79.8583 15.3634C80.4716 14.3767 81.285 13.5634 82.2983 12.9234C83.3383 12.2567 84.5116 11.7634 85.8183 11.4434C87.125 11.1234 88.4716 10.9634 89.8583 10.9634C92.2583 10.9634 94.325 11.2567 96.0583 11.8434C97.8183 12.4034 99.4983 13.15 101.098 14.0834L97.4583 19.6034C96.6583 19.0434 95.7383 18.5634 94.6983 18.1634C93.685 17.7367 92.6583 17.4167 91.6183 17.2034C90.605 16.9634 89.6583 16.8434 88.7783 16.8434C87.8183 16.8434 87.0583 16.99 86.4983 17.2834C85.965 17.5767 85.6983 17.99 85.6983 18.5234C85.6983 18.8434 86.0316 19.15 86.6983 19.4434C87.3916 19.71 88.6983 20.07 90.6183 20.5234C91.765 20.79 92.9783 21.07 94.2583 21.3634C95.5383 21.63 96.7383 22.0167 97.8583 22.5234C99.005 23.0034 99.925 23.71 100.618 24.6434C101.338 25.55 101.698 26.7634 101.698 28.2834C101.698 30.8434 100.672 32.8434 98.6183 34.2834C96.565 35.75 93.7116 36.4834 90.0583 36.4834ZM116.663 36.4434C114.529 36.4434 112.663 36.0967 111.063 35.4034C109.489 34.71 108.183 33.7634 107.143 32.5634C106.103 31.3367 105.329 29.9367 104.823 28.3634C104.316 26.79 104.063 25.1367 104.063 23.4034C104.063 21.6434 104.369 20.0167 104.983 18.5234C105.623 17.0034 106.489 15.6834 107.583 14.5634C108.703 13.4434 110.009 12.5767 111.503 11.9634C112.996 11.3234 114.623 11.0034 116.383 11.0034C118.223 11.0034 119.929 11.3234 121.503 11.9634C123.076 12.6034 124.449 13.4967 125.623 14.6434C126.796 15.79 127.703 17.1367 128.343 18.6834C129.009 20.23 129.343 21.91 129.343 23.7234C129.343 27.75 128.236 30.8834 126.023 33.1234C123.809 35.3367 120.689 36.4434 116.663 36.4434ZM116.623 29.9634C118.569 29.9634 120.049 29.4167 121.063 28.3234C122.103 27.23 122.623 25.6567 122.623 23.6034C122.623 21.7634 122.063 20.2834 120.943 19.1634C119.823 18.0434 118.356 17.4834 116.543 17.4834C115.449 17.4834 114.449 17.7767 113.543 18.3634C112.636 18.9234 111.903 19.6834 111.343 20.6434C110.809 21.5767 110.543 22.6167 110.543 23.7634C110.543 24.7767 110.743 25.7634 111.143 26.7234C111.569 27.6834 112.236 28.47 113.143 29.0834C114.049 29.67 115.209 29.9634 116.623 29.9634ZM132.798 36.0434C132.718 33.6967 132.651 31.5234 132.598 29.5234C132.571 27.5234 132.558 25.55 132.558 23.6034C132.558 21.6567 132.571 19.71 132.598 17.7634C132.651 15.79 132.731 13.6834 132.838 11.4434H139.598C139.491 12.6434 139.398 13.8567 139.318 15.0834C140.225 13.9367 141.305 12.99 142.558 12.2434C143.811 11.47 145.291 11.0834 146.998 11.0834C148.678 11.0834 150.051 11.3634 151.118 11.9234C152.211 12.4834 153.065 13.2567 153.678 14.2434C154.318 15.23 154.771 16.3634 155.038 17.6434C155.331 18.8967 155.518 20.2567 155.598 21.7234C155.678 23.1634 155.718 24.6167 155.718 26.0834C155.718 27.6834 155.691 29.2167 155.638 30.6834C155.585 32.15 155.531 33.3767 155.478 34.3634C155.425 35.35 155.385 35.9367 155.358 36.1234H148.638C148.691 35.03 148.745 33.87 148.798 32.6434C148.851 31.39 148.905 30.1634 148.958 28.9634C149.011 27.7367 149.038 26.63 149.038 25.6434C149.038 19.9634 148.118 17.1234 146.278 17.1234C144.758 17.1234 143.371 17.79 142.118 19.1234C140.891 20.43 139.865 22.0834 139.038 24.0834C139.038 24.35 139.038 24.6167 139.038 24.8834C139.038 26.1634 139.038 27.4967 139.038 28.8834C139.065 30.2434 139.091 31.55 139.118 32.8034C139.171 34.03 139.211 35.0967 139.238 36.0034L132.798 36.0434ZM169.666 36.3234C167.666 36.3234 165.853 35.8034 164.226 34.7634C162.6 33.75 161.306 32.3767 160.346 30.6434C159.413 28.8834 158.946 26.9234 158.946 24.7634C158.946 22.7367 159.32 20.91 160.066 19.2834C160.813 17.63 161.826 16.2167 163.106 15.0434C164.413 13.87 165.893 12.9767 167.546 12.3634C169.2 11.7234 170.933 11.4034 172.746 11.4034C174.266 11.4034 175.76 11.6167 177.226 12.0434C177.333 11.4834 177.426 10.9234 177.506 10.3634L184.346 11.5234C184.16 12.03 183.973 12.79 183.786 13.8034C183.6 14.8167 183.44 15.95 183.306 17.2034C183.2 18.4567 183.106 19.71 183.026 20.9634C182.946 22.2167 182.906 23.35 182.906 24.3634C182.906 25.19 182.96 26.0034 183.066 26.8034C183.2 27.5767 183.466 28.2167 183.866 28.7234C184.266 29.2034 184.88 29.4434 185.706 29.4434H186.266L185.266 36.4034C183.506 36.4034 182.053 36.0967 180.906 35.4834C179.76 34.8967 178.84 34.0967 178.146 33.0834C177 34.3634 175.693 35.2167 174.226 35.6434C172.76 36.0967 171.24 36.3234 169.666 36.3234ZM165.506 25.5634C165.64 26.8434 166.16 27.87 167.066 28.6434C168 29.39 169.173 29.7634 170.586 29.7634C171.946 29.7634 173.08 29.4034 173.986 28.6834C174.893 27.9367 175.64 26.9234 176.226 25.6434C176.2 25.2167 176.186 24.7767 176.186 24.3234C176.186 23.39 176.213 22.43 176.266 21.4434C176.32 20.4567 176.386 19.4834 176.466 18.5234C175.346 18.0967 174.173 17.8834 172.946 17.8834C171.506 17.8834 170.213 18.1767 169.066 18.7634C167.946 19.3234 167.066 20.11 166.426 21.1234C165.786 22.1367 165.466 23.31 165.466 24.6434C165.466 24.8034 165.466 24.9634 165.466 25.1234C165.466 25.2834 165.48 25.43 165.506 25.5634ZM196.567 36.3234C195.1 36.3234 193.887 36.0034 192.927 35.3634C191.994 34.75 191.247 33.8967 190.687 32.8034C190.154 31.71 189.754 30.4567 189.487 29.0434C189.247 27.63 189.087 26.1234 189.007 24.5234C188.954 22.8967 188.927 21.27 188.927 19.6434C188.927 18.23 188.967 16.6834 189.047 15.0034C189.127 13.2967 189.22 11.5767 189.327 9.84338C189.46 8.08337 189.594 6.43004 189.727 4.88338C189.887 3.33671 190.034 1.99004 190.167 0.843375L197.407 0.923374C197.194 2.28337 196.994 3.83004 196.807 5.56337C196.62 7.27004 196.46 9.00337 196.327 10.7634C196.22 12.5234 196.127 14.15 196.047 15.6434C195.994 17.1367 195.967 18.3234 195.967 19.2034C195.967 21.63 196.007 23.5367 196.087 24.9234C196.194 26.31 196.34 27.2967 196.527 27.8834C196.74 28.4434 197.02 28.7234 197.367 28.7234C197.82 28.7234 198.314 28.4434 198.847 27.8834C199.38 27.2967 199.9 26.6434 200.407 25.9234L203.807 32.6834C202.98 33.59 201.994 34.4167 200.847 35.1634C199.7 35.9367 198.274 36.3234 196.567 36.3234ZM216.704 44.5234C216.518 42.39 216.384 40.2434 216.304 38.0834C216.224 35.9234 216.184 33.43 216.184 30.6034C216.184 27.1634 216.238 23.7367 216.344 20.3234C216.451 16.91 216.611 13.79 216.824 10.9634L223.704 11.1634C223.624 11.7767 223.558 12.43 223.504 13.1234C224.464 12.4834 225.491 12.0167 226.584 11.7234C227.704 11.43 228.838 11.2834 229.984 11.2834C231.451 11.2834 232.878 11.5234 234.264 12.0034C235.651 12.4567 236.904 13.19 238.024 14.2034C239.144 15.19 240.024 16.47 240.664 18.0434C241.331 19.6167 241.664 21.51 241.664 23.7234C241.664 25.91 241.331 27.8167 240.664 29.4434C239.998 31.07 239.104 32.4034 237.984 33.4434C236.864 34.51 235.611 35.2967 234.224 35.8034C232.838 36.3367 231.411 36.6034 229.944 36.6034C227.251 36.6034 224.878 35.8034 222.824 34.2034C222.878 35.91 222.958 37.55 223.064 39.1234C223.171 40.7234 223.304 42.35 223.464 44.0034L216.704 44.5234ZM228.904 17.9234C226.264 17.9234 224.278 19.2167 222.944 21.8034C222.864 23.4034 222.811 25.03 222.784 26.6834C223.424 27.5367 224.251 28.2834 225.264 28.9234C226.278 29.5367 227.571 29.8434 229.144 29.8434C232.904 29.8434 234.784 27.6967 234.784 23.4034C234.784 22.2567 234.571 21.3234 234.144 20.6034C233.718 19.8834 233.184 19.3367 232.544 18.9634C231.904 18.5634 231.251 18.2967 230.584 18.1634C229.918 18.0034 229.358 17.9234 228.904 17.9234ZM244.427 36.2834C244.534 34.07 244.614 31.8567 244.667 29.6434C244.721 27.43 244.747 25.2434 244.747 23.0834C244.721 21.11 244.681 19.1634 244.627 17.2434C244.601 15.2967 244.534 13.4167 244.427 11.6034L251.147 11.4034C251.174 12.39 251.214 13.4034 251.267 14.4434C252.121 13.3767 253.107 12.5234 254.227 11.8834C255.374 11.2167 256.681 10.8834 258.147 10.8834C258.707 10.8834 259.427 10.9634 260.307 11.1234C261.187 11.2834 262.081 11.59 262.987 12.0434L262.227 18.8034C261.561 18.4034 260.841 18.1234 260.067 17.9634C259.321 17.7767 258.694 17.6834 258.187 17.6834C256.481 17.6834 255.027 18.4567 253.827 20.0034C252.654 21.5234 251.854 23.6434 251.427 26.3634C251.427 28.23 251.401 30.0167 251.347 31.7234C251.321 33.4034 251.254 34.9234 251.147 36.2834H244.427ZM276.506 36.4434C274.373 36.4434 272.506 36.0967 270.906 35.4034C269.333 34.71 268.026 33.7634 266.986 32.5634C265.946 31.3367 265.173 29.9367 264.666 28.3634C264.16 26.79 263.906 25.1367 263.906 23.4034C263.906 21.6434 264.213 20.0167 264.826 18.5234C265.466 17.0034 266.333 15.6834 267.426 14.5634C268.546 13.4434 269.853 12.5767 271.346 11.9634C272.84 11.3234 274.466 11.0034 276.226 11.0034C278.066 11.0034 279.773 11.3234 281.346 11.9634C282.92 12.6034 284.293 13.4967 285.466 14.6434C286.64 15.79 287.546 17.1367 288.186 18.6834C288.853 20.23 289.186 21.91 289.186 23.7234C289.186 27.75 288.08 30.8834 285.866 33.1234C283.653 35.3367 280.533 36.4434 276.506 36.4434ZM276.466 29.9634C278.413 29.9634 279.893 29.4167 280.906 28.3234C281.946 27.23 282.466 25.6567 282.466 23.6034C282.466 21.7634 281.906 20.2834 280.786 19.1634C279.666 18.0434 278.2 17.4834 276.386 17.4834C275.293 17.4834 274.293 17.7767 273.386 18.3634C272.48 18.9234 271.746 19.6834 271.186 20.6434C270.653 21.5767 270.386 22.6167 270.386 23.7634C270.386 24.7767 270.586 25.7634 270.986 26.7234C271.413 27.6834 272.08 28.47 272.986 29.0834C273.893 29.67 275.053 29.9634 276.466 29.9634ZM304.682 7.52337C304.628 6.85671 304.562 6.05671 304.482 5.12337C304.428 4.19004 304.402 3.29671 304.402 2.44338C304.402 2.15004 304.402 1.85671 304.402 1.56337C304.428 1.24337 304.455 0.976707 304.482 0.763373L311.402 0.563374C311.402 0.776707 311.402 1.20337 311.402 1.84337C311.428 2.48337 311.442 3.19004 311.442 3.96338C311.468 4.73671 311.495 5.44337 311.522 6.08337C311.548 6.69671 311.562 7.11004 311.562 7.32337L304.682 7.52337ZM302.162 36.3234C299.175 36.3234 296.722 35.3367 294.802 33.3634C292.882 31.39 291.588 28.5634 290.922 24.8834L297.682 22.8834C297.682 23.6034 297.762 24.3634 297.922 25.1634C298.108 25.9634 298.388 26.7234 298.762 27.4434C299.135 28.1634 299.602 28.75 300.162 29.2034C300.722 29.63 301.362 29.8434 302.082 29.8434C303.068 29.8434 303.788 29.6034 304.242 29.1234C304.722 28.6434 305.015 27.83 305.122 26.6834C305.175 26.07 305.215 25.3767 305.242 24.6034C305.268 23.8034 305.282 22.9767 305.282 22.1234C305.282 20.7634 305.255 19.4034 305.202 18.0434C305.148 16.6567 305.082 15.39 305.002 14.2434C304.922 13.0967 304.815 12.2167 304.682 11.6034L311.682 11.4034C311.708 11.91 311.735 12.7367 311.762 13.8834C311.788 15.0034 311.815 16.31 311.842 17.8034C311.868 19.2967 311.882 20.8434 311.882 22.4434C311.882 23.43 311.868 24.4167 311.842 25.4034C311.815 26.39 311.762 27.31 311.682 28.1634C311.602 29.0434 311.375 29.9634 311.002 30.9234C310.655 31.8834 310.108 32.7634 309.362 33.5634C308.615 34.39 307.655 35.0567 306.482 35.5634C305.308 36.07 303.868 36.3234 302.162 36.3234ZM327.449 36.3634C324.889 36.3634 322.635 35.8567 320.689 34.8434C318.769 33.8567 317.262 32.47 316.169 30.6834C315.102 28.8967 314.569 26.83 314.569 24.4834C314.569 23.07 314.809 21.59 315.289 20.0434C315.769 18.47 316.542 17.0034 317.609 15.6434C318.675 14.2834 320.075 13.1767 321.809 12.3234C323.569 11.47 325.702 11.0434 328.209 11.0434C330.022 11.0434 331.542 11.2434 332.769 11.6434C334.022 12.0434 335.035 12.5634 335.809 13.2034C336.609 13.8434 337.209 14.5234 337.609 15.2434C338.035 15.9634 338.315 16.6567 338.449 17.3234C338.609 17.9634 338.689 18.4967 338.689 18.9234C338.689 21.51 337.595 23.51 335.409 24.9234C333.249 26.31 330.182 27.0034 326.209 27.0034C325.302 27.0034 324.435 26.9634 323.609 26.8834C322.809 26.8034 322.062 26.71 321.369 26.6034C321.875 27.9367 322.715 28.9234 323.889 29.5634C325.062 30.1767 326.275 30.4834 327.529 30.4834C329.342 30.4834 330.942 30.1634 332.329 29.5234C333.715 28.8567 335.022 27.8434 336.249 26.4834L339.809 31.6034C338.955 32.2967 337.995 33.0167 336.929 33.7634C335.889 34.51 334.609 35.1234 333.089 35.6034C331.569 36.11 329.689 36.3634 327.449 36.3634ZM328.329 17.0434C326.755 17.0434 325.369 17.4434 324.169 18.2434C322.969 19.0434 322.089 20.0967 321.529 21.4034C322.195 21.51 322.849 21.6034 323.489 21.6834C324.155 21.7367 324.809 21.7634 325.449 21.7634C326.035 21.7634 326.702 21.71 327.449 21.6034C328.222 21.4967 328.969 21.3367 329.689 21.1234C330.435 20.91 331.049 20.6434 331.529 20.3234C332.009 19.9767 332.249 19.5767 332.249 19.1234C332.249 18.91 332.142 18.6434 331.929 18.3234C331.715 18.0034 331.329 17.71 330.769 17.4434C330.209 17.1767 329.395 17.0434 328.329 17.0434ZM354.668 36.4034C352.428 36.4034 350.361 35.9367 348.468 35.0034C346.574 34.07 345.054 32.7367 343.908 31.0034C342.761 29.2434 342.188 27.15 342.188 24.7234C342.188 22.0034 342.721 19.6167 343.788 17.5634C344.854 15.51 346.348 13.9234 348.268 12.8034C350.188 11.6567 352.428 11.0834 354.988 11.0834C357.441 11.0834 359.521 11.59 361.228 12.6034C362.934 13.59 364.454 15.1634 365.788 17.3234L360.228 21.1634C359.481 19.9634 358.721 19.0567 357.948 18.4434C357.174 17.8034 356.121 17.4834 354.788 17.4834C352.974 17.4834 351.508 18.1234 350.388 19.4034C349.268 20.6567 348.708 22.3367 348.708 24.4434C348.708 25.67 349.001 26.67 349.588 27.4434C350.201 28.2167 350.948 28.79 351.828 29.1634C352.708 29.5367 353.534 29.7234 354.308 29.7234C355.108 29.7234 355.881 29.63 356.628 29.4434C357.374 29.23 358.081 28.7767 358.748 28.0834C359.414 27.39 360.014 26.3367 360.548 24.9234L366.548 28.1234C365.748 29.59 364.854 30.95 363.868 32.2034C362.881 33.4567 361.654 34.47 360.188 35.2434C358.748 36.0167 356.908 36.4034 354.668 36.4034ZM381.197 36.3234C379.597 36.3234 378.33 35.9767 377.397 35.2834C376.463 34.6167 375.783 33.6834 375.357 32.4834C374.93 31.2834 374.65 29.91 374.517 28.3634C374.41 26.8167 374.357 25.19 374.357 23.4834C374.357 21.7234 374.423 19.8967 374.557 18.0034C372.77 18.2434 371.05 18.55 369.397 18.9234L368.157 12.6434C370.37 12.0567 372.73 11.63 375.237 11.3634C375.423 10.0034 375.623 8.57671 375.837 7.08338C376.05 5.56337 376.29 3.96337 376.557 2.28338L383.437 2.88337C383.117 4.27004 382.837 5.65671 382.597 7.04337C382.357 8.40337 382.143 9.72337 381.957 11.0034C383.45 11.0034 384.85 11.0434 386.157 11.1234C387.49 11.1767 388.717 11.2834 389.837 11.4434L389.037 17.7234C388.103 17.6167 387.13 17.55 386.117 17.5234C385.13 17.47 384.13 17.4434 383.117 17.4434C382.503 17.4434 381.89 17.4567 381.277 17.4834C381.117 19.43 381.01 21.0967 380.957 22.4834C380.93 23.87 380.917 24.8567 380.917 25.4434C380.917 26.91 380.997 27.9634 381.157 28.6034C381.343 29.2434 381.637 29.5634 382.037 29.5634C382.49 29.5634 382.997 29.4167 383.557 29.1234C384.117 28.8034 384.663 28.3767 385.197 27.8434C385.757 27.31 386.223 26.7367 386.597 26.1234L389.677 32.5634C387.037 35.07 384.21 36.3234 381.197 36.3234ZM404.433 36.4834C402.62 36.4834 400.94 36.27 399.393 35.8434C397.847 35.4167 396.447 34.87 395.193 34.2034C393.94 33.5367 392.82 32.83 391.833 32.0834L395.433 26.2834C396.553 27.3234 397.633 28.1234 398.673 28.6834C399.713 29.2434 400.793 29.63 401.913 29.8434C403.06 30.0567 404.3 30.1634 405.633 30.1634C406.78 30.1634 407.7 30.0167 408.393 29.7234C409.087 29.4034 409.433 29.0034 409.433 28.5234C409.433 28.1234 409.1 27.8167 408.433 27.6034C407.767 27.3634 406.913 27.1634 405.873 27.0034C404.833 26.8167 403.74 26.59 402.593 26.3234C400.967 25.8967 399.447 25.4034 398.033 24.8434C396.62 24.2834 395.473 23.5234 394.593 22.5634C393.74 21.6034 393.313 20.3234 393.313 18.7234C393.313 17.4434 393.62 16.3234 394.233 15.3634C394.847 14.3767 395.66 13.5634 396.673 12.9234C397.713 12.2567 398.887 11.7634 400.193 11.4434C401.5 11.1234 402.847 10.9634 404.233 10.9634C406.633 10.9634 408.7 11.2567 410.433 11.8434C412.193 12.4034 413.873 13.15 415.473 14.0834L411.833 19.6034C411.033 19.0434 410.113 18.5634 409.073 18.1634C408.06 17.7367 407.033 17.4167 405.993 17.2034C404.98 16.9634 404.033 16.8434 403.153 16.8434C402.193 16.8434 401.433 16.99 400.873 17.2834C400.34 17.5767 400.073 17.99 400.073 18.5234C400.073 18.8434 400.407 19.15 401.073 19.4434C401.767 19.71 403.073 20.07 404.993 20.5234C406.14 20.79 407.353 21.07 408.633 21.3634C409.913 21.63 411.113 22.0167 412.233 22.5234C413.38 23.0034 414.3 23.71 414.993 24.6434C415.713 25.55 416.073 26.7634 416.073 28.2834C416.073 30.8434 415.047 32.8434 412.993 34.2834C410.94 35.75 408.087 36.4834 404.433 36.4834Z" fill="#FFD633"/>
<path d="M14.2299 10.3743C15.9523 9.63306 17.7052 9.63597 19.4174 10.3899C20.9202 11.0519 22.3364 11.8138 23.6595 12.6712C25.092 13.6002 26.1759 14.8467 26.8939 16.3899C27.5629 17.8285 28.0652 19.3229 28.4017 20.8665C28.7335 22.3893 28.9536 23.9632 29.058 25.5853C29.1761 27.4282 28.6064 29.0741 27.3783 30.4681C26.2764 31.7187 25.1125 32.7759 23.8783 33.6243C22.7119 34.426 21.5067 35.2288 20.2689 36.0306C18.8716 36.9352 17.3124 37.3808 15.6205 37.3743C13.9245 37.3677 12.3631 36.8974 10.9642 35.9681C10.7244 35.8089 10.5509 35.7436 10.4408 35.7181C10.3416 35.6954 10.304 35.7088 10.3002 35.7103C10.2688 35.7249 10.069 35.8458 9.85485 36.4759C9.42432 37.7425 9.45928 38.9806 9.97204 40.2337C10.3288 41.106 10.4637 41.994 10.2377 42.8431C10.0087 43.7023 9.44834 44.3838 8.69079 44.9056C7.24556 45.9009 5.69199 46.1704 4.15173 45.5228C3.68827 45.3279 3.35296 45.2205 3.1361 45.1556C3.08055 45.1752 3.02906 45.2157 2.96423 45.2259C2.6343 45.2765 2.38281 45.1495 2.2611 45.0696C2.14044 44.99 2.06059 44.9007 2.02673 44.8587C1.95912 44.7742 1.92216 44.6966 1.90954 44.6712C1.87894 44.6095 1.85546 44.5546 1.84704 44.5306C1.81235 44.4315 1.76895 44.2844 1.72985 44.1321C1.64445 43.7994 1.5196 43.2482 1.34704 42.4993C0.975258 40.8846 0.901952 39.2529 1.12829 37.6087C1.3388 36.0801 1.55167 34.5549 1.77673 33.0384C1.98723 31.6192 1.99473 30.1987 1.80016 28.7806C1.59271 27.2685 1.38655 25.7519 1.18298 24.2337C0.966695 22.6196 0.990415 21.0089 1.24548 19.4056C1.48439 17.9037 1.70517 16.4024 1.91735 14.9056C2.14895 13.2731 2.7427 11.9151 3.8861 11.1243C4.92157 10.4095 6.12481 10.1415 7.42516 10.2806C8.5534 10.4013 9.71268 10.5956 10.9017 10.8665C11.7897 11.0689 12.888 10.9523 14.2299 10.3743ZM228.097 10.3743C229.82 9.63306 231.572 9.63597 233.285 10.3899C234.787 11.0519 236.204 11.8138 237.527 12.6712C238.959 13.6002 240.043 14.8467 240.761 16.3899C241.43 17.8285 241.932 19.3229 242.269 20.8665C242.601 22.3893 242.821 23.9632 242.925 25.5853C243.043 27.4282 242.474 29.0741 241.245 30.4681C240.144 31.7187 238.98 32.7759 237.745 33.6243C236.579 34.426 235.374 35.2288 234.136 36.0306C232.739 36.9352 231.18 37.3808 229.488 37.3743C227.792 37.3677 226.23 36.8974 224.831 35.9681C224.592 35.8089 224.418 35.7436 224.308 35.7181C224.209 35.6954 224.171 35.7088 224.167 35.7103C224.136 35.7249 223.936 35.8458 223.722 36.4759C223.292 37.7425 223.326 38.9806 223.839 40.2337C224.196 41.106 224.331 41.994 224.105 42.8431C223.876 43.7023 223.316 44.3838 222.558 44.9056C221.113 45.9009 219.559 46.1704 218.019 45.5228C217.555 45.3279 217.22 45.2205 217.003 45.1556C216.948 45.1752 216.896 45.2157 216.831 45.2259C216.501 45.2765 216.25 45.1495 216.128 45.0696C216.008 44.99 215.928 44.9007 215.894 44.8587C215.826 44.7742 215.789 44.6966 215.777 44.6712C215.746 44.6095 215.723 44.5546 215.714 44.5306C215.68 44.4315 215.636 44.2844 215.597 44.1321C215.512 43.7994 215.387 43.2482 215.214 42.4993C214.842 40.8846 214.769 39.2529 214.995 37.6087C215.206 36.0801 215.419 34.5549 215.644 33.0384C215.854 31.6192 215.862 30.1987 215.667 28.7806C215.46 27.2685 215.254 25.7519 215.05 24.2337C214.834 22.6196 214.858 21.0089 215.113 19.4056C215.352 17.9037 215.572 16.4024 215.785 14.9056C216.016 13.2731 216.61 11.9151 217.753 11.1243C218.789 10.4095 219.992 10.1415 221.292 10.2806C222.421 10.4013 223.58 10.5956 224.769 10.8665C225.657 11.0689 226.755 10.9523 228.097 10.3743ZM1.81579 44.1712V44.2728L1.84704 43.9993C1.82646 44.0844 1.81694 44.1493 1.81579 44.1712ZM215.683 44.1712V44.2728L215.714 43.9993C215.694 44.0844 215.684 44.1493 215.683 44.1712ZM18.6127 12.2181C17.4112 11.689 16.2344 11.6869 15.0189 12.2103C13.4229 12.8977 11.8875 13.1432 10.4642 12.8196C9.34436 12.5644 8.2593 12.3769 7.21423 12.2649C6.33847 12.1712 5.6274 12.3581 5.02673 12.7728C4.53659 13.1116 4.096 13.8177 3.90173 15.1868C3.68804 16.6943 3.46261 18.2058 3.22204 19.7181C2.99761 21.1288 2.97674 22.5458 3.16735 23.9681C3.37085 25.4857 3.57717 27.0035 3.78454 28.5149C4.00463 30.1207 3.9994 31.7295 3.7611 33.3353C3.53715 34.8444 3.31436 36.3608 3.10485 37.8821C2.91168 39.2866 2.97485 40.6761 3.29235 42.054C3.39996 42.521 3.4871 42.9009 3.55798 43.1946C3.91873 43.2902 4.3858 43.4523 4.92516 43.679C5.72341 44.0146 6.56453 43.9413 7.55798 43.2571C8.01768 42.9401 8.22093 42.6243 8.30016 42.3274C8.38199 42.02 8.36617 41.5926 8.12048 40.9915C7.42706 39.2969 7.37075 37.5613 7.95641 35.8353C8.24241 34.9938 8.72834 34.1748 9.58141 33.8431C10.4638 33.5016 11.3491 33.8227 12.0736 34.304C13.1412 35.013 14.3173 35.3692 15.6283 35.3743C16.9429 35.3794 18.1201 35.0392 19.183 34.3509C20.4061 33.5586 21.5948 32.7668 22.7455 31.9759C23.827 31.2324 24.871 30.2909 25.8783 29.1478C26.76 28.1469 27.1499 27.0172 27.0658 25.7103C26.9675 24.1831 26.7583 22.7091 26.4486 21.2884C26.1437 19.8899 25.6884 18.5389 25.0814 17.2337C24.5223 16.032 23.6859 15.0689 22.5658 14.3431C21.3376 13.5476 20.0206 12.8382 18.6127 12.2181ZM232.48 12.2181C231.278 11.689 230.102 11.6869 228.886 12.2103C227.29 12.8977 225.755 13.1432 224.331 12.8196C223.212 12.5644 222.126 12.3769 221.081 12.2649C220.206 12.1712 219.495 12.3581 218.894 12.7728C218.404 13.1116 217.963 13.8177 217.769 15.1868C217.555 16.6943 217.33 18.2058 217.089 19.7181C216.865 21.1288 216.844 22.5458 217.035 23.9681C217.238 25.4857 217.444 27.0035 217.652 28.5149C217.872 30.1207 217.867 31.7295 217.628 33.3353C217.404 34.8444 217.182 36.3608 216.972 37.8821C216.779 39.2866 216.842 40.6761 217.16 42.054C217.267 42.521 217.354 42.9009 217.425 43.1946C217.786 43.2902 218.253 43.4523 218.792 43.679C219.591 44.0146 220.432 43.9413 221.425 43.2571C221.885 42.9401 222.088 42.6243 222.167 42.3274C222.249 42.02 222.233 41.5926 221.988 40.9915C221.294 39.2969 221.238 37.5613 221.824 35.8353C222.11 34.9938 222.596 34.1748 223.449 33.8431C224.331 33.5016 225.216 33.8227 225.941 34.304C227.008 35.013 228.185 35.3692 229.495 35.3743C230.81 35.3794 231.987 35.0392 233.05 34.3509C234.273 33.5586 235.462 32.7668 236.613 31.9759C237.694 31.2324 238.738 30.2909 239.745 29.1478C240.627 28.1469 241.017 27.0172 240.933 25.7103C240.835 24.1831 240.626 22.7091 240.316 21.2884C240.011 19.8899 239.556 18.5389 238.949 17.2337C238.39 16.032 237.553 15.0689 236.433 14.3431C235.205 13.5476 233.888 12.8382 232.48 12.2181ZM378.292 1.47588C380.157 1.58218 381.719 2.03787 382.753 3.02275C383.613 3.84284 383.918 4.91614 383.831 6.10088L383.48 8.13213C383.468 8.35641 383.483 8.53698 383.519 8.679C383.582 8.92895 383.711 9.10529 383.941 9.24931C384.582 9.64788 385.557 9.85293 386.98 9.71025C387.887 9.61919 388.831 9.75919 389.48 10.4603C390.114 11.1458 390.213 12.1028 390.105 13.0228C390.003 13.8814 389.839 14.6353 389.581 15.2493C389.326 15.8586 388.943 16.4163 388.363 16.7493C387.574 17.2007 386.352 17.5674 384.808 17.8821C383.533 18.1419 382.911 18.7128 382.644 19.4993C382.254 20.6485 381.922 21.9568 381.652 23.429C381.412 24.7391 381.551 26.1584 382.113 27.7024C382.246 28.0676 382.373 28.2932 382.472 28.4212C382.49 28.4444 382.498 28.4696 382.511 28.4837H382.535C382.635 28.4337 382.807 28.3101 383.042 28.054C383.68 27.3593 384.397 26.8364 385.199 26.6009C386.025 26.3591 386.853 26.4485 387.636 26.8196C388.363 27.1643 388.958 27.6611 389.355 28.3274C389.75 28.9922 389.905 29.7538 389.87 30.5618C389.804 32.1321 389.162 33.6019 388.042 34.9603C386.898 36.3474 385.453 37.2834 383.73 37.7337C382.958 37.935 382.296 38.0605 381.8 38.0774C381.568 38.0853 381.246 38.0774 380.949 37.9524C380.787 37.8842 380.59 37.7626 380.433 37.554C380.376 37.4784 380.343 37.3931 380.308 37.3118C380.288 37.3031 380.264 37.291 380.238 37.2806C379.942 37.1637 379.436 37.0321 378.675 36.8978C377.746 36.7335 376.92 36.369 376.245 35.7884C375.573 35.208 375.1 34.4475 374.8 33.554C374.258 31.9374 374.02 30.3078 374.097 28.6712C374.165 27.2319 374.091 25.7947 373.87 24.3587C373.64 22.8552 373.446 21.5473 373.292 20.4368C373.251 20.1343 373.142 20.0121 373.019 19.9368C372.846 19.8324 372.493 19.7284 371.839 19.7649C370.93 19.816 370.061 19.6436 369.378 19.0931C368.691 18.538 368.347 17.7239 368.23 16.8274C368.022 15.237 368.202 13.811 368.988 12.7259C369.845 11.5438 371.303 11.1288 372.964 11.1634C373.525 11.1753 373.874 11.0295 374.113 10.8118C374.369 10.5785 374.615 10.1582 374.761 9.42119C375.085 7.79076 375.142 6.25935 374.933 4.81963C374.796 3.88076 374.917 2.90989 375.636 2.22588C376.321 1.57538 377.307 1.41986 378.292 1.47588ZM357.855 11.1712C359.368 11.33 360.913 11.6835 362.488 12.2259C363.362 12.5269 364.111 12.9741 364.667 13.6009C365.231 14.2361 365.55 15.0056 365.644 15.8665C365.835 17.6108 365.11 19.069 363.66 20.1634C362.952 20.6969 362.185 21.0445 361.37 21.0931C360.538 21.1422 359.767 20.8739 359.089 20.3665C358.196 19.6965 357.1 19.2396 355.777 19.0228C354.589 18.8282 353.672 19.1031 352.91 19.7962C351.967 20.6539 351.092 21.6712 350.292 22.8587C349.64 23.8282 349.469 24.958 349.87 26.3509C350.064 27.024 350.355 27.4923 350.714 27.8118C351.073 28.13 351.56 28.3557 352.222 28.4524C353.708 28.6693 355.023 28.5183 356.199 28.0384C357.481 27.5147 358.42 26.9236 359.058 26.2884C359.621 25.729 360.33 25.4304 361.128 25.4524C361.885 25.4742 362.64 25.783 363.363 26.2415C364.726 27.1066 365.733 28.1469 366.019 29.4212C366.311 30.7262 365.765 32.1317 364.816 33.5228C363.742 35.096 362.209 35.9979 360.3 36.1868C358.773 36.3382 357.592 36.6807 356.714 37.179C356.19 37.4766 355.723 37.712 355.355 37.8274C355.201 37.8757 354.899 37.9609 354.574 37.8978C354.382 37.8606 354.12 37.7604 353.917 37.5149C353.908 37.5032 353.903 37.4877 353.894 37.4759C353.586 37.426 353.073 37.399 352.324 37.3978C350.539 37.395 348.921 36.8432 347.511 35.7493C346.181 34.7161 345.108 33.5015 344.308 32.1165C343.558 30.8175 342.888 29.482 342.3 28.1087C341.683 26.6672 341.305 25.1235 341.167 23.4837C341.022 21.7553 341.358 20.1093 342.16 18.5696C342.922 17.1057 343.88 15.8192 345.035 14.7181C346.161 13.6445 347.395 12.7081 348.73 11.9134C350.177 11.0521 351.764 10.6728 353.449 10.7884C354.942 10.8909 356.413 11.0201 357.855 11.1712ZM307.456 11.0306C309.138 10.7616 310.664 11.0458 311.628 12.2728C312.505 13.3902 312.722 14.8784 312.495 16.5384C312.296 18.006 312.201 19.4711 312.222 20.929C312.244 22.4429 312.252 23.9546 312.245 25.4603C312.238 27.0673 311.979 28.5982 311.456 30.0384C310.952 31.4284 310.289 32.7943 309.48 34.1399C308.571 35.6517 307.228 36.6901 305.503 37.2493C304.731 37.4993 304.067 37.6741 303.542 37.7493C303.282 37.7865 303.006 37.8052 302.753 37.7806C302.521 37.7576 302.159 37.6885 301.863 37.4134C301.854 37.4068 301.817 37.3729 301.73 37.3196C301.627 37.2571 301.486 37.1798 301.3 37.0853C300.927 36.8952 300.409 36.66 299.745 36.3743C298.435 35.8098 297.042 35.2922 295.566 34.8274C293.758 34.2583 292.508 33.0453 291.894 31.2571C291.367 29.7245 290.973 28.2063 290.714 26.7024C290.561 25.8112 290.646 24.9425 291.097 24.1946C291.545 23.4517 292.276 22.9606 293.136 22.6556C294.824 22.058 296.428 22.2078 297.785 23.2415C298.96 24.1381 299.874 25.2807 300.519 26.6556C300.762 27.1728 301.004 27.428 301.191 27.5462C301.349 27.6461 301.536 27.6924 301.824 27.6321C302.489 27.4915 303.178 27.0073 303.839 25.9134C304.472 24.8666 304.734 23.6996 304.605 22.3821C304.461 20.9158 304.197 19.458 303.816 18.0149C303.389 16.3972 303.349 14.9011 303.831 13.6009C304.39 12.0971 305.742 11.3048 307.456 11.0306ZM88.3939 9.67119C90.144 9.24069 91.8619 9.41676 93.5033 10.1946C94.9562 10.8832 96.3361 11.5927 97.6439 12.3196C98.3356 12.7041 98.9274 13.1157 99.3705 13.5618C99.8129 14.0076 100.159 14.5433 100.269 15.1634C100.481 16.3635 99.8046 17.5087 98.8627 18.5071C98.2748 19.13 97.5474 19.5242 96.6986 19.5774C95.873 19.6282 95.0545 19.3448 94.2845 18.8743C93.065 18.1296 91.7254 17.613 90.2611 17.3196C89.569 17.1812 89.1197 17.2162 88.847 17.3118C88.6164 17.3932 88.4504 17.5314 88.3314 17.804C88.2888 17.902 88.2766 17.9735 88.2689 18.0149C88.2948 18.0322 88.3328 18.0648 88.4017 18.0931C88.5468 18.1522 88.7683 18.2157 89.0814 18.2571C90.7188 18.4742 92.2703 19.0845 93.722 20.0696C94.9239 20.8847 96.2339 21.3814 97.6674 21.554C99.5825 21.7839 101.095 22.7865 102.152 24.4681C103.202 26.141 103.48 27.9411 102.949 29.804C102.453 31.5389 101.589 33.0475 100.355 34.2962C99.0841 35.5806 97.5443 36.3248 95.7689 36.4993C94.2717 36.6464 93.0145 36.869 91.9877 37.1634C91.4333 37.3224 90.9942 37.438 90.6908 37.5071C90.5464 37.54 90.3966 37.5712 90.2689 37.5853C90.2166 37.591 90.0931 37.6024 89.9564 37.5853C89.9256 37.5813 89.8772 37.5502 89.808 37.5306C89.7476 37.5268 89.637 37.5304 89.472 37.5306C89.1048 37.531 88.5403 37.5523 87.7689 37.5853C86.0257 37.6597 84.3805 37.2638 82.8627 36.4056C81.5035 35.637 80.2904 34.93 79.222 34.2884C78.5045 33.8574 77.9742 33.2321 77.7924 32.4056C77.6191 31.6143 77.798 30.7826 78.1517 29.9759C78.8354 28.4177 79.846 27.2725 81.2689 26.8274C82.6931 26.3827 84.148 26.7503 85.5502 27.6556C86.6837 28.3878 87.9424 28.8831 89.3236 29.1478C90.6001 29.392 91.7134 29.1986 92.722 28.5931C92.8559 28.5126 92.9364 28.4222 93.0033 28.3665C92.9105 28.2886 92.7745 28.1827 92.5736 28.0696C91.3308 27.3703 90.0363 26.924 88.683 26.7337C87.218 26.5279 85.6871 26.3596 84.097 26.2181C82.1795 26.0473 80.667 25.1169 79.6517 23.4837C78.7156 21.9769 78.2187 20.36 78.1752 18.6556C78.1304 16.8739 78.7339 15.3172 79.972 14.0462C81.1049 12.8837 82.4101 11.9565 83.8783 11.2649C85.301 10.5949 86.8081 10.0619 88.3939 9.67119ZM402.769 9.67119C404.519 9.24069 406.237 9.41676 407.878 10.1946C409.331 10.8832 410.711 11.5927 412.019 12.3196C412.711 12.7041 413.302 13.1157 413.745 13.5618C414.188 14.0076 414.534 14.5433 414.644 15.1634C414.856 16.3635 414.18 17.5087 413.238 18.5071C412.65 19.13 411.922 19.5242 411.074 19.5774C410.248 19.6282 409.43 19.3448 408.66 18.8743C407.44 18.1296 406.1 17.613 404.636 17.3196C403.944 17.1812 403.495 17.2162 403.222 17.3118C402.991 17.3932 402.825 17.5314 402.706 17.804C402.664 17.902 402.652 17.9735 402.644 18.0149C402.67 18.0322 402.708 18.0648 402.777 18.0931C402.922 18.1522 403.143 18.2157 403.456 18.2571C405.094 18.4742 406.645 19.0845 408.097 20.0696C409.299 20.8847 410.609 21.3814 412.042 21.554C413.958 21.7839 415.47 22.7865 416.527 24.4681C417.577 26.141 417.855 27.9411 417.324 29.804C416.828 31.5389 415.964 33.0475 414.73 34.2962C413.459 35.5806 411.919 36.3248 410.144 36.4993C408.647 36.6464 407.389 36.869 406.363 37.1634C405.808 37.3224 405.369 37.438 405.066 37.5071C404.921 37.54 404.772 37.5712 404.644 37.5853C404.592 37.591 404.468 37.6024 404.331 37.5853C404.301 37.5813 404.252 37.5502 404.183 37.5306C404.123 37.5268 404.012 37.5304 403.847 37.5306C403.48 37.531 402.915 37.5523 402.144 37.5853C400.401 37.6597 398.755 37.2638 397.238 36.4056C395.878 35.637 394.665 34.93 393.597 34.2884C392.879 33.8574 392.349 33.2321 392.167 32.4056C391.994 31.6143 392.173 30.7826 392.527 29.9759C393.21 28.4177 394.221 27.2725 395.644 26.8274C397.068 26.3827 398.523 26.7503 399.925 27.6556C401.059 28.3878 402.317 28.8831 403.699 29.1478C404.975 29.392 406.088 29.1986 407.097 28.5931C407.231 28.5126 407.311 28.4222 407.378 28.3665C407.285 28.2886 407.149 28.1827 406.949 28.0696C405.706 27.3703 404.411 26.924 403.058 26.7337C401.593 26.5279 400.062 26.3596 398.472 26.2181C396.555 26.0473 395.042 25.1169 394.027 23.4837C393.091 21.9769 392.594 20.36 392.55 18.6556C392.505 16.8739 393.109 15.3172 394.347 14.0462C395.48 12.8837 396.785 11.9565 398.253 11.2649C399.676 10.5949 401.183 10.0619 402.769 9.67119ZM89.7767 37.5306H89.7924C89.7676 37.5231 89.7417 37.5178 89.7142 37.5071C89.7449 37.5176 89.7661 37.5279 89.7767 37.5306ZM404.152 37.5306H404.167C404.143 37.5231 404.117 37.5178 404.089 37.5071C404.12 37.5176 404.141 37.5279 404.152 37.5306ZM137.417 10.6399C138.826 10.7823 140.045 11.3351 140.605 12.5696C140.632 12.6287 140.644 12.6386 140.636 12.6321C140.625 12.6242 140.636 12.6329 140.699 12.6399C140.859 12.6571 141.207 12.617 141.808 12.3509C143.201 11.7344 144.625 11.2793 146.081 10.9915C147.581 10.6953 149.18 10.6609 150.87 10.8665C151.823 10.9824 152.678 11.3046 153.386 11.8665C154.093 12.4278 154.6 13.1841 154.933 14.0853C155.511 15.6492 155.966 17.2041 156.292 18.7415C156.626 20.3109 156.753 21.8975 156.675 23.4993C156.602 24.9862 156.601 26.4774 156.667 27.9603C156.734 29.4449 156.858 30.9374 157.05 32.4368C157.166 33.3389 157.069 34.2181 156.581 34.9368C156.083 35.6698 155.302 36.0607 154.425 36.2181C152.98 36.4771 151.741 36.5528 150.777 36.3587C150.054 36.2126 149.515 35.747 149.144 35.1556C148.785 34.5835 148.552 33.849 148.402 33.0228C148.114 31.4374 147.968 29.8556 147.972 28.2806C147.976 26.7325 148.063 25.1724 148.23 23.6009C148.376 22.2306 148.194 20.8036 147.652 19.3118C147.402 18.6265 147.132 18.4041 146.972 18.3353C146.825 18.272 146.514 18.2284 145.91 18.5228C144.572 19.1742 143.625 20.0273 143.011 21.0618C142.267 22.317 141.443 23.5865 140.535 24.8587C139.834 25.8404 139.675 26.8843 140.074 28.1009C140.591 29.6785 140.916 31.264 141.05 32.8509C141.129 33.785 140.95 34.6659 140.402 35.3899C139.861 36.1037 139.054 36.5479 138.12 36.7962C136.508 37.2251 135.175 37.4686 134.167 37.4993C133.708 37.5132 133.297 37.5097 132.98 37.4603C132.831 37.437 132.619 37.3867 132.417 37.2806C132.221 37.1765 131.804 36.8764 131.8 36.2962C131.8 36.3355 131.804 36.3237 131.785 36.1868C131.768 36.0744 131.742 35.9154 131.706 35.7103C131.636 35.3017 131.529 34.7244 131.386 33.9759C131.076 32.3573 131.047 30.7262 131.3 29.0931C131.536 27.5738 131.768 26.0577 132.003 24.5462C132.224 23.13 132.241 21.7126 132.05 20.2962C131.845 18.7778 131.654 17.2518 131.472 15.7259C131.367 14.8462 131.433 14.0119 131.745 13.2728C132.066 12.5187 132.612 11.9275 133.331 11.5149C134.602 10.7867 135.975 10.4943 137.417 10.6399ZM115.058 10.7181C116.551 10.8219 118.023 10.9674 119.472 11.1478C120.964 11.3334 122.505 11.661 124.089 12.1321C125.898 12.6704 127.231 13.8167 128.027 15.5228C128.718 17.0059 129.302 18.4987 129.777 19.9915C130.281 21.5807 130.426 23.2085 130.206 24.8587C129.999 26.4166 129.662 27.9443 129.206 29.4368C128.735 30.9824 128.013 32.4546 127.042 33.8431C125.956 35.3954 124.426 36.2667 122.535 36.4212C120.904 36.5543 119.481 36.5722 118.277 36.4681C117.922 36.4373 117.673 36.4567 117.511 36.4681C117.403 36.6705 117.254 36.8279 117.105 36.9368C116.858 37.1161 116.571 37.2182 116.324 37.2806C115.817 37.408 115.132 37.465 114.331 37.4759C112.537 37.5001 110.913 36.9483 109.503 35.8353C108.173 34.7849 107.12 33.5476 106.363 32.1243C105.665 30.8136 105.004 29.4772 104.378 28.1243C103.719 26.698 103.266 25.1738 103.027 23.554C102.771 21.8189 103.043 20.1458 103.831 18.5774C104.576 17.0971 105.529 15.7958 106.683 14.6868C107.804 13.6098 109.027 12.6647 110.355 11.8587C111.797 10.9831 113.376 10.6013 115.058 10.7181ZM274.902 10.7181C276.395 10.8219 277.867 10.9674 279.316 11.1478C280.807 11.3334 282.349 11.661 283.933 12.1321C285.742 12.6704 287.075 13.8167 287.87 15.5228C288.562 17.0059 289.146 18.4987 289.62 19.9915C290.125 21.5807 290.27 23.2085 290.05 24.8587C289.843 26.4166 289.505 27.9443 289.05 29.4368C288.579 30.9824 287.857 32.4546 286.886 33.8431C285.8 35.3954 284.27 36.2667 282.378 36.4212C280.747 36.5543 279.325 36.5722 278.12 36.4681C277.766 36.4373 277.517 36.4567 277.355 36.4681C277.247 36.6705 277.098 36.8279 276.949 36.9368C276.702 37.1161 276.414 37.2182 276.167 37.2806C275.66 37.408 274.976 37.465 274.175 37.4759C272.381 37.5001 270.757 36.9483 269.347 35.8353C268.017 34.7849 266.964 33.5476 266.206 32.1243C265.509 30.8136 264.848 29.4772 264.222 28.1243C263.563 26.698 263.11 25.1738 262.87 23.554C262.615 21.8189 262.887 20.1458 263.675 18.5774C264.42 17.0971 265.373 15.7958 266.527 14.6868C267.648 13.6098 268.871 12.6647 270.199 11.8587C271.641 10.9831 273.22 10.6013 274.902 10.7181ZM45.4252 10.9056C46.9602 10.9152 48.5479 11.0973 50.183 11.4524C52.1019 11.8693 53.4272 13.0586 54.058 14.9212C54.6148 16.5662 54.8442 18.2175 54.7455 19.8665C54.6389 21.6411 53.916 23.1474 52.5892 24.3196C51.3781 25.3888 50.017 26.227 48.5189 26.8353C47.0811 27.4187 45.5828 27.9112 44.0267 28.304C42.3072 28.7379 40.5951 28.615 38.9252 27.9524C38.9347 27.9755 38.9461 27.9986 38.9564 28.0228C39.2207 28.6387 39.5567 29.0285 39.9252 29.2649C40.2939 29.5006 40.7831 29.6399 41.4408 29.6165C42.9936 29.561 44.4373 29.3185 45.7767 28.8978C47.1281 28.473 48.2326 27.934 49.1049 27.2962C49.7659 26.8123 50.5707 26.5522 51.4095 26.8353C52.1803 27.0955 52.7492 27.7406 53.183 28.4759C54.0087 29.8773 54.4421 31.259 54.2299 32.5462C54.0066 33.8994 53.003 35.0344 51.6049 35.9993C50.0675 37.0595 48.3339 37.4207 46.472 37.0853C45.6922 36.9446 45.0801 36.8713 44.6283 36.8587C44.4038 36.8525 44.2344 36.8659 44.1127 36.8821C44.0167 36.895 43.9696 36.9088 43.9564 36.9134C43.5664 37.103 43.0555 37.212 42.5189 37.2806C41.9598 37.3519 41.2724 37.391 40.472 37.4056C38.6929 37.4373 37.0676 36.9233 35.6283 35.8743C34.2669 34.8818 33.1574 33.7026 32.3158 32.3431C31.5286 31.0712 30.8148 29.7615 30.1752 28.4134C29.4982 26.9863 29.0807 25.443 28.9252 23.7962C28.762 22.065 29.089 20.4154 29.8939 18.8743C30.6549 17.4173 31.6004 16.1277 32.7299 15.0071C33.8338 13.9119 35.0381 12.9433 36.347 12.1087C37.7665 11.2037 39.3366 10.7764 41.0267 10.8274C42.509 10.8722 43.9752 10.8964 45.4252 10.9056ZM330.074 10.9056C331.609 10.9152 333.196 11.0973 334.831 11.4524C336.75 11.8693 338.076 13.0586 338.706 14.9212C339.263 16.5662 339.493 18.2175 339.394 19.8665C339.287 21.6411 338.564 23.1474 337.238 24.3196C336.027 25.3888 334.665 26.227 333.167 26.8353C331.729 27.4187 330.231 27.9112 328.675 28.304C326.956 28.7379 325.244 28.615 323.574 27.9524C323.583 27.9755 323.594 27.9986 323.605 28.0228C323.869 28.6387 324.205 29.0285 324.574 29.2649C324.942 29.5006 325.432 29.6399 326.089 29.6165C327.642 29.561 329.086 29.3185 330.425 28.8978C331.777 28.473 332.881 27.934 333.753 27.2962C334.414 26.8123 335.219 26.5522 336.058 26.8353C336.829 27.0955 337.398 27.7406 337.831 28.4759C338.657 29.8773 339.091 31.259 338.878 32.5462C338.655 33.8994 337.651 35.0344 336.253 35.9993C334.716 37.0595 332.982 37.4207 331.12 37.0853C330.341 36.9446 329.729 36.8713 329.277 36.8587C329.052 36.8525 328.883 36.8659 328.761 36.8821C328.665 36.895 328.618 36.9088 328.605 36.9134C328.215 37.103 327.704 37.212 327.167 37.2806C326.608 37.3519 325.921 37.391 325.12 37.4056C323.341 37.4373 321.716 36.9233 320.277 35.8743C318.915 34.8818 317.806 33.7026 316.964 32.3431C316.177 31.0712 315.463 29.7615 314.824 28.4134C314.147 26.9863 313.729 25.443 313.574 23.7962C313.41 22.065 313.737 20.4154 314.542 18.8743C315.303 17.4173 316.249 16.1277 317.378 15.0071C318.482 13.9119 319.687 12.9433 320.995 12.1087C322.415 11.2037 323.985 10.7764 325.675 10.8274C327.157 10.8722 328.624 10.8964 330.074 10.9056ZM89.2533 37.1634C89.3177 37.2496 89.3918 37.3064 89.4486 37.3509C89.3827 37.2973 89.3105 37.2425 89.2533 37.1634ZM403.628 37.1634C403.693 37.2496 403.767 37.3064 403.824 37.3509C403.758 37.2973 403.686 37.2425 403.628 37.1634ZM62.6049 10.6556C63.9422 10.7444 65.106 11.0383 65.9408 11.6556C66.14 11.8003 66.7021 11.9518 68.0111 11.5462C69.4599 11.0969 70.9352 10.8358 72.433 10.7728C74.111 10.7021 75.5614 11.2519 76.6908 12.4368C77.2713 13.0461 77.6532 13.7601 77.7845 14.5696C77.9143 15.371 77.7871 16.1954 77.472 17.0149C77.1472 17.8591 76.6382 18.5661 75.8861 18.9915C75.1326 19.4174 74.2698 19.486 73.3861 19.3196C72.1499 19.086 70.9793 19.234 69.8549 19.7728C68.769 20.2931 67.9957 21.1203 67.5111 22.2962C66.9924 23.5556 66.7745 24.8519 66.8549 26.1868C66.9521 27.8085 66.724 29.4301 66.183 31.0462C65.6772 32.5557 65.261 33.7064 64.9408 34.4681C64.4295 35.6794 63.0625 36.303 61.5189 36.6556C60.0434 36.9921 59.0472 37.2062 58.6517 37.2415C58.0926 37.2907 57.7228 36.9509 57.5502 36.7259C57.38 36.5041 57.2729 36.242 57.1986 36.0149C57.0452 35.5455 56.9309 34.8989 56.8392 34.1243C56.6472 32.5005 56.7076 30.8799 57.0267 29.2728C57.3233 27.7794 57.5927 26.2786 57.8392 24.7728C58.0701 23.3622 58.0758 21.9565 57.847 20.554C57.6014 19.0498 57.3392 17.5438 57.0658 16.0462C56.9084 15.1817 56.9186 14.3515 57.1674 13.6009C57.4217 12.8348 57.9046 12.2126 58.5736 11.7493C59.7694 10.9213 61.1276 10.5574 62.6049 10.6556ZM248.933 10.6556C250.27 10.7444 251.434 11.0383 252.269 11.6556C252.468 11.8003 253.03 11.9518 254.339 11.5462C255.788 11.0969 257.263 10.8358 258.761 10.7728C260.439 10.7021 261.89 11.2519 263.019 12.4368C263.599 13.0461 263.981 13.7601 264.113 14.5696C264.242 15.371 264.115 16.1954 263.8 17.0149C263.475 17.8591 262.966 18.5661 262.214 18.9915C261.461 19.4174 260.598 19.486 259.714 19.3196C258.478 19.086 257.307 19.234 256.183 19.7728C255.097 20.2931 254.324 21.1203 253.839 22.2962C253.321 23.5556 253.103 24.8519 253.183 26.1868C253.28 27.8085 253.052 29.4301 252.511 31.0462C252.005 32.5557 251.589 33.7064 251.269 34.4681C250.758 35.6794 249.391 36.303 247.847 36.6556C246.372 36.9921 245.375 37.2062 244.98 37.2415C244.421 37.2907 244.051 36.9509 243.878 36.7259C243.708 36.5041 243.601 36.242 243.527 36.0149C243.373 35.5455 243.259 34.8989 243.167 34.1243C242.975 32.5005 243.036 30.8799 243.355 29.2728C243.651 27.7794 243.921 26.2786 244.167 24.7728C244.398 23.3622 244.404 21.9565 244.175 20.554C243.93 19.0498 243.667 17.5438 243.394 16.0462C243.237 15.1817 243.247 14.3515 243.495 13.6009C243.75 12.8348 244.233 12.2126 244.902 11.7493C246.098 10.9213 247.456 10.5574 248.933 10.6556ZM179.824 9.50713C180.729 9.39288 181.594 9.46456 182.339 9.81963C183.104 10.1848 183.651 10.8062 183.988 11.5931C184.569 12.9539 184.768 14.47 184.628 16.1087C184.498 17.6322 184.328 19.1575 184.105 20.679C183.897 22.0964 183.867 23.5097 184.027 24.9212C184.162 26.1238 184.726 27.0591 185.769 27.7806C186.543 28.3163 187.124 29.0085 187.347 29.8821C187.569 30.7517 187.396 31.6429 186.988 32.4993C186.629 33.2524 186.255 33.8919 185.863 34.3978C185.476 34.8958 185.024 35.3238 184.488 35.5618C183.502 35.9982 182.197 35.8799 180.792 35.5071C179.581 35.1862 178.539 35.2122 177.628 35.5228C176.408 35.9396 175.017 36.2163 173.472 36.3665C172.749 36.4368 172.166 36.5199 171.714 36.6087C171.251 36.7 170.982 36.7881 170.855 36.8509C170.428 37.0632 169.883 37.1502 169.331 37.1868C168.754 37.225 168.054 37.2115 167.245 37.1556C165.424 37.0294 163.863 36.2942 162.62 34.9603C161.466 33.72 160.609 32.3344 160.066 30.8196C159.564 29.4193 159.119 27.9986 158.722 26.5618C158.301 25.0387 158.134 23.4516 158.222 21.804C158.317 20.0496 158.921 18.4715 160.019 17.1009C161.052 15.812 162.243 14.7252 163.589 13.8587C164.885 13.0246 166.24 12.298 167.652 11.679C169.186 11.0061 170.792 10.7937 172.449 11.0384C173.775 11.2345 174.807 11.0811 175.605 10.679C176.765 10.0947 178.182 9.71435 179.824 9.50713ZM193.706 0.514938C195.45 0.367639 196.952 0.849688 197.839 2.22588C198.67 3.51682 198.702 5.0637 198.183 6.71025C197.747 8.09168 197.512 9.49469 197.472 10.9134C197.428 12.4585 197.309 14.0002 197.113 15.5384C196.929 16.9829 196.884 18.4308 196.972 19.8821C197.06 21.3358 197.271 22.7655 197.613 24.1712C197.947 25.5462 198.419 26.172 198.831 26.4134C199.596 26.861 200.151 27.1899 200.495 27.3978C200.793 27.5775 201.127 27.9009 201.456 28.2493C201.809 28.622 202.238 29.1132 202.738 29.7181C203.315 30.4167 203.706 31.1936 203.753 32.0306C203.8 32.8917 203.472 33.6706 202.91 34.3353C201.863 35.572 200.473 36.2691 198.808 36.4368C198.107 36.5074 197.629 36.5834 197.347 36.6556C197.327 36.6608 197.309 36.6666 197.292 36.6712C197.246 36.7272 197.213 36.7918 197.16 36.8353C196.972 36.9876 196.776 37.0488 196.66 37.0774C196.424 37.1357 196.166 37.14 195.949 37.1321C195.485 37.1149 194.84 37.0313 194.05 36.8899C192.155 36.5506 190.792 35.4506 190.058 33.6712C189.411 32.1013 189.056 30.4974 189.011 28.8665C188.971 27.4186 188.812 25.9778 188.535 24.5462C188.244 23.0491 187.987 21.5355 187.753 20.0071C187.506 18.3869 187.516 16.7669 187.785 15.1556C188.035 13.6531 188.269 12.1505 188.495 10.6556C188.716 9.20217 188.839 7.74172 188.855 6.27275C188.872 4.6659 189.167 3.2807 189.886 2.27275C190.686 1.1544 192.077 0.652795 193.706 0.514938ZM89.1205 36.9134C89.1273 36.9325 89.1362 36.95 89.1439 36.9681C89.1362 36.9499 89.1272 36.9324 89.1205 36.9134ZM403.495 36.9134C403.502 36.9325 403.511 36.95 403.519 36.9681C403.511 36.9499 403.502 36.9324 403.495 36.9134ZM355.667 36.7962C355.667 36.7252 355.649 36.6302 355.613 36.5228C355.634 36.6079 355.667 36.6953 355.667 36.7962ZM405.433 36.5774C405.433 36.4656 405.402 36.3572 405.363 36.2493C405.397 36.3461 405.433 36.4516 405.433 36.5774ZM91.058 36.5774C91.0576 36.4656 91.0266 36.3572 90.9877 36.2493C91.0216 36.3461 91.0576 36.4516 91.058 36.5774ZM90.933 36.1087C90.921 36.0867 90.9156 36.0597 90.9017 36.0384C90.8916 36.0229 90.8732 36.0137 90.8627 35.9993C90.8873 36.0331 90.9112 36.0685 90.933 36.1087ZM405.308 36.1087C405.296 36.0867 405.291 36.0597 405.277 36.0384C405.267 36.0229 405.248 36.0137 405.238 35.9993C405.262 36.0331 405.286 36.0685 405.308 36.1087ZM378.175 3.47588C377.391 3.43151 377.105 3.597 377.019 3.679C376.968 3.72771 376.819 3.90519 376.91 4.53056C377.155 6.22018 377.093 7.98327 376.73 9.81181C376.532 10.8054 376.141 11.6802 375.464 12.2962C374.77 12.9278 373.886 13.1838 372.925 13.1634C371.545 13.1342 370.901 13.4894 370.605 13.8978C370.239 14.4033 370.039 15.2362 370.214 16.5696C370.289 17.1365 370.47 17.4043 370.636 17.5384C370.807 17.675 371.122 17.7981 371.722 17.7649C372.578 17.7168 373.404 17.829 374.066 18.2337C374.776 18.6683 375.166 19.3614 375.277 20.1634C375.428 21.261 375.618 22.5578 375.847 24.054C376.087 25.6205 376.171 27.1918 376.097 28.7649C376.032 30.1413 376.231 31.5268 376.699 32.9212C376.903 33.53 377.199 33.9632 377.558 34.2728C377.918 34.5826 378.393 34.8092 379.027 34.9212C379.827 35.0626 380.493 35.2281 380.98 35.4212C381.218 35.5158 381.476 35.6403 381.691 35.8196C381.759 35.8768 381.822 35.964 381.894 36.054C382.175 36.0243 382.61 35.9559 383.222 35.7962C384.533 35.454 385.614 34.7553 386.495 33.6868C387.4 32.59 387.826 31.5257 387.87 30.4759C387.892 29.9741 387.794 29.6172 387.636 29.3509C387.478 29.0858 387.214 28.8317 386.777 28.6243C386.399 28.4462 386.076 28.4306 385.761 28.5228C385.419 28.6232 384.996 28.8773 384.511 29.4056C383.913 30.0578 383.047 30.7142 382.027 30.4446C381.534 30.3145 381.159 30.0008 380.886 29.6478C380.616 29.2984 380.403 28.8648 380.23 28.3899C379.567 26.5676 379.369 24.7837 379.683 23.0696C379.967 21.5204 380.327 20.1167 380.753 18.8587C381.303 17.2373 382.617 16.2856 384.402 15.9212C385.917 15.6124 386.876 15.2976 387.37 15.0149C387.432 14.9782 387.58 14.8526 387.738 14.4759C387.896 14.0977 388.031 13.5457 388.12 12.7884C388.203 12.0886 388.054 11.8664 388.011 11.8196C387.983 11.7892 387.819 11.6389 387.183 11.7024C385.517 11.8697 384.042 11.6709 382.886 10.9524C382.22 10.5383 381.773 9.92458 381.581 9.16338C381.399 8.43563 381.464 7.63081 381.683 6.804C382.021 5.53019 381.786 4.86419 381.37 4.46806C380.84 3.96383 379.848 3.571 378.175 3.47588ZM307.769 13.0071C306.473 13.2151 305.924 13.7102 305.706 14.2962C305.413 15.0876 305.384 16.1381 305.745 17.5071C306.153 19.0524 306.435 20.6128 306.589 22.1868C306.758 23.9094 306.418 25.5083 305.55 26.9446C304.713 28.3302 303.621 29.3011 302.23 29.5931C301.49 29.7478 300.758 29.6431 300.113 29.2337C299.496 28.8413 299.043 28.2253 298.706 27.5071C298.192 26.4107 297.483 25.5211 296.574 24.8274C295.843 24.2708 294.968 24.1244 293.8 24.5384C293.233 24.7394 292.949 24.9925 292.808 25.2259C292.67 25.4549 292.588 25.8037 292.683 26.3587C292.923 27.7507 293.29 29.1698 293.785 30.6087C294.191 31.7921 294.961 32.5414 296.167 32.9212C297.704 33.4049 299.164 33.9449 300.542 34.5384C301.222 34.8313 301.78 35.0864 302.206 35.304C302.499 35.453 302.776 35.6247 303.003 35.7884C303.053 35.7879 303.134 35.7896 303.253 35.7728C303.61 35.7218 304.151 35.5889 304.886 35.3509C306.177 34.9325 307.122 34.1853 307.769 33.1087C308.516 31.8657 309.116 30.6116 309.574 29.3509C310.013 28.1407 310.239 26.8435 310.245 25.4524L310.222 20.9524C310.2 19.3938 310.298 17.8296 310.511 16.2649C310.698 14.8932 310.472 14.0348 310.058 13.5071C309.731 13.0916 309.099 12.7943 307.769 13.0071ZM353.308 12.7884C352.027 12.7005 350.85 12.9798 349.753 13.6321C348.547 14.35 347.436 15.1932 346.417 16.1634C345.428 17.1063 344.599 18.2138 343.933 19.4915C343.305 20.6961 343.046 21.9687 343.16 23.3196C343.281 24.7573 343.61 26.0885 344.136 27.3196C344.692 28.6198 345.332 29.8857 346.042 31.1165C346.704 32.2619 347.597 33.2775 348.738 34.1634C349.798 34.9871 350.981 35.3957 352.324 35.3978C353.117 35.399 353.77 35.4345 354.245 35.5149C354.474 35.5537 354.74 35.6162 354.972 35.7337C354.992 35.7437 355.009 35.7659 355.035 35.7806C355.203 35.7019 355.44 35.6094 355.73 35.4446C356.923 34.7675 358.395 34.364 360.105 34.1946C361.435 34.063 362.433 33.4743 363.167 32.3978C364.024 31.1423 364.179 30.3334 364.074 29.8587C363.96 29.3541 363.489 28.6881 362.292 27.929C361.735 27.5755 361.329 27.4597 361.066 27.4524C360.846 27.4472 360.66 27.5157 360.464 27.7103C359.583 28.5861 358.396 29.3018 356.956 29.8899C355.41 30.5217 353.727 30.6909 351.933 30.429C350.954 30.2859 350.084 29.9236 349.386 29.304C348.691 28.6861 348.226 27.8663 347.949 26.9056C347.407 25.0275 347.6 23.2694 348.628 21.7415C349.509 20.4334 350.492 19.2886 351.566 18.3118C352.82 17.1721 354.368 16.7638 356.097 17.0462C357.693 17.3077 359.1 17.8765 360.285 18.7649C360.645 19.0357 360.963 19.118 361.253 19.1009C361.56 19.0822 361.959 18.9446 362.456 18.5696C363.423 17.8403 363.763 17.035 363.66 16.0853C363.607 15.6008 363.439 15.2273 363.175 14.929C362.902 14.6218 362.476 14.3362 361.839 14.1165C360.391 13.6178 358.991 13.3046 357.644 13.1634C356.225 13.0148 354.779 12.8893 353.308 12.7884ZM88.8705 11.6165C87.408 11.9768 86.0273 12.4586 84.7299 13.0696C83.4781 13.6592 82.3677 14.4456 81.4017 15.4368C80.5423 16.3188 80.1432 17.3587 80.1752 18.6087C80.2093 19.9364 80.5942 21.2053 81.3549 22.429C82.0374 23.5267 82.9834 24.1108 84.2767 24.2259C85.8967 24.3701 87.4567 24.5465 88.9564 24.7571C90.567 24.9834 92.1038 25.5087 93.558 26.3274C93.944 26.5448 94.2943 26.7943 94.5658 27.0853C94.8394 27.379 95.0834 27.7725 95.1205 28.2571C95.1961 29.2594 94.3998 29.9233 93.7533 30.3118C92.2955 31.1868 90.6745 31.4464 88.9486 31.1165C87.3247 30.8054 85.8276 30.2103 84.472 29.3353C83.3854 28.6333 82.5423 28.5211 81.8627 28.7337C81.1812 28.947 80.5243 29.5331 79.9799 30.7728C79.7198 31.3654 79.6959 31.7494 79.7455 31.9759C79.7872 32.1653 79.907 32.3654 80.2455 32.5696C81.2962 33.2007 82.4984 33.9007 83.847 34.6634C85.039 35.3374 86.3131 35.6438 87.683 35.5853C88.4623 35.552 89.0617 35.531 89.472 35.5306C89.6729 35.5304 89.8552 35.5346 89.9955 35.5462C90.0414 35.55 90.1089 35.556 90.183 35.5696C90.2017 35.5656 90.2233 35.5669 90.2455 35.5618C90.4926 35.5055 90.8865 35.3982 91.433 35.2415C92.6087 34.9042 93.9937 34.6624 95.5736 34.5071C96.8733 34.3793 97.9825 33.8505 98.933 32.8899C99.9215 31.8898 100.62 30.6821 101.027 29.2571C101.396 27.9621 101.22 26.7447 100.456 25.5306C99.6979 24.3237 98.7072 23.6915 97.433 23.5384C95.6795 23.3279 94.063 22.7204 92.597 21.7259C91.3794 20.8996 90.1189 20.4063 88.8158 20.2337C88.0231 20.1284 87.2052 19.8866 86.6986 19.2806C86.1051 18.5693 86.1911 17.7071 86.4955 17.0071C86.8242 16.2515 87.3948 15.6972 88.1752 15.4212C88.9156 15.1599 89.768 15.1819 90.6517 15.3587C92.3394 15.6966 93.9033 16.2985 95.3314 17.1712C95.8856 17.5095 96.2908 17.6026 96.5736 17.5853C96.8313 17.5691 97.1063 17.4535 97.4095 17.1321C98.2507 16.24 98.3387 15.7248 98.3002 15.5071C98.2832 15.4168 98.21 15.2394 97.9486 14.9759C97.6842 14.7095 97.2723 14.4016 96.6752 14.0696C95.4068 13.3646 94.0621 12.6792 92.6439 12.0071C91.412 11.4233 90.1679 11.2969 88.8705 11.6165ZM403.245 11.6165C401.783 11.9768 400.402 12.4586 399.105 13.0696C397.853 13.6592 396.743 14.4456 395.777 15.4368C394.917 16.3188 394.518 17.3587 394.55 18.6087C394.584 19.9364 394.969 21.2053 395.73 22.429C396.412 23.5267 397.358 24.1108 398.652 24.2259C400.272 24.3701 401.832 24.5465 403.331 24.7571C404.942 24.9834 406.479 25.5087 407.933 26.3274C408.319 26.5448 408.669 26.7943 408.941 27.0853C409.214 27.379 409.458 27.7725 409.495 28.2571C409.571 29.2594 408.775 29.9233 408.128 30.3118C406.671 31.1868 405.05 31.4464 403.324 31.1165C401.7 30.8054 400.203 30.2103 398.847 29.3353C397.76 28.6333 396.917 28.5211 396.238 28.7337C395.556 28.947 394.899 29.5331 394.355 30.7728C394.095 31.3654 394.071 31.7494 394.12 31.9759C394.162 32.1653 394.282 32.3654 394.62 32.5696C395.671 33.2007 396.873 33.9007 398.222 34.6634C399.414 35.3374 400.688 35.6438 402.058 35.5853C402.837 35.552 403.437 35.531 403.847 35.5306C404.048 35.5304 404.23 35.5346 404.37 35.5462C404.416 35.55 404.484 35.556 404.558 35.5696C404.577 35.5656 404.598 35.5669 404.62 35.5618C404.868 35.5055 405.262 35.3982 405.808 35.2415C406.984 34.9042 408.369 34.6624 409.949 34.5071C411.248 34.3793 412.357 33.8505 413.308 32.8899C414.296 31.8898 414.995 30.6821 415.402 29.2571C415.771 27.9621 415.595 26.7447 414.831 25.5306C414.073 24.3237 413.082 23.6915 411.808 23.5384C410.055 23.3279 408.438 22.7204 406.972 21.7259C405.754 20.8996 404.494 20.4063 403.191 20.2337C402.398 20.1284 401.58 19.8866 401.074 19.2806C400.48 18.5693 400.566 17.7071 400.87 17.0071C401.199 16.2515 401.77 15.6972 402.55 15.4212C403.291 15.1599 404.143 15.1819 405.027 15.3587C406.714 15.6966 408.278 16.2985 409.706 17.1712C410.261 17.5095 410.666 17.6026 410.949 17.5853C411.206 17.5691 411.481 17.4535 411.785 17.1321C412.626 16.24 412.714 15.7248 412.675 15.5071C412.658 15.4168 412.585 15.2394 412.324 14.9759C412.059 14.7095 411.647 14.4016 411.05 14.0696C409.782 13.3646 408.437 12.6792 407.019 12.0071C405.787 11.4233 404.543 11.2969 403.245 11.6165ZM137.214 12.6243C136.196 12.5219 135.246 12.7332 134.331 13.2571C133.958 13.471 133.725 13.7344 133.589 14.054C133.448 14.3876 133.38 14.8527 133.456 15.4915C133.637 17.0058 133.831 18.516 134.035 20.0228C134.252 21.6319 134.231 23.2435 133.98 24.8509C133.744 26.3623 133.512 27.8785 133.277 29.3978C133.059 30.8038 133.081 32.2018 133.347 33.5931C133.492 34.3478 133.601 34.9476 133.675 35.3743C133.682 35.4117 133.685 35.4485 133.691 35.4837C133.806 35.4852 133.943 35.5042 134.105 35.4993C134.881 35.4757 136.038 35.2753 137.605 34.8587C138.261 34.6842 138.618 34.4293 138.808 34.179C138.988 33.9394 139.106 33.5828 139.058 33.0149C138.937 31.591 138.638 30.1626 138.167 28.7259C137.578 26.9283 137.819 25.2136 138.902 23.6946C139.779 22.4654 140.579 21.249 141.292 20.0462C142.135 18.6241 143.401 17.5213 145.035 16.7259C145.915 16.2974 146.871 16.1165 147.761 16.4993C148.639 16.878 149.187 17.6912 149.527 18.6243C150.162 20.3704 150.404 22.105 150.222 23.8118C150.062 25.3171 149.976 26.81 149.972 28.2884C149.968 29.7392 150.103 31.2018 150.37 32.6712C150.498 33.3706 150.67 33.8228 150.839 34.0931C150.995 34.3413 151.11 34.3858 151.167 34.3978C151.761 34.5178 152.71 34.4938 154.074 34.2493C154.595 34.1554 154.818 33.9752 154.925 33.8196C155.041 33.6491 155.153 33.3176 155.074 32.6946C154.874 31.1399 154.736 29.5883 154.667 28.0462C154.598 26.5012 154.599 24.9542 154.675 23.4056C154.745 21.9742 154.629 20.5582 154.331 19.1556C154.026 17.7189 153.604 16.2595 153.058 14.7806C152.829 14.1614 152.518 13.7257 152.144 13.429C151.77 13.1326 151.277 12.9298 150.628 12.8509C149.119 12.6674 147.736 12.7031 146.472 12.9524C145.164 13.2108 143.875 13.6201 142.613 14.179C141.889 14.4991 141.152 14.7084 140.472 14.6321C139.699 14.5451 139.097 14.1031 138.777 13.3978C138.632 13.0801 138.266 12.7305 137.214 12.6243ZM114.917 12.7181C113.649 12.6304 112.483 12.9085 111.394 13.5696C110.191 14.3001 109.082 15.1553 108.066 16.1321C107.083 17.0768 106.268 18.1894 105.62 19.4759C105.017 20.6768 104.816 21.93 105.011 23.2571C105.224 24.6986 105.615 26.0436 106.191 27.2884C106.8 28.6067 107.449 29.9021 108.128 31.179C108.747 32.3428 109.616 33.3732 110.745 34.2649C111.795 35.093 112.967 35.4935 114.3 35.4759C115.009 35.4663 115.485 35.413 115.769 35.3509C115.844 35.1824 115.957 35.0316 116.097 34.9056C116.339 34.6873 116.63 34.585 116.855 34.5306C117.3 34.4232 117.858 34.4248 118.449 34.4759C119.506 34.5673 120.81 34.5563 122.37 34.429C123.672 34.3227 124.658 33.7573 125.402 32.6946C126.26 31.4668 126.893 30.1851 127.3 28.8509C127.723 27.4634 128.029 26.0438 128.222 24.5931C128.403 23.2345 128.287 21.9032 127.87 20.5931C127.423 19.1859 126.871 17.7755 126.214 16.3665C125.662 15.183 124.781 14.43 123.519 14.054C122.03 13.6112 120.6 13.3029 119.23 13.1321C117.817 12.9562 116.376 12.8195 114.917 12.7181ZM274.761 12.7181C273.493 12.6304 272.327 12.9085 271.238 13.5696C270.034 14.3001 268.926 15.1553 267.91 16.1321C266.927 17.0768 266.112 18.1894 265.464 19.4759C264.86 20.6768 264.659 21.93 264.855 23.2571C265.067 24.6986 265.459 26.0436 266.035 27.2884C266.644 28.6067 267.293 29.9021 267.972 31.179C268.591 32.3428 269.46 33.3732 270.589 34.2649C271.639 35.093 272.811 35.4935 274.144 35.4759C274.853 35.4663 275.328 35.413 275.613 35.3509C275.687 35.1824 275.801 35.0316 275.941 34.9056C276.183 34.6873 276.474 34.585 276.699 34.5306C277.144 34.4232 277.702 34.4248 278.292 34.4759C279.35 34.5673 280.654 34.5563 282.214 34.429C283.515 34.3227 284.502 33.7573 285.245 32.6946C286.104 31.4668 286.737 30.1851 287.144 28.8509C287.567 27.4634 287.873 26.0438 288.066 24.5931C288.246 23.2345 288.131 21.9032 287.714 20.5931C287.267 19.1859 286.715 17.7755 286.058 16.3665C285.506 15.183 284.625 14.43 283.363 14.054C281.874 13.6112 280.444 13.3029 279.074 13.1321C277.661 12.9562 276.219 12.8195 274.761 12.7181ZM40.9642 12.8274C39.6729 12.7885 38.5032 13.1092 37.4252 13.7962C36.237 14.5537 35.1388 15.4266 34.1361 16.4212C33.1594 17.3901 32.3368 18.5152 31.6674 19.7962C31.0413 20.9948 30.7904 22.2619 30.9174 23.6087C31.0523 25.0374 31.4088 26.3502 31.9799 27.554C32.5883 28.8365 33.2697 30.0858 34.0189 31.2962C34.7147 32.4193 35.6415 33.4067 36.808 34.2571C37.8962 35.05 39.0972 35.4299 40.4408 35.4056C41.2011 35.3917 41.8088 35.355 42.2689 35.2962C42.7509 35.2345 42.9941 35.159 43.0814 35.1165C43.5463 34.891 44.1285 34.8512 44.683 34.8665C45.2744 34.883 45.9943 34.9669 46.8236 35.1165C48.1793 35.3611 49.3738 35.1097 50.4642 34.3587C51.6934 33.511 52.1611 32.7774 52.2533 32.2181C52.3559 31.5917 52.1786 30.704 51.4642 29.4915C51.1281 28.9213 50.8719 28.7684 50.7689 28.7337C50.733 28.7216 50.6082 28.6751 50.2924 28.9056C49.2067 29.7003 47.8924 30.3281 46.3783 30.804C44.8521 31.2836 43.2287 31.5552 41.5111 31.6165C40.5324 31.6514 39.623 31.4484 38.847 30.9524C38.0733 30.457 37.5081 29.7151 37.1205 28.8118C36.9413 28.3938 36.8072 27.9771 36.7611 27.5931C36.7178 27.2292 36.7311 26.6948 37.1127 26.2649C37.5105 25.8178 38.0609 25.7557 38.4408 25.7806C38.828 25.8063 39.2421 25.9301 39.6517 26.0931C40.9428 26.6069 42.2291 26.6959 43.5345 26.3665C45.0056 25.9953 46.4187 25.5316 47.7689 24.9837C49.0576 24.4603 50.2197 23.739 51.2611 22.8196C52.187 22.0023 52.6782 20.9986 52.7533 19.7493C52.8358 18.3744 52.6395 16.9795 52.1595 15.5618C51.7533 14.3639 50.9873 13.6809 49.7611 13.4134C48.2489 13.0849 46.7993 12.9145 45.4174 12.9056C43.9502 12.8963 42.463 12.8727 40.9642 12.8274ZM325.613 12.8274C324.321 12.7885 323.152 13.1092 322.074 13.7962C320.885 14.5537 319.787 15.4266 318.785 16.4212C317.808 17.3901 316.985 18.5152 316.316 19.7962C315.69 20.9948 315.439 22.2619 315.566 23.6087C315.701 25.0374 316.057 26.3502 316.628 27.554C317.237 28.8365 317.918 30.0858 318.667 31.2962C319.363 32.4193 320.29 33.4067 321.456 34.2571C322.545 35.05 323.746 35.4299 325.089 35.4056C325.85 35.3917 326.457 35.355 326.917 35.2962C327.399 35.2345 327.643 35.159 327.73 35.1165C328.195 34.891 328.777 34.8512 329.331 34.8665C329.923 34.883 330.643 34.9669 331.472 35.1165C332.828 35.3611 334.022 35.1097 335.113 34.3587C336.342 33.511 336.809 32.7774 336.902 32.2181C337.004 31.5917 336.827 30.704 336.113 29.4915C335.777 28.9213 335.52 28.7684 335.417 28.7337C335.381 28.7216 335.257 28.6751 334.941 28.9056C333.855 29.7003 332.541 30.3281 331.027 30.804C329.501 31.2836 327.877 31.5552 326.16 31.6165C325.181 31.6514 324.271 31.4484 323.495 30.9524C322.722 30.457 322.156 29.7151 321.769 28.8118C321.59 28.3938 321.456 27.9771 321.41 27.5931C321.366 27.2292 321.38 26.6948 321.761 26.2649C322.159 25.8178 322.709 25.7557 323.089 25.7806C323.476 25.8063 323.89 25.9301 324.3 26.0931C325.591 26.6069 326.877 26.6959 328.183 26.3665C329.654 25.9953 331.067 25.5316 332.417 24.9837C333.706 24.4603 334.868 23.739 335.91 22.8196C336.835 22.0023 337.327 20.9986 337.402 19.7493C337.484 18.3744 337.288 16.9795 336.808 15.5618C336.402 14.3639 335.636 13.6809 334.41 13.4134C332.897 13.0849 331.448 12.9145 330.066 12.9056C328.599 12.8963 327.111 12.8727 325.613 12.8274ZM180.074 11.4915C178.58 11.6801 177.4 12.0163 176.503 12.4681C175.244 13.1022 173.774 13.2535 172.16 13.0149C170.875 12.825 169.648 12.9925 168.456 13.5149C167.142 14.0915 165.882 14.7693 164.675 15.5462C163.518 16.2912 162.485 17.2236 161.581 18.3509C160.745 19.3947 160.295 20.569 160.222 21.9056C160.144 23.3504 160.284 24.7263 160.644 26.0306C161.028 27.4205 161.463 28.7935 161.949 30.1478C162.394 31.3893 163.106 32.537 164.089 33.5931C164.984 34.5537 166.063 35.0715 167.378 35.1634C168.138 35.2161 168.745 35.2247 169.199 35.1946C169.676 35.1629 169.899 35.0943 169.964 35.0618C170.33 34.8802 170.803 34.7504 171.324 34.6478C171.861 34.5419 172.516 34.4483 173.277 34.3743C174.704 34.2355 175.937 33.9882 176.98 33.6321C178.33 33.1709 179.785 33.1658 181.308 33.5696C182.64 33.9231 183.363 33.8757 183.683 33.7337C183.8 33.6805 184.007 33.5295 184.285 33.1712C184.559 32.8173 184.861 32.3152 185.183 31.6399C185.457 31.0658 185.483 30.6602 185.41 30.3743C185.337 30.0928 185.126 29.7653 184.628 29.4212C183.127 28.3819 182.245 26.9393 182.042 25.1478C181.864 23.5645 181.888 21.9759 182.12 20.3899C182.338 18.9074 182.51 17.4206 182.636 15.9368C182.753 14.5682 182.577 13.3873 182.144 12.3743C181.973 11.9769 181.744 11.7537 181.472 11.6243C181.179 11.4856 180.734 11.4081 180.074 11.4915ZM62.472 12.6556C61.4287 12.5863 60.5244 12.8367 59.7142 13.3978C59.3809 13.6286 59.1759 13.9016 59.0658 14.2337C58.9512 14.5804 58.919 15.0516 59.0345 15.6868C59.3102 17.1967 59.5682 18.7171 59.8158 20.2337C60.0794 21.85 60.0812 23.4707 59.8158 25.0931C59.5656 26.6216 59.2888 28.1474 58.9877 29.6634C58.7095 31.0651 58.6563 32.4752 58.8236 33.8899C58.8884 34.4374 58.9584 34.8452 59.0267 35.1321C59.4613 35.0468 60.1394 34.9234 61.0736 34.7103C62.5521 34.3727 62.9973 33.924 63.097 33.6868C63.3871 32.9967 63.7826 31.9115 64.2845 30.4134C64.7505 29.0225 64.9362 27.6556 64.8549 26.304C64.7561 24.6645 65.0283 23.0721 65.6595 21.5384C66.3255 19.9214 67.4466 18.718 68.9955 17.9759C70.506 17.2524 72.1018 17.0389 73.7533 17.3509C74.3125 17.4566 74.6663 17.3824 74.9017 17.2493C75.1389 17.1149 75.3943 16.8432 75.6049 16.2962C75.8242 15.7254 75.8686 15.2645 75.808 14.8899C75.7486 14.5246 75.579 14.1706 75.2455 13.8196C74.5413 13.0808 73.6609 12.725 72.5189 12.7728C71.1962 12.8284 69.8911 13.0536 68.6049 13.4524C67.1866 13.8922 65.7675 14.0207 64.7455 13.2649C64.3614 12.9811 63.655 12.7342 62.472 12.6556ZM193.878 2.50713C192.48 2.62525 191.807 3.02159 191.511 3.43681C191.135 3.96463 190.87 4.87104 190.855 6.29619C190.838 7.85642 190.713 9.40889 190.48 10.9524C190.252 12.4574 190.006 13.9713 189.753 15.4837C189.52 16.8854 189.514 18.2905 189.73 19.7024C189.959 21.2054 190.218 22.6923 190.503 24.1634C190.802 25.702 190.968 27.2537 191.011 28.8118C191.049 30.1868 191.351 31.5488 191.91 32.9056C192.382 34.0527 193.177 34.7018 194.402 34.9212C195.148 35.0547 195.668 35.1173 195.988 35.1321C196.083 35.0506 196.16 34.9865 196.206 34.9603C196.411 34.8447 196.647 34.7712 196.855 34.7181C197.286 34.6079 197.881 34.5254 198.605 34.4524C199.794 34.3328 200.699 33.8581 201.386 33.0462C201.691 32.6861 201.767 32.3897 201.753 32.1399C201.737 31.8679 201.607 31.4863 201.199 30.9915C200.712 30.4026 200.313 29.9511 200.003 29.6243C199.849 29.4608 199.72 29.3315 199.62 29.2415L199.464 29.1165C199.133 28.9163 198.581 28.5878 197.816 28.1399C196.7 27.4847 196.045 26.2004 195.667 24.6478C195.297 23.1249 195.067 21.572 194.972 19.9993C194.877 18.4253 194.929 16.8545 195.128 15.2884C195.316 13.8157 195.43 12.3373 195.472 10.8587C195.517 9.25175 195.786 7.66362 196.277 6.10869C196.682 4.82156 196.56 3.93799 196.152 3.304C195.797 2.75641 195.16 2.39932 193.878 2.50713ZM248.8 12.6556C247.757 12.5863 246.853 12.8367 246.042 13.3978C245.709 13.6286 245.504 13.9016 245.394 14.2337C245.279 14.5804 245.247 15.0516 245.363 15.6868C245.638 17.1967 245.896 18.7171 246.144 20.2337C246.408 21.85 246.409 23.4707 246.144 25.0931C245.894 26.6216 245.617 28.1474 245.316 29.6634C245.038 31.0651 244.984 32.4752 245.152 33.8899C245.217 34.4374 245.287 34.8452 245.355 35.1321C245.789 35.0468 246.467 34.9234 247.402 34.7103C248.88 34.3727 249.325 33.924 249.425 33.6868C249.715 32.9967 250.111 31.9115 250.613 30.4134C251.079 29.0225 251.264 27.6556 251.183 26.304C251.084 24.6645 251.356 23.0721 251.988 21.5384C252.654 19.9214 253.775 18.718 255.324 17.9759C256.834 17.2524 258.43 17.0389 260.081 17.3509C260.641 17.4566 260.994 17.3824 261.23 17.2493C261.467 17.1149 261.722 16.8432 261.933 16.2962C262.152 15.7254 262.197 15.2645 262.136 14.8899C262.077 14.5246 261.907 14.1706 261.574 13.8196C260.869 13.0808 259.989 12.725 258.847 12.7728C257.524 12.8284 256.219 13.0536 254.933 13.4524C253.515 13.8922 252.096 14.0207 251.074 13.2649C250.69 12.9811 249.983 12.7342 248.8 12.6556ZM115.636 16.4603C117.481 16.1341 119.214 16.5068 120.785 17.5618C122.393 18.6434 123.3 20.1691 123.41 22.0696C123.508 23.776 123.268 25.409 122.691 26.9524C122.053 28.6546 120.822 29.7909 119.074 30.2962C118.366 30.5004 117.884 30.6752 117.597 30.8118C117.557 30.8308 117.522 30.8446 117.495 30.8587C117.475 30.9021 117.47 30.9554 117.441 30.9993C117.26 31.2727 116.985 31.4201 116.73 31.4681C116.509 31.5096 116.319 31.4807 116.206 31.4524C116.085 31.4218 115.973 31.3764 115.886 31.3353C115.564 31.1832 115.175 30.9011 114.761 30.5696C113.908 29.8858 113.004 29.075 112.05 28.1399C110.962 27.073 110.214 25.6775 109.769 24.0149C109.269 22.1474 109.711 20.4352 111.035 18.9915C112.283 17.6293 113.83 16.7801 115.636 16.4603ZM275.48 16.4603C277.325 16.1341 279.058 16.5068 280.628 17.5618C282.236 18.6434 283.143 20.1691 283.253 22.0696C283.352 23.776 283.112 25.409 282.535 26.9524C281.897 28.6546 280.666 29.7909 278.917 30.2962C278.21 30.5004 277.728 30.6752 277.441 30.8118C277.401 30.8308 277.365 30.8446 277.339 30.8587C277.319 30.9021 277.313 30.9554 277.285 30.9993C277.103 31.2727 276.828 31.4201 276.574 31.4681C276.353 31.5096 276.163 31.4807 276.05 31.4524C275.928 31.4218 275.817 31.3764 275.73 31.3353C275.408 31.1832 275.018 30.9011 274.605 30.5696C273.752 29.8858 272.848 29.075 271.894 28.1399C270.805 27.073 270.058 25.6775 269.613 24.0149C269.113 22.1474 269.555 20.4352 270.878 18.9915C272.127 17.6293 273.673 16.7801 275.48 16.4603ZM168.566 17.9212C170.088 16.7252 171.821 16.4711 173.628 17.1712C175.281 17.8121 176.49 18.8748 176.644 20.4993C176.746 21.5754 176.892 22.9182 177.081 24.5228C177.312 26.4845 176.606 28.1259 175.027 29.3196C173.54 30.4423 171.848 30.9648 169.995 30.8665C168.039 30.7624 166.55 29.8258 165.675 28.1009C165.31 27.3813 165.031 26.7453 164.87 26.2024C164.725 25.7084 164.614 25.0907 164.808 24.5462C164.964 24.1077 165.258 23.2231 165.699 21.8821C166.208 20.3292 167.185 19.007 168.566 17.9212ZM15.7689 16.8431C16.0141 16.9736 16.3249 17.1913 16.6752 17.4524C17.3629 17.9652 18.2421 18.6118 19.3158 19.3899C20.7079 20.3988 21.2957 21.8575 21.0892 23.5931C20.9094 25.1036 20.4945 26.5247 19.847 27.8431C19.4759 28.5974 18.9443 29.2099 18.2455 29.6243C17.5505 30.0357 16.7485 30.2192 15.8861 30.2181C14.3077 30.2159 12.797 29.901 11.3627 29.2806C9.79353 28.6012 8.68166 27.4075 8.05798 25.7728C7.73543 24.927 7.63441 24.0692 7.80798 23.2259C7.98136 22.3839 8.41532 21.6265 9.04235 20.9603C10.1563 19.7769 11.3788 18.815 12.7064 18.0774C13.3145 17.7396 13.7479 17.4793 14.0189 17.2962C14.0947 17.2449 14.1454 17.2 14.183 17.1712C14.2455 17.063 14.3329 16.9514 14.4564 16.8587C14.7602 16.6326 15.0793 16.6423 15.2064 16.6556C15.4592 16.682 15.6757 16.7935 15.7689 16.8431ZM229.636 16.8431C229.881 16.9736 230.192 17.1913 230.542 17.4524C231.23 17.9652 232.109 18.6118 233.183 19.3899C234.575 20.3988 235.163 21.8575 234.956 23.5931C234.777 25.1036 234.362 26.5247 233.714 27.8431C233.343 28.5974 232.811 29.2099 232.113 29.6243C231.418 30.0357 230.616 30.2192 229.753 30.2181C228.175 30.2159 226.664 29.901 225.23 29.2806C223.661 28.6012 222.549 27.4075 221.925 25.7728C221.603 24.927 221.502 24.0692 221.675 23.2259C221.849 22.3839 222.283 21.6265 222.91 20.9603C224.024 19.7769 225.246 18.815 226.574 18.0774C227.182 17.7396 227.615 17.4793 227.886 17.2962C227.962 17.2449 228.013 17.2 228.05 17.1712C228.113 17.063 228.2 16.9514 228.324 16.8587C228.627 16.6326 228.947 16.6423 229.074 16.6556C229.326 16.682 229.543 16.7935 229.636 16.8431ZM115.98 18.429C114.613 18.6716 113.466 19.3014 112.511 20.3431C111.631 21.3035 111.382 22.3177 111.699 23.4993C112.07 24.886 112.663 25.9406 113.449 26.7103C114.366 27.6095 115.221 28.3733 116.011 29.0071C116.134 29.1057 116.256 29.1737 116.347 29.2415C116.477 29.1577 116.605 29.0703 116.738 29.0071C117.174 28.7994 117.78 28.5874 118.519 28.3743C119.662 28.0437 120.401 27.3575 120.816 26.2493C121.291 24.9797 121.493 23.6293 121.41 22.1868C121.338 20.9399 120.787 19.9747 119.675 19.2259C118.525 18.4521 117.307 18.194 115.98 18.429ZM275.824 18.429C274.456 18.6716 273.31 19.3014 272.355 20.3431C271.474 21.3035 271.226 22.3177 271.542 23.4993C271.914 24.886 272.507 25.9406 273.292 26.7103C274.21 27.6095 275.065 28.3733 275.855 29.0071C275.978 29.1057 276.099 29.1737 276.191 29.2415C276.32 29.1577 276.449 29.0703 276.581 29.0071C277.018 28.7994 277.624 28.5874 278.363 28.3743C279.506 28.0437 280.245 27.3575 280.66 26.2493C281.135 24.9797 281.336 23.6293 281.253 22.1868C281.181 20.9399 280.63 19.9747 279.519 19.2259C278.369 18.4521 277.151 18.194 275.824 18.429ZM172.91 19.0384C171.757 18.5914 170.765 18.7334 169.8 19.4915C168.691 20.3638 167.977 21.3727 167.605 22.5071C167.164 23.8484 166.857 24.7603 166.691 25.2259C166.724 25.1329 166.666 25.2045 166.792 25.6321C166.904 26.0101 167.116 26.5318 167.456 27.2024C167.993 28.258 168.825 28.7979 170.097 28.8665C171.475 28.9398 172.703 28.5657 173.816 27.7259C174.834 26.9572 175.244 26.0093 175.097 24.7571C174.906 23.1438 174.756 21.7838 174.652 20.6868C174.599 20.139 174.217 19.546 172.91 19.0384ZM15.1361 18.9524C14.7918 19.1852 14.2976 19.4738 13.6752 19.8196C12.5421 20.4491 11.4811 21.2879 10.4955 22.3353C10.0737 22.784 9.85406 23.2187 9.76891 23.6321C9.68474 24.0438 9.71571 24.5128 9.92516 25.0618C10.3669 26.2192 11.1038 26.9906 12.1517 27.4446C13.3329 27.956 14.5759 28.2159 15.8861 28.2181C16.4683 28.2188 16.9049 28.0904 17.2299 27.8978C17.5486 27.7078 17.8269 27.4137 18.0502 26.9603C18.5931 25.8548 18.9425 24.6544 19.097 23.3587C19.2246 22.2867 18.9041 21.558 18.1439 21.0071C17.0659 20.2259 16.1777 19.5743 15.4799 19.054C15.3867 18.9845 15.2959 18.9346 15.222 18.8821C15.1919 18.9032 15.1668 18.9317 15.1361 18.9524ZM229.003 18.9524C228.659 19.1852 228.165 19.4738 227.542 19.8196C226.409 20.4491 225.348 21.2879 224.363 22.3353C223.941 22.784 223.721 23.2187 223.636 23.6321C223.552 24.0438 223.583 24.5128 223.792 25.0618C224.234 26.2192 224.971 26.9906 226.019 27.4446C227.2 27.956 228.443 28.2159 229.753 28.2181C230.335 28.2188 230.772 28.0904 231.097 27.8978C231.416 27.7078 231.694 27.4137 231.917 26.9603C232.46 25.8548 232.81 24.6544 232.964 23.3587C233.092 22.2867 232.771 21.558 232.011 21.0071C230.933 20.2259 230.045 19.5743 229.347 19.054C229.254 18.9845 229.163 18.9346 229.089 18.8821C229.059 18.9032 229.034 18.9317 229.003 18.9524ZM43.7377 16.3587C43.9089 16.3897 44.1642 16.4745 44.3783 16.7024C44.388 16.7129 44.3925 16.7309 44.4017 16.7415C44.4788 16.7334 44.5751 16.7292 44.683 16.7103C45.2405 16.6133 45.9086 16.6638 46.4252 17.1556C46.9084 17.618 47.0397 18.2713 47.0502 18.8274C47.0781 20.4156 45.8026 21.3401 44.3002 21.8431C42.8484 22.329 41.32 22.69 39.722 22.929C39.2981 22.9923 38.8864 23.0244 38.5267 22.9837C38.1963 22.9458 37.7042 22.8186 37.3705 22.3899C37.0001 21.9126 37.0607 21.3712 37.1752 21.0149C37.2888 20.6622 37.4982 20.3148 37.7377 19.9993C38.6852 18.7513 39.8817 17.779 41.308 17.0853C41.9592 16.7687 42.5184 16.5329 42.9408 16.4212C43.1265 16.3722 43.4292 16.303 43.7377 16.3587ZM328.386 16.3587C328.557 16.3897 328.813 16.4745 329.027 16.7024C329.036 16.7129 329.041 16.7309 329.05 16.7415C329.127 16.7334 329.224 16.7292 329.331 16.7103C329.889 16.6133 330.557 16.6638 331.074 17.1556C331.557 17.618 331.688 18.2713 331.699 18.8274C331.727 20.4156 330.451 21.3401 328.949 21.8431C327.497 22.329 325.968 22.69 324.37 22.929C323.947 22.9923 323.535 23.0244 323.175 22.9837C322.845 22.9458 322.353 22.8186 322.019 22.3899C321.649 21.9126 321.709 21.3712 321.824 21.0149C321.937 20.6622 322.147 20.3148 322.386 19.9993C323.334 18.7513 324.53 17.779 325.956 17.0853C326.608 16.7687 327.167 16.5329 327.589 16.4212C327.775 16.3722 328.078 16.303 328.386 16.3587ZM42.183 18.8821C41.1492 19.3849 40.2869 20.0673 39.5736 20.9212C41.0104 20.6984 42.3758 20.377 43.6674 19.9446C44.9506 19.5149 45.0541 19.0699 45.0502 18.8587L45.0267 18.679C44.6113 18.7518 44.1663 18.7989 43.7845 18.7259C43.6163 18.6936 43.4018 18.6095 43.1908 18.4524C42.9552 18.5401 42.6195 18.6699 42.183 18.8821ZM326.831 18.8821C325.798 19.3849 324.935 20.0673 324.222 20.9212C325.659 20.6984 327.024 20.377 328.316 19.9446C329.599 19.5149 329.703 19.0699 329.699 18.8587L329.675 18.679C329.26 18.7518 328.815 18.7989 328.433 18.7259C328.265 18.6936 328.05 18.6095 327.839 18.4524C327.604 18.5401 327.268 18.6699 326.831 18.8821ZM309.199 0.0696259C310.072 0.182513 310.875 0.455312 311.464 1.00713C312.082 1.58597 312.349 2.35877 312.347 3.19463C312.344 4.61197 311.952 5.90918 311.167 7.054C310.233 8.41597 308.721 8.89254 306.964 8.72588C306.209 8.65428 305.639 8.60491 305.253 8.56963C305.062 8.55212 304.914 8.53891 304.816 8.53056C304.766 8.52636 304.728 8.52436 304.706 8.52275C304.711 8.52289 304.719 8.5227 304.73 8.52275C304.738 8.52278 304.762 8.51673 304.792 8.51494C304.332 8.54247 304.059 8.26019 304.011 8.21025C303.926 8.12239 303.873 8.03935 303.855 8.00713C303.813 7.93427 303.786 7.86858 303.777 7.84306C303.753 7.77986 303.737 7.70886 303.722 7.65556C303.689 7.54059 303.643 7.38482 303.597 7.19463C303.503 6.80744 303.373 6.23094 303.206 5.47588C303.014 4.60426 303.005 3.76361 303.245 2.9915C303.491 2.20451 303.974 1.55809 304.652 1.06963C305.932 0.147618 307.482 -0.151734 309.199 0.0696259ZM308.941 2.054C307.62 1.88378 306.612 2.12749 305.824 2.69463C305.467 2.95151 305.258 3.24625 305.152 3.58525C305.042 3.93832 305.02 4.41251 305.16 5.04619C305.305 5.70613 305.425 6.2158 305.511 6.57744C305.898 6.61298 306.45 6.67419 307.16 6.7415C308.436 6.86169 309.111 6.50432 309.511 5.92119C310.06 5.12108 310.345 4.21927 310.347 3.18681C310.347 2.8006 310.237 2.59952 310.097 2.46806C309.928 2.30974 309.586 2.13726 308.941 2.054Z" fill="black"/>
</g>
<defs>
<filter id="filter0_d_43_40" x="0" y="0" width="417.587" height="46.0247" filterUnits="userSpaceOnUse" color-interpolation-filters="sRGB">
<feFlood flood-opacity="0" result="BackgroundImageFix"/>
<feColorMatrix in="SourceAlpha" type="matrix" values="0 0 0 0 0 0 0 0 0 0 0 0 0 0 0 0 0 0 127 0" result="hardAlpha"/>
<feOffset dx="-1" dy="0.15"/>
<feComposite in2="hardAlpha" operator="out"/>
<feColorMatrix type="matrix" values="0 0 0 0 0 0 0 0 0 0 0 0 0 0 0 0 0 0 1 0"/>
<feBlend mode="normal" in2="BackgroundImageFix" result="effect1_dropShadow_43_40"/>
<feBlend mode="normal" in="SourceGraphic" in2="effect1_dropShadow_43_40" result="shape"/>
</filter>
</defs>
</svg>
