<svg xmlns="http://www.w3.org/2000/svg" version="1.1" xmlns:xlink="http://www.w3.org/1999/xlink" width="36" height="33"><svg xmlns="http://www.w3.org/2000/svg" version="1.1" xmlns:xlink="http://www.w3.org/1999/xlink" width="36" height="33"><svg width="36" height="33" viewBox="0 0 36 33" fill="none" xmlns="http://www.w3.org/2000/svg">
<g filter="url(#filter0_i_83_30)">
<path fill-rule="evenodd" clip-rule="evenodd" d="M10.3843 1.82875C11.2633 0.881894 12.6057 0.513826 13.8363 0.890427C14.8937 1.21417 15.7275 2.03978 16.0684 3.10028L17.9962 9.0979L18.7896 6.964C19.7038 4.50458 22.2385 3.06423 24.7971 3.55029L26.1327 3.80434C27.3801 4.0415 28.3761 4.99108 28.6806 6.23441C28.9407 7.29735 28.6563 8.42148 27.9232 9.22875L23.1831 14.447L31.6878 15.7517C32.9328 15.9427 33.983 16.7888 34.4425 17.9718C35.0119 19.4384 34.5578 21.1084 33.3264 22.0768L31.484 23.5258C29.7337 24.9022 27.4183 25.3085 25.3102 24.609L22.7035 23.7434L23.0401 24.7903C23.5136 26.2636 23.237 27.878 22.3005 29.1053C21.0574 30.7341 18.9086 31.3583 16.9972 30.6462L16.9175 30.6162C15.3599 30.0357 14.2127 28.6803 13.8894 27.0371L13.685 25.9992L11.2707 30.1055C10.5924 31.2589 9.29697 31.8925 7.97939 31.7153C6.52403 31.5194 5.36925 30.3809 5.14112 28.9176L4.82414 26.8852C4.44706 24.4655 5.54066 22.0524 7.60104 20.7567L9.70918 19.4303L4.1092 17.5722C3.12708 17.2462 2.28832 16.5837 1.73912 15.7L1.13047 14.7202C0.439459 13.6079 0.563318 12.1682 1.43416 11.1928C2.14622 10.3955 3.23271 10.0531 4.268 10.2998L10.9081 11.8822L9.52507 4.85054C9.31155 3.76512 9.63455 2.63647 10.3843 1.82875ZM16.1595 13.9012C14.1916 13.9012 12.9201 16.4912 12.9201 18.4767C12.9201 20.4621 14.8394 22.0717 16.8074 22.0717C18.7753 22.0716 21.3426 20.4621 21.3426 18.4767C21.3425 16.4913 18.1275 13.9014 16.1595 13.9012Z" fill="#FFD633"></path>
</g>
<path d="M12.17 0.0572815L12.756 0.229156L13.2638 0.385406L13.9435 0.252594L14.6544 0.111969L15.0372 0.096344C15.1797 0.111567 15.3361 0.150335 15.4904 0.236969C15.6497 0.326589 15.7688 0.444653 15.8575 0.565094L16.0372 0.924469L16.256 1.58072L16.4513 2.18228L16.9122 2.63541L17.4122 3.12759C17.6299 3.34215 17.7929 3.61565 17.8575 3.94009L18.1075 5.20572C18.1101 5.21854 18.116 5.23094 18.1232 5.24478L18.1857 5.36978L18.381 5.05728L18.7247 4.47916L18.9122 4.23697C19.1191 4.01834 19.3864 3.87794 19.6779 3.82291L20.3732 3.69009L20.881 3.58853L21.2325 3.12759L21.7013 2.51041L21.9982 2.22134C22.1261 2.13355 22.2845 2.0645 22.4747 2.03384C22.6637 2.00383 22.8357 2.02332 22.9825 2.06509L23.3497 2.22916L24.006 2.66666L24.545 3.01822L25.0138 2.97134L25.6544 2.90884L26.0763 2.91666C26.2163 2.93822 26.3552 2.98018 26.4904 3.04166L27.045 3.29947L27.5997 3.54947C27.7166 3.60298 27.8409 3.66276 27.9669 3.72916L29.2482 4.40103C29.4404 4.50262 29.634 4.67109 29.7716 4.91666C29.91 5.16375 29.9516 5.42222 29.9357 5.64322L29.8263 7.06509C29.8082 7.31656 29.7434 7.58066 29.6075 7.82291L29.3029 8.36197L28.9982 8.90884C28.9384 9.01533 28.8745 9.12457 28.8107 9.22916L28.4904 9.76041L28.1622 10.2917C28.1112 10.3754 28.0571 10.4661 28.006 10.5573L27.6857 11.1276L27.3654 11.7057C27.1645 12.0632 26.8433 12.2835 26.506 12.3854L25.795 12.5963L25.1544 12.7838L24.8029 13.1823L24.7325 13.2526L25.3107 13.3854C25.3849 13.4026 25.462 13.4155 25.5372 13.4245L26.8029 13.5807C27.154 13.6227 27.4469 13.7807 27.67 13.9792L28.2404 14.4948L28.7325 14.9323L29.2482 15.0182L29.8419 15.1042L30.4825 14.9245L31.1544 14.7292L31.6232 14.6667C31.7809 14.6689 31.9416 14.6908 32.0997 14.7448L32.7247 14.9635L33.3419 15.1745C33.5553 15.2479 33.7514 15.3557 33.9279 15.487L34.4904 15.901L35.0529 16.3229C35.2341 16.4579 35.4037 16.6585 35.4982 16.9245C35.5903 17.1861 35.5834 17.4373 35.5372 17.6432L35.381 18.3542L35.2169 19.0729C35.2138 19.0871 35.21 19.0972 35.2091 19.1042L35.3185 20.3073C35.3575 20.7364 35.194 21.1448 34.8654 21.4245L34.4122 21.8073L33.9513 22.1979C33.9049 22.2374 33.8587 22.2861 33.8107 22.3385L32.9513 23.276C32.8675 23.368 32.7818 23.46 32.6935 23.5495L31.7872 24.4713C31.6905 24.5692 31.589 24.6662 31.4825 24.7604L30.4513 25.6667C30.1344 25.9469 29.7283 26.0648 29.3185 26.0026L28.631 25.8932L27.9435 25.7917C27.9024 25.7854 27.8703 25.782 27.8497 25.7838L26.5685 25.9245C26.2969 25.9539 26.0259 25.9207 25.7716 25.8229L24.5685 25.3542C24.489 25.3234 24.4174 25.2753 24.3419 25.237L24.3575 25.4635L24.4044 26.1354C24.4133 26.2657 24.4238 26.3984 24.4279 26.5338L24.4435 27.237L24.4669 27.9401C24.4775 28.2937 24.3683 28.6353 24.1544 28.9167L23.7325 29.4713L23.3029 30.0338C23.066 30.3453 22.7325 30.5388 22.3575 30.5963L21.6388 30.7057L21.1388 30.776L20.8107 31.2292L20.3575 31.8542C20.2366 32.0189 20.0586 32.1923 19.8107 32.2995C19.5559 32.4093 19.2916 32.4203 19.0607 32.3776L18.3732 32.2526L17.6779 32.1198C17.3489 32.0582 17.0498 31.8995 16.8185 31.651L15.881 30.6354C15.823 30.5731 15.7742 30.5298 15.7404 30.5026L15.295 30.151L14.8575 29.7917C14.6849 29.6523 14.5395 29.4834 14.4279 29.2917L14.1388 28.8073L13.8575 28.3151C13.821 28.2524 13.7776 28.1817 13.7247 28.1042L13.5138 27.7995L13.2716 28.2135L12.9435 28.7682C12.905 28.8319 12.8658 28.8953 12.8341 28.9635L12.5607 29.5495L12.295 30.1354C12.2245 30.2881 12.1395 30.4337 12.045 30.5729L11.6857 31.1042L11.3185 31.6354C11.106 31.948 10.7895 32.16 10.4122 32.2292L9.16223 32.4635C8.97081 32.4985 8.77438 32.5033 8.57629 32.487L7.98254 32.4401L7.38098 32.3932C7.08722 32.3685 6.81154 32.2589 6.57629 32.0807L5.62317 31.362C5.47765 31.2517 5.34943 31.1238 5.23254 30.987L4.81067 30.4948L4.39661 30.0104C4.22622 29.8107 4.09818 29.5748 4.02942 29.3229L3.86536 28.6979L3.69348 28.0729C3.62372 27.8174 3.61018 27.5559 3.65442 27.2995L3.77161 26.6432L3.88098 25.987C3.91046 25.8169 3.95445 25.6496 4.01379 25.487L4.23254 24.901L4.42004 24.3698L4.38098 23.6979L4.32629 23.0026C4.30244 22.6681 4.38565 22.3318 4.57629 22.0417L4.94348 21.4792L5.31848 20.9167L5.51379 20.6745C5.72908 20.4657 6.00275 20.3375 6.28723 20.2917L7.00598 20.1823L7.48254 20.0963L7.74036 19.7292L7.76379 19.6823L7.41223 19.7057C7.13298 19.7206 6.84902 19.6703 6.58411 19.5417L5.99817 19.2604L5.42004 18.9792C5.33773 18.9392 5.25381 18.9041 5.17004 18.8698L4.57629 18.6198L3.98254 18.3776C3.87222 18.3325 3.76093 18.2907 3.65442 18.2448L3.08411 17.9948L2.51379 17.7526C2.33528 17.6757 2.1668 17.5781 2.01379 17.4635L0.951294 16.6667C0.678763 16.4627 0.484707 16.1728 0.396606 15.8385L0.224731 15.2057L0.0606689 14.5729C-0.00459963 14.3253 -0.0243864 14.0518 0.0372314 13.776L0.162231 13.2057L0.295044 12.6354C0.31494 12.5466 0.333274 12.4577 0.349731 12.3698L0.451294 11.7995L0.560669 11.2292L0.724731 10.776C0.801147 10.6422 0.89957 10.526 1.00598 10.4245L1.48254 9.97134L1.95129 9.52603L2.23254 9.32291C2.33649 9.26642 2.4538 9.22374 2.58411 9.19791C2.71758 9.17179 2.84764 9.16865 2.96692 9.18228L3.28723 9.26041L3.90442 9.49478L4.47473 9.70572L5.11536 9.67447L5.77942 9.63541L6.23254 9.66666L6.66223 9.83072L7.81848 10.4713L7.82629 10.4792L8.45911 10.5807L9.09192 10.6901C9.12213 10.6952 9.15908 10.7006 9.20129 10.6979L9.87317 10.651L10.0372 10.6354L10.0685 10.5338L9.84973 10.2213L9.44348 9.65103C9.25932 9.39157 9.15124 9.07865 9.15442 8.73697L9.17004 7.42447C9.17119 7.32351 9.16539 7.21955 9.16223 7.11978L9.14661 6.47134L9.12317 5.95572L8.75598 5.44791L8.32629 4.83853C8.20032 4.66343 8.07855 4.41344 8.07629 4.10416C8.07474 3.79117 8.19314 3.53317 8.33411 3.34634L8.76379 2.78384L9.18567 2.22134C9.26152 2.12122 9.3429 2.01494 9.42004 1.93228C9.4057 1.76869 9.4254 1.62866 9.45911 1.52603C9.53213 1.30468 9.66481 1.1655 9.70911 1.11978C9.81417 1.01164 9.93156 0.930511 9.99036 0.893219L11.0529 0.221344C11.2987 0.0653842 11.5846 -0.0158896 11.8732 0.00259399L12.17 0.0572815ZM11.6154 2.22134C11.6051 2.2925 11.6015 2.35711 11.5841 2.40884C11.5092 2.6289 11.3764 2.7776 11.3263 2.83072L11.1075 3.06509L10.881 3.29947C10.8778 3.30308 10.87 3.31541 10.8575 3.33072C10.8383 3.35447 10.8115 3.38991 10.7794 3.43228L10.3575 3.98697L10.256 4.11197L10.381 4.27603L10.8107 4.87759C10.8983 4.99935 10.9756 5.13615 11.0294 5.28384L11.1232 5.76041L11.1466 6.40884L11.1622 7.05728C11.1663 7.1862 11.1715 7.31824 11.17 7.44791L11.1622 8.10416L11.1544 8.60416L11.4825 9.06509L11.8888 9.63541C12.0681 9.88817 12.2476 10.3108 12.0919 10.7995L11.7794 11.7682C11.698 12.022 11.533 12.2472 11.295 12.401C11.0746 12.5425 10.8459 12.5926 10.6779 12.6042L10.006 12.6432L9.34192 12.6901C9.14821 12.7032 8.94925 12.6996 8.75598 12.6667L7.49036 12.4479C7.26522 12.4092 7.05425 12.3297 6.85754 12.2213L6.27161 11.901L5.78723 11.6354L5.24036 11.6745L4.56848 11.7135C4.31042 11.7292 4.05436 11.6892 3.81067 11.5963L3.19348 11.362L2.99817 11.2838L2.85754 11.4245L2.49036 11.7604L2.42004 12.1667L2.31848 12.737C2.29757 12.8487 2.27324 12.961 2.24817 13.0729L2.11536 13.6432L2.00598 14.1198L2.16223 14.6979L2.27942 15.1667L2.67786 15.4635L3.21692 15.862C3.25208 15.8881 3.27977 15.9066 3.30286 15.9167L3.87317 16.1588L4.44348 16.4088C4.53872 16.4499 4.64064 16.4852 4.74036 16.526L5.33411 16.776L5.92786 17.0182C6.05167 17.069 6.1743 17.1236 6.29504 17.1823L6.87317 17.4635L7.38098 17.7057L7.99036 17.6745L8.67786 17.6354L8.92786 17.6432C9.03098 17.6556 9.15035 17.6839 9.27161 17.737C9.50004 17.8372 9.70755 18.0252 9.82629 18.2838L9.91223 18.5651L9.97473 18.9245L10.0294 19.2838C10.1053 19.7452 9.88505 20.1145 9.78723 20.2604L9.39661 20.8385L9.00598 21.4245C8.77596 21.7655 8.43112 21.9708 8.04504 22.0338L7.32629 22.151L6.84192 22.2213L6.61536 22.5807L6.32629 23.0104L6.37317 23.5573L6.42004 24.2526C6.43762 24.499 6.41057 24.7587 6.31848 25.0104L6.10754 25.5885L5.89661 26.1745C5.88091 26.2175 5.86033 26.2696 5.84973 26.3307L5.74036 26.987L5.63098 27.5807L5.79504 28.1745L5.94348 28.737L6.33411 29.1979L6.74817 29.6901C6.77905 29.7263 6.81144 29.7511 6.83411 29.7682L7.31067 30.1276L7.68567 30.4088L8.14661 30.4479L8.74036 30.4948C8.75296 30.4958 8.77326 30.5002 8.80286 30.4948L9.42786 30.3776L9.80286 30.2995L10.0294 29.9792L10.3888 29.4479C10.4219 29.3991 10.4499 29.3453 10.4747 29.2917L10.7482 28.7135L11.0138 28.1276C11.0768 27.9912 11.1471 27.8576 11.2247 27.7292L11.5607 27.1823L11.8888 26.6354C11.9846 26.477 12.1199 26.2918 12.3107 26.1432L12.6622 25.8776L13.006 25.6042L13.4825 25.3854C13.6626 25.3503 13.8637 25.3637 14.0685 25.4401C14.2275 25.4998 14.35 25.5877 14.4435 25.6745L14.6388 25.901L15.3732 26.9792C15.4487 27.09 15.5207 27.1985 15.5841 27.3073L15.8732 27.7995L16.1544 28.2917C16.1497 28.2835 16.1466 28.2697 16.1388 28.2604L16.5529 28.5963L16.9904 28.9479C17.1128 29.0466 17.2326 29.1586 17.3419 29.276L17.8107 29.7838L18.1857 30.1823L18.7325 30.2838L18.9904 30.3307L19.2013 30.0495L19.6544 29.4245C19.8803 29.1168 20.2157 28.901 20.6232 28.8385L21.3419 28.7292L21.8341 28.651L22.1388 28.2604L22.4591 27.8307L22.4513 27.2995L22.4279 26.5963C22.4245 26.4838 22.4194 26.3729 22.4122 26.2682L22.3185 24.9401C22.3086 24.7957 22.3038 24.6483 22.3107 24.5104L22.3419 24.0104L22.3654 23.5104L22.506 23.0182C22.6374 22.7844 22.8697 22.5818 23.1857 22.5104C23.457 22.4492 23.6822 22.5086 23.795 22.5495L24.0763 22.6901L24.6232 23.0651L25.1779 23.4323C25.2153 23.4573 25.2521 23.4733 25.2872 23.487L25.8888 23.7213L26.4279 23.9245L26.9904 23.8698L27.631 23.7995C27.8365 23.7772 28.0404 23.7848 28.2404 23.8151L28.9279 23.9167L29.3341 23.9792L29.6388 23.7135L30.1544 23.2604C30.2298 23.1938 30.3019 23.1293 30.3654 23.0651L30.8185 22.6042L31.2716 22.151C31.3423 22.0795 31.4084 22.005 31.4747 21.9323L31.9044 21.4635L32.3263 20.9948C32.4289 20.8823 32.5395 20.7723 32.6544 20.6745L33.1154 20.2838L33.2872 20.1276L33.2716 19.8932L33.2169 19.2917C33.1955 19.0615 33.2171 18.835 33.2638 18.6276L33.4279 17.9167L33.4825 17.651L32.7325 17.0885C32.7124 17.0739 32.6998 17.0673 32.6935 17.0651L32.0685 16.8542L31.5763 16.6823L31.0294 16.8463L30.3575 17.0417C30.1124 17.1121 29.8456 17.1302 29.5763 17.0885L28.9435 16.9948L28.3107 16.8932C27.9758 16.841 27.6984 16.6869 27.4825 16.4948L26.9122 15.9792L26.42 15.5417L25.9357 15.487L25.295 15.4167C25.1461 15.3988 24.9959 15.3726 24.8497 15.3385L23.5997 15.0417C23.4104 14.9969 22.7777 14.8023 22.6622 14.0963L22.5997 13.737L22.545 13.3698C22.461 12.8443 22.7558 12.4704 22.8888 12.3229L23.3185 11.8463L23.7404 11.3698C23.9567 11.1299 24.2274 10.9833 24.4982 10.901L25.2169 10.6823L25.7325 10.526L25.9435 10.151L26.2638 9.58072C26.3264 9.46899 26.3868 9.35835 26.4513 9.25259L26.7794 8.72134L27.1075 8.18228C27.1582 8.09927 27.2087 8.01652 27.256 7.93228L27.5607 7.38541L27.8341 6.88541L27.8888 6.21353L27.9044 5.95572L27.67 5.83853L27.0294 5.50259C26.9297 5.45004 26.8416 5.40536 26.7638 5.36978L26.2169 5.11197L25.7638 4.90884L25.2169 4.96353L24.5685 5.03384C24.1783 5.07297 23.833 4.95035 23.5685 4.77603L22.9122 4.33853L22.8497 4.29947L22.8341 4.33072L22.3654 4.94791C22.1471 5.23621 21.8324 5.45261 21.4435 5.52603L20.7482 5.65884L20.295 5.73697L20.0919 6.08853L19.7404 6.67447C19.6799 6.77472 19.6193 6.87322 19.5607 6.97134L19.2169 7.54166L18.881 8.11197C18.863 8.14227 18.8503 8.16541 18.8419 8.18228C18.8353 8.19558 18.8348 8.20407 18.8341 8.20572L18.67 8.64322L18.5138 9.08072C18.5072 9.09909 18.4755 9.17036 18.4357 9.24478C18.4245 9.26566 18.3966 9.33193 18.3419 9.40103C18.3151 9.4348 18.2576 9.50494 18.17 9.57291C18.0946 9.63136 17.8901 9.76429 17.5919 9.77603C17.2287 9.78998 16.9496 9.61194 16.7872 9.41666C16.6541 9.25651 16.6009 9.09692 16.5841 9.03384C16.5491 8.90079 16.5527 8.79113 16.5529 8.76822C16.5536 8.66747 16.5728 8.57489 16.5763 8.55728C16.5829 8.52194 16.5916 8.4769 16.5997 8.44009L16.756 7.72134L16.881 7.15884L16.67 6.76822L16.3575 6.19009C16.258 6.00358 16.1879 5.80455 16.1466 5.59634L16.0216 4.96353L15.92 4.46353L15.5138 4.05728L15.0138 3.57291C14.8131 3.3754 14.665 3.13091 14.5763 2.86197L14.3575 2.20572H14.3497L14.3185 2.21353L13.6075 2.35416C13.3545 2.40246 13.0749 2.40363 12.795 2.32291L12.2091 2.15103L11.8888 2.05728L11.6154 2.22134ZM15.9122 12.9635C16.0031 12.9436 16.3363 12.8784 16.6779 13.0885C16.8383 13.188 16.9412 13.3146 17.0138 13.4401H17.2794C17.4089 13.4406 17.5504 13.4492 17.6935 13.4635L18.3888 13.5338L19.0919 13.6042C19.382 13.6333 19.661 13.7303 19.9044 13.901L21.0294 14.6979C21.1997 14.818 21.3378 14.9625 21.4357 15.1276L21.6232 15.6667L21.7247 16.401L21.8341 17.1276C21.8588 17.2987 21.8738 17.4814 21.8654 17.6588L21.8341 18.2057L21.8107 18.7526C21.8 18.9682 21.7483 19.1787 21.6622 19.3776L21.4435 19.8776L21.2325 20.3698C21.1323 20.6014 20.9843 20.7986 20.8107 20.9557L20.3654 21.3542L19.9279 21.7526C19.8211 21.849 19.7033 21.9395 19.5841 22.026L19.0607 22.4088L18.5294 22.7917C18.1385 23.075 17.6585 23.1174 17.2325 22.9245L16.631 22.651L16.0529 22.3854H15.4747L14.8575 22.3776C14.5538 22.3745 14.2715 22.2897 14.0294 22.1432L13.4513 21.7917L12.881 21.4401C12.7015 21.3314 12.5257 21.1727 12.4044 20.9479C12.2834 20.722 12.2485 20.4835 12.256 20.276L12.3029 18.9167C12.3056 18.8386 12.3009 18.771 12.295 18.7135L12.2325 18.1042L12.17 17.487C12.1501 17.2893 12.1565 17.093 12.1857 16.901L12.3888 15.5885L12.4669 15.2838C12.5799 14.9974 12.7867 14.7608 13.0607 14.6042L13.6466 14.2682L14.2247 13.9401C14.3148 13.8886 14.4007 13.8388 14.4747 13.7917L14.9825 13.4635L15.4904 13.1432L15.9122 12.9635ZM15.5529 15.4713C15.4483 15.538 15.3325 15.6084 15.2169 15.6745L14.6388 16.0104L14.3107 16.1823L14.2638 16.5417L14.1622 17.1979C14.1565 17.2358 14.1606 17.266 14.1622 17.2838L14.2247 17.901L14.2872 18.5104C14.3035 18.669 14.3087 18.8332 14.3029 18.9948L14.2716 19.6745L14.256 19.9401L14.4904 20.0807L14.9747 20.3776L15.4982 20.3854L16.1232 20.3932C16.2514 20.3947 16.3772 20.4046 16.4982 20.4323L16.8497 20.5573L17.4513 20.8307L17.6779 20.9323L17.881 20.7917L18.4122 20.4088C18.4784 20.3607 18.535 20.3126 18.5841 20.2682L19.0294 19.8698L19.4279 19.5026L19.6154 19.0807L19.8107 18.612L19.8341 18.112L19.8654 17.5651C19.8661 17.5507 19.8622 17.5032 19.8497 17.4167L19.7482 16.6901L19.67 16.1823L19.3185 15.9323L18.8185 15.5885L17.4904 15.4557C17.3865 15.4453 17.3158 15.4402 17.2716 15.4401H16.2872C16.2024 15.4398 16.0054 15.4294 15.795 15.3385C15.7868 15.335 15.7803 15.3269 15.7716 15.3229L15.5529 15.4713Z" fill="black"></path>
<defs>
<filter id="filter0_i_83_30" x="0" y="0" width="35.5703" height="32.496" filterUnits="userSpaceOnUse" color-interpolation-filters="sRGB">
<feFlood flood-opacity="0" result="BackgroundImageFix"></feFlood>
<feBlend mode="normal" in="SourceGraphic" in2="BackgroundImageFix" result="shape"></feBlend>
<feColorMatrix in="SourceAlpha" type="matrix" values="0 0 0 0 0 0 0 0 0 0 0 0 0 0 0 0 0 0 127 0" result="hardAlpha"></feColorMatrix>
<feOffset dx="0.5" dy="-0.5"></feOffset>
<feComposite in2="hardAlpha" operator="arithmetic" k2="-1" k3="1"></feComposite>
<feColorMatrix type="matrix" values="0 0 0 0 0 0 0 0 0 0 0 0 0 0 0 0 0 0 1 0"></feColorMatrix>
<feBlend mode="normal" in2="shape" result="effect1_innerShadow_83_30"></feBlend>
</filter>
</defs>
</svg></svg><style>@media (prefers-color-scheme: light) { :root { filter: none; } }
@media (prefers-color-scheme: dark) { :root { filter: none; } }
</style></svg>