<svg width="45" height="35" viewBox="0 0 45 35" fill="none" xmlns="http://www.w3.org/2000/svg">
<g clip-path="url(#clip0_51_89)">
<path d="M39.876 5.29102L43 15.6348L39.876 25.9775L21.1338 28.3281L19.4746 28.0557L14.4951 33.5H7.4668L10.2207 26.918V26.5361L3.95215 25.5078L2 16.1045L3.56152 5.76074L22.3047 2L39.876 5.29102Z" fill="#FFD633"/>
<path d="M21.7109 0.5C23.0506 0.331204 24.3675 0.431796 25.6484 0.804688C26.645 1.09523 27.6659 1.29005 28.6953 1.40234C29.9788 1.54272 31.2188 1.90162 32.4102 2.45703C33.2529 2.84966 34.1233 3.03665 35.0352 3.01953C36.3583 2.99472 37.6321 3.19814 38.832 3.65234C39.2355 3.80498 39.523 3.90106 39.7109 3.95703C39.7293 3.95527 39.7509 3.94642 39.7695 3.94531C40.1238 3.92519 40.4055 4.03611 40.5664 4.12109C40.8508 4.27275 41.008 4.48212 41.0469 4.53125C41.1114 4.61278 41.1622 4.68732 41.1875 4.73047C41.2756 4.88143 41.3517 5.05943 41.3984 5.17578C41.5101 5.45402 41.6521 5.87559 41.832 6.40625C42.2214 7.55492 42.5045 8.73405 42.6758 9.94531C42.8074 10.8773 43.1151 11.7575 43.5898 12.5938C44.3348 13.9053 44.56 15.3432 44.2695 16.8242C44.0313 18.0377 43.6905 19.2094 43.25 20.3398C42.8322 21.4122 42.3824 22.4743 41.9023 23.5273C41.3833 24.666 40.7609 25.657 40.0156 26.457C39.1125 27.4258 37.9015 27.9449 36.5352 28.1211C35.3563 28.2724 34.1581 28.3417 32.9609 28.332C31.9581 28.3244 30.9672 28.4433 29.9961 28.6836C28.7951 28.9803 27.5757 29.1419 26.3398 29.1641C25.3271 29.182 24.3246 29.3063 23.3398 29.5508C22.2322 29.8259 21.1856 30.0773 20.1992 30.2891C19.543 30.43 18.9036 30.7677 18.2773 31.3789C17.424 32.2129 16.5581 32.9356 15.6875 33.5352C14.697 34.2172 13.5399 34.6648 12.2539 34.9062C10.9377 35.1529 9.65261 35.1184 8.44531 34.7656C7.73813 34.558 6.90535 34.0926 6.58203 33.1133C6.28476 32.2121 6.58954 31.3464 6.92188 30.7227C7.42991 29.7699 7.89123 28.7859 8.31641 27.7812C8.33036 27.7482 8.33026 27.7143 8.33984 27.6875C8.32932 27.6837 8.31628 27.6797 8.30469 27.6758C7.35612 27.3521 6.40922 27.1451 5.46875 27.043C4.67941 26.957 3.90756 26.6623 3.3125 26.0469C2.72809 25.4412 2.45773 24.6691 2.36328 23.8906C2.2338 22.8144 2.05059 21.7378 1.83594 20.6797C1.62746 19.6535 1.35012 18.6264 0.992188 17.6094C0.516698 16.256 0.445309 14.8659 0.792969 13.4844C1.04372 12.4866 1.20056 11.4754 1.26172 10.4492C1.33547 9.20736 1.55091 8.03702 1.92969 6.96875C2.44845 5.51022 3.60498 4.60554 5.08203 4.21484C6.10445 3.94414 7.11806 3.60779 8.11719 3.20703C9.34745 2.71403 10.6346 2.46764 11.9609 2.45703C13.0411 2.44829 14.1077 2.37911 15.1602 2.24609C16.1387 2.12226 17.0988 1.86042 18.0312 1.47266C19.2096 0.982924 20.4379 0.660499 21.7109 0.5ZM22.0859 3.47656C21.0767 3.60382 20.1084 3.86377 19.1797 4.25C18.0042 4.73856 16.7838 5.06464 15.5352 5.22266C14.3643 5.37059 13.1802 5.44739 11.9844 5.45703C11.0309 5.46466 10.1137 5.64184 9.23047 5.99609C8.1175 6.44245 6.98834 6.81834 5.84375 7.12109C5.15458 7.30352 4.89779 7.60559 4.76562 7.97656C4.49442 8.74144 4.32131 9.6216 4.26172 10.625C4.18945 11.8408 3.99657 13.041 3.69922 14.2227C3.49896 15.0198 3.53319 15.8053 3.81641 16.6133C4.21981 17.7595 4.54059 18.9267 4.77734 20.0938C5.00762 21.2295 5.20097 22.3731 5.33984 23.5273C5.37739 23.8394 5.45192 23.9421 5.46875 23.9609C5.47575 23.9682 5.49998 23.9788 5.53906 23.9961C5.58249 24.0149 5.66312 24.0519 5.79688 24.0664C6.96593 24.1936 8.12934 24.448 9.27734 24.8398C10.0168 25.0927 10.7919 25.5745 11.1758 26.457C11.5548 27.3339 11.3856 28.2359 11.082 28.9531C10.6495 29.975 10.1652 30.9671 9.65234 31.9414C10.2549 32.0624 10.9238 32.0965 11.6914 31.9531C12.6436 31.7747 13.4008 31.4671 13.9883 31.0625C14.6962 30.5748 15.4292 29.9678 16.1797 29.2344C17.1566 28.2802 18.2861 27.6225 19.5664 27.3477C20.517 27.1436 21.5333 26.9127 22.6133 26.6445C23.8169 26.3456 25.0425 26.1862 26.2812 26.1641C27.2949 26.1461 28.2956 26.0095 29.2812 25.7656C30.4977 25.4648 31.7414 25.3219 32.9961 25.332C34.0568 25.3403 35.1073 25.2781 36.1484 25.1445C36.999 25.0354 37.5068 24.7574 37.8242 24.418C38.3005 23.9067 38.7534 23.2032 39.1719 22.2852C39.6291 21.2822 40.0633 20.2704 40.4609 19.25C40.8352 18.289 41.1234 17.282 41.3281 16.2383C41.4794 15.4619 41.3648 14.7661 40.9766 14.082C40.3174 12.9216 39.8962 11.6787 39.7109 10.3672C39.5655 9.33746 39.3252 8.33818 38.9961 7.36719C38.9221 7.14899 38.8415 6.96383 38.7852 6.80469C38.4957 6.71563 38.1482 6.60959 37.7656 6.46484C36.9436 6.1537 36.0565 6.00175 35.0938 6.01953C33.7203 6.04532 32.3963 5.75884 31.1445 5.17578C30.2413 4.75468 29.3155 4.4942 28.3672 4.39062C27.1647 4.25945 25.9795 4.02632 24.8164 3.6875C23.9375 3.43127 23.0292 3.35772 22.0859 3.47656ZM40.4492 6.81641C40.5018 6.79347 40.5417 6.75053 40.5898 6.72266C40.5383 6.75456 40.4979 6.79293 40.4492 6.81641ZM41.1875 6.08984C41.2744 5.90825 41.3106 5.76974 41.3164 5.73828C41.2915 5.87066 41.2365 5.98234 41.1875 6.08984Z" fill="black"/>
<path d="M22.6953 17.9854L29.7236 18.9258L35.1904 17.9854V18.9258L29.7236 19.8652L22.6953 18.9258L16.4473 17.9854L10.2002 18.9258V17.9854L16.4473 17.0449L22.6953 17.9854ZM22.6953 11.4033L28.9424 11.873L35.1904 11.4033V12.3438L28.9424 12.8135L22.6953 12.3438L16.8379 11.873L10.2002 12.3438V11.4033L16.8379 10.9326L22.6953 11.4033Z" fill="black"/>
<path d="M17.1416 16.5693C17.6526 16.4912 18.1537 16.534 18.6338 16.7061C19.0089 16.8406 19.3874 16.9469 19.7705 17.0186C20.1451 17.0886 20.5268 17.1149 20.915 17.1045C21.4102 17.0912 21.8823 17.1859 22.3252 17.3857C22.4711 17.4517 22.5825 17.4937 22.6572 17.5225C22.7228 17.5124 22.7917 17.5108 22.8486 17.5107C22.976 17.5107 23.1498 17.5238 23.3604 17.542C23.8263 17.5822 24.2843 17.689 24.7275 17.8662C25.0393 17.9907 25.3596 18.0263 25.7002 17.9678C26.1958 17.8827 26.6844 17.8997 27.1611 18.0186C27.564 18.119 27.968 18.2126 28.3721 18.3037C28.7472 18.3883 29.1301 18.4348 29.5205 18.4443C29.8741 18.4529 30.2165 18.393 30.5479 18.2568C30.9994 18.0713 31.4698 17.9728 31.9541 17.9639C32.3885 17.9559 32.8268 17.9642 33.2666 17.9912C33.6248 18.0131 33.9665 17.9608 34.2979 17.8389C34.4175 17.7948 34.5412 17.762 34.6611 17.7451C34.7774 17.7288 34.9234 17.7266 35.0713 17.7764C35.235 17.8316 35.3776 17.9428 35.4619 18.1084C35.5381 18.2585 35.5478 18.4139 35.54 18.5342C35.5213 18.8195 35.3847 19.0718 35.1338 19.2334C34.9118 19.3761 34.6435 19.4201 34.3916 19.4248C34.0468 19.4312 33.7129 19.5129 33.3877 19.6748C32.9403 19.8974 32.4697 20.0251 31.9814 20.0537C31.5965 20.0764 31.2165 20.1394 30.8447 20.2373C30.3865 20.3577 29.918 20.3997 29.4424 20.3623C29.041 20.3307 28.6379 20.3224 28.2354 20.3389C27.7848 20.3573 27.3372 20.3375 26.8955 20.2803C26.4811 20.2266 26.0671 20.1705 25.6533 20.1123C25.179 20.0456 24.7189 19.8902 24.2783 19.6553C23.9412 19.4757 23.6019 19.3746 23.2588 19.3428C22.8094 19.3012 22.3659 19.2121 21.9307 19.0771C21.5956 18.9732 21.249 18.94 20.8877 18.9795C20.3972 19.0334 19.9139 18.9978 19.4463 18.8662C19.0919 18.7666 18.729 18.7214 18.3564 18.7334C17.9 18.748 17.4491 18.7175 17.0049 18.6396C16.5972 18.5681 16.1786 18.4959 15.7549 18.4287C15.455 18.3816 15.1717 18.4409 14.8838 18.6201C14.4072 18.9171 13.885 19.038 13.3369 18.9717C13.0137 18.9324 12.7078 18.9923 12.4072 19.1553C11.9525 19.4021 11.4685 19.5362 10.9658 19.5498C10.7127 19.5564 10.4147 19.5172 10.1807 19.3271C9.91315 19.1097 9.85163 18.7977 9.87988 18.5264C9.93858 17.97 10.3153 17.5932 10.8096 17.3662C11.2474 17.1653 11.6999 17.0352 12.165 16.9756C12.5554 16.9256 12.9426 16.8494 13.3252 16.7451C13.7999 16.6158 14.2888 16.5873 14.7861 16.6631C15.1813 16.7233 15.5597 16.7387 15.9229 16.71C16.3144 16.6789 16.7219 16.6335 17.1416 16.5693ZM25.8682 18.9521C25.6535 18.989 25.4415 18.9948 25.2314 18.9834C25.4168 19.0476 25.6025 19.0936 25.79 19.1201C26.2008 19.1779 26.6131 19.2348 27.0244 19.2881C27.4087 19.3379 27.7981 19.3549 28.1924 19.3389C28.283 19.3352 28.3752 19.3364 28.4658 19.335C28.3617 19.3166 28.2566 19.3035 28.1533 19.2803C27.7415 19.1875 27.3294 19.0897 26.9189 18.9873C26.5823 18.9034 26.2329 18.8895 25.8682 18.9521ZM31.9697 18.9639C31.6116 18.9706 31.2646 19.0399 30.9268 19.1787C30.8859 19.1955 30.8429 19.2065 30.8018 19.2217C31.1705 19.1369 31.5436 19.0799 31.9229 19.0576C32.0917 19.0477 32.2585 19.015 32.4229 18.9717C32.2717 18.97 32.1201 18.9611 31.9697 18.9639ZM13.5869 17.71C13.1608 17.826 12.7296 17.9119 12.2939 17.9678C11.9331 18.014 11.5772 18.1159 11.2275 18.2764C11.0208 18.3713 10.9434 18.4675 10.9072 18.5459C10.9176 18.546 10.9305 18.5501 10.9424 18.5498C11.2783 18.5404 11.6069 18.4521 11.9307 18.2764C12.4088 18.0171 12.9233 17.9145 13.458 17.9795C13.7674 18.0168 14.0594 17.9512 14.3525 17.7686C14.4284 17.7213 14.5089 17.6855 14.5869 17.6475C14.2391 17.6005 13.9071 17.6227 13.5869 17.71ZM23.1221 18.2764C23.1476 18.2303 23.1711 18.1759 23.1807 18.1123C23.1719 18.1708 23.1494 18.2255 23.1221 18.2764ZM17.2939 17.5576C17.1593 17.5782 17.024 17.5832 16.8916 17.6006C16.9871 17.617 17.082 17.6348 17.1768 17.6514C17.5529 17.7173 17.9355 17.746 18.3252 17.7334C18.4194 17.7304 18.5129 17.7425 18.6064 17.7451C18.5038 17.7126 18.3998 17.684 18.2979 17.6475C17.9785 17.5329 17.6454 17.5039 17.2939 17.5576ZM13.6846 10.4951C14.2028 10.3353 14.7318 10.3524 15.2549 10.5381C15.6008 10.661 15.9222 10.6798 16.2314 10.6084C16.7347 10.492 17.2384 10.5243 17.7314 10.6943C18.0259 10.796 18.3309 10.7962 18.6611 10.6826C19.2196 10.49 19.7784 10.5276 20.3018 10.7998C20.6453 10.9787 20.9859 11.0764 21.3252 11.0967C21.7256 11.1203 22.0263 11.1132 22.2354 11.085C22.3022 11.0759 22.3518 11.0608 22.3877 11.0537C22.4429 11.01 22.5016 10.9891 22.5322 10.9756C22.598 10.9468 22.6701 10.9246 22.7314 10.9092C22.861 10.8767 23.0399 10.8447 23.2549 10.8115C23.7654 10.7331 24.2692 10.7909 24.7549 10.9795C25.1236 11.1225 25.4935 11.2148 25.8643 11.2607C26.2626 11.3101 26.6623 11.3428 27.0635 11.3545C27.5058 11.3674 27.9468 11.4112 28.3838 11.4912C28.6842 11.5461 28.992 11.508 29.3213 11.3545C29.7788 11.1412 30.245 11.0021 30.7158 10.9443C31.2069 10.8843 31.7011 10.9386 32.1924 11.0967C32.503 11.1965 32.7905 11.1784 33.0791 11.0459C33.5679 10.8217 34.0796 10.7465 34.6025 10.8271C34.8839 10.8706 35.181 10.9847 35.376 11.249C35.5739 11.5181 35.5929 11.8384 35.54 12.1201C35.4866 12.4045 35.3524 12.6898 35.083 12.874C34.8177 13.0546 34.5074 13.0774 34.2236 13.0342C33.8032 12.9699 33.3819 12.909 32.9619 12.8506C32.5726 12.7964 32.1867 12.7825 31.8057 12.8076C31.3987 12.8345 30.9925 12.8711 30.5869 12.917C30.2141 12.9592 29.8357 13.0485 29.458 13.1865C28.9335 13.3778 28.3994 13.3748 27.8799 13.1748C27.5849 13.0611 27.2852 13.0503 26.9619 13.1553C26.4434 13.3238 25.9223 13.338 25.4111 13.1865C25.0348 13.0749 24.6544 13.0063 24.2744 12.9756C23.8963 12.9451 23.5133 12.954 23.126 13.0068C22.6632 13.0699 22.2034 13.0753 21.7471 13.0225C21.3044 12.9711 20.8654 12.8804 20.4307 12.7529C20.1013 12.6563 19.7659 12.6447 19.4189 12.7139C18.8868 12.82 18.3645 12.751 17.8682 12.5186C17.5076 12.3495 17.1371 12.2376 16.7588 12.1787C16.4503 12.1308 16.1475 12.184 15.8369 12.3584C15.3167 12.6509 14.7565 12.7107 14.1924 12.5264C13.8647 12.4192 13.558 12.4251 13.2588 12.5303C12.8119 12.6872 12.3557 12.7844 11.8955 12.8193C11.4375 12.8539 10.9968 12.8246 10.5752 12.7334C10.3364 12.6817 10.016 12.5548 9.87598 12.2217C9.74026 11.8967 9.86116 11.5774 9.98145 11.3662C10.1199 11.1232 10.3125 10.9215 10.5635 10.792C10.8121 10.6641 11.0886 10.6231 11.3682 10.6396C11.7754 10.6637 12.182 10.6717 12.5869 10.667C12.9549 10.6626 13.3207 10.6073 13.6846 10.4951ZM25.8564 12.2646C25.9301 12.2783 26.004 12.2817 26.0791 12.2842C26.005 12.2768 25.9305 12.2732 25.8564 12.2646ZM23.4072 11.7998C23.2033 11.8312 23.0615 11.8533 22.9775 11.874C22.9503 11.8956 22.9344 11.9178 22.9229 11.9248C22.8525 11.9672 22.7792 11.9927 22.7314 12.0068C22.6631 12.0269 22.5823 12.0356 22.4971 12.0498C22.6608 12.0452 22.8273 12.0412 22.9932 12.0186C23.4503 11.9563 23.9047 11.943 24.3564 11.9795C24.5017 11.9912 24.6457 12.0126 24.79 12.0342C24.658 11.9934 24.5224 11.96 24.3916 11.9092C24.0665 11.783 23.7409 11.7486 23.4072 11.7998ZM34.4502 11.8154C34.1536 11.7697 33.8642 11.8049 33.5713 11.9248C33.8382 11.9633 34.105 12.005 34.3721 12.0459C34.4648 12.0601 34.5082 12.0499 34.5205 12.0459C34.5285 12.0333 34.5433 12.0019 34.5557 11.9365C34.565 11.887 34.5608 11.8551 34.5596 11.8389C34.5401 11.8309 34.5048 11.8239 34.4502 11.8154ZM11.3057 11.6357C11.1672 11.6278 11.0784 11.6528 11.0205 11.6826C10.9846 11.7012 10.9478 11.7291 10.9111 11.7725C11.1952 11.8222 11.4969 11.8439 11.8213 11.8193C12.1005 11.7982 12.3757 11.7377 12.6533 11.6592C12.635 11.6596 12.6169 11.6668 12.5986 11.667C12.1694 11.672 11.7369 11.6613 11.3057 11.6357ZM19.8096 11.6709C19.542 11.5404 19.2785 11.5284 18.9893 11.6279C18.8664 11.6703 18.7413 11.6983 18.6182 11.7217C18.8179 11.7669 19.0183 11.7744 19.2236 11.7334C19.4198 11.6943 19.6151 11.6731 19.8096 11.6709ZM23.0986 11.7451L23.1064 11.7412C23.1092 11.7372 23.1076 11.7299 23.1104 11.7256C23.1063 11.7323 23.1028 11.7388 23.0986 11.7451ZM14.9189 11.4834C14.5853 11.365 14.2766 11.356 13.9775 11.4482C13.9546 11.4553 13.9302 11.4571 13.9072 11.4639C14.1048 11.4796 14.3033 11.5126 14.501 11.5771C14.7358 11.6539 14.9554 11.6449 15.1807 11.5576C15.094 11.5352 15.0053 11.5141 14.9189 11.4834Z" fill="black"/>
</g>
<defs>
<clipPath id="clip0_51_89">
<rect width="45" height="35" fill="white"/>
</clipPath>
</defs>
</svg>
