<svg width="132" height="118" viewBox="0 0 132 118" fill="none" xmlns="http://www.w3.org/2000/svg">
<g clip-path="url(#clip0_47_70)">
<path d="M110 47.861C117.5 77.361 88.5 90.361 67.5 90.361C44.0279 90.361 25 71.3331 25 47.861C25 24.3889 42.5 1.86101 67.5 5.36101C90.9721 5.36101 113 25.361 110 47.861Z" fill="#FFD633"/>
<path d="M68.3281 2.59375C70.3151 2.80496 72.2789 3.19813 74.2188 3.76562C75.9873 4.28335 77.7724 4.71765 79.5625 5.0625C81.7072 5.4755 83.6852 6.33293 85.4688 7.625C86.7728 8.56995 88.2503 9.21284 89.9219 9.53125C92.205 9.96666 94.2342 10.9226 95.9531 12.4219C97.3692 13.6569 98.8131 14.8648 100.297 16.0312C102.132 17.474 103.417 19.3618 104.156 21.625C104.679 23.2218 105.528 24.5515 106.688 25.6562C108.32 27.2103 109.524 29.0554 110.266 31.1562C110.895 32.9381 111.552 34.7346 112.234 36.5469C113.041 38.6896 113.278 40.919 112.953 43.1875C112.678 45.1083 112.424 46.5397 112.203 47.3594C112.201 47.3676 112.206 47.3839 112.203 47.4062C112.197 47.4459 112.192 47.5036 112.188 47.5781C112.178 47.7279 112.174 47.9282 112.188 48.1875C112.215 48.7156 112.303 49.4173 112.453 50.2969C112.78 52.2102 113.008 54.15 113.156 56.0938C113.322 58.2711 113.005 60.3975 112.219 62.4375C111.627 63.9745 111.313 65.6272 111.266 67.4062C111.197 70.0045 110.087 72.1756 108.031 73.7656C106.738 74.7662 105.785 76.0319 105.156 77.5938C104.141 80.1178 102.189 81.7232 99.5156 82.2812C97.7102 82.6581 96.195 83.3013 94.9375 84.1875C93.3214 85.3261 91.5977 86.2942 89.7812 87.0938C88.0648 87.8492 86.3217 88.5788 84.5625 89.2812C82.5826 90.0711 80.506 90.4649 78.3594 90.4531C76.5694 90.4437 74.8096 90.5677 73.0938 90.8281C71.4182 91.083 69.6904 91.5338 67.9219 92.1875C65.6587 93.0228 63.3562 93.1445 61.0781 92.5C59.0775 91.9335 57.1697 91.1426 55.3594 90.1406C53.7159 89.2309 52.0806 88.3827 50.4688 87.6094C49.0309 86.9205 47.406 86.4382 45.5781 86.1875C43.227 85.8657 41.1181 84.9969 39.3125 83.5625C37.7486 82.3201 36.2527 80.9977 34.8281 79.5938C33.3461 78.1331 32.0465 76.5246 30.9375 74.7656C29.8439 73.0302 28.9162 71.2099 28.1719 69.3125C27.5178 67.6445 26.7199 66.0297 25.7656 64.4844C24.6561 62.6874 23.7979 60.7758 23.2031 58.75C22.612 56.7361 22.2818 54.6753 22.2031 52.5781C22.1276 50.5618 22.1795 48.5551 22.3594 46.5625C22.5469 44.4862 22.991 42.4628 23.7031 40.5C24.3271 38.7817 24.8342 37.0546 25.2031 35.3281C25.5931 33.5017 25.9908 31.6474 26.4062 29.7812C26.8512 27.7832 27.5014 25.8493 28.3594 23.9844C29.3189 21.8988 30.8035 20.1993 32.75 18.8906C34.1449 17.9533 35.2019 16.7796 35.9531 15.375C36.9972 13.4233 38.3957 11.7755 40.1406 10.4531C41.8572 9.1523 43.7691 8.21987 45.8594 7.65625C47.5431 7.20298 49.1273 6.54664 50.6094 5.70312C52.5369 4.60566 54.6292 4.03912 56.8438 4.01562C58.5182 3.99786 60.2026 3.73312 61.9062 3.21875C64.0284 2.57738 66.1814 2.36575 68.3281 2.59375ZM67.9062 6.57812C66.3164 6.40927 64.7087 6.5552 63.0781 7.04688C61.0294 7.66603 58.9605 7.99323 56.8906 8.01562C55.3577 8.03189 53.9325 8.42527 52.5938 9.1875C50.8112 10.2021 48.9124 10.9755 46.9062 11.5156C45.3085 11.9457 43.8655 12.6539 42.5625 13.6406C41.2856 14.6083 40.2616 15.8124 39.4844 17.2656C38.4146 19.2656 36.9017 20.9142 34.9844 22.2031C33.6192 23.1204 32.6391 24.2678 32 25.6562C31.2594 27.2659 30.6959 28.9343 30.3125 30.6562C29.8998 32.5099 29.4966 34.3428 29.1094 36.1562C28.7008 38.0696 28.1542 39.9719 27.4688 41.8594C26.8727 43.5008 26.5004 45.1873 26.3438 46.9219C26.1795 48.7419 26.1342 50.5755 26.2031 52.4219C26.2693 54.1886 26.5489 55.9283 27.0469 57.625C27.541 59.307 28.2502 60.8982 29.1719 62.3906C30.249 64.1356 31.1646 65.9523 31.9062 67.8438C32.5575 69.5046 33.3526 71.1012 34.3125 72.625C35.2583 74.1258 36.3757 75.5034 37.6406 76.75C38.963 78.0529 40.3458 79.2848 41.7969 80.4375C43.0073 81.3991 44.4295 82.0039 46.1094 82.2344C48.3087 82.5353 50.3472 83.1252 52.2031 84.0156C53.8878 84.8239 55.5891 85.6953 57.2969 86.6406C58.8373 87.4932 60.4642 88.1571 62.1719 88.6406C63.5995 89.0442 65.0396 88.9947 66.5469 88.4375C68.5482 87.698 70.5324 87.1737 72.5 86.875C74.4293 86.5822 76.3957 86.4422 78.3906 86.4531C80.0268 86.4618 81.583 86.1588 83.0781 85.5625C84.7947 84.8771 86.4983 84.1741 88.1719 83.4375C89.7472 82.744 91.2421 81.8918 92.6406 80.9062C94.3969 79.6703 96.4352 78.8327 98.7031 78.3594C100.101 78.0661 100.952 77.3535 101.453 76.1094C102.342 73.8998 103.727 72.0531 105.594 70.6094C106.697 69.7551 107.229 68.6942 107.266 67.2969C107.325 65.0857 107.734 62.9723 108.5 60.9844C109.071 59.4991 109.293 57.9728 109.172 56.3906C109.033 54.5704 108.806 52.7588 108.5 50.9688C108.335 50.0033 108.226 49.1436 108.188 48.4062C108.151 47.7004 108.17 46.9586 108.344 46.3125C108.493 45.76 108.721 44.5576 109 42.6094C109.229 41.0081 109.053 39.4628 108.484 37.9531C107.793 36.1152 107.123 34.2934 106.484 32.4844C105.958 30.9933 105.119 29.6896 103.938 28.5625C102.282 26.9859 101.081 25.0686 100.359 22.8594C99.8541 21.3148 99.0139 20.1041 97.8281 19.1719C96.2907 17.9632 94.7804 16.7178 93.3125 15.4375C92.1488 14.4241 90.7839 13.7602 89.1719 13.4531C86.9447 13.0289 84.9222 12.1617 83.125 10.8594C81.8083 9.90559 80.3743 9.28525 78.8125 8.98438C76.896 8.61532 74.9835 8.16258 73.0938 7.60938C71.3802 7.10812 69.6521 6.7638 67.9062 6.57812Z" fill="black"/>
<path d="M78.5 35.25L88.5 46L73 47.3066V74H61V48.3184L47 49.5L57.5957 35.25L70 19L78.5 35.25Z" fill="black"/>
<path d="M72.1953 64.0938C72.1935 63.4023 72.0256 62.6798 71.6445 61.9141C70.9936 60.6068 70.9007 59.2198 71.4219 57.8594C71.7385 57.0337 71.927 56.221 71.9961 55.4219C72.0727 54.5289 72.1029 53.6307 72.0781 52.7383C72.0526 51.8213 71.9987 50.9017 71.9141 49.9844C71.8001 48.7505 72.0362 47.5677 72.7812 46.5859C73.2246 46.002 73.8352 45.5984 74.5742 45.4492C75.2756 45.3083 75.9801 45.4215 76.625 45.6367C77.4429 45.9097 78.224 46.0051 78.9688 45.9648C79.6599 45.927 80.3634 45.7245 81.0898 45.3086C82.0124 44.7805 82.9755 44.4265 83.9727 44.2539C83.8846 44.1626 83.7757 44.0913 83.6914 43.9961C83.0223 43.2399 82.3958 42.4427 81.8164 41.6055C81.2528 40.7909 80.7057 39.9532 80.1875 39.0977C79.7717 38.4119 79.2594 37.8158 78.6523 37.3164C78.3892 37.1002 78.1962 36.98 78.0781 36.9062C78.0396 36.9051 78.0003 36.922 77.9609 36.918C77.6182 36.883 77.3435 36.7519 77.1523 36.6133C76.8113 36.3652 76.6299 36.0352 76.543 35.8633C76.3516 35.4844 76.2171 34.9981 76.1094 34.5156C75.9455 33.7797 75.6429 33.0933 75.207 32.4648C74.6318 31.6351 74.1038 30.78 73.625 29.8984C73.1665 29.054 72.7175 28.1978 72.2773 27.3438C71.8428 26.5005 71.4079 25.6574 70.9766 24.8125C70.4893 23.8579 70.1161 22.842 69.8633 21.7773C69.8521 21.7301 69.8275 21.686 69.8164 21.6484C69.6796 21.7311 69.5031 21.8924 69.2773 22.1758C68.7728 22.8106 68.3455 23.5161 68.0117 24.2969C67.5913 25.2812 67.0955 26.2161 66.5117 27.0859C65.9309 27.9511 65.2716 28.7612 64.543 29.5117C63.9483 30.1243 63.416 30.786 62.9609 31.5039C62.3729 32.4311 61.6612 33.2684 60.8281 34C60.2184 34.5362 59.7097 35.146 59.3047 35.8281C58.7982 36.6808 58.2674 37.5164 57.6992 38.3242C57.0468 39.2517 56.2298 40.0472 55.2734 40.7148C54.6424 41.1556 54.1724 41.6907 53.8438 42.3203C53.4208 43.1309 53.0304 43.9669 52.6719 44.8281C52.199 45.9647 51.4761 46.9392 50.5156 47.7109C50.2801 47.9002 50.0809 48.0897 49.9062 48.2734C50.3957 48.2744 50.8801 48.2543 51.3594 48.1562C52.3387 47.9554 53.3251 47.7905 54.3125 47.6758C55.3045 47.5605 56.3008 47.4951 57.3008 47.4766C58.2477 47.459 59.0611 47.4409 59.7383 47.418L60.2773 47.4531C60.8155 47.5405 61.3253 47.788 61.7305 48.2266C62.2156 48.7526 62.4408 49.4249 62.5508 50.043C62.7616 51.2288 62.6863 52.4148 62.3398 53.582C62.116 54.3363 62.0543 55.0754 62.1523 55.8086C62.2851 56.8024 62.3792 57.802 62.4219 58.7969C62.4607 59.697 62.5428 60.6026 62.668 61.5039C62.8309 62.6824 62.718 63.855 62.3516 65.0078C62.1002 65.7981 62.0024 66.5743 62.0352 67.3398C62.0753 68.2731 62.1295 69.2073 62.1992 70.1406C62.2634 70.9997 62.4043 71.8432 62.6211 72.6602C62.6504 72.7693 62.6821 72.8361 62.7031 72.8711C62.7205 72.8995 62.732 72.9126 62.7383 72.918C62.7395 72.919 62.8063 72.9736 63.043 72.9883C63.8326 73.0359 64.63 72.9599 65.4336 72.7539C66.4391 72.4962 67.4475 72.3023 68.457 72.168C69.4907 72.0305 70.5267 71.9763 71.5625 72.0156C71.6393 71.2231 71.7734 70.3743 71.9727 69.4727C72.1579 68.6347 72.2448 67.7945 72.2305 66.9648C72.214 66.0089 72.197 65.0497 72.1953 64.0938ZM75.1719 48.3906V48.4023C74.9788 48.6576 74.8302 49.0414 74.8906 49.7031C74.9813 50.685 75.0508 51.674 75.0781 52.6562C75.1059 53.6604 75.0703 54.6644 74.9844 55.668C74.8902 56.7653 74.6327 57.855 74.2227 58.9258C74.016 59.4649 74.0332 59.9859 74.3281 60.5781C74.8915 61.71 75.1932 62.8873 75.1953 64.0938C75.197 65.0351 75.2025 65.9766 75.2188 66.918C75.2372 67.9877 75.1368 69.0558 74.9023 70.1172C74.7039 71.015 74.572 71.8171 74.5156 72.5195C74.4582 73.2265 74.1697 73.9701 73.4844 74.4766C72.8497 74.9431 72.0931 75.0402 71.4453 75.0156C70.5828 74.983 69.72 75.0297 68.8555 75.1445C67.9677 75.2626 67.0754 75.4318 66.1836 75.6602C65.0879 75.9411 63.9768 76.055 62.8672 75.9883C62.1563 75.9454 61.4458 75.7315 60.8516 75.25C60.2558 74.7672 59.8981 74.1123 59.7148 73.4219C59.4507 72.4253 59.2886 71.4023 59.2109 70.3633C59.1389 69.3987 59.0766 68.4334 59.0352 67.4688C58.9866 66.3368 59.1407 65.2128 59.4922 64.1055C59.729 63.3608 59.791 62.6329 59.6914 61.9141C59.553 60.9174 59.4647 59.912 59.4219 58.9141C59.383 58.0124 59.3081 57.1097 59.1875 56.207C59.0315 55.0402 59.1287 53.8723 59.4688 52.7266C59.6852 51.9959 59.7239 51.2824 59.5977 50.5703C59.5871 50.5107 59.5618 50.4608 59.5508 50.418C58.9175 50.4377 58.1869 50.4612 57.3594 50.4766C56.458 50.4933 55.5578 50.5487 54.6641 50.6523C53.7648 50.7569 52.8622 50.9028 51.9688 51.0859C50.8695 51.3114 49.7517 51.3549 48.6289 51.2148C48.0695 51.1449 47.2015 50.9536 46.6602 50.2305C46.0041 49.3536 46.2729 48.3865 46.5547 47.8281L46.9531 47.1484C47.3937 46.4946 47.9625 45.903 48.6289 45.3672C49.1988 44.9093 49.615 44.3512 49.8945 43.6797C50.2871 42.7362 50.718 41.8178 51.1836 40.9258C51.745 39.8504 52.5521 38.9593 53.5625 38.2539C54.2467 37.7757 54.7981 37.2157 55.2383 36.5898C55.7621 35.8449 56.2591 35.0801 56.7266 34.293C57.2955 33.3348 58.0034 32.4799 58.8477 31.7383C59.4697 31.192 59.997 30.5807 60.4297 29.8984C60.9955 29.0058 61.6488 28.1741 62.3867 27.4141C62.9904 26.7921 63.5358 26.1249 64.0156 25.4102C64.4915 24.701 64.909 23.9414 65.2578 23.125C65.6934 22.1051 66.2454 21.1641 66.9219 20.3125C67.6619 19.3813 68.6456 18.649 69.8867 18.5664L70.4375 18.5781C70.9775 18.653 71.4817 18.8997 71.8906 19.3164C72.3802 19.8155 72.6362 20.4649 72.7812 21.0742C72.9805 21.915 73.2728 22.7054 73.6484 23.4414C74.0788 24.2845 74.5039 25.1312 74.9375 25.9727C75.3678 26.8075 75.8135 27.6433 76.2617 28.4688C76.6873 29.2523 77.1555 30.0144 77.668 30.7539C78.3233 31.6989 78.79 32.7412 79.0391 33.8594C79.0561 33.936 79.07 34.0065 79.0859 34.0703C79.1997 34.1156 79.3131 34.1404 79.4023 34.1875C79.7724 34.3831 80.1651 34.6809 80.5625 35.0078C81.433 35.7241 82.1654 36.5689 82.7539 37.5391C83.2403 38.342 83.7495 39.1315 84.2773 39.8945C84.7887 40.6336 85.3415 41.3388 85.9297 42.0039C86.4307 42.5701 87.0522 43.0469 87.793 43.4336C88.0452 43.5653 88.2949 43.7188 88.5078 43.8789C88.6136 43.9585 88.745 44.0737 88.8711 44.2188C88.9818 44.3462 89.1922 44.6148 89.2695 45.0156C89.3647 45.5134 89.2254 46.0198 88.8945 46.3867C88.6276 46.6823 88.3138 46.8022 88.1562 46.8555C87.8347 46.964 87.4972 46.9917 87.2656 46.9961C86.5183 47.0097 85.6876 47.0588 84.7812 47.1602C84.0609 47.2409 83.3277 47.481 82.5781 47.9102C81.4884 48.5339 80.3367 48.8989 79.1328 48.9648C77.9794 49.0272 76.8198 48.8545 75.6758 48.4727C75.356 48.3662 75.2053 48.3851 75.1719 48.3906Z" fill="black"/>
<path d="M5.4023 111.035C5.3923 110.925 5.3873 110.805 5.3873 110.675C5.3873 110.545 5.3873 110.395 5.3873 110.225C5.3873 109.795 5.3973 109.285 5.4173 108.695C5.4373 108.095 5.4673 107.46 5.5073 106.79C5.5473 106.11 5.5873 105.43 5.6273 104.75C5.6673 104.06 5.7073 103.4 5.7473 102.77C5.7973 102.14 5.8423 101.575 5.8823 101.075C5.6623 101.145 5.4673 101.21 5.2973 101.27L4.9073 98.75C6.0373 98.43 7.0873 98.19 8.0573 98.03C9.03731 97.87 9.92231 97.79 10.7123 97.79C12.3223 97.79 13.5523 98.095 14.4023 98.705C15.2523 99.315 15.6773 100.2 15.6773 101.36C15.6773 102.02 15.5323 102.575 15.2423 103.025C14.9523 103.465 14.5423 103.83 14.0123 104.12C15.3123 104.78 15.9623 105.855 15.9623 107.345C15.9623 108.005 15.8373 108.56 15.5873 109.01C15.3473 109.45 15.0373 109.805 14.6573 110.075C14.2773 110.345 13.8723 110.545 13.4423 110.675C13.0223 110.815 12.6223 110.905 12.2423 110.945C11.8723 110.995 11.5823 111.02 11.3723 111.02C10.8523 111.02 10.2973 110.97 9.70731 110.87C9.1173 110.77 8.5423 110.62 7.9823 110.42C7.9823 110.62 7.9823 110.81 7.9823 110.99L5.4023 111.035ZM10.7723 100.295C10.4123 100.295 10.0323 100.315 9.63231 100.355C9.24231 100.385 8.85231 100.435 8.46231 100.505C8.4023 101.235 8.3423 102.085 8.28231 103.055C8.4123 103.065 8.5423 103.07 8.6723 103.07C8.8123 103.07 8.9523 103.07 9.0923 103.07C11.7323 103.07 13.0523 102.53 13.0523 101.45C13.0523 101.09 12.8473 100.81 12.4373 100.61C12.0373 100.4 11.4823 100.295 10.7723 100.295ZM9.4373 105.44C9.2273 105.44 9.0123 105.44 8.7923 105.44C8.5823 105.44 8.3673 105.445 8.14731 105.455C8.12731 105.895 8.1073 106.335 8.0873 106.775C8.0773 107.215 8.0623 107.65 8.04231 108.08C8.6023 108.25 9.1523 108.375 9.6923 108.455C10.2323 108.525 10.6973 108.56 11.0873 108.56C11.9173 108.56 12.5123 108.46 12.8723 108.26C13.2323 108.05 13.4123 107.71 13.4123 107.24C13.4123 106.66 13.0673 106.215 12.3773 105.905C11.6973 105.595 10.7173 105.44 9.4373 105.44ZM19.4724 111.065L16.9074 110.585C17.3874 108.645 17.8874 106.89 18.4074 105.32C18.9374 103.75 19.4824 102.405 20.0424 101.285C20.6024 100.165 21.1724 99.305 21.7524 98.705C22.3424 98.095 22.9324 97.79 23.5224 97.79C24.7124 97.79 25.8074 98.895 26.8074 101.105C27.8074 103.305 28.6574 106.495 29.3574 110.675L26.7024 111.035C26.5824 110.375 26.4524 109.7 26.3124 109.01C26.1724 108.31 26.0274 107.63 25.8774 106.97C25.6374 106.96 25.3774 106.955 25.0974 106.955C24.6074 106.955 24.0874 106.965 23.5374 106.985C22.9974 107.005 22.4624 107.04 21.9324 107.09C21.4124 107.13 20.9274 107.175 20.4774 107.225C20.2874 107.865 20.1024 108.515 19.9224 109.175C19.7524 109.825 19.6024 110.455 19.4724 111.065ZM22.2324 102.305C22.0124 102.775 21.7174 103.535 21.3474 104.585C21.7774 104.535 22.2324 104.5 22.7124 104.48C23.1924 104.45 23.6624 104.435 24.1224 104.435C24.5124 104.435 24.8874 104.445 25.2474 104.465C25.1074 103.955 24.9724 103.5 24.8424 103.1C24.7224 102.7 24.6124 102.385 24.5124 102.155C24.3024 101.615 24.1174 101.235 23.9574 101.015C23.7974 100.785 23.6324 100.67 23.4624 100.67C23.2824 100.67 23.1024 100.79 22.9224 101.03C22.7424 101.26 22.5124 101.685 22.2324 102.305ZM36.2599 111.2C35.0399 111.2 33.9799 110.93 33.0799 110.39C32.1799 109.86 31.4849 109.11 30.9949 108.14C30.5049 107.17 30.2599 106.025 30.2599 104.705C30.2599 104.205 30.3199 103.65 30.4399 103.04C30.5699 102.42 30.7749 101.805 31.0549 101.195C31.3349 100.575 31.7099 100.01 32.1799 99.5C32.6499 98.99 33.2249 98.58 33.9049 98.27C34.5849 97.95 35.3849 97.79 36.3049 97.79C37.0949 97.79 37.7849 97.89 38.3749 98.09C38.9649 98.28 39.4749 98.525 39.9049 98.825C40.3349 99.115 40.6899 99.42 40.9699 99.74C41.2599 100.06 41.4899 100.355 41.6599 100.625C41.8299 100.885 41.9549 101.075 42.0349 101.195L39.8599 102.86C39.6399 102.45 39.3799 102.05 39.0799 101.66C38.7799 101.26 38.4099 100.93 37.9699 100.67C37.5299 100.41 36.9849 100.28 36.3349 100.28C35.6649 100.28 35.1099 100.43 34.6699 100.73C34.2299 101.03 33.8799 101.41 33.6199 101.87C33.3699 102.33 33.1949 102.82 33.0949 103.34C32.9949 103.85 32.9449 104.325 32.9449 104.765C32.9449 105.235 32.9949 105.7 33.0949 106.16C33.1949 106.62 33.3649 107.04 33.6049 107.42C33.8549 107.8 34.1849 108.105 34.5949 108.335C35.0149 108.555 35.5399 108.665 36.1699 108.665C36.8699 108.665 37.4399 108.54 37.8799 108.29C38.3299 108.04 38.7049 107.69 39.0049 107.24C39.3049 106.78 39.5849 106.245 39.8449 105.635L42.3049 106.745C41.8649 107.655 41.3699 108.445 40.8199 109.115C40.2699 109.785 39.6249 110.3 38.8849 110.66C38.1449 111.02 37.2699 111.2 36.2599 111.2ZM43.9789 111.065C43.9489 110.195 43.9339 109.215 43.9339 108.125C43.9339 107.105 43.9489 106.025 43.9789 104.885C44.0089 103.745 44.0589 102.585 44.1289 101.405C44.1989 100.225 44.2839 99.075 44.3839 97.955L46.9939 98C46.9039 98.7 46.8239 99.415 46.7539 100.145C46.6939 100.865 46.6439 101.59 46.6039 102.32C47.0239 102.03 47.5289 101.695 48.1189 101.315C48.7189 100.925 49.3589 100.535 50.0389 100.145C50.7189 99.745 51.3989 99.365 52.0789 99.005C52.7689 98.645 53.4139 98.34 54.0139 98.09L54.7489 100.64C54.1389 100.89 53.5239 101.165 52.9039 101.465C52.2939 101.765 51.7089 102.065 51.1489 102.365C50.5989 102.655 50.1089 102.935 49.6789 103.205C49.2489 103.465 48.9089 103.695 48.6589 103.895C48.4089 104.085 48.2839 104.225 48.2839 104.315C48.2839 104.445 48.4789 104.665 48.8689 104.975C49.2589 105.285 49.7889 105.65 50.4589 106.07C51.1289 106.49 51.8889 106.93 52.7389 107.39C53.5989 107.85 54.4889 108.3 55.4089 108.74L54.0139 111.05C52.8739 110.46 51.8239 109.87 50.8639 109.28C49.9139 108.68 49.0639 108.115 48.3139 107.585C47.5739 107.055 46.9589 106.6 46.4689 106.22C46.4689 106.59 46.4689 106.96 46.4689 107.33C46.4689 108 46.4739 108.65 46.4839 109.28C46.5039 109.9 46.5239 110.48 46.5439 111.02L43.9789 111.065ZM64.3818 111.11C64.3118 110.24 64.2618 109.395 64.2318 108.575C64.2118 107.755 64.2018 106.98 64.2018 106.25C64.2018 105.04 64.2268 103.955 64.2768 102.995C64.3268 102.025 64.3768 101.19 64.4268 100.49C63.5668 100.54 62.7318 100.605 61.9218 100.685C61.1118 100.765 60.3618 100.87 59.6718 101L59.7018 98.495C60.8718 98.285 62.0718 98.135 63.3018 98.045C64.5318 97.945 65.7618 97.895 66.9918 97.895C67.8718 97.895 68.7118 97.915 69.5118 97.955C70.3218 97.995 71.0968 98.055 71.8368 98.135L71.8218 100.73C71.1218 100.62 70.3618 100.545 69.5418 100.505C68.7318 100.455 67.9018 100.43 67.0518 100.43C67.0018 101.11 66.9568 101.87 66.9168 102.71C66.8768 103.54 66.8568 104.43 66.8568 105.38C66.8568 106.23 66.8768 107.125 66.9168 108.065C66.9668 109.005 67.0268 109.995 67.0968 111.035L64.3818 111.11ZM79.424 111.005C78.484 111.005 77.629 110.83 76.859 110.48C76.089 110.14 75.424 109.665 74.864 109.055C74.304 108.445 73.874 107.75 73.574 106.97C73.274 106.19 73.124 105.365 73.124 104.495C73.124 103.695 73.244 102.91 73.484 102.14C73.724 101.36 74.089 100.655 74.579 100.025C75.069 99.385 75.689 98.875 76.439 98.495C77.199 98.115 78.094 97.925 79.124 97.925C80.194 97.925 81.124 98.11 81.914 98.48C82.704 98.84 83.354 99.325 83.864 99.935C84.374 100.545 84.754 101.235 85.004 102.005C85.254 102.775 85.379 103.565 85.379 104.375C85.379 105.345 85.234 106.235 84.944 107.045C84.654 107.855 84.244 108.56 83.714 109.16C83.184 109.75 82.554 110.205 81.824 110.525C81.094 110.845 80.294 111.005 79.424 111.005ZM79.424 108.5C80.024 108.5 80.579 108.355 81.089 108.065C81.599 107.765 82.009 107.3 82.319 106.67C82.629 106.04 82.784 105.22 82.784 104.21C82.784 103.34 82.614 102.625 82.274 102.065C81.934 101.505 81.494 101.09 80.954 100.82C80.414 100.55 79.849 100.415 79.259 100.415C78.589 100.415 78.024 100.535 77.564 100.775C77.104 101.015 76.734 101.34 76.454 101.75C76.174 102.15 75.974 102.6 75.854 103.1C75.734 103.6 75.674 104.115 75.674 104.645C75.674 105.165 75.774 105.66 75.974 106.13C76.174 106.59 76.444 107 76.784 107.36C77.134 107.71 77.534 107.99 77.984 108.2C78.434 108.4 78.914 108.5 79.424 108.5ZM94.8066 111.11C94.7366 110.24 94.6866 109.395 94.6566 108.575C94.6366 107.755 94.6266 106.98 94.6266 106.25C94.6266 105.04 94.6516 103.955 94.7016 102.995C94.7516 102.025 94.8016 101.19 94.8516 100.49C93.9916 100.54 93.1566 100.605 92.3466 100.685C91.5366 100.765 90.7866 100.87 90.0966 101L90.1266 98.495C91.2966 98.285 92.4966 98.135 93.7266 98.045C94.9566 97.945 96.1866 97.895 97.4166 97.895C98.2966 97.895 99.1366 97.915 99.9366 97.955C100.747 97.995 101.522 98.055 102.262 98.135L102.247 100.73C101.547 100.62 100.787 100.545 99.9666 100.505C99.1566 100.455 98.3266 100.43 97.4766 100.43C97.4266 101.11 97.3816 101.87 97.3416 102.71C97.3016 103.54 97.2816 104.43 97.2816 105.38C97.2816 106.23 97.3016 107.125 97.3416 108.065C97.3916 109.005 97.4516 109.995 97.5216 111.035L94.8066 111.11ZM109.849 111.005C108.909 111.005 108.054 110.83 107.284 110.48C106.514 110.14 105.849 109.665 105.289 109.055C104.729 108.445 104.299 107.75 103.999 106.97C103.699 106.19 103.549 105.365 103.549 104.495C103.549 103.695 103.669 102.91 103.909 102.14C104.149 101.36 104.514 100.655 105.004 100.025C105.494 99.385 106.114 98.875 106.864 98.495C107.624 98.115 108.519 97.925 109.549 97.925C110.619 97.925 111.549 98.11 112.339 98.48C113.129 98.84 113.779 99.325 114.289 99.935C114.799 100.545 115.179 101.235 115.429 102.005C115.679 102.775 115.804 103.565 115.804 104.375C115.804 105.345 115.659 106.235 115.369 107.045C115.079 107.855 114.669 108.56 114.139 109.16C113.609 109.75 112.979 110.205 112.249 110.525C111.519 110.845 110.719 111.005 109.849 111.005ZM109.849 108.5C110.449 108.5 111.004 108.355 111.514 108.065C112.024 107.765 112.434 107.3 112.744 106.67C113.054 106.04 113.209 105.22 113.209 104.21C113.209 103.34 113.039 102.625 112.699 102.065C112.359 101.505 111.919 101.09 111.379 100.82C110.839 100.55 110.274 100.415 109.684 100.415C109.014 100.415 108.449 100.535 107.989 100.775C107.529 101.015 107.159 101.34 106.879 101.75C106.599 102.15 106.399 102.6 106.279 103.1C106.159 103.6 106.099 104.115 106.099 104.645C106.099 105.165 106.199 105.66 106.399 106.13C106.599 106.59 106.869 107 107.209 107.36C107.559 107.71 107.959 107.99 108.409 108.2C108.859 108.4 109.339 108.5 109.849 108.5ZM118.489 111.005C118.479 110.685 118.474 110.36 118.474 110.03C118.474 109.71 118.474 109.39 118.474 109.07C118.474 107.6 118.504 106.175 118.564 104.795C118.624 103.405 118.694 102.08 118.774 100.82C118.374 100.92 118.039 101.015 117.769 101.105L117.184 98.705C117.674 98.555 118.189 98.425 118.729 98.315C119.279 98.195 119.814 98.1 120.334 98.03C120.864 97.95 121.349 97.895 121.789 97.865C122.239 97.825 122.609 97.805 122.899 97.805C123.209 97.805 123.589 97.83 124.039 97.88C124.499 97.93 124.969 98.035 125.449 98.195C125.939 98.345 126.394 98.575 126.814 98.885C127.234 99.195 127.574 99.615 127.834 100.145C128.104 100.665 128.239 101.32 128.239 102.11C128.239 102.93 128.059 103.615 127.699 104.165C127.339 104.705 126.864 105.14 126.274 105.47C125.684 105.79 125.034 106.02 124.324 106.16C123.614 106.3 122.914 106.37 122.224 106.37C121.784 106.37 121.364 106.35 120.964 106.31C120.954 106.79 120.949 107.265 120.949 107.735C120.949 108.375 120.954 108.97 120.964 109.52C120.974 110.06 120.994 110.535 121.024 110.945L118.489 111.005ZM122.824 100.265C122.564 100.265 122.294 100.275 122.014 100.295C121.744 100.315 121.474 100.34 121.204 100.37C121.154 100.9 121.114 101.475 121.084 102.095C121.054 102.715 121.029 103.35 121.009 104C121.379 104.03 121.764 104.045 122.164 104.045C124.564 104.045 125.764 103.335 125.764 101.915C125.764 101.355 125.524 100.94 125.044 100.67C124.564 100.4 123.824 100.265 122.824 100.265Z" fill="black"/>
<path d="M45.6875 97.8344C46.3085 97.8598 46.86 98.0566 47.1188 98.5719C47.3343 99.0015 47.3591 99.5404 47.2594 100.138C47.1872 100.57 47.1545 100.938 47.1469 101.244C47.1609 101.234 47.1786 101.227 47.1938 101.216C47.6882 100.84 48.2446 100.566 48.8594 100.397C49.3634 100.258 49.7995 100.012 50.1719 99.6563C50.6297 99.2183 51.1499 98.8851 51.7313 98.6594C52.2693 98.4506 52.7604 98.2759 53.2031 98.1406C53.5057 98.0482 53.8176 98.0612 54.0969 98.225C54.3616 98.3803 54.5467 98.6425 54.6813 98.9438C54.9543 99.5562 54.9612 100.163 54.575 100.669C54.2568 101.085 53.8113 101.424 53.2625 101.694C52.7552 101.943 52.2473 102.193 51.7406 102.444C51.2431 102.69 50.756 102.956 50.2781 103.241C49.8306 103.507 49.4265 103.852 49.0656 104.275C48.9038 104.465 48.9102 104.552 48.9125 104.566C48.9156 104.581 48.9405 104.66 49.1469 104.775C49.6899 105.076 50.1876 105.432 50.6375 105.841C51.0295 106.196 51.4674 106.473 51.9531 106.672C52.4822 106.888 53.0115 107.1 53.5375 107.313C54.1011 107.54 54.6088 107.845 55.0594 108.225C55.3173 108.443 55.5158 108.731 55.5125 109.084C55.5091 109.428 55.3167 109.72 55.0688 109.956C54.6313 110.373 54.1968 110.671 53.7781 110.753C53.3868 110.83 52.8822 110.769 52.3 110.622C51.6764 110.464 51.1157 110.187 50.625 109.788C50.1868 109.431 49.7403 109.091 49.2875 108.766C48.8121 108.424 48.3612 108.048 47.9375 107.638C47.5541 107.266 47.2644 107.132 47.0625 107.119C47.0337 107.117 47.0281 107.122 47.0344 107.119C47.0415 107.115 47.0389 107.115 47.0281 107.131C46.9982 107.176 46.9514 107.296 46.9406 107.55C46.917 108.111 46.9029 108.673 46.8969 109.234C46.8902 109.853 46.7605 110.41 46.4906 110.888C46.1724 111.451 45.619 111.701 44.9438 111.694C44.656 111.691 44.4189 111.679 44.2438 111.656C44.158 111.645 44.0709 111.628 43.9938 111.603C43.955 111.59 43.9048 111.57 43.8563 111.541C43.8104 111.512 43.738 111.458 43.6875 111.366C43.6492 111.295 43.6301 111.214 43.6188 111.166C43.6043 111.104 43.5887 111.028 43.575 110.944C43.5475 110.775 43.5165 110.546 43.4844 110.263C43.4197 109.691 43.3734 109.118 43.3438 108.544C43.3125 107.938 43.3705 107.332 43.5156 106.731C43.6394 106.218 43.6626 105.705 43.5844 105.191C43.4891 104.565 43.5286 103.942 43.7063 103.328C43.8566 102.809 43.9225 102.288 43.9031 101.766C43.8827 101.213 43.8333 100.657 43.7563 100.097C43.6682 99.4576 43.7643 98.8824 44.1188 98.4406C44.4869 97.9826 45.0437 97.8081 45.6875 97.8344ZM36.3844 111.566C36.3547 111.576 36.3322 111.583 36.325 111.584C36.3014 111.588 36.2796 111.59 36.2719 111.591H36.0406C35.8948 111.589 35.6771 111.586 35.3906 111.578C34.7746 111.562 34.1717 111.445 33.5844 111.231C32.9644 111.006 32.452 110.626 32.0563 110.1C31.7137 109.644 31.3538 109.206 30.9813 108.788C30.5393 108.291 30.3047 107.701 30.2781 107.034C30.256 106.474 30.1991 105.928 30.1125 105.397C30.0213 104.837 29.9554 104.262 29.9125 103.672C29.8637 103 30.0374 102.378 30.425 101.822C30.7584 101.343 31.0695 100.878 31.3625 100.428C31.659 99.9731 31.9674 99.5045 32.2875 99.025C32.6542 98.4758 33.1544 98.086 33.775 97.8625C34.3365 97.6603 34.9109 97.5085 35.4969 97.4063C36.0913 97.3026 36.695 97.269 37.3063 97.3063C37.9698 97.3468 38.567 97.5788 39.0875 97.9969C39.5202 98.3446 39.9836 98.6375 40.4781 98.8719C41.0742 99.1544 41.5424 99.5813 41.8688 100.15C42.039 100.447 42.1321 100.765 42.0844 101.088C42.0353 101.417 41.8468 101.684 41.5844 101.891C41.1476 102.235 40.6976 102.491 40.2344 102.647C39.9411 102.745 39.6408 102.74 39.3594 102.606C39.0895 102.478 38.8744 102.249 38.7 101.972C38.4388 101.557 38.0896 101.245 37.6469 101.031C37.1939 100.813 36.7163 100.71 36.2094 100.719C35.7182 100.728 35.2726 100.869 34.8656 101.147C34.4378 101.44 34.0751 101.809 33.7781 102.256C33.4984 102.678 33.3646 103.133 33.3719 103.634C33.3808 104.23 33.3602 104.826 33.3125 105.419C33.2728 105.912 33.3864 106.365 33.6563 106.788C33.935 107.224 34.2854 107.538 34.7094 107.741C35.1505 107.951 35.6102 108.05 36.0906 108.041C36.6092 108.031 37.1462 107.973 37.7 107.866C38.1646 107.776 38.515 107.536 38.7719 107.128C39.1021 106.605 39.4556 106.168 39.8375 105.831C40.0743 105.622 40.3568 105.502 40.6719 105.5C40.9783 105.498 41.2791 105.609 41.5625 105.784C41.8497 105.963 42.0811 106.191 42.2063 106.481C42.334 106.778 42.3309 107.093 42.2313 107.403C42.0573 107.943 41.7434 108.433 41.3063 108.869C40.9199 109.254 40.5549 109.663 40.2125 110.097C39.8125 110.604 39.3019 110.966 38.6906 111.178C38.1223 111.375 37.569 111.494 37.0313 111.528C36.7833 111.544 36.5993 111.556 36.4781 111.566L36.35 111.578C36.3544 111.577 36.3635 111.575 36.375 111.572C36.3768 111.571 36.3801 111.567 36.3844 111.566ZM36.4156 111.553C36.4256 111.549 36.4382 111.547 36.45 111.541C36.4558 111.538 36.4621 111.528 36.4719 111.522C36.449 111.536 36.4299 111.547 36.4156 111.553ZM11.1719 97.35C11.7703 97.3372 12.3693 97.3865 12.9688 97.5C13.6365 97.6265 14.1886 97.9603 14.6063 98.4938C14.9667 98.9541 15.3142 99.4179 15.65 99.8813C16.0489 100.432 16.1828 101.057 16.0469 101.728C15.9195 102.356 15.6538 102.91 15.25 103.378C15.0975 103.555 15.0342 103.688 15.0156 103.778C15.0002 103.854 15.0132 103.915 15.0594 103.984C15.2832 104.321 15.5152 104.756 15.7594 105.281C16.0182 105.838 16.1722 106.417 16.2219 107.019C16.2728 107.636 16.1783 108.232 15.9375 108.797C15.6961 109.363 15.3316 109.837 14.8469 110.216C14.3614 110.594 13.81 110.835 13.2 110.931C12.6638 111.016 12.1207 111.116 11.575 111.234C10.9501 111.37 10.3299 111.333 9.725 111.122C9.24888 110.956 8.8986 110.962 8.6375 111.072C8.21083 111.251 7.69808 111.37 7.10938 111.438C6.53992 111.503 6.08141 111.525 5.75938 111.484C5.46388 111.447 5.25652 111.257 5.13125 111.025C5.01353 110.806 4.95325 110.527 4.925 110.222C4.87169 109.645 4.84098 109.068 4.83438 108.491C4.82747 107.883 4.91219 107.279 5.08438 106.684C5.2308 106.178 5.27317 105.669 5.2125 105.153C5.13854 104.526 5.19612 103.904 5.3875 103.297C5.54195 102.806 5.56267 102.345 5.45625 101.903C5.34143 101.427 5.16714 101.06 4.94688 100.788C4.77518 100.575 4.66206 100.334 4.62813 100.069C4.59453 99.8047 4.64275 99.5439 4.75313 99.2938C4.99343 98.7504 5.48546 98.4342 6.11563 98.2969C6.6347 98.184 7.14754 98.0124 7.65313 97.7844C8.23215 97.5231 8.83732 97.3867 9.4625 97.3781C10.031 97.3705 10.6025 97.3623 11.1719 97.35ZM36.5313 111.475C36.5354 111.471 36.5427 111.47 36.5469 111.466C36.5582 111.454 36.57 111.436 36.5844 111.416C36.5665 111.441 36.5473 111.46 36.5313 111.475ZM23.7625 97.5063C24.3994 97.6128 24.969 97.873 25.4625 98.2875C25.9293 98.6796 26.3356 99.1311 26.6813 99.6375C27.0426 100.167 27.2629 100.758 27.3438 101.403C27.4095 101.929 27.5847 102.409 27.8656 102.847C28.2087 103.382 28.4299 103.962 28.5281 104.581C28.617 105.142 28.7118 105.7 28.8125 106.253C28.9098 106.787 29.0501 107.314 29.2344 107.831C29.4379 108.403 29.5614 108.99 29.6031 109.594C29.6262 109.927 29.5786 110.249 29.4156 110.516C29.2471 110.79 28.9851 110.959 28.675 111.041C28.1596 111.176 27.6587 111.193 27.1844 111.072C26.5817 110.917 26.256 110.414 26.1281 109.775C26.0146 109.207 25.9318 108.631 25.8781 108.05C25.8581 107.834 25.7901 107.713 25.7156 107.641C25.6398 107.567 25.5112 107.497 25.2813 107.475C24.6901 107.419 24.1045 107.351 23.5281 107.272C23.0032 107.2 22.485 107.221 21.9719 107.331C21.4963 107.433 21.1911 107.643 21.0031 107.938C20.7753 108.296 20.6001 108.731 20.4844 109.244C20.3528 109.826 20.1546 110.323 19.8813 110.719C19.8136 110.817 19.7717 110.895 19.7406 110.95C19.7501 110.99 19.7585 111.034 19.7531 111.084C19.7356 111.244 19.634 111.336 19.5875 111.369C19.5073 111.426 19.4233 111.437 19.4219 111.438C19.3877 111.444 19.3581 111.444 19.35 111.444C19.3108 111.444 19.2521 111.441 19.1969 111.438C19.0735 111.429 18.8695 111.408 18.5875 111.381C17.9345 111.319 17.3939 111.063 17.0125 110.584C16.8128 110.334 16.6984 110.047 16.6875 109.731C16.6768 109.421 16.7664 109.112 16.925 108.813C17.1728 108.344 17.3246 107.851 17.3813 107.331C17.4498 106.7 17.6535 106.11 17.9906 105.566C18.2768 105.104 18.4862 104.619 18.6219 104.113C18.7657 103.575 18.8964 103.025 19.0094 102.466C19.1391 101.824 19.4332 101.26 19.8875 100.781C20.2813 100.366 20.6382 99.9451 20.9563 99.5188C21.2874 99.0749 21.6346 98.6283 21.9969 98.1781C22.2139 97.9085 22.4737 97.7045 22.7813 97.5875C23.0891 97.4706 23.4205 97.4491 23.7625 97.5063ZM68.0875 97.4313C68.6488 97.5079 69.2104 97.5797 69.7688 97.6406C70.3522 97.7044 70.8914 97.8113 71.3844 97.9656C71.6939 98.0625 71.9533 98.2447 72.1125 98.5281C72.2666 98.8031 72.3014 99.1258 72.2625 99.4594C72.2251 99.7806 72.1367 100.073 71.975 100.309C71.8067 100.555 71.5706 100.72 71.2813 100.791C70.8399 100.898 70.3184 100.916 69.7281 100.866C69.1731 100.818 68.6164 100.789 68.0594 100.778C67.8392 100.774 67.6914 100.821 67.5906 100.891C67.4907 100.96 67.3987 101.078 67.3313 101.278C67.1745 101.746 67.1286 102.235 67.1969 102.747C67.2783 103.359 67.2628 103.969 67.1469 104.575C67.0471 105.097 67.0345 105.619 67.1094 106.141C67.1905 106.706 67.2708 107.27 67.35 107.831C67.4299 108.398 67.4968 108.967 67.5531 109.534C67.5853 109.859 67.5573 110.175 67.4188 110.441C67.273 110.719 67.0284 110.897 66.7313 110.984C66.2878 111.115 65.7848 111.207 65.225 111.259C64.9584 111.284 64.7729 111.308 64.6594 111.331C64.6463 111.334 64.6344 111.335 64.625 111.338C64.5631 111.388 64.4749 111.44 64.35 111.431C64.1755 111.419 64.0825 111.301 64.0688 111.284C64.0405 111.25 64.0246 111.218 64.0188 111.206C64.0059 111.18 63.9993 111.157 63.9969 111.15C63.9936 111.14 63.989 111.131 63.9875 111.125C63.9845 111.114 63.9831 111.102 63.9813 111.094C63.9741 111.06 63.9639 111.009 63.9531 110.947C63.9308 110.818 63.8974 110.612 63.8531 110.331C63.7629 109.76 63.6964 109.186 63.65 108.609C63.6012 108.002 63.644 107.395 63.7781 106.791C63.8929 106.273 63.9064 105.757 63.8219 105.241C63.7196 104.615 63.7589 103.993 63.9375 103.378C64.0883 102.859 64.1552 102.339 64.1375 101.816C64.1293 101.576 64.0777 101.447 64.0313 101.384C63.9951 101.336 63.9383 101.294 63.8156 101.281C63.3684 101.236 62.8507 101.16 62.2656 101.05C61.7272 100.949 61.1965 100.93 60.6719 100.994C60.3492 101.033 60.0298 101.013 59.7656 100.872C59.4807 100.719 59.3175 100.456 59.2594 100.15C59.1567 99.6065 59.3078 99.0983 59.6656 98.65C60.0314 98.192 60.5506 97.9118 61.1813 97.7875C61.7433 97.6768 62.3078 97.5779 62.875 97.4906C63.4895 97.3961 64.1102 97.4205 64.7313 97.5656C65.2412 97.6847 65.7419 97.6779 66.2406 97.5469C66.8527 97.386 67.47 97.3471 68.0875 97.4313ZM98.5125 97.4313C99.0738 97.5079 99.6354 97.5797 100.194 97.6406C100.777 97.7044 101.316 97.8113 101.809 97.9656C102.119 98.0625 102.378 98.2447 102.538 98.5281C102.692 98.8031 102.723 99.1258 102.684 99.4594C102.647 99.7804 102.562 100.073 102.4 100.309C102.232 100.555 101.995 100.72 101.706 100.791C101.265 100.898 100.743 100.916 100.153 100.866C99.5981 100.818 99.0414 100.789 98.4844 100.778C98.2643 100.774 98.1164 100.821 98.0156 100.891C97.9157 100.96 97.8237 101.078 97.7563 101.278C97.5995 101.746 97.5536 102.235 97.6219 102.747C97.7034 103.359 97.6847 103.969 97.5688 104.575C97.469 105.097 97.4595 105.619 97.5344 106.141C97.6155 106.706 97.6958 107.27 97.775 107.831C97.8549 108.398 97.9218 108.967 97.9781 109.534C98.0103 109.859 97.9823 110.175 97.8438 110.441C97.698 110.719 97.4535 110.897 97.1563 110.984C96.7127 111.115 96.2099 111.207 95.65 111.259C95.3835 111.284 95.198 111.308 95.0844 111.331C95.0713 111.334 95.0594 111.335 95.05 111.338C94.9881 111.388 94.8999 111.44 94.775 111.431C94.6007 111.419 94.5078 111.302 94.4938 111.284C94.4655 111.25 94.4496 111.218 94.4438 111.206C94.4309 111.18 94.4243 111.157 94.4219 111.15C94.4186 111.14 94.414 111.131 94.4125 111.125C94.4095 111.114 94.4081 111.102 94.4063 111.094C94.3991 111.06 94.3889 111.009 94.3781 110.947C94.3559 110.818 94.3224 110.612 94.2781 110.331C94.1879 109.76 94.1214 109.186 94.075 108.609C94.0262 108.002 94.069 107.395 94.2031 106.791C94.3179 106.273 94.3314 105.757 94.2469 105.241C94.1446 104.615 94.1839 103.993 94.3625 103.378C94.5133 102.859 94.5802 102.339 94.5625 101.816C94.5543 101.576 94.5027 101.447 94.4563 101.384C94.4201 101.336 94.3633 101.294 94.2406 101.281C93.7934 101.236 93.2757 101.16 92.6906 101.05C92.1516 100.949 91.6189 100.93 91.0938 100.994C90.7717 101.033 90.4544 101.013 90.1906 100.872C89.9057 100.719 89.7425 100.456 89.6844 100.15C89.5816 99.6064 89.7328 99.0983 90.0906 98.65C90.4564 98.192 90.9756 97.9118 91.6063 97.7875C92.1683 97.6768 92.7328 97.5779 93.3 97.4906C93.9145 97.3961 94.5352 97.4205 95.1563 97.5656C95.6662 97.6846 96.1669 97.6779 96.6656 97.5469C97.2778 97.386 97.895 97.347 98.5125 97.4313ZM19.1969 111.409L19.2531 111.428C19.2268 111.423 19.1999 111.409 19.1719 111.397C19.1822 111.402 19.191 111.407 19.1969 111.409ZM80.2906 97.4594C80.9537 97.5102 81.5483 97.7527 82.0625 98.1813C82.491 98.5383 82.9481 98.8414 83.4344 99.0906C84.0264 99.3939 84.4709 99.8523 84.7531 100.453C85.0083 100.997 85.2056 101.554 85.3438 102.125C85.4765 102.673 85.6013 103.229 85.7188 103.791C85.8476 104.407 85.8339 105.023 85.6813 105.634C85.5397 106.201 85.3702 106.755 85.1719 107.294C84.965 107.856 84.6819 108.377 84.3219 108.853C83.9632 109.328 83.5451 109.743 83.0719 110.1C82.5826 110.469 82.0384 110.72 81.4438 110.85C80.9176 110.965 80.4771 111.085 80.1219 111.213C79.9337 111.28 79.7898 111.333 79.6906 111.366C79.6422 111.382 79.5971 111.394 79.5625 111.403C79.5478 111.407 79.52 111.414 79.4906 111.419C79.4798 111.42 79.4398 111.426 79.3906 111.422C79.3703 111.42 79.3101 111.408 79.2406 111.372C79.2667 111.385 79.2853 111.397 79.2938 111.4L79.3313 111.409C79.3033 111.407 79.2565 111.404 79.1875 111.4C79.0484 111.392 78.8357 111.385 78.55 111.375C77.9348 111.353 77.3345 111.232 76.75 111.016C76.1352 110.787 75.6207 110.412 75.2156 109.897C74.8667 109.453 74.4944 109.037 74.1 108.647C73.6279 108.18 73.3489 107.608 73.2719 106.947C73.2066 106.387 73.1211 105.843 73.0125 105.316C72.898 104.76 72.8119 104.184 72.7594 103.591C72.6999 102.917 72.8695 102.293 73.2594 101.738C73.5955 101.258 73.9205 100.799 74.2313 100.356C74.5439 99.911 74.8707 99.4551 75.2125 98.9906C75.604 98.4587 76.1208 98.0913 76.7531 97.9C77.3217 97.728 77.8989 97.5998 78.4844 97.5156C79.0795 97.4301 79.6826 97.4128 80.2906 97.4594ZM110.716 97.4594C111.379 97.5102 111.973 97.7527 112.488 98.1813C112.916 98.5383 113.373 98.8415 113.859 99.0906C114.451 99.3939 114.893 99.8523 115.175 100.453C115.43 100.997 115.631 101.554 115.769 102.125C115.901 102.673 116.026 103.229 116.144 103.791C116.273 104.407 116.259 105.023 116.106 105.634C115.965 106.201 115.795 106.755 115.597 107.294C115.39 107.856 115.107 108.377 114.747 108.853C114.388 109.328 113.97 109.743 113.497 110.1C113.008 110.469 112.463 110.72 111.869 110.85C111.343 110.965 110.902 111.085 110.547 111.213C110.359 111.28 110.215 111.333 110.116 111.366C110.067 111.382 110.022 111.394 109.988 111.403C109.973 111.407 109.945 111.414 109.916 111.419C109.905 111.42 109.865 111.426 109.816 111.422C109.795 111.42 109.735 111.408 109.666 111.372C109.692 111.385 109.71 111.397 109.719 111.4C109.732 111.404 109.745 111.404 109.753 111.406C109.725 111.404 109.679 111.404 109.613 111.4C109.473 111.392 109.261 111.385 108.975 111.375C108.359 111.353 107.757 111.233 107.172 111.016C106.558 110.787 106.045 110.412 105.641 109.897C105.292 109.453 104.919 109.037 104.525 108.647C104.053 108.18 103.774 107.608 103.697 106.947C103.632 106.387 103.543 105.843 103.434 105.316C103.32 104.76 103.237 104.184 103.184 103.591C103.125 102.917 103.294 102.293 103.684 101.738C104.02 101.258 104.346 100.799 104.656 100.356C104.969 99.911 105.296 99.4551 105.638 98.9906C106.029 98.4587 106.546 98.0913 107.178 97.9C107.747 97.728 108.324 97.5998 108.909 97.5156C109.504 97.4301 110.108 97.4128 110.716 97.4594ZM36.6094 111.375C36.6137 111.367 36.6179 111.359 36.6219 111.35C36.6179 111.359 36.6137 111.367 36.6094 111.375ZM124.669 97.4281C125.327 97.5148 125.906 97.7906 126.391 98.2469C126.808 98.6396 127.233 99.0136 127.666 99.3688C128.19 99.7996 128.485 100.369 128.544 101.05C128.596 101.663 128.562 102.262 128.441 102.844C128.32 103.423 128.117 103.979 127.831 104.509C127.52 105.086 127.056 105.512 126.453 105.778C125.913 106.017 125.364 106.213 124.803 106.366C124.235 106.52 123.654 106.614 123.066 106.647C122.536 106.677 122.074 106.765 121.678 106.906C121.418 107 121.236 107.207 121.181 107.663C121.118 108.186 121.138 108.708 121.241 109.231C121.361 109.841 121.296 110.454 120.769 110.772C120.406 110.99 119.929 111.135 119.363 111.225C119.094 111.268 118.895 111.301 118.766 111.325C118.7 111.337 118.657 111.348 118.634 111.353C118.621 111.356 118.625 111.354 118.638 111.35C118.642 111.348 118.667 111.34 118.697 111.322C118.703 111.318 118.71 111.309 118.722 111.3C118.644 111.342 118.481 111.383 118.391 111.372C118.322 111.348 118.223 111.282 118.191 111.25C118.173 111.229 118.147 111.192 118.138 111.175C118.121 111.145 118.112 111.118 118.109 111.109C118.105 111.098 118.101 111.087 118.1 111.081C118.098 111.072 118.098 111.063 118.097 111.059L118.091 111.022C118.09 111.012 118.086 110.998 118.084 110.981C118.081 110.948 118.076 110.897 118.069 110.828C118.055 110.69 118.034 110.479 118.006 110.197C117.949 109.624 117.909 109.049 117.884 108.475C117.859 107.87 117.924 107.267 118.075 106.669C118.205 106.156 118.233 105.642 118.163 105.125C118.077 104.499 118.126 103.877 118.309 103.266C118.464 102.749 118.531 102.228 118.513 101.706C118.505 101.479 118.45 101.346 118.388 101.266C118.328 101.19 118.23 101.122 118.053 101.088C117.725 101.023 117.438 100.865 117.247 100.591C117.062 100.324 116.999 99.9956 117.013 99.65C117.025 99.3141 117.1 98.9991 117.275 98.75C117.459 98.4881 117.728 98.3394 118.041 98.2938C118.427 98.2373 118.872 98.0984 119.378 97.8688C119.955 97.6071 120.556 97.465 121.178 97.4438C121.743 97.4244 122.309 97.3964 122.875 97.3625C123.47 97.3269 124.069 97.3493 124.669 97.4281ZM79.1094 111.269C79.146 111.315 79.1851 111.343 79.2063 111.356L79.2156 111.359C79.1732 111.333 79.1316 111.294 79.0969 111.244C79.1022 111.252 79.1042 111.262 79.1094 111.269ZM109.534 111.269C109.571 111.315 109.61 111.343 109.631 111.356C109.634 111.358 109.638 111.358 109.641 111.359C109.598 111.333 109.557 111.294 109.522 111.244C109.527 111.252 109.529 111.262 109.534 111.269ZM118.753 111.275C118.761 111.268 118.773 111.262 118.781 111.253C118.797 111.236 118.824 111.203 118.847 111.156L118.753 111.275ZM79.05 111.156C79.0553 111.171 79.0624 111.184 79.0688 111.197C79.0622 111.184 79.0552 111.171 79.05 111.156ZM35.9031 111.013C35.8796 111.06 35.8595 111.117 35.8594 111.188C35.8596 111.117 35.8801 111.059 35.9031 111.013ZM63.9844 110.969C63.9805 110.994 63.9782 111.012 63.9781 111.016C63.9778 111.025 63.9781 111.032 63.9781 111.034C63.9775 111.011 63.9817 110.99 63.9844 110.969ZM94.4094 110.969C94.4055 110.994 94.4032 111.012 94.4031 111.016C94.4028 111.025 94.4031 111.032 94.4031 111.034C94.4025 111.011 94.4067 110.99 94.4094 110.969ZM110.25 111.022L110.234 110.909C110.232 110.9 110.226 110.891 110.222 110.881C110.237 110.922 110.25 110.968 110.25 111.022ZM79.825 111.022L79.8094 110.909C79.8065 110.9 79.8005 110.891 79.7969 110.881C79.8121 110.922 79.825 110.968 79.825 111.022ZM35.9375 110.953C35.9271 110.967 35.9157 110.982 35.9063 111C35.9159 110.982 35.9275 110.967 35.9375 110.953ZM118.119 110.831C118.103 110.871 118.095 110.903 118.094 110.913C118.091 110.929 118.091 110.943 118.091 110.95C118.09 110.963 118.088 110.973 118.088 110.978C118.087 110.983 118.087 110.988 118.088 110.991C118.086 110.928 118.101 110.875 118.119 110.831ZM118.884 110.928V110.922L118.881 110.916C118.882 110.921 118.884 110.926 118.884 110.928ZM64.7625 110.925C64.7619 110.923 64.7618 110.914 64.7594 110.906C64.7589 110.905 64.7578 110.901 64.7563 110.897C64.7587 110.91 64.7612 110.919 64.7625 110.925ZM45.6563 98.6344C45.171 98.6145 44.8984 98.7442 44.7406 98.9406C44.5692 99.1543 44.4804 99.4817 44.55 99.9875C44.6307 100.573 44.6817 101.157 44.7031 101.738C44.7255 102.347 44.6483 102.952 44.475 103.55C44.329 104.054 44.2974 104.559 44.375 105.069C44.4694 105.688 44.4421 106.308 44.2938 106.922C44.1666 107.448 44.1167 107.974 44.1438 108.5C44.1726 109.058 44.2184 109.616 44.2813 110.172C44.3129 110.451 44.3412 110.666 44.3656 110.816C44.3683 110.832 44.3694 110.848 44.3719 110.863C44.4999 110.878 44.6917 110.891 44.9531 110.894C45.4078 110.899 45.6511 110.746 45.7938 110.494C45.9848 110.155 46.0914 109.737 46.0969 109.225C46.103 108.656 46.1166 108.085 46.1406 107.516C46.1538 107.207 46.2132 106.911 46.3656 106.684C46.541 106.424 46.8111 106.302 47.1156 106.322C47.5972 106.354 48.0608 106.64 48.4969 107.063C48.8926 107.446 49.313 107.797 49.7563 108.116C50.2218 108.45 50.6781 108.803 51.1281 109.169C51.526 109.492 51.9807 109.717 52.4938 109.847C53.0472 109.987 53.4121 110.01 53.625 109.969C53.8107 109.932 54.105 109.769 54.5156 109.378C54.6916 109.21 54.7122 109.109 54.7125 109.075C54.7124 109.049 54.7005 108.97 54.5438 108.838C54.1604 108.514 53.7259 108.253 53.2375 108.056C52.7109 107.844 52.1827 107.629 51.6531 107.413C51.0804 107.179 50.5607 106.852 50.1 106.434C49.6968 106.069 49.25 105.747 48.7594 105.475C48.4565 105.307 48.188 105.061 48.125 104.703C48.0628 104.346 48.2305 104.021 48.4563 103.756C48.871 103.27 49.3418 102.866 49.8688 102.553C50.3645 102.258 50.8713 101.984 51.3875 101.728C51.8947 101.477 52.4015 101.225 52.9094 100.975C53.376 100.745 53.7143 100.478 53.9406 100.181C54.0982 99.9741 54.1439 99.7005 53.9531 99.2719C53.8553 99.0525 53.7575 98.9548 53.6906 98.9156C53.638 98.885 53.5658 98.8671 53.4375 98.9063C53.0177 99.0345 52.546 99.1998 52.0219 99.4031C51.5403 99.59 51.1088 99.8673 50.725 100.234C50.2558 100.683 49.7023 100.995 49.0719 101.169C48.5522 101.312 48.0883 101.539 47.6781 101.85C47.5529 101.945 47.4286 102.028 47.3094 102.084C47.1963 102.138 47.0493 102.187 46.8906 102.175C46.7043 102.16 46.5438 102.062 46.4469 101.903C46.3649 101.768 46.3443 101.616 46.3406 101.491C46.3287 101.076 46.3733 100.578 46.4688 100.006C46.5554 99.4873 46.5103 99.1448 46.4031 98.9313C46.3391 98.8036 46.1643 98.6553 45.6563 98.6344ZM36.0063 110.878C36.0017 110.882 35.9961 110.886 35.9906 110.891C36.0088 110.874 36.0293 110.866 36.0438 110.856C36.0326 110.863 36.0181 110.868 36.0063 110.878ZM79.775 110.838C79.7692 110.827 79.7663 110.814 79.7594 110.803C79.7553 110.797 79.748 110.793 79.7438 110.788C79.7549 110.803 79.7651 110.819 79.775 110.838ZM110.2 110.838C110.194 110.827 110.191 110.814 110.184 110.803C110.18 110.797 110.173 110.793 110.169 110.788C110.18 110.803 110.19 110.819 110.2 110.838ZM36.1156 110.816C36.1134 110.816 36.1095 110.817 36.1063 110.819C36.1118 110.816 36.1171 110.814 36.1219 110.813L36.1156 110.816ZM35.6344 98.1938C35.0942 98.288 34.5649 98.4291 34.0469 98.6156C33.5879 98.781 33.225 99.0618 32.9531 99.4688C32.6346 99.9459 32.3291 100.413 32.0344 100.866C31.7366 101.323 31.4189 101.794 31.0813 102.278C30.7973 102.686 30.6741 103.126 30.7094 103.613C30.7506 104.181 30.8158 104.734 30.9031 105.269C30.9951 105.833 31.0517 106.412 31.075 107.003C31.0943 107.487 31.2606 107.9 31.5781 108.256C31.9658 108.691 32.338 109.145 32.6938 109.619C32.996 110.021 33.3814 110.305 33.8563 110.478C34.3644 110.663 34.8838 110.764 35.4125 110.778C35.6976 110.786 35.9097 110.789 36.05 110.791H36.2031C36.223 110.787 36.2452 110.786 36.2625 110.784C36.2998 110.78 36.3526 110.774 36.4156 110.769C36.5431 110.759 36.7328 110.747 36.9813 110.731C37.4371 110.702 37.9186 110.599 38.4281 110.422C38.8954 110.26 39.2793 109.99 39.5844 109.603C39.9467 109.144 40.3341 108.708 40.7438 108.3C41.1024 107.942 41.339 107.561 41.4688 107.159C41.5206 106.999 41.51 106.885 41.4719 106.797C41.4307 106.702 41.3375 106.585 41.1406 106.463C40.9396 106.338 40.7874 106.299 40.6781 106.3C40.5783 106.301 40.4782 106.335 40.3688 106.431C40.057 106.707 39.7504 107.08 39.45 107.556C39.0763 108.149 38.5347 108.521 37.85 108.653C37.2551 108.768 36.6736 108.83 36.1063 108.841C35.5 108.852 34.9174 108.726 34.3656 108.463C33.7969 108.191 33.3348 107.77 32.9813 107.216C32.6191 106.648 32.4621 106.024 32.5156 105.356C32.5613 104.788 32.5804 104.217 32.5719 103.647C32.5621 102.983 32.7436 102.368 33.1125 101.813C33.4646 101.283 33.8979 100.84 34.4125 100.488C34.9482 100.121 35.5457 99.9306 36.1938 99.9188C36.8252 99.9072 37.4272 100.036 37.9938 100.309C38.5708 100.588 39.0337 101.002 39.375 101.544C39.5018 101.745 39.6166 101.843 39.7031 101.884C39.7779 101.92 39.8629 101.927 39.9813 101.888C40.3419 101.766 40.7128 101.561 41.0906 101.263C41.2339 101.149 41.2815 101.052 41.2938 100.972C41.3067 100.885 41.289 100.749 41.175 100.55C40.9309 100.125 40.5872 99.8071 40.1375 99.5938C39.5859 99.3324 39.0682 99.0082 38.5875 98.6219C38.1948 98.3062 37.7538 98.1365 37.2563 98.1063C36.7064 98.0728 36.166 98.1011 35.6344 98.1938ZM9.475 98.1781C8.96189 98.185 8.46568 98.2955 7.98438 98.5125C7.42956 98.7628 6.86347 98.9528 6.2875 99.0781C5.82241 99.1793 5.59104 99.3744 5.48438 99.6156C5.42177 99.7572 5.40959 99.8728 5.42188 99.9688C5.43419 100.064 5.47521 100.168 5.56875 100.284C5.88032 100.67 6.09881 101.154 6.23438 101.716C6.37778 102.311 6.34711 102.921 6.15313 103.538C5.99532 104.038 5.94569 104.546 6.00625 105.059C6.07964 105.683 6.02925 106.301 5.85313 106.909C5.70243 107.43 5.62839 107.954 5.63438 108.481C5.64073 109.038 5.67051 109.595 5.72188 110.15C5.74602 110.41 5.79362 110.565 5.8375 110.647C5.8518 110.673 5.86352 110.685 5.86875 110.691C6.09084 110.717 6.46702 110.707 7.01875 110.644C7.55781 110.582 7.99178 110.476 8.32813 110.334C8.82991 110.124 9.39677 110.158 9.99063 110.366C10.4569 110.528 10.9257 110.557 11.4063 110.453C11.9663 110.332 12.5235 110.228 13.075 110.141C13.5518 110.065 13.9751 109.879 14.3531 109.584C14.7317 109.289 15.0147 108.923 15.2031 108.481C15.392 108.038 15.4653 107.574 15.425 107.084C15.3833 106.579 15.2542 106.091 15.0344 105.619C14.7996 105.114 14.5839 104.719 14.3906 104.428C14.2289 104.184 14.1727 103.906 14.2313 103.619C14.2869 103.346 14.4409 103.092 14.6438 102.856C14.9532 102.497 15.1609 102.069 15.2625 101.569C15.3546 101.113 15.2684 100.717 15.0031 100.35C14.6733 99.8948 14.3295 99.4403 13.975 98.9875C13.6777 98.6079 13.2972 98.375 12.8188 98.2844C12.273 98.1811 11.7289 98.1352 11.1875 98.1469C10.6162 98.1592 10.0454 98.1704 9.475 98.1781ZM118.241 110.669L118.234 110.675C118.239 110.671 118.243 110.669 118.247 110.666L118.241 110.669ZM23.0656 98.3344C22.9105 98.3933 22.7609 98.5016 22.6188 98.6781C22.2623 99.1211 21.9219 99.5612 21.5969 99.9969C21.2588 100.45 20.8826 100.895 20.4688 101.331C20.1158 101.703 19.8901 102.132 19.7906 102.625C19.6746 103.2 19.545 103.765 19.3969 104.319C19.2404 104.904 18.9982 105.461 18.6719 105.988C18.3969 106.431 18.2305 106.905 18.175 107.416C18.1075 108.037 17.9259 108.628 17.6313 109.184C17.5188 109.397 17.4799 109.568 17.4844 109.703C17.4888 109.833 17.5351 109.959 17.6375 110.088C17.8603 110.366 18.1859 110.542 18.6625 110.588C18.7976 110.6 18.9133 110.607 19.0094 110.616C19.065 110.509 19.1391 110.39 19.225 110.266C19.4238 109.977 19.5866 109.582 19.7031 109.066C19.8356 108.479 20.0431 107.958 20.3281 107.509C20.6531 106.999 21.1619 106.684 21.8031 106.547C22.408 106.417 23.021 106.397 23.6375 106.481C24.2027 106.559 24.7759 106.626 25.3563 106.681C25.7107 106.715 26.0319 106.831 26.275 107.069C26.5196 107.308 26.6425 107.627 26.675 107.978C26.7262 108.532 26.8045 109.079 26.9125 109.619C27.0064 110.088 27.1901 110.247 27.3844 110.297C27.7076 110.379 28.0676 110.375 28.4719 110.269C28.621 110.23 28.6926 110.165 28.7344 110.097C28.7817 110.019 28.8224 109.883 28.8063 109.65C28.7696 109.119 28.6604 108.603 28.4813 108.1C28.2824 107.542 28.1301 106.971 28.025 106.394C27.9233 105.835 27.8273 105.272 27.7375 104.706C27.6569 104.198 27.475 103.725 27.1906 103.281C26.8441 102.741 26.6304 102.146 26.55 101.503C26.4846 100.981 26.3073 100.51 26.0188 100.088C25.7141 99.6413 25.3571 99.2446 24.9469 98.9C24.5635 98.5782 24.1271 98.3768 23.6313 98.2938C23.4065 98.2562 23.2209 98.2754 23.0656 98.3344ZM78.6 98.3094C78.0544 98.3878 77.5148 98.5051 76.9844 98.6656C76.5176 98.8069 76.1452 99.073 75.8563 99.4656C75.5179 99.9253 75.1932 100.376 74.8844 100.816C74.574 101.258 74.2513 101.718 73.9156 102.197C73.633 102.6 73.5134 103.038 73.5563 103.522C73.6062 104.086 73.6859 104.63 73.7938 105.153C73.9073 105.704 73.9978 106.271 74.0656 106.853C74.1218 107.335 74.3205 107.74 74.6625 108.078C75.081 108.492 75.4746 108.934 75.8438 109.403C76.1577 109.802 76.5514 110.089 77.0281 110.266C77.5337 110.453 78.0498 110.556 78.5781 110.575C78.865 110.585 79.084 110.595 79.2313 110.603C79.3013 110.607 79.3597 110.609 79.4031 110.613C79.4136 110.609 79.4268 110.608 79.4406 110.603C79.5294 110.574 79.6661 110.526 79.8531 110.459C80.2505 110.317 80.7263 110.188 81.275 110.069C81.7554 109.964 82.1928 109.762 82.5906 109.463C83.0042 109.151 83.3672 108.787 83.6813 108.372C83.9939 107.958 84.242 107.507 84.4219 107.019C84.6102 106.507 84.7715 105.98 84.9063 105.441C85.0296 104.947 85.0386 104.452 84.9344 103.953C84.8187 103.4 84.6963 102.852 84.5656 102.313C84.4404 101.795 84.2614 101.287 84.0281 100.791C83.8215 100.351 83.5035 100.026 83.0688 99.8031C82.5288 99.5264 82.0232 99.1882 81.55 98.7938C81.1621 98.4705 80.7235 98.2942 80.2281 98.2563C79.678 98.2142 79.1356 98.2324 78.6 98.3094ZM109.025 98.3094C108.479 98.3878 107.94 98.5051 107.409 98.6656C106.943 98.8069 106.57 99.073 106.281 99.4656C105.943 99.9253 105.618 100.376 105.309 100.816C104.999 101.258 104.674 101.718 104.338 102.197C104.055 102.6 103.938 103.038 103.981 103.522C104.031 104.086 104.111 104.63 104.219 105.153C104.332 105.704 104.423 106.271 104.491 106.853C104.547 107.335 104.746 107.74 105.088 108.078C105.506 108.492 105.9 108.934 106.269 109.403C106.583 109.802 106.976 110.089 107.453 110.266C107.959 110.453 108.475 110.556 109.003 110.575C109.29 110.585 109.509 110.595 109.656 110.603C109.726 110.607 109.785 110.609 109.828 110.613C109.839 110.609 109.852 110.608 109.866 110.603C109.954 110.574 110.091 110.526 110.278 110.459C110.675 110.317 111.151 110.188 111.7 110.069C112.18 109.964 112.618 109.762 113.016 109.463C113.429 109.151 113.792 108.787 114.106 108.372C114.419 107.958 114.667 107.507 114.847 107.019C115.035 106.507 115.196 105.98 115.331 105.441C115.455 104.947 115.464 104.452 115.359 103.953C115.244 103.4 115.121 102.852 114.991 102.313C114.865 101.795 114.686 101.287 114.453 100.791C114.247 100.351 113.929 100.026 113.494 99.8031C112.954 99.5264 112.448 99.1882 111.975 98.7938C111.587 98.4704 111.149 98.2942 110.653 98.2563C110.103 98.2142 109.561 98.2325 109.025 98.3094ZM67.9813 98.225C67.4696 98.1551 66.9569 98.187 66.4438 98.3219C65.8175 98.4863 65.1823 98.4953 64.5469 98.3469C64.0222 98.2244 63.5064 98.2029 62.9969 98.2813C62.4403 98.3669 61.8858 98.4632 61.3344 98.5719C60.851 98.6672 60.5158 98.868 60.2906 99.15C60.0587 99.4408 59.9927 99.7177 60.0469 100.003C60.0676 100.111 60.1059 100.145 60.1438 100.166C60.2024 100.197 60.3308 100.23 60.575 100.2C61.1832 100.127 61.7961 100.147 62.4125 100.263C62.9828 100.369 63.4779 100.445 63.8969 100.488C64.2074 100.519 64.4817 100.653 64.6719 100.909C64.8517 101.152 64.9233 101.461 64.9344 101.788C64.9551 102.397 64.88 103.002 64.7063 103.6C64.5603 104.102 64.5295 104.605 64.6125 105.113C64.7135 105.73 64.6957 106.347 64.5594 106.963C64.4422 107.491 64.4046 108.018 64.4469 108.544C64.4916 109.1 64.5567 109.655 64.6438 110.206C64.6626 110.326 64.6791 110.431 64.6938 110.522C64.8222 110.503 64.9745 110.479 65.15 110.463C65.6712 110.414 66.123 110.332 66.5063 110.219C66.622 110.185 66.6763 110.132 66.7094 110.069C66.7495 109.992 66.7797 109.853 66.7563 109.616C66.701 109.059 66.6347 108.5 66.5563 107.944C66.4771 107.382 66.3968 106.818 66.3156 106.253C66.2281 105.643 66.2431 105.033 66.3594 104.425C66.4593 103.902 66.4735 103.377 66.4031 102.85C66.3195 102.222 66.3751 101.612 66.5719 101.025C66.6813 100.699 66.8631 100.423 67.1344 100.234C67.4051 100.046 67.7291 99.9712 68.075 99.9781C68.6498 99.9896 69.2241 100.019 69.7969 100.069C70.3345 100.115 70.7641 100.093 71.0938 100.013C71.1893 99.989 71.2584 99.9397 71.3156 99.8563C71.3792 99.763 71.4373 99.6083 71.4656 99.3656C71.4923 99.1357 71.4604 98.9987 71.4156 98.9188C71.3754 98.8471 71.3016 98.7767 71.1469 98.7281C70.7104 98.5915 70.2214 98.4934 69.6813 98.4344C69.1159 98.3726 68.5493 98.3026 67.9813 98.225ZM98.4063 98.225C97.8946 98.1551 97.3819 98.187 96.8688 98.3219C96.2424 98.4864 95.6074 98.4954 94.9719 98.3469C94.4472 98.2244 93.9315 98.2028 93.4219 98.2813C92.8653 98.3669 92.3109 98.4632 91.7594 98.5719C91.2759 98.6672 90.9408 98.868 90.7156 99.15C90.4837 99.4409 90.4177 99.7177 90.4719 100.003C90.4926 100.112 90.5309 100.145 90.5688 100.166C90.6274 100.197 90.7558 100.23 91 100.2C91.6082 100.127 92.2211 100.147 92.8375 100.263C93.4079 100.369 93.9029 100.445 94.3219 100.488C94.6324 100.519 94.9067 100.653 95.0969 100.909C95.2767 101.152 95.3483 101.461 95.3594 101.788C95.3801 102.397 95.305 103.002 95.1313 103.6C94.9853 104.102 94.9545 104.605 95.0375 105.113C95.1385 105.729 95.1207 106.347 94.9844 106.963C94.8672 107.491 94.8296 108.018 94.8719 108.544C94.9166 109.1 94.9817 109.655 95.0688 110.206C95.0874 110.325 95.1042 110.429 95.1188 110.519C95.2471 110.5 95.3997 110.479 95.575 110.463C96.0962 110.414 96.548 110.332 96.9313 110.219C97.0469 110.185 97.1013 110.132 97.1344 110.069C97.1745 109.992 97.2047 109.853 97.1813 109.616C97.126 109.059 97.0597 108.5 96.9813 107.944C96.9021 107.382 96.8218 106.818 96.7406 106.253C96.6531 105.643 96.6681 105.033 96.7844 104.425C96.8843 103.902 96.8985 103.377 96.8281 102.85C96.7445 102.222 96.8 101.612 96.9969 101.025C97.1063 100.699 97.288 100.423 97.5594 100.234C97.8301 100.046 98.1541 99.9712 98.5 99.9781C99.0747 99.9897 99.6492 100.019 100.222 100.069C100.759 100.115 101.186 100.092 101.516 100.013C101.612 99.9891 101.683 99.9401 101.741 99.8563C101.804 99.763 101.862 99.6083 101.891 99.3656C101.917 99.1358 101.885 98.9987 101.841 98.9188C101.8 98.8471 101.726 98.7767 101.572 98.7281C101.135 98.5915 100.646 98.4934 100.106 98.4344C99.5409 98.3726 98.9743 98.3026 98.4063 98.225ZM122.922 98.1625C122.35 98.1967 121.778 98.2242 121.206 98.2438C120.691 98.2614 120.193 98.3778 119.709 98.5969C119.156 98.848 118.637 99.0142 118.156 99.0844C118.036 99.1019 117.972 99.1467 117.928 99.2094C117.875 99.2856 117.822 99.4298 117.813 99.6813C117.803 99.9213 117.85 100.058 117.903 100.134C117.951 100.203 118.036 100.269 118.209 100.303C118.534 100.367 118.818 100.515 119.019 100.772C119.216 101.024 119.301 101.339 119.313 101.678C119.334 102.289 119.254 102.896 119.075 103.494C118.924 103.997 118.886 104.504 118.956 105.016C119.041 105.636 119.005 106.254 118.85 106.866C118.717 107.391 118.662 107.917 118.684 108.444C118.708 109.002 118.748 109.561 118.803 110.119C118.818 110.265 118.83 110.393 118.841 110.5C118.952 110.481 119.085 110.459 119.238 110.434C119.752 110.352 120.117 110.229 120.356 110.084C120.431 110.039 120.558 109.905 120.456 109.388C120.337 108.782 120.314 108.174 120.388 107.566C120.469 106.89 120.794 106.374 121.409 106.153C121.891 105.981 122.43 105.88 123.022 105.847C123.554 105.817 124.077 105.733 124.591 105.594C125.112 105.452 125.627 105.27 126.131 105.047C126.573 104.852 126.899 104.546 127.125 104.128C127.376 103.664 127.555 103.181 127.659 102.678C127.764 102.176 127.793 101.657 127.747 101.119C127.707 100.649 127.515 100.279 127.159 99.9875C126.712 99.6202 126.271 99.2334 125.841 98.8281C125.477 98.4865 125.054 98.2864 124.563 98.2219C124.013 98.1497 123.465 98.13 122.922 98.1625ZM9.63125 104.847C9.78132 104.86 9.97448 104.909 10.1906 104.975C10.6068 105.102 11.0819 105.232 11.6156 105.369C12.2191 105.523 12.7552 105.814 13.2156 106.238C13.4676 106.47 13.6477 106.753 13.6781 107.088C13.7085 107.423 13.5808 107.733 13.3719 108.003C12.9702 108.523 12.4276 108.843 11.7688 108.956C11.1585 109.061 10.5483 109.057 9.94063 108.944C9.33208 108.831 8.80827 108.618 8.3875 108.291C7.92013 107.927 7.67621 107.389 7.61563 106.741C7.58392 106.4 7.63234 106.074 7.80625 105.8C7.98362 105.521 8.25921 105.348 8.58125 105.259C8.82389 105.193 8.98604 105.137 9.08125 105.094C9.08828 105.091 9.09448 105.084 9.1 105.081C9.11181 105.061 9.12163 105.038 9.1375 105.019C9.20367 104.938 9.28402 104.896 9.34375 104.875C9.4526 104.837 9.56338 104.841 9.63125 104.847ZM78.5281 100.181C79.0985 100.232 79.6661 100.264 80.2281 100.272C80.9119 100.282 81.4957 100.549 81.9563 101.059C82.3846 101.534 82.6825 102.076 82.8406 102.678C82.9945 103.265 83.0349 103.863 82.9625 104.463C82.8939 105.03 82.7867 105.581 82.6406 106.116C82.4835 106.691 82.2071 107.203 81.8125 107.644C81.4123 108.091 80.9166 108.414 80.3344 108.613C80.0676 108.703 79.8359 108.773 79.6469 108.816C79.4718 108.855 79.2853 108.884 79.1281 108.863C78.9986 108.844 78.8388 108.79 78.6719 108.725C78.4966 108.657 78.2824 108.562 78.0313 108.444C77.5042 108.196 77.0125 107.881 76.5594 107.5C76.0697 107.088 75.74 106.565 75.5719 105.944C75.4095 105.344 75.3817 104.739 75.4938 104.134C75.595 103.588 75.7013 103.039 75.8125 102.488C75.9399 101.856 76.2449 101.303 76.7156 100.838C77.2155 100.343 77.8299 100.119 78.5281 100.181ZM108.953 100.181C109.524 100.232 110.091 100.264 110.653 100.272C111.337 100.282 111.921 100.549 112.381 101.059C112.81 101.534 113.107 102.076 113.266 102.678C113.42 103.265 113.46 103.863 113.388 104.463C113.319 105.03 113.212 105.581 113.066 106.116C112.908 106.691 112.632 107.203 112.238 107.644C111.837 108.091 111.342 108.414 110.759 108.613C110.493 108.703 110.261 108.773 110.072 108.816C109.897 108.855 109.71 108.884 109.553 108.863C109.424 108.844 109.264 108.79 109.097 108.725C108.922 108.657 108.707 108.562 108.456 108.444C107.929 108.196 107.438 107.881 106.984 107.5C106.495 107.088 106.162 106.565 105.994 105.944C105.832 105.344 105.807 104.739 105.919 104.134C106.02 103.588 106.126 103.039 106.238 102.488C106.365 101.856 106.67 101.303 107.141 100.838C107.641 100.343 108.255 100.119 108.953 100.181ZM9.64688 105.681C9.57642 105.74 9.49129 105.784 9.41563 105.819C9.26038 105.89 9.04704 105.961 8.79063 106.031C8.61261 106.08 8.52762 106.155 8.48125 106.228C8.43164 106.306 8.39144 106.439 8.4125 106.666C8.4581 107.154 8.62743 107.464 8.87813 107.659C9.17546 107.891 9.57322 108.061 10.0875 108.156C10.602 108.252 11.1171 108.255 11.6344 108.166C12.1034 108.085 12.463 107.868 12.7375 107.513C12.8665 107.345 12.8879 107.232 12.8813 107.159C12.8743 107.085 12.8313 106.975 12.6719 106.828C12.3082 106.493 11.893 106.265 11.4188 106.144C10.8751 106.005 10.3872 105.869 9.95625 105.738C9.82774 105.698 9.72923 105.68 9.65938 105.666C9.65399 105.67 9.65143 105.677 9.64688 105.681ZM78.4563 100.978C77.9949 100.937 77.6119 101.076 77.2781 101.406C76.9152 101.765 76.6914 102.176 76.5969 102.644C76.4863 103.192 76.3819 103.738 76.2813 104.281C76.1914 104.766 76.2123 105.249 76.3438 105.734C76.4696 106.199 76.711 106.581 77.075 106.888C77.4762 107.225 77.9088 107.504 78.3719 107.722C78.6145 107.836 78.8107 107.922 78.9625 107.981C79.123 108.044 79.2101 108.064 79.2406 108.069C79.2465 108.069 79.263 108.069 79.2938 108.066C79.3366 108.061 79.3965 108.052 79.4719 108.034C79.6226 108 79.8227 107.942 80.075 107.856C80.5328 107.7 80.9104 107.451 81.2156 107.109C81.5265 106.762 81.744 106.363 81.8688 105.906C82.0044 105.41 82.1047 104.896 82.1688 104.366C82.229 103.866 82.1941 103.372 82.0656 102.881C81.9412 102.407 81.7086 101.981 81.3625 101.597C81.0486 101.249 80.6749 101.079 80.2156 101.072C79.6335 101.063 79.046 101.031 78.4563 100.978ZM108.881 100.978C108.42 100.937 108.037 101.076 107.703 101.406C107.34 101.765 107.116 102.176 107.022 102.644C106.911 103.192 106.807 103.738 106.706 104.281C106.616 104.766 106.637 105.249 106.769 105.734C106.895 106.199 107.136 106.581 107.5 106.888C107.901 107.225 108.334 107.504 108.797 107.722C109.04 107.836 109.236 107.922 109.388 107.981C109.548 108.044 109.635 108.064 109.666 108.069C109.672 108.069 109.688 108.069 109.719 108.066C109.761 108.061 109.819 108.051 109.894 108.034C110.045 108 110.247 107.942 110.5 107.856C110.958 107.7 111.335 107.451 111.641 107.109C111.951 106.762 112.169 106.363 112.294 105.906C112.429 105.41 112.53 104.896 112.594 104.366C112.654 103.866 112.619 103.372 112.491 102.881C112.366 102.407 112.134 101.981 111.788 101.597C111.474 101.249 111.1 101.079 110.641 101.072C110.058 101.063 109.471 101.031 108.881 100.978ZM23.0719 100.822C23.3598 100.707 23.6759 100.686 23.9625 100.856C24.2296 101.015 24.3949 101.295 24.5 101.597C24.6755 102.101 24.8908 102.598 25.15 103.084C25.3041 103.374 25.3994 103.687 25.3406 103.994C25.2775 104.323 25.0562 104.552 24.775 104.697C24.2643 104.959 23.6759 104.993 23.0406 104.847C22.4599 104.713 21.9921 104.566 21.6656 104.394C21.5415 104.328 21.4315 104.232 21.3531 104.103C21.2749 103.974 21.2405 103.83 21.2375 103.691C21.2323 103.427 21.3344 103.147 21.4781 102.875C21.6125 102.621 21.7255 102.42 21.8125 102.284C21.854 102.22 21.9004 102.155 21.9469 102.103C21.9618 102.087 21.9875 102.063 22.0188 102.038C22.0353 101.988 22.0647 101.915 22.0906 101.809C22.2084 101.329 22.5876 101.015 23.0719 100.822ZM122.844 99.8844C122.857 99.8854 122.897 99.8881 122.944 99.9031C122.965 99.9102 123.016 99.9306 123.069 99.9719L123.063 99.9656C123.033 99.9444 123.008 99.9336 123.003 99.9313C122.989 99.9247 122.982 99.9221 122.991 99.925C123.006 99.9301 123.038 99.9391 123.091 99.9531C123.193 99.9804 123.35 100.021 123.566 100.072C124.017 100.177 124.504 100.325 125.025 100.513C125.346 100.628 125.614 100.816 125.803 101.088C125.99 101.357 126.08 101.68 126.097 102.031C126.114 102.388 126.046 102.721 125.866 103.006C125.685 103.292 125.413 103.493 125.084 103.622C124.551 103.831 124.018 104.046 123.488 104.263C122.884 104.509 122.273 104.562 121.669 104.409C121.342 104.327 121.058 104.162 120.875 103.884C120.694 103.61 120.646 103.281 120.681 102.941C120.741 102.369 120.82 101.8 120.916 101.234C120.971 100.908 121.085 100.613 121.288 100.384C121.495 100.15 121.767 100.014 122.078 99.9688C122.308 99.9354 122.485 99.9106 122.606 99.8969C122.665 99.8902 122.718 99.8865 122.759 99.8844C122.777 99.8835 122.811 99.8819 122.844 99.8844ZM23.3688 101.563C23.0153 101.704 22.8984 101.866 22.8656 102C22.8271 102.157 22.789 102.296 22.7469 102.397C22.728 102.442 22.6933 102.512 22.6406 102.575C22.6192 102.601 22.574 102.631 22.5156 102.666C22.5064 102.679 22.4972 102.699 22.4844 102.719C22.4163 102.825 22.3185 102.999 22.1875 103.247C22.0655 103.478 22.0362 103.614 22.0375 103.675C22.038 103.698 22.0436 103.698 22.0375 103.688C22.0307 103.676 22.0257 103.676 22.0406 103.684C22.2744 103.808 22.6591 103.94 23.2188 104.069C23.7231 104.185 24.1097 104.141 24.4094 103.988C24.5327 103.924 24.5509 103.871 24.5563 103.844C24.5658 103.794 24.5584 103.675 24.4438 103.459C24.1659 102.938 23.9331 102.404 23.7438 101.859C23.6663 101.637 23.5867 101.564 23.5531 101.544C23.5383 101.535 23.4943 101.513 23.3688 101.563ZM122.697 100.694C122.589 100.706 122.422 100.726 122.194 100.759C122.048 100.781 121.956 100.836 121.888 100.913C121.814 100.996 121.742 101.138 121.703 101.369C121.611 101.918 121.536 102.471 121.478 103.025C121.455 103.246 121.494 103.371 121.541 103.444C121.586 103.512 121.674 103.587 121.863 103.634C122.288 103.742 122.725 103.71 123.184 103.522C123.718 103.304 124.254 103.088 124.791 102.878C124.996 102.798 125.118 102.692 125.191 102.578C125.263 102.463 125.308 102.302 125.297 102.069C125.285 101.829 125.229 101.662 125.147 101.544C125.067 101.428 124.944 101.333 124.756 101.266C124.258 101.087 123.801 100.947 123.384 100.85C123.167 100.799 122.999 100.759 122.884 100.728C122.834 100.715 122.787 100.699 122.75 100.688C122.735 100.689 122.717 100.691 122.697 100.694ZM10.7844 99.9125C10.7966 99.9132 10.8313 99.9173 10.8719 99.9281C10.8879 99.9324 10.9277 99.9467 10.975 99.975L10.9719 99.9719L11.05 99.9969C11.146 100.028 11.294 100.073 11.4969 100.131C11.9712 100.268 12.4126 100.522 12.8188 100.878C13.0636 101.093 13.2337 101.374 13.2219 101.716C13.2105 102.039 13.0376 102.33 12.8094 102.578C12.3298 103.099 11.7165 103.332 11.0094 103.269C10.4718 103.221 9.94649 103.268 9.43125 103.406C9.10436 103.494 8.74803 103.506 8.45625 103.309C8.15957 103.109 8.04697 102.772 8.02188 102.438C7.97528 101.816 8.08603 101.261 8.39375 100.809C8.72133 100.329 9.24665 100.077 9.88438 100C10.1652 99.9663 10.3797 99.9418 10.525 99.9281C10.5964 99.9214 10.6575 99.9145 10.7031 99.9125C10.7237 99.9116 10.7546 99.9107 10.7844 99.9125ZM22.3594 102.725C22.3682 102.723 22.3763 102.721 22.3844 102.719C22.3758 102.72 22.3681 102.724 22.3594 102.725ZM10.6 100.725C10.4654 100.738 10.2599 100.76 9.98125 100.794C9.49887 100.852 9.21704 101.024 9.05625 101.259C8.87659 101.523 8.78475 101.884 8.82188 102.378C8.83802 102.592 8.89423 102.64 8.90313 102.647C8.91305 102.654 8.99033 102.694 9.225 102.631C9.83156 102.469 10.4513 102.415 11.0813 102.472C11.5427 102.513 11.9118 102.372 12.2219 102.034C12.3879 101.854 12.42 101.74 12.4219 101.688C12.423 101.654 12.4133 101.586 12.2906 101.478C11.9605 101.189 11.6233 101 11.2781 100.9C11.0721 100.841 10.912 100.791 10.8031 100.756C10.7601 100.742 10.7209 100.728 10.6875 100.716C10.6644 100.717 10.6356 100.722 10.6 100.725ZM122.466 100.463C122.469 100.47 122.474 100.477 122.478 100.484C122.474 100.477 122.47 100.47 122.466 100.463ZM10.3719 100.316C10.3719 100.366 10.383 100.411 10.3969 100.45C10.3837 100.413 10.3719 100.367 10.3719 100.316ZM122.425 100.288C122.425 100.34 122.434 100.387 122.45 100.428C122.435 100.389 122.425 100.342 122.425 100.288ZM123.191 100.138C123.188 100.13 123.188 100.122 123.184 100.116C123.188 100.122 123.188 100.13 123.191 100.138ZM11.0813 100.069C11.0583 100.04 11.0397 100.019 11.0281 100.009C11.0219 100.004 11.015 100.001 11.0094 99.9969C11.0307 100.013 11.0558 100.037 11.0813 100.069ZM123.15 100.063C123.145 100.055 123.142 100.046 123.138 100.041C123.12 100.019 123.102 100.003 123.088 99.9906C123.108 100.009 123.13 100.033 123.15 100.063Z" fill="black"/>
</g>
<defs>
<clipPath id="clip0_47_70">
<rect width="132" height="118" fill="white"/>
</clipPath>
</defs>
</svg>
