<svg width="47" height="41" viewBox="0 0 47 41" fill="none" xmlns="http://www.w3.org/2000/svg">
<path d="M45.8204 20.0901H36.422V38.5901H28.3038V24.5901H17.3038V38.5901H9.422V20.0901H0.787231L23.3038 0.590134L45.8204 20.0901Z" fill="#FFD633"/>
<path d="M16.0333 32.3479C16.0298 30.97 16.1278 29.5873 16.3146 28.2112C16.5069 26.798 16.8494 25.5512 17.4044 24.5433C17.8135 23.8009 18.4599 23.2865 19.2677 23.0433C20.0255 22.8153 20.8427 22.8477 21.6349 23.0081C22.8261 23.2492 24.0132 23.3438 25.1974 23.2894C26.0123 23.252 26.83 23.3602 27.5529 23.7347C28.3144 24.1299 28.854 24.7634 29.1466 25.5511C29.5406 26.6124 29.8074 27.8517 29.9669 29.2425C30.1399 30.7527 30.0141 32.2627 29.5919 33.7542C29.2951 34.8048 29.3621 35.5889 29.6388 36.2034C29.7368 36.4204 29.8284 36.4876 29.8966 36.5198C29.9937 36.5648 30.2369 36.623 30.7052 36.555C32.1269 36.3488 33.4848 36.3284 34.7716 36.4964C34.9094 36.5144 34.9889 36.5029 35.0177 36.4964C35.0398 36.4913 35.0485 36.4881 35.0529 36.4847C35.0697 36.4711 35.2044 36.341 35.3224 35.8753C35.6242 34.6769 35.78 33.4769 35.7911 32.2894C35.8025 31.053 35.7243 29.8128 35.5568 28.5745C35.3746 27.2275 35.2469 25.8795 35.17 24.5315C35.0841 23.0231 35.3028 21.6202 35.9083 20.3831C36.2963 19.5907 36.9364 18.9555 37.8419 18.6839C38.6879 18.4309 39.5734 18.5607 40.3849 18.8245C40.8475 18.9751 41.3121 19.0494 41.7677 19.094C41.1316 18.5299 40.4634 18.0007 39.7286 17.5472C38.4925 16.7844 37.365 15.8811 36.3654 14.8401C35.5088 13.9485 34.5913 13.1277 33.6115 12.3792C32.5507 11.5691 31.5045 10.7381 30.4825 9.8831C29.383 8.96314 28.405 7.90896 27.5411 6.73076C26.7789 5.69113 25.9695 4.70631 25.1154 3.77763C24.5137 3.12351 23.9336 2.93608 23.2755 3.01591C22.3541 3.12879 21.4478 3.47569 20.5568 4.10576C19.6443 4.75152 18.8649 5.57505 18.2247 6.5667C17.4103 7.82696 16.4511 8.9363 15.3419 9.8831C14.242 10.8216 13.0162 11.6138 11.674 12.2503C10.7634 12.6818 10.0669 13.3547 9.57629 14.3362C8.85386 15.7834 7.89017 17.0054 6.68176 17.969C6.07986 18.4486 5.43497 18.8781 4.77161 19.2815C5.32157 19.3127 5.85831 19.283 6.37708 19.1761C7.12266 19.0228 8.07593 18.9521 8.88489 19.4222C9.86138 19.9917 10.099 20.9969 10.0568 21.8128C10.0159 22.5794 10.1581 23.5566 10.5372 24.7542C10.9963 26.2058 11.2175 27.6748 11.2052 29.1487C11.1929 30.5936 10.9825 32.031 10.5841 33.4612C10.2993 34.4829 10.3091 35.5883 10.6427 36.8011C10.7425 37.1635 10.8415 37.3004 10.8771 37.3401C10.7834 37.2869 10.8229 37.397 11.2404 37.2464C12.7009 36.7171 14.1292 36.4773 15.4825 36.6019C15.5439 36.6073 15.5857 36.6042 15.6115 36.6019C15.6452 36.5453 15.7147 36.3931 15.7638 36.0628C15.9462 34.8258 16.0367 33.5825 16.0333 32.3479ZM45.1075 21.5667C45.2733 21.6069 45.4071 21.6135 45.4122 21.6136C45.4472 21.6142 45.4708 21.6136 45.4708 21.6136C45.3363 21.6203 45.2131 21.5739 45.0958 21.555L45.1075 21.5667ZM19.0333 32.3479C19.037 33.7316 18.9439 35.1151 18.7404 36.4964C18.6185 37.3226 18.3196 38.1801 17.6622 38.805C16.9587 39.4727 16.0619 39.6694 15.2013 39.5901C14.3949 39.5163 13.4284 39.6518 12.2716 40.0706C11.3825 40.3928 10.3369 40.4931 9.38879 39.9534C8.47226 39.4314 7.9981 38.5058 7.74817 37.5979C7.28608 35.9179 7.25657 34.2618 7.70129 32.6644C8.03198 31.478 8.19505 30.297 8.2052 29.1253C8.21473 27.9812 8.04693 26.8229 7.67786 25.6565C7.28141 24.4043 7.0711 23.2142 7.06848 22.1058C7.04047 22.1108 7.00565 22.1111 6.97473 22.1175C5.40006 22.4412 3.79304 22.3386 2.18176 21.8479C1.77818 21.7248 1.35717 21.5621 1.00989 21.344C0.707338 21.1535 0.154621 20.7249 0.0255127 19.9612C-0.115232 19.1178 0.358811 18.5108 0.658325 18.2269C0.97014 17.9324 1.3632 17.7065 1.72473 17.5354C2.85072 17.0023 3.87693 16.3659 4.80676 15.6253C5.64767 14.9553 6.34846 14.0905 6.8927 13.0003C7.66928 11.4446 8.83898 10.2642 10.3849 9.53154C11.497 9.00416 12.4936 8.35816 13.3849 7.59795C14.2647 6.84728 15.0415 5.96495 15.7052 4.93779C16.5444 3.63791 17.5877 2.54283 18.8224 1.66826C20.0795 0.77857 21.4509 0.218377 22.9122 0.0393524C24.6345 -0.170258 26.1369 0.465821 27.3185 1.75029C28.2494 2.76233 29.1285 3.83365 29.9552 4.96123C30.6798 5.9494 31.495 6.82537 32.4044 7.58623C33.3922 8.41264 34.4024 9.21714 35.4279 10.0003C36.5314 10.8432 37.5696 11.7624 38.5333 12.7659C39.3555 13.622 40.2772 14.3618 41.299 14.9925C42.5303 15.7523 43.6558 16.6513 44.6622 17.6761C45.1018 18.1235 45.4277 18.4224 45.6466 18.5901C45.6765 18.6129 45.7079 18.6225 45.7286 18.637C45.7569 18.6421 45.792 18.6531 45.8224 18.6604C45.8925 18.6775 46.1665 18.7437 46.4318 18.9651C46.5898 19.0974 46.7936 19.3296 46.9005 19.68C47.0126 20.0484 46.9653 20.3916 46.8654 20.6526C46.7043 21.0716 46.4083 21.2899 46.3497 21.3323C46.2497 21.405 46.1584 21.4519 46.1154 21.4729C45.9788 21.5393 45.8413 21.578 45.799 21.5901C45.7318 21.6095 45.6498 21.6307 45.5763 21.6487C45.2878 21.7192 44.8079 21.8219 44.1583 21.9534C42.5868 22.2715 41.0071 22.1761 39.4591 21.6722C38.9708 21.5135 38.7565 21.5534 38.7091 21.5667H38.6974C38.6916 21.5719 38.6505 21.6115 38.6036 21.7073C38.2726 22.3854 38.096 23.2489 38.1583 24.3558C38.2308 25.6268 38.3613 26.9042 38.5333 28.1761C38.72 29.5564 38.8041 30.9423 38.7911 32.3245C38.7775 33.7556 38.5863 35.1816 38.2286 36.6019C38.0181 37.4378 37.6313 38.2597 36.9161 38.8284C36.1634 39.4257 35.258 39.5755 34.3849 39.4612C33.4073 39.3336 32.321 39.3581 31.1271 39.5315C30.2871 39.653 29.4256 39.6009 28.6427 39.2386C27.8307 38.8625 27.2617 38.2172 26.9083 37.4339C26.2787 36.0352 26.2654 34.5017 26.7091 32.9339C27.0282 31.8062 27.1175 30.6913 26.9904 29.5823C26.8495 28.3538 26.6209 27.3662 26.3341 26.594C26.2861 26.4648 26.2338 26.4279 26.17 26.3948C26.0662 26.3422 25.823 26.2675 25.338 26.2894C23.9028 26.3554 22.4655 26.2387 21.0372 25.9495C20.5249 25.8458 20.2514 25.8802 20.1349 25.9144C20.0896 25.928 20.0671 25.9357 20.0646 25.9378C20.0643 25.938 20.0512 25.9568 20.0294 25.9964C19.7154 26.5688 19.4424 27.4206 19.2794 28.6214C19.1109 29.8632 19.0299 31.108 19.0333 32.3479Z" fill="black"/>
</svg>
