<svg width="36" height="45" viewBox="0 0 36 45" fill="none" xmlns="http://www.w3.org/2000/svg">
<path d="M3 4C3 3.44772 3.44772 3 4 3H32C32.5523 3 33 3.44772 33 4V41C33 41.5523 32.5523 42 32 42H4C3.44772 42 3 41.5523 3 41V4Z" fill="#FFD633"/>
<path d="M12.6211 1.39453C14.4025 1.63474 16.1856 1.71573 17.9648 1.64062C19.9054 1.55886 21.8494 1.6093 23.7891 1.80469C25.5122 1.97796 27.2428 1.91152 28.9805 1.58203C30.1058 1.369 31.334 1.4045 32.3086 2.15625C33.2964 2.92051 33.6291 4.10904 33.668 5.25C33.7266 6.99116 33.9836 8.74597 34.4414 10.5117C34.9755 12.5703 35.0925 14.6508 34.793 16.7227C34.5401 18.4741 34.5006 20.2233 34.6641 21.9727C34.84 23.8547 34.9912 25.7389 35.1211 27.6211C35.2587 29.6149 35.1467 31.6087 34.793 33.5977C34.4706 35.4111 34.2673 37.1769 34.1719 38.8945C34.1086 40.0334 33.7602 41.0879 33.0352 41.9414C32.3119 42.7924 31.3259 43.3075 30.2109 43.5703C28.2612 44.03 26.2624 44.1312 24.2227 43.875C22.337 43.6379 20.4479 43.37 18.5625 43.0664C16.8173 42.7853 15.0662 42.7248 13.3242 42.8906C11.5142 43.0632 9.69979 43.3476 7.88672 43.7344C6.75949 43.9742 5.586 43.9504 4.58203 43.3594C3.54773 42.7499 3.00906 41.7198 2.77734 40.6055C2.40956 38.828 2.15248 36.9688 2.01562 35.0391C1.88083 33.1353 1.81018 31.2243 1.80469 29.3203C1.79921 27.4021 1.88853 25.4839 2.07422 23.5664C2.2362 21.8948 2.06891 20.2084 1.57031 18.5156C0.943772 16.3841 0.922928 14.2306 1.5 12.0938C1.93406 10.4844 1.92225 8.88805 1.47656 7.27734C1.20233 6.28592 1.04315 5.35892 1.07812 4.57031C1.11257 3.80577 1.3629 2.79476 2.32031 2.23828L3.17578 1.86328C3.48772 1.75892 3.8209 1.67704 4.16016 1.60547C4.85936 1.45801 5.70035 1.34031 6.66797 1.25391C8.6498 1.07713 10.641 1.12715 12.6211 1.39453ZM6.9375 4.24219C6.03819 4.32242 5.3239 4.42086 4.78125 4.53516C4.46026 4.60285 4.23541 4.69051 4.07812 4.74609C4.07083 5.07663 4.13778 5.6373 4.37109 6.48047C4.9594 8.60802 4.96947 10.75 4.39453 12.8789C3.9624 14.4791 3.98057 16.0663 4.45312 17.6719C5.05567 19.7176 5.26218 21.7808 5.0625 23.8477C4.88622 25.6668 4.7996 27.4901 4.80469 29.3086C4.80998 31.1428 4.87415 32.982 5.00391 34.8164C5.13194 36.6247 5.36783 38.3568 5.70703 39.9961C5.82969 40.5864 6.02988 40.7367 6.10547 40.7812C6.21598 40.8444 6.53436 40.949 7.26562 40.793C9.18978 40.3826 11.1158 40.0859 13.043 39.9023C15.0397 39.7122 17.0377 39.7808 19.0312 40.1016C20.8843 40.4 22.7449 40.6654 24.5977 40.8984C26.2942 41.1114 27.9316 41.0263 29.5195 40.6523C30.1713 40.4987 30.538 40.2552 30.75 40.0078C30.9592 39.7616 31.136 39.3732 31.1719 38.7305C31.2744 36.8842 31.4974 34.9959 31.8398 33.0703C32.1508 31.3213 32.2528 29.5762 32.1328 27.832C32.0046 25.9743 31.8495 24.1117 31.6758 22.2539C31.4899 20.2652 31.541 18.2757 31.8281 16.2891C32.0691 14.6217 31.971 12.954 31.5352 11.2734C31.0235 9.30158 30.7344 7.32661 30.668 5.35547C30.6565 5.01365 30.5993 4.79972 30.5508 4.67578C30.5147 4.58473 30.4909 4.5445 30.4805 4.53516C30.4782 4.53343 30.4318 4.49625 30.293 4.47656C30.1415 4.45559 29.8901 4.45539 29.5312 4.52344C27.5157 4.90517 25.4987 4.99588 23.4844 4.79297C21.687 4.61194 19.8902 4.56504 18.0938 4.64062C16.1348 4.72332 14.1677 4.6236 12.2109 4.35938C10.4524 4.12221 8.69433 4.08548 6.9375 4.24219Z" fill="black"/>
<path d="M13.4676 32.1572C14.0033 31.9397 14.5483 31.9694 15.0594 32.2412C15.3469 32.3942 15.6529 32.4502 15.992 32.4062C16.505 32.3396 17.0025 32.3876 17.4764 32.5557C17.6795 32.6278 17.8502 32.6941 17.9793 32.7549C18.043 32.7849 18.1092 32.8199 18.1678 32.8584C18.1868 32.8709 18.2236 32.8958 18.2648 32.9333C18.2678 32.9361 18.2713 32.9383 18.2752 32.9395C18.3573 32.9621 18.4931 32.9888 18.6922 33.0186C19.1547 33.0876 19.6027 33.2254 20.034 33.4297C20.3375 33.5734 20.6562 33.6271 20.9998 33.5898C21.4997 33.5356 21.9865 33.5814 22.4549 33.7295C22.7894 33.8353 23.1279 33.8689 23.4735 33.833C23.8623 33.7925 24.2468 33.7226 24.6248 33.623C24.9926 33.5262 25.3519 33.3899 25.702 33.2129C25.9371 33.094 26.2115 33.0085 26.493 33.0518C26.8029 33.0997 27.0305 33.2881 27.1727 33.5322C27.2809 33.7182 27.4073 34.0427 27.2235 34.3643C27.0569 34.6553 26.7412 34.7437 26.535 34.7773C26.2356 34.8262 25.9098 34.9281 25.5584 35.0898C25.1514 35.2771 24.735 35.4328 24.3104 35.5557C23.8426 35.691 23.3723 35.7225 22.9061 35.6445C22.5654 35.5876 22.1983 35.5771 21.8045 35.6152C21.3072 35.6633 20.8224 35.6144 20.3563 35.4668C19.9884 35.3504 19.6128 35.2718 19.2303 35.2305C18.7921 35.183 18.3586 35.1055 17.9315 34.999C17.5593 34.9063 17.1783 34.8515 16.7889 34.834C16.3386 34.8137 15.8948 34.756 15.4598 34.6611C15.0512 34.5721 14.6428 34.4802 14.2352 34.3867C13.824 34.2924 13.4148 34.1918 13.0096 34.085C12.6944 34.0019 12.3809 34.0021 12.0613 34.0869C11.6272 34.2023 11.1833 34.2761 10.7313 34.3066C10.3662 34.3313 10.0358 34.4124 9.73713 34.5479C9.63276 34.5952 9.52216 34.6386 9.41388 34.6621C9.3255 34.6813 9.13822 34.7108 8.95099 34.6172C8.69911 34.4911 8.62881 34.2476 8.63068 34.0791C8.63228 33.9365 8.67949 33.8068 8.71857 33.7168C8.90834 33.2802 9.28808 32.9835 9.74982 32.7881C10.1709 32.6099 10.6037 32.4769 11.0467 32.3896C11.5022 32.3 11.9704 32.275 12.4481 32.3125C12.8059 32.3406 13.1438 32.2885 13.4676 32.1572ZM13.8885 25.6094C14.407 25.4565 14.9291 25.4748 15.4373 25.6631C15.7335 25.7728 16.0327 25.7779 16.3543 25.6689C16.8387 25.5046 17.3235 25.4544 17.7567 25.6201C17.8977 25.6741 18.006 25.7166 18.0799 25.7461C18.0949 25.7521 18.1107 25.7557 18.1268 25.7553C18.1313 25.7552 18.1358 25.755 18.1404 25.7549C18.242 25.7516 18.3969 25.7444 18.6053 25.7354C19.0593 25.7156 19.5115 25.7451 19.9598 25.8223C20.3427 25.8882 20.7283 25.9183 21.1151 25.9131C21.5019 25.9078 21.8842 25.8676 22.2615 25.792C22.7251 25.6991 23.196 25.6851 23.6707 25.75C24.1019 25.809 24.5342 25.8822 24.9666 25.9697C25.3227 26.0419 25.6704 26.0406 26.0135 25.9668C26.2186 25.9226 26.4009 25.8896 26.5311 25.8828C26.5657 25.881 26.6115 25.8799 26.66 25.8848C26.6945 25.8883 26.7978 25.9005 26.9031 25.9658C26.9634 26.0034 27.0427 26.0702 27.0955 26.1787C27.1508 26.2926 27.1562 26.4085 27.1375 26.5029C27.1119 26.6323 27.0418 26.7189 27.0046 26.7595C27.0015 26.7628 26.9998 26.7672 26.9998 26.7718C26.9998 26.7814 26.9921 26.7894 26.9824 26.7898C26.9779 26.7899 26.9736 26.7917 26.9704 26.7948C26.8799 26.8806 26.7526 26.9584 26.6463 27.0186C26.5148 27.093 26.3432 27.1812 26.1365 27.2822C25.6046 27.542 25.0436 27.5648 24.4891 27.3525C24.1958 27.2404 23.9288 27.2553 23.6512 27.3994C23.1819 27.6432 22.6893 27.7733 22.1795 27.7793C21.691 27.785 21.2123 27.7009 20.7479 27.5293C20.3764 27.3921 20.0045 27.3045 19.6326 27.2646C19.2337 27.2219 18.8334 27.1977 18.4324 27.1924C17.9897 27.1865 17.5484 27.1457 17.1102 27.0713C16.7817 27.0155 16.4425 27.0412 16.0877 27.1553C15.6139 27.3076 15.138 27.3822 14.6629 27.375C14.1844 27.3677 13.7116 27.2735 13.2479 27.0967C12.9582 26.9863 12.6827 26.9918 12.3944 27.1172C11.9008 27.3317 11.3867 27.398 10.8651 27.3066C10.5186 27.2461 10.1792 27.2644 9.84162 27.3613C9.72433 27.395 9.60376 27.4218 9.49103 27.4307C9.40297 27.4376 9.20528 27.4452 9.02814 27.3232C8.92331 27.251 8.84261 27.1438 8.80451 27.0137C8.76944 26.8937 8.77925 26.7851 8.79572 26.71C8.82648 26.5697 8.89999 26.4488 8.95783 26.3652C8.96894 26.3492 8.98063 26.3336 8.9923 26.3184C8.99717 26.312 8.99982 26.3043 8.99982 26.2963V26.2897C8.99982 26.2745 9.01157 26.2618 9.02676 26.2607C9.03452 26.2601 9.04175 26.2564 9.04685 26.2505C9.37892 25.8677 9.86292 25.7711 10.3612 25.8506C10.7491 25.9126 11.1341 25.9344 11.5154 25.917C11.9237 25.8983 12.3319 25.8699 12.7391 25.832C13.1207 25.7966 13.5042 25.7227 13.8885 25.6094ZM18.4938 26.1921C18.4939 26.1928 18.4945 26.1934 18.4953 26.1934C18.4961 26.1934 18.4968 26.1926 18.4967 26.1917C18.4921 26.1543 18.4827 26.1202 18.4715 26.0889C18.482 26.1186 18.4889 26.1534 18.4938 26.1921ZM18.3328 25.8828C18.3108 25.863 18.2914 25.8494 18.2801 25.8418C18.2787 25.841 18.2766 25.8407 18.2752 25.8398C18.2878 25.8482 18.3097 25.8622 18.3328 25.8828ZM11.9451 7C13.4334 7.00007 14.6403 8.62953 14.6404 10.6396C14.6404 11.7352 14.2813 13.1807 13.714 14.2696C13.4795 14.7198 13.5152 15.2898 13.8786 15.6442L16.5858 18.284C17.228 18.9103 16.7846 20 15.8877 20H8.00262C7.10563 20 6.66227 18.9103 7.30447 18.284L10.0107 15.6452C10.3741 15.2908 10.4097 14.7207 10.1753 14.2705C9.60823 13.1814 9.24982 11.7352 9.24982 10.6396C9.24996 8.62949 10.4568 7 11.9451 7Z" fill="black"/>
<path d="M13.9342 31.625C14.3353 31.5968 14.73 31.6463 15.1139 31.7773C15.4105 31.8786 15.718 31.9566 16.0358 32.0117C16.3441 32.0651 16.649 32.0846 16.9498 32.0703C17.3485 32.0514 17.7376 32.1059 18.1139 32.2305C18.3856 32.3205 18.6786 32.3742 18.9928 32.3906C19.4675 32.4153 19.8955 32.5972 20.2584 32.9141C20.4398 33.072 20.6131 33.1173 20.8092 33.0898C21.2273 33.0312 21.6399 33.0598 22.0397 33.1758C22.2888 33.2479 22.5389 33.2556 22.7975 33.1992C23.2304 33.1049 23.6737 33.1351 24.1139 33.2734C24.3346 33.3424 24.4957 33.3124 24.653 33.1953C25.0032 32.9338 25.3898 32.757 25.8053 32.6797C26.2365 32.5998 26.671 32.6469 27.0983 32.8047C27.3666 32.904 27.6018 33.0814 27.7428 33.3516C27.8791 33.6131 27.8972 33.9045 27.8561 34.1836C27.8141 34.467 27.7081 34.7495 27.4811 34.957C27.2484 35.1697 26.9541 35.2462 26.6647 35.2422C26.3729 35.2383 26.1484 35.3169 25.9655 35.4648C25.6124 35.75 25.2084 35.9233 24.7623 35.9766C24.3891 36.0211 24.0232 36.0387 23.6647 36.0273C23.318 36.0163 22.9629 35.9904 22.6022 35.9492C22.286 35.9132 21.9752 35.9081 21.6725 35.9336C21.3181 35.9634 20.959 35.9732 20.5983 35.9648C20.2137 35.9558 19.8355 35.901 19.4655 35.7969C19.1092 35.6964 18.7584 35.5666 18.4186 35.4102C18.1609 35.2916 17.8875 35.2239 17.5944 35.207C17.2854 35.1895 16.975 35.214 16.6647 35.2812C16.1645 35.3898 15.689 35.2791 15.274 34.9766C15.1093 34.8563 14.9352 34.8253 14.6959 34.9062C14.1933 35.0759 13.692 35.0439 13.2428 34.7695C13.0128 34.6287 12.7801 34.5675 12.5397 34.5742C12.1772 34.5844 11.8118 34.5721 11.4459 34.5391C11.1934 34.5164 10.9467 34.5602 10.6998 34.6797C10.3181 34.8643 9.9274 34.9646 9.53186 34.9609C9.33104 34.9589 9.11299 34.9265 8.92249 34.8203C8.71728 34.7056 8.57107 34.5225 8.50452 34.2969C8.40752 33.9671 8.45072 33.5739 8.54749 33.1758C8.61363 32.9037 8.75651 32.6418 9.01624 32.4727C9.27092 32.3075 9.56576 32.2777 9.84045 32.3125C10.1659 32.3536 10.4175 32.3108 10.6178 32.2109C10.9943 32.0233 11.3951 31.9312 11.8131 31.9414C12.1581 31.9499 12.5247 31.971 12.9108 32C12.9747 32.0048 13.0279 32.0003 13.0709 32C13.1615 31.8693 13.2854 31.7834 13.3873 31.7383C13.5519 31.6655 13.7478 31.6381 13.9342 31.625ZM13.8717 32.6367C13.8368 32.6995 13.7964 32.7576 13.7428 32.8047C13.6368 32.8978 13.5169 32.9416 13.4264 32.9648C13.2488 33.0103 13.0403 33.0114 12.8365 32.9961C12.465 32.9682 12.116 32.9495 11.7897 32.9414C11.5368 32.9351 11.2963 32.9892 11.0631 33.1055C10.654 33.3093 10.1977 33.3655 9.71545 33.3047C9.59694 33.2897 9.55868 33.3126 9.5592 33.3125C9.55197 33.3209 9.5357 33.347 9.52014 33.4102C9.45316 33.6857 9.45147 33.8579 9.46155 33.9531C9.48176 33.9558 9.50721 33.9606 9.53967 33.9609C9.75658 33.9631 9.99773 33.9112 10.2662 33.7812C10.6698 33.586 11.0955 33.5034 11.5358 33.543C11.8633 33.5726 12.1897 33.5833 12.5123 33.5742C12.9566 33.5618 13.3767 33.6783 13.7623 33.9141C13.9281 34.0156 14.1166 34.0445 14.3756 33.957C14.8996 33.7797 15.4172 33.8419 15.8639 34.168C16.0593 34.3104 16.2434 34.349 16.4498 34.3047C16.847 34.2185 17.2482 34.1843 17.649 34.207C18.0648 34.2307 18.4624 34.328 18.8365 34.5C19.1295 34.6349 19.4299 34.746 19.735 34.832C20.0249 34.9138 20.3202 34.9578 20.6217 34.9648C20.948 34.9724 21.2717 34.9644 21.5905 34.9375C21.9611 34.9063 22.3361 34.9138 22.7155 34.957C23.0505 34.9952 23.3779 35.0172 23.6959 35.0273C24.0016 35.037 24.3185 35.0234 24.6451 34.9844C24.8979 34.954 25.1256 34.8577 25.3365 34.6875C25.7186 34.3785 26.1779 34.2353 26.6803 34.2422C26.7325 34.2428 26.7647 34.2358 26.7819 34.2305C26.7955 34.226 26.803 34.2208 26.8053 34.2188C26.808 34.2163 26.8469 34.1772 26.8678 34.0352C26.889 33.8899 26.8647 33.8291 26.8561 33.8125C26.8512 33.8033 26.8359 33.7724 26.7545 33.7422C26.4767 33.6394 26.2215 33.62 25.985 33.6641C25.7319 33.7114 25.4874 33.8193 25.2506 33.9961C24.8214 34.3161 24.3236 34.3869 23.8131 34.2266C23.5207 34.1347 23.2538 34.1222 23.0084 34.1758C22.5897 34.2669 22.1722 34.2553 21.7623 34.1367C21.5024 34.0613 21.232 34.0426 20.9498 34.082C20.4458 34.1527 19.9831 34 19.5983 33.6641C19.3949 33.4871 19.1797 33.403 18.942 33.3906C18.5444 33.3699 18.1636 33.2996 17.8014 33.1797C17.543 33.0941 17.2746 33.0571 16.9967 33.0703C16.621 33.0881 16.242 33.0655 15.8639 33C15.4957 32.9361 15.1369 32.8452 14.7897 32.7266C14.5299 32.6379 14.2699 32.6025 14.0045 32.6211C13.9507 32.6249 13.9063 32.6311 13.8717 32.6367ZM13.9147 32.5156C13.9341 32.4759 13.9504 32.4319 13.9537 32.3828C13.9505 32.4305 13.9278 32.472 13.9147 32.5156ZM23.4967 25.0547C23.9354 24.9895 24.3638 25.0294 24.774 25.1797C25.0552 25.2826 25.3284 25.3341 25.5944 25.3398C25.9748 25.3481 26.3404 25.4198 26.6842 25.5547C26.9094 25.6435 27.1069 25.7889 27.2428 26.0039C27.3765 26.2159 27.4274 26.4568 27.4264 26.6953C27.4251 26.9576 27.3471 27.2356 27.1295 27.4453C26.9202 27.6462 26.649 27.7218 26.3951 27.7383C26.0385 27.7612 25.7064 27.7984 25.403 27.8555C24.9735 27.9359 24.536 27.8852 24.1022 27.7227C23.8906 27.6434 23.7529 27.6711 23.6139 27.7812C23.2049 28.1056 22.7236 28.2087 22.2233 28.0547C21.9754 27.9783 21.719 27.9656 21.4459 28.0273C21.0254 28.1228 20.6087 28.1312 20.2037 28.043C19.8435 27.9645 19.4836 27.848 19.1256 27.6953C18.8698 27.5863 18.6165 27.5511 18.36 27.5781C17.993 27.6167 17.6269 27.6299 17.2623 27.6172C16.9675 27.6069 16.6798 27.6368 16.399 27.707C16.0526 27.7939 15.6944 27.8588 15.3287 27.9062C14.9638 27.9535 14.5901 27.9819 14.2115 27.9922C13.709 28.0057 13.2516 27.8223 12.8522 27.4883C12.7415 27.3956 12.6601 27.3638 12.61 27.3555C12.5661 27.3484 12.511 27.3512 12.4342 27.3906C12.0353 27.5964 11.6137 27.6879 11.1803 27.6445C10.8918 27.6155 10.5838 27.6211 10.2584 27.6602C9.86076 27.7078 9.48956 27.6972 9.16077 27.6094C8.92649 27.5468 8.71004 27.405 8.58264 27.1641C8.46579 26.9421 8.45722 26.6971 8.48499 26.4805C8.55358 25.9494 8.89003 25.58 9.3717 25.3789C9.77587 25.2105 10.1893 25.125 10.6061 25.1289C10.9928 25.1326 11.3777 25.1852 11.7584 25.2891C11.989 25.352 12.2063 25.3384 12.4264 25.2422C12.8494 25.0572 13.2904 25.0187 13.7155 25.1875C13.7357 25.1955 13.7566 25.2004 13.774 25.207C13.8789 25.1684 13.974 25.1604 14.0162 25.1602C14.1494 25.1594 14.3142 25.188 14.4811 25.2227C14.8023 25.2894 15.1344 25.353 15.4772 25.4141C15.7601 25.4645 16.0416 25.4566 16.3209 25.3945C16.7292 25.304 17.1281 25.3033 17.5045 25.4102C17.6465 25.4504 17.821 25.4536 18.0358 25.4375H18.0397V25.4336L18.0475 25.4375C18.1195 25.4317 18.197 25.4355 18.278 25.4219C18.6994 25.3505 19.1077 25.3359 19.4967 25.3828C19.7692 25.4157 20.0537 25.3989 20.3483 25.3281C20.7179 25.2393 21.0797 25.176 21.4342 25.1445C21.7834 25.1137 22.1461 25.1035 22.5162 25.1133C22.8384 25.1218 23.1655 25.1039 23.4967 25.0547ZM23.6412 26.043C23.2547 26.1003 22.8704 26.1234 22.4889 26.1133C22.1544 26.1044 21.8327 26.1133 21.524 26.1406C21.2216 26.1674 20.9056 26.2183 20.5787 26.2969C20.1768 26.3934 19.7764 26.4227 19.3795 26.375C19.0984 26.3411 18.7862 26.3486 18.4459 26.4062C18.4383 26.4075 18.4301 26.405 18.4225 26.4062C18.4218 26.4794 18.4229 26.5338 18.4225 26.5742C18.7974 26.5597 19.166 26.6263 19.5201 26.7773C19.8234 26.9065 20.1215 27.0024 20.4147 27.0664C20.6641 27.1208 20.9329 27.1205 21.2233 27.0547C21.6603 26.9555 22.0944 26.9678 22.5162 27.0977C22.6862 27.1501 22.8289 27.126 22.9928 26.9961C23.4265 26.6528 23.9387 26.5922 24.4537 26.7852C24.7463 26.8947 24.9978 26.9165 25.2194 26.875C25.5671 26.8097 25.9373 26.7635 26.3287 26.7383C26.3714 26.7355 26.4005 26.7275 26.4186 26.7227C26.4194 26.7145 26.4263 26.7045 26.4264 26.6914C26.4269 26.595 26.4076 26.5532 26.399 26.5391C26.3933 26.5299 26.3765 26.5077 26.317 26.4844C26.0891 26.395 25.8408 26.3457 25.5709 26.3398C25.1872 26.3314 24.8064 26.255 24.4303 26.1172C24.1828 26.0265 23.9211 26.0014 23.6412 26.043ZM12.8248 26.1562C12.3964 26.3433 11.9476 26.3769 11.4967 26.2539C11.1962 26.1718 10.8966 26.1319 10.5983 26.1289C10.3298 26.1263 10.0501 26.1794 9.75842 26.3008C9.54523 26.3896 9.49233 26.4906 9.47717 26.6055C9.47492 26.6229 9.47396 26.6394 9.47327 26.6523C9.63536 26.6866 9.85202 26.6981 10.1373 26.6641C10.5284 26.6172 10.9103 26.6115 11.278 26.6484C11.5004 26.6709 11.732 26.6304 11.9772 26.5039C12.2215 26.3781 12.4888 26.3229 12.7662 26.3672C13.0383 26.411 13.2822 26.5424 13.4928 26.7188C13.7374 26.9236 13.9637 26.998 14.1842 26.9922C14.53 26.9828 14.8696 26.9568 15.1998 26.9141C15.5283 26.8715 15.8458 26.8114 16.153 26.7344C16.5262 26.6408 16.9097 26.6036 17.2975 26.6172C17.6145 26.6282 17.9335 26.6158 18.2545 26.582C18.2619 26.5813 18.2705 26.5788 18.278 26.5781C18.2783 26.541 18.2773 26.4916 18.278 26.4258C17.9074 26.4718 17.5554 26.4632 17.2311 26.3711C17.0427 26.3176 16.8148 26.3091 16.5358 26.3711C16.1272 26.4619 15.714 26.472 15.3014 26.3984C14.9498 26.3358 14.609 26.268 14.278 26.1992C14.2253 26.1883 14.1805 26.1817 14.1451 26.1758C14.1329 26.1825 14.1259 26.1976 14.1139 26.2031C13.9534 26.276 13.7965 26.2522 13.7584 26.2461C13.6348 26.2263 13.4889 26.1731 13.3483 26.1172C13.2153 26.0642 13.0506 26.0575 12.8248 26.1562ZM12.0826 6.59375C12.2572 6.60186 12.4451 6.67369 12.6022 6.74219C12.9616 6.89924 13.2764 7.11546 13.5436 7.39062C13.7543 7.60768 13.9858 7.82538 14.235 8.04688C14.5678 8.34267 14.7922 8.71289 14.899 9.14453C14.9906 9.51502 15.0396 9.89097 15.0436 10.2695C15.0467 10.5641 15.0886 10.8722 15.1725 11.1953C15.2963 11.6718 15.2457 12.1415 15.0162 12.5742C14.8644 12.86 14.7504 13.1525 14.6725 13.4492C14.5724 13.8313 14.4189 14.1947 14.2155 14.5352C14.1617 14.6252 14.1502 14.6873 14.149 14.7266C14.1484 14.7628 14.1565 14.8105 14.1959 14.875C14.3847 15.1815 14.5474 15.5311 14.6881 15.9141C14.7627 16.1165 14.8921 16.2363 15.1178 16.3008C15.5848 16.4346 15.9748 16.6873 16.2545 17.0664C16.4266 17.2994 16.646 17.5149 16.9186 17.7109C17.1391 17.8693 17.3326 18.0922 17.399 18.3867C17.4648 18.6811 17.387 18.9626 17.2545 19.1992C17.0409 19.5805 16.7698 19.8936 16.4264 20.0859C16.1091 20.2631 15.7389 20.3566 15.3405 20.3828C14.998 20.4054 14.6556 20.4302 14.3131 20.4531C13.953 20.4772 13.5913 20.4811 13.2311 20.4688C12.8784 20.4566 12.525 20.4348 12.1725 20.4023C11.8893 20.3763 11.6053 20.401 11.317 20.4766C10.8778 20.5918 10.434 20.5748 10.0006 20.4297C9.79793 20.3617 9.59594 20.3726 9.36389 20.4961C8.89357 20.7465 8.39172 20.7776 7.90686 20.5586C7.50329 20.3761 7.17003 20.116 6.94592 19.7617C6.71824 19.4014 6.63202 18.9797 6.65295 18.5312C6.67677 18.0262 6.88753 17.5942 7.28967 17.2891C7.6107 17.0456 7.97697 16.8549 8.37952 16.7148C8.66861 16.614 8.8953 16.4697 9.07092 16.2852C9.24795 16.0987 9.37442 15.8713 9.44983 15.5977C9.54073 15.2678 9.60708 14.9569 9.64905 14.6641C9.67639 14.4728 9.64171 14.2803 9.51624 14.0742C9.28465 13.695 9.17124 13.2727 9.17639 12.8242C9.18036 12.4763 9.17415 12.1404 9.16077 11.8164C9.14913 11.5354 9.09504 11.2519 8.9928 10.9688C8.8317 10.5228 8.84209 10.0696 9.03186 9.63672C9.16468 9.33439 9.28276 9.03494 9.38733 8.74219C9.51633 8.38097 9.70627 8.05164 9.95374 7.76172C10.1753 7.50223 10.4201 7.25241 10.6842 7.01172C10.9442 6.77501 11.3285 6.55361 11.7389 6.68359C11.8743 6.60621 12.0061 6.59031 12.0826 6.59375ZM11.4655 7.66797C11.4385 7.68464 11.4007 7.70933 11.3561 7.75C11.1206 7.96454 10.9087 8.18769 10.7155 8.41406C10.5479 8.61039 10.4174 8.82995 10.3287 9.07812C10.2158 9.39442 10.0878 9.7162 9.94592 10.0391C9.86234 10.2306 9.85808 10.4182 9.9342 10.6289C10.0695 11.0035 10.1447 11.3861 10.1608 11.7734C10.175 12.1167 10.1806 12.4709 10.1764 12.8359C10.1733 13.1017 10.2373 13.3367 10.3678 13.5508C10.604 13.9375 10.7044 14.3625 10.6412 14.8047C10.5926 15.1446 10.5155 15.4974 10.4147 15.8633C10.298 16.2868 10.0936 16.6608 9.79749 16.9727C9.50072 17.2852 9.13266 17.5121 8.70764 17.6602C8.39504 17.7689 8.12487 17.9119 7.89514 18.0859C7.74645 18.1988 7.66392 18.3467 7.65295 18.5781C7.63947 18.8669 7.69732 19.0742 7.79358 19.2266C7.89333 19.3839 8.05808 19.5297 8.32092 19.6484C8.50318 19.7303 8.67941 19.7281 8.89514 19.6133C9.34908 19.372 9.83377 19.3187 10.317 19.4805C10.57 19.5653 10.8159 19.5727 11.0631 19.5078C11.4608 19.4036 11.8635 19.3691 12.2662 19.4062C12.5996 19.437 12.933 19.4573 13.2662 19.4688C13.5927 19.4799 13.9202 19.475 14.2467 19.4531C14.5899 19.4302 14.9347 19.4093 15.278 19.3867C15.5654 19.3676 15.7801 19.303 15.9381 19.2148C16.069 19.1416 16.2214 18.9893 16.3795 18.707C16.4323 18.6124 16.4187 18.5886 16.4225 18.6055C16.4261 18.6205 16.4268 18.5883 16.3365 18.5234C15.9875 18.2726 15.6901 17.9855 15.4498 17.6602C15.3167 17.4798 15.1228 17.3425 14.8405 17.2617C14.3171 17.1118 13.9384 16.7687 13.7506 16.2578C13.629 15.9267 13.4923 15.6426 13.3444 15.4023C13.2163 15.1945 13.1446 14.9608 13.149 14.7109C13.1538 14.4638 13.232 14.2316 13.3561 14.0234C13.5115 13.7633 13.6277 13.4856 13.7037 13.1953C13.802 12.8208 13.9468 12.4569 14.1334 12.1055C14.2419 11.9007 14.2664 11.6908 14.2037 11.4492C14.1011 11.0545 14.0477 10.6645 14.0436 10.2812C14.0405 9.98156 14.0032 9.68238 13.9303 9.38672C13.8724 9.15223 13.7533 8.95911 13.5709 8.79688C13.3049 8.5605 13.0581 8.32213 12.8287 8.08594C12.6576 7.90964 12.4514 7.76746 12.2076 7.66016C12.1129 7.72922 12.0061 7.76259 11.9108 7.76953C11.7901 7.77796 11.6871 7.75002 11.6217 7.72656C11.5705 7.70819 11.5235 7.68064 11.4772 7.65625C11.4731 7.65855 11.4705 7.66484 11.4655 7.66797Z" fill="black"/>
<path d="M23.5 15.3154L26.5938 15.624L29 15.3154V15.624L26.5938 15.9326L23.5 15.624L20.75 15.3154L18 15.624V15.3154L20.75 15.0068L23.5 15.3154ZM23.5 13.1543L26.25 13.3086L29 13.1543V13.4629L26.25 13.6172L23.5 13.4629L20.9219 13.3086L18 13.4629V13.1543L20.9219 13L23.5 13.1543Z" fill="black"/>
<path d="M22.7109 14.4375C22.932 14.4614 23.132 14.4963 23.2969 14.5469C23.4144 14.583 23.5837 14.6528 23.7188 14.7891C23.726 14.7916 23.7375 14.7965 23.7539 14.8008C23.8303 14.8205 23.9595 14.8375 24.1523 14.8477C24.619 14.8723 25.0788 14.9668 25.5273 15.1289C25.8232 15.2356 26.1178 15.2424 26.4297 15.1406C26.8916 14.9893 27.3607 14.9062 27.832 14.8984C28.0485 14.8949 28.2375 14.902 28.3828 14.918C28.4535 14.9258 28.5334 14.9375 28.6094 14.9609C28.6451 14.972 28.7525 15.0049 28.8516 15.0938L28.9453 15.1992L29.0234 15.4062C29.0359 15.483 29.0322 15.5665 29.0039 15.6523C28.9561 15.7961 28.8599 15.8822 28.8125 15.918C28.7193 15.988 28.6142 16.0222 28.5586 16.0391C28.4248 16.0795 28.2413 16.1118 28.0312 16.1406C27.639 16.1944 27.2438 16.2708 26.8477 16.375C26.3522 16.5053 25.8552 16.509 25.3633 16.3828C24.9425 16.2748 24.5221 16.151 24.1055 16.0078C23.7636 15.8903 23.4157 15.8454 23.0625 15.8711C22.6166 15.9035 22.1712 15.9019 21.7305 15.8672C21.3103 15.834 20.8856 15.7928 20.457 15.7461C20.1205 15.7095 19.7948 15.7573 19.4727 15.8945C19.2495 15.9898 19.0224 16.0603 18.8086 16.0742C18.5903 16.0881 18.3214 16.0458 18.1172 15.8359C18.0406 15.7572 17.9211 15.6012 17.9258 15.3789C17.9311 15.1441 18.0692 14.9887 18.168 14.9102C18.3406 14.7734 18.589 14.7091 18.793 14.668C19.2238 14.5811 19.6601 14.5233 20.1016 14.4922C20.5235 14.4625 20.9475 14.4325 21.3711 14.4062C21.8209 14.3784 22.2684 14.3897 22.7109 14.4375ZM21.4102 12.3359C21.9004 12.2613 22.3861 12.2862 22.8633 12.4102C23.0705 12.464 23.2385 12.5087 23.3633 12.5469C23.425 12.5658 23.4831 12.5836 23.5312 12.6016C23.5403 12.6049 23.5516 12.6151 23.5664 12.6211C23.5765 12.6206 23.5882 12.6182 23.6016 12.6172C23.6972 12.6098 23.8452 12.5889 24.0508 12.5547C24.5272 12.4755 25.0025 12.4777 25.4727 12.5625C25.846 12.6298 26.2175 12.6502 26.5859 12.625C27.0365 12.5943 27.4913 12.6185 27.9492 12.6953C28.1619 12.731 28.3322 12.7635 28.4531 12.7891C28.5115 12.8014 28.5666 12.8148 28.6133 12.8281C28.6358 12.8346 28.6675 12.8427 28.6992 12.8555C28.7152 12.862 28.7421 12.8713 28.7695 12.8867L28.8984 12.9922L29.0117 13.1914C29.0343 13.2682 29.0389 13.3535 29.0195 13.4414C28.9889 13.5788 28.9103 13.6643 28.8789 13.6953C28.8137 13.7596 28.7413 13.7956 28.7227 13.8047C28.6669 13.8317 28.6025 13.8545 28.5508 13.8711C28.4369 13.9076 28.2728 13.9525 28.0664 14.0039C27.5722 14.1271 27.0721 14.1208 26.5781 13.9883C26.2214 13.8924 25.8634 13.8613 25.5039 13.8945C25.0977 13.9321 24.6899 13.9845 24.2812 14.0547C23.8063 14.1363 23.3328 14.1394 22.8633 14.0625C22.4918 14.0017 22.116 13.9886 21.7383 14.0234C21.3017 14.0637 20.8708 14.0815 20.4453 14.0742C20.0086 14.0667 19.5647 14.0214 19.1172 13.9375C18.8936 13.8955 18.6934 13.8456 18.5312 13.7852C18.3924 13.7333 18.1889 13.6389 18.0586 13.457C17.9889 13.3595 17.8561 13.1001 18.0312 12.8281C18.1555 12.6355 18.3573 12.5848 18.418 12.5703C18.5826 12.5311 18.7985 12.5345 19.0078 12.5469C19.3953 12.5698 19.7806 12.5559 20.1641 12.5078C20.5741 12.4564 20.9904 12.3999 21.4102 12.3359Z" fill="black"/>
</svg>
