<svg width="53" height="59" viewBox="0 0 53 59" fill="none" xmlns="http://www.w3.org/2000/svg">
<path d="M48.0932 3.22713C48.9815 4.41174 49.1428 5.99016 48.5124 7.32994L43.4019 18.1912C43.1803 18.6621 42.8689 19.0853 42.4853 19.4369L34.0878 27.1339C32.168 28.8935 32.4149 31.9893 34.5893 33.4224L44.2497 39.7895C44.7994 40.1518 45.2483 40.6477 45.5543 41.2306L52.7322 54.9038C52.9362 55.2925 52.4716 55.6879 52.1205 55.4244C52.0214 55.35 51.8939 55.3242 51.7736 55.3543L46.3213 56.7173C44.826 57.0912 43.2489 56.5726 42.2673 55.3842L36.1893 48.0265L29.9595 39.1619C28.3882 36.9261 25.0875 36.8892 23.4666 39.0892L17.5214 47.1582C17.2947 47.4659 17.1132 47.8045 16.9826 48.1637L14.6932 54.4586C14.2261 55.743 13.1355 56.7 11.8013 56.9963L10.8777 57.2015C10.4964 57.2862 10.1047 57.3145 9.71509 57.2857L6.26183 57.03C3.19776 56.8031 1.52287 53.3498 3.24175 50.8031L9.9814 40.8178C10.1945 40.5021 10.4515 40.2185 10.7447 39.9755L19.0134 33.1241C20.8815 31.5762 20.9526 28.735 19.1643 27.0956L11.1122 19.714L1.23245 10.2546C-0.429726 8.66319 -0.407052 5.9985 1.27896 4.43233C1.62949 4.10672 2.03603 3.84623 2.4784 3.66402L5.9573 2.23116C7.5793 1.5631 9.44732 2.02981 10.5645 3.38223L16.1795 10.1794C16.307 10.3337 16.4227 10.4974 16.5257 10.6691L21.4105 18.8112C23.1166 21.6549 27.3433 21.3068 28.5611 18.2222L30.2865 13.8519C30.4459 13.4482 30.67 13.0731 30.9499 12.7413L40.2496 1.71945C41.0096 0.818674 42.1282 0.29892 43.3067 0.29892H43.8972C45.1563 0.29892 46.3419 0.891781 47.0973 1.89913L48.0932 3.22713Z" fill="#FFD633"/>
<path d="M42.1094 0.271576C43.5215 -0.109288 44.9484 -0.131615 46.2383 0.476654C47.5345 1.09003 48.4202 2.21402 49 3.55283C49.4656 4.62794 49.82 5.44912 50.0391 6.00009C50.1442 6.26464 50.2396 6.5001 50.2988 6.68369C50.3209 6.75242 50.3674 6.92456 50.3945 7.10751C50.4012 7.14575 50.4599 7.51212 50.3262 7.92783C50.2782 8.07649 50.1622 8.30941 49.957 8.54306C49.9042 8.63877 49.8225 8.79317 49.7109 9.02158C49.4347 9.58709 49.0422 10.476 48.5078 11.6876C47.3894 14.2231 46.0427 16.6217 44.4746 18.879C42.9022 21.1424 41.1056 23.2311 39.0879 25.1407C37.3992 26.7386 36.5741 28.3896 36.4082 30.1036C36.2675 31.5594 36.8305 32.8768 38.6094 34.1368C40.8552 35.7277 42.9207 37.4575 44.8027 39.3185C46.7338 41.2284 48.3895 43.4119 49.7656 45.8673C51.1366 48.3143 51.9909 50.6342 52.1719 52.7852C52.2878 54.17 51.8498 55.4807 50.7227 56.4083C49.7051 57.2434 48.3199 57.5897 46.8672 57.7071C43.6681 57.9651 40.9533 56.7888 38.8965 54.2892C37.1858 52.2101 35.5128 50.1103 33.8652 48.0001C32.233 45.9095 30.5955 43.8665 28.9707 41.8751C28.3131 41.0708 27.7869 40.7973 27.4258 40.7267C27.0941 40.6626 26.6114 40.7177 25.8945 41.1915C24.0825 42.3914 22.3508 43.9486 20.7266 45.8946C19.1247 47.8142 17.8768 49.9144 16.9805 52.1837C15.8295 55.095 13.7624 57.0628 10.8281 57.8985C9.40647 58.3026 7.99171 58.3776 6.67188 57.9532C5.33377 57.5218 4.26518 56.6382 3.45898 55.4513C2.64367 54.2499 2.22074 52.9137 2.2832 51.4864C2.34579 50.082 2.87026 48.719 3.70508 47.4259C5.17104 45.1567 6.75204 42.9707 8.43555 40.877C10.1552 38.7389 12.0803 36.7806 14.2188 35.0118C15.97 33.5633 16.7849 32.0085 16.8984 30.3224C17.0077 28.6908 16.3846 27.1381 14.752 25.6056C12.8107 23.7832 10.8775 21.9521 8.95508 20.1095C7.03217 18.2663 5.11179 16.412 3.19922 14.5587C0.996427 12.4233 -0.139018 9.90218 0.123047 7.0665C0.257718 5.62045 0.793013 4.32192 1.80469 3.30673C2.79806 2.31242 4.12615 1.70172 5.61914 1.379C7.16527 1.04512 8.67942 1.1071 10.0898 1.63876C11.4936 2.16942 12.6802 3.12023 13.6582 4.38681C15.3104 6.52736 16.9203 8.68552 18.498 10.8399C20.04 12.9453 21.6394 14.9471 23.2832 16.8556C23.9655 17.6477 24.3832 17.7496 24.5273 17.7579C24.6353 17.7625 25.0062 17.7363 25.6484 17.0333C27.2546 15.2744 28.8393 13.355 30.3926 11.2774C31.986 9.14622 33.6133 7.03195 35.2734 4.93369C37.1285 2.58914 39.4086 1.00002 42.1094 0.271576ZM43.0254 3.64853C41.1352 4.15836 39.4691 5.27797 38.0215 7.10751C36.3815 9.1802 34.769 11.2644 33.1953 13.3692C31.5801 15.5296 29.9207 17.5358 28.2324 19.3849C27.2288 20.484 25.9415 21.3214 24.3906 21.2579C22.8675 21.1933 21.615 20.2813 20.6309 19.1388C18.9255 17.1588 17.2757 15.0808 15.6816 12.9044C14.1217 10.7743 12.517 8.65055 10.8828 6.53329C10.2193 5.67359 9.53279 5.16534 8.8457 4.90634C8.1638 4.65039 7.35286 4.58204 6.35742 4.79697C5.30519 5.02441 4.66111 5.39917 4.2793 5.78134C3.92315 6.14069 3.6797 6.63328 3.60938 7.38095C3.4636 8.94623 4.02092 10.4795 5.63281 12.0431C7.54082 13.892 9.45668 15.7415 11.375 17.5802C13.2911 19.4168 15.2232 21.2462 17.1582 23.0626C19.3997 25.1687 20.5765 27.6881 20.3848 30.5548C20.1951 33.3714 18.7954 35.763 16.4473 37.7052C14.4885 39.3253 12.7259 41.1129 11.1562 43.0645C9.549 45.0633 8.04525 47.1581 6.64453 49.3263C6.04925 50.2489 5.81117 51.0114 5.7832 51.6368C5.75634 52.2395 5.92149 52.8402 6.35742 53.4825C6.80174 54.1367 7.26499 54.4637 7.73828 54.6173C8.23122 54.7762 8.91848 54.806 9.87109 54.5352C11.6812 54.0195 12.9459 52.8725 13.7266 50.8985C14.7627 48.275 16.2107 45.8528 18.0469 43.6524C19.8591 41.4817 21.824 39.6755 23.9531 38.2657C25.2052 37.4367 26.6131 37.0124 28.082 37.295C29.5224 37.5731 30.7199 38.4832 31.6914 39.6739C33.3309 41.6833 34.9678 43.7461 36.6133 45.8536C38.2438 47.942 39.9102 50.0164 41.6035 52.0743C42.9514 53.7113 44.5658 54.3847 46.5938 54.2208C47.7405 54.1274 48.2783 53.8761 48.4941 53.7013C48.578 53.6322 48.6237 53.5764 48.6445 53.5235C48.6686 53.4603 48.6924 53.3168 48.6719 53.0724C48.5465 51.5952 47.9457 49.7696 46.7168 47.5763C45.4936 45.3937 44.0301 43.4766 42.3418 41.8067C40.6015 40.0859 38.6829 38.4797 36.5859 36.9942C34.021 35.1775 32.6343 32.7333 32.9219 29.7618C33.1853 27.0498 34.5065 24.6559 36.6816 22.5977C38.5264 20.8518 40.1695 18.947 41.6035 16.8829C43.0412 14.8131 44.2667 12.6096 45.2949 10.2794C45.8334 9.05852 46.2591 8.11966 46.5664 7.49033C46.6223 7.37581 46.678 7.26499 46.7305 7.1622C46.5288 6.66164 46.2265 5.91665 45.8008 4.93369C45.4531 4.13221 45.0631 3.79853 44.748 3.64853C44.4279 3.49704 43.9037 3.41247 43.0254 3.64853ZM49 9.08994C49.0535 9.07815 49.1024 9.06406 49.1504 9.04892C49.0984 9.06452 49.0502 9.0797 49 9.08994ZM48.0156 5.76767C47.9609 5.78932 47.9146 5.82455 47.8652 5.8497C47.927 5.81914 47.9897 5.76861 48.0703 5.74033C48.0525 5.74669 48.0336 5.7606 48.0156 5.76767ZM48.6035 5.65829C48.5333 5.66038 48.4604 5.65982 48.3848 5.67197C48.4546 5.66076 48.527 5.66058 48.6035 5.65829Z" fill="black"/>
</svg>
