<svg width="104" height="45" viewBox="0 0 104 45" fill="none" xmlns="http://www.w3.org/2000/svg">
<g filter="url(#filter0_d_52_126)">
<path d="M2.52281 36.9229C2.49614 36.6296 2.48281 36.3096 2.48281 35.9629C2.48281 35.6163 2.48281 35.2163 2.48281 34.7629C2.48281 33.6163 2.50947 32.2563 2.56281 30.6829C2.61614 29.0829 2.69614 27.3896 2.80281 25.6029C2.90947 23.7896 3.01614 21.9763 3.12281 20.1629C3.22947 18.3229 3.33614 16.5629 3.44281 14.8829C3.57614 13.2029 3.69614 11.6963 3.80281 10.3629C3.21614 10.5496 2.69614 10.7229 2.24281 10.8829L1.20281 4.16292C4.21614 3.30958 7.01614 2.66958 9.60281 2.24292C12.2161 1.81625 14.5761 1.60292 16.6828 1.60292C20.9761 1.60292 24.2561 2.41625 26.5228 4.04292C28.7895 5.66958 29.9228 8.02958 29.9228 11.1229C29.9228 12.8829 29.5361 14.3629 28.7628 15.5629C27.9895 16.7363 26.8961 17.7096 25.4828 18.4829C28.9495 20.2429 30.6828 23.1096 30.6828 27.0829C30.6828 28.8429 30.3495 30.3229 29.6828 31.5229C29.0428 32.6963 28.2161 33.6429 27.2028 34.3629C26.1895 35.0829 25.1095 35.6163 23.9628 35.9629C22.8428 36.3363 21.7761 36.5763 20.7628 36.6829C19.7761 36.8163 19.0028 36.8829 18.4428 36.8829C17.0561 36.8829 15.5761 36.7496 14.0028 36.4829C12.4295 36.2163 10.8961 35.8163 9.40281 35.2829C9.40281 35.8163 9.40281 36.3229 9.40281 36.8029L2.52281 36.9229ZM16.8428 8.28292C15.8828 8.28292 14.8695 8.33625 13.8028 8.44292C12.7628 8.52292 11.7228 8.65625 10.6828 8.84292C10.5228 10.7896 10.3628 13.0563 10.2028 15.6429C10.5495 15.6696 10.8961 15.6829 11.2428 15.6829C11.6161 15.6829 11.9895 15.6829 12.3628 15.6829C19.4028 15.6829 22.9228 14.2429 22.9228 11.3629C22.9228 10.4029 22.3761 9.65625 21.2828 9.12292C20.2161 8.56292 18.7361 8.28292 16.8428 8.28292ZM13.2828 22.0029C12.7228 22.0029 12.1495 22.0029 11.5628 22.0029C11.0028 22.0029 10.4295 22.0163 9.84281 22.0429C9.78947 23.2163 9.73614 24.3896 9.68281 25.5629C9.65614 26.7363 9.61614 27.8963 9.56281 29.0429C11.0561 29.4963 12.5228 29.8296 13.9628 30.0429C15.4028 30.2296 16.6428 30.3229 17.6828 30.3229C19.8961 30.3229 21.4828 30.0563 22.4428 29.5229C23.4028 28.9629 23.8828 28.0563 23.8828 26.8029C23.8828 25.2563 22.9628 24.0696 21.1228 23.2429C19.3095 22.4163 16.6961 22.0029 13.2828 22.0029ZM42.1231 37.3229C40.6565 37.3229 39.4431 37.0029 38.4831 36.3629C37.5498 35.7496 36.8031 34.8963 36.2431 33.8029C35.7098 32.7096 35.3098 31.4563 35.0431 30.0429C34.8031 28.6296 34.6431 27.1229 34.5631 25.5229C34.5098 23.8963 34.4831 22.2696 34.4831 20.6429C34.4831 19.2296 34.5231 17.6829 34.6031 16.0029C34.6831 14.2963 34.7765 12.5763 34.8831 10.8429C35.0165 9.08292 35.1498 7.42958 35.2831 5.88292C35.4431 4.33625 35.5898 2.98958 35.7231 1.84292L42.9631 1.92292C42.7498 3.28292 42.5498 4.82958 42.3631 6.56292C42.1765 8.26958 42.0165 10.0029 41.8831 11.7629C41.7765 13.5229 41.6831 15.1496 41.6031 16.6429C41.5498 18.1363 41.5231 19.3229 41.5231 20.2029C41.5231 22.6296 41.5631 24.5363 41.6431 25.9229C41.7498 27.3096 41.8965 28.2963 42.0831 28.8829C42.2965 29.4429 42.5765 29.7229 42.9231 29.7229C43.3765 29.7229 43.8698 29.4429 44.4031 28.8829C44.9365 28.2963 45.4565 27.6429 45.9631 26.9229L49.3631 33.6829C48.5365 34.5896 47.5498 35.4163 46.4031 36.1629C45.2565 36.9363 43.8298 37.3229 42.1231 37.3229ZM64.6797 37.4429C62.5463 37.4429 60.6797 37.0963 59.0797 36.4029C57.5063 35.7096 56.1997 34.7629 55.1597 33.5629C54.1197 32.3363 53.3463 30.9363 52.8397 29.3629C52.333 27.7896 52.0797 26.1363 52.0797 24.4029C52.0797 22.6429 52.3863 21.0163 52.9997 19.5229C53.6397 18.0029 54.5063 16.6829 55.5997 15.5629C56.7197 14.4429 58.0263 13.5763 59.5197 12.9629C61.013 12.3229 62.6397 12.0029 64.3997 12.0029C66.2397 12.0029 67.9463 12.3229 69.5197 12.9629C71.093 13.6029 72.4663 14.4962 73.6397 15.6429C74.813 16.7896 75.7197 18.1363 76.3597 19.6829C77.0263 21.2296 77.3597 22.9096 77.3597 24.7229C77.3597 28.7496 76.253 31.8829 74.0397 34.1229C71.8263 36.3363 68.7063 37.4429 64.6797 37.4429ZM64.6397 30.9629C66.5863 30.9629 68.0663 30.4163 69.0797 29.3229C70.1197 28.2296 70.6397 26.6563 70.6397 24.6029C70.6397 22.7629 70.0797 21.2829 68.9597 20.1629C67.8397 19.0429 66.373 18.4829 64.5597 18.4829C63.4663 18.4829 62.4663 18.7763 61.5597 19.3629C60.653 19.9229 59.9197 20.6829 59.3597 21.6429C58.8263 22.5763 58.5597 23.6163 58.5597 24.7629C58.5597 25.7763 58.7597 26.7629 59.1597 27.7229C59.5863 28.6829 60.253 29.4696 61.1597 30.0829C62.0663 30.6696 63.2263 30.9629 64.6397 30.9629ZM89.775 34.3629C88.095 34.3629 86.6683 34.1096 85.495 33.6029C84.3217 33.0963 83.3483 32.4429 82.575 31.6429C81.8283 30.8163 81.2417 29.9363 80.815 29.0029C80.3883 28.0429 80.095 27.1229 79.935 26.2429C79.775 25.3363 79.695 24.5496 79.695 23.8829C79.695 22.6029 79.8683 21.2829 80.215 19.9229C80.5883 18.5629 81.2017 17.2963 82.055 16.1229C82.935 14.9496 84.1217 14.0029 85.615 13.2829C87.135 12.5629 89.0417 12.2029 91.335 12.2029C92.0283 12.2029 92.6683 12.2563 93.255 12.3629C93.8417 12.4696 94.3883 12.6163 94.895 12.8029V11.4829H101.815C101.788 13.0829 101.762 14.8963 101.735 16.9229C101.708 18.9229 101.695 21.1896 101.695 23.7229C101.695 25.0296 101.695 26.4029 101.695 27.8429C101.722 29.2563 101.735 30.8029 101.735 32.4829C101.735 34.7763 101.428 36.6563 100.815 38.1229C100.202 39.5896 99.415 40.7229 98.455 41.5229C97.495 42.3229 96.495 42.8963 95.455 43.2429C94.4417 43.6163 93.495 43.8296 92.615 43.8829C91.7617 43.9629 91.1217 44.0029 90.695 44.0029C89.655 44.0029 88.5083 43.8829 87.255 43.6429C86.0017 43.4296 84.7483 43.0696 83.495 42.5629C82.2417 42.0829 81.095 41.4563 80.055 40.6829L82.975 34.6029C83.6417 35.1629 84.3083 35.6696 84.975 36.1229C85.6417 36.6029 86.415 36.9763 87.295 37.2429C88.175 37.5363 89.2683 37.6829 90.575 37.6829C91.9083 37.6829 92.895 37.4429 93.535 36.9629C94.175 36.5096 94.5883 35.8963 94.775 35.1229C94.9883 34.3763 95.1083 33.5496 95.135 32.6429C94.2283 33.3096 93.3083 33.7629 92.375 34.0029C91.4417 34.2429 90.575 34.3629 89.775 34.3629ZM85.695 23.3229C85.695 24.8429 86.1083 26.0429 86.935 26.9229C87.7883 27.8029 88.9483 28.2429 90.415 28.2429C92.4683 28.2429 94.0017 27.0563 95.015 24.6829C95.015 23.8296 95.0017 22.9629 94.975 22.0829C94.975 21.1763 94.9617 20.2963 94.935 19.4429C93.8683 18.7496 92.6417 18.4029 91.255 18.4029C89.5483 18.4029 88.1883 18.8563 87.175 19.7629C86.1883 20.6429 85.695 21.8296 85.695 23.3229Z" fill="#FFD633"/>
<path d="M97.8797 11.116C99.6054 10.9511 101.113 11.3546 102.208 12.491C103.333 13.6591 103.59 15.2179 103.216 16.9442C102.906 18.3716 102.779 19.7985 102.833 21.2254C102.892 22.7787 102.859 24.3356 102.731 25.8895C102.611 27.3541 102.602 28.8173 102.7 30.2801C102.802 31.801 102.879 33.356 102.942 34.9442C103.017 36.8112 102.366 38.4375 101.02 39.741C99.8027 40.92 98.4908 41.8185 97.0828 42.4129C95.7957 42.9561 94.4603 43.4951 93.0828 44.0379C91.5598 44.6381 89.9579 44.8589 88.3016 44.6942C86.6634 44.5309 85.1218 44.0459 83.6922 43.241C82.3572 42.4891 81.2462 41.5211 81.1062 40.241C81.0011 39.2748 81.2446 37.9524 81.7156 36.3817C81.9796 35.5017 82.4267 34.693 83.2 34.2645C83.3823 34.1638 83.5741 34.1006 83.7625 34.0535C83.397 33.7848 83.0524 33.4718 82.7312 33.116C81.5808 31.8415 80.7868 30.4093 80.3719 28.827C79.995 27.3898 79.6636 25.9376 79.3797 24.4754C79.0785 22.9231 79.0398 21.3233 79.2547 19.6864C79.4865 17.9252 80.2513 16.4132 81.5359 15.1864C82.7578 14.0203 84.1454 13.1656 85.6922 12.6473C87.1557 12.1572 88.666 11.8158 90.2078 11.616C91.7107 11.4214 93.0204 11.3242 94.1297 11.327C95.1383 11.3297 96.3875 11.2586 97.8797 11.116ZM98.075 13.1082C96.5435 13.2546 95.2254 13.3297 94.1297 13.327C93.1345 13.3243 91.9087 13.4124 90.4578 13.6004C89.0455 13.7837 87.6706 14.098 86.3328 14.5457C85.0773 14.9661 83.9392 15.6577 82.9187 16.6317C81.9625 17.5443 81.4111 18.6413 81.2391 19.952C81.0509 21.3875 81.0824 22.7707 81.3406 24.1004C81.6163 25.5195 81.9437 26.9247 82.3094 28.3192C82.6375 29.5704 83.2636 30.7257 84.2156 31.7801C85.0846 32.7419 86.1448 33.2336 87.45 33.2801C88.2428 33.3084 88.8692 33.3491 89.3094 33.4051C89.5215 33.4321 89.7426 33.465 89.9266 33.5223C90.0118 33.5489 90.1578 33.6044 90.3016 33.702L90.3094 33.7098C90.3186 33.7104 90.3304 33.717 90.3406 33.7176C90.6225 33.7334 91.0832 33.7275 91.7469 33.6942C92.4296 33.6598 92.9819 33.6473 93.3797 33.6629C93.5733 33.6705 93.7704 33.6914 93.9422 33.7254C94.025 33.7418 94.1448 33.7705 94.2703 33.827C94.3175 33.8483 94.4159 33.8918 94.5203 33.9754L94.8172 34.3504L94.9187 34.7957C94.9202 34.9258 94.8974 35.0255 94.8875 35.0692C94.8587 35.1957 94.8131 35.3056 94.7781 35.3817C94.7057 35.5388 94.6056 35.7135 94.4969 35.8817C94.2738 36.2263 93.9379 36.6869 93.5047 37.2489C92.9589 37.9561 92.2531 38.4556 91.3875 38.6004C90.5407 38.7415 89.6869 38.5173 88.8719 38.0848C87.4986 37.3552 86.1741 36.7 84.9031 36.1239C84.4188 35.9043 84.2301 35.9806 84.1687 36.0145C84.064 36.073 83.8394 36.2864 83.6375 36.9598C83.176 38.4989 83.0329 39.4847 83.0906 40.0223C83.115 40.245 83.3938 40.7766 84.6766 41.4989C85.8645 42.1675 87.1399 42.5662 88.5047 42.702C89.8518 42.8356 91.129 42.6591 92.3484 42.1785C93.7119 41.6412 95.03 41.1058 96.3016 40.5692C97.4519 40.0837 98.5638 39.3358 99.6297 38.3035C100.568 37.3941 100.993 36.3237 100.942 35.0301C100.879 33.4579 100.801 31.9163 100.7 30.4129C100.596 28.8511 100.611 27.2885 100.739 25.7254C100.86 24.2509 100.889 22.7768 100.833 21.3035C100.772 19.7051 100.918 18.111 101.262 16.5223C101.543 15.2319 101.299 14.4222 100.77 13.8739C100.211 13.2939 99.375 12.9842 98.075 13.1082ZM13.2312 0.592606C14.9022 -0.0620926 16.6166 -0.177452 18.3406 0.256668C19.8528 0.637432 21.3483 0.998244 22.825 1.33479C24.4744 1.71099 25.9324 2.46527 27.1766 3.59261C28.3947 4.69675 29.3383 6.00455 29.9969 7.49886C30.6513 8.98538 31.0096 10.5932 31.0828 12.3114C31.166 14.2637 30.3682 15.8471 28.7469 16.9364C28.1852 17.3138 27.8953 17.6686 27.7625 17.9754C27.6391 18.2618 27.6095 18.5943 27.7469 19.0223C28.1047 20.1324 28.7171 21.1658 29.5906 22.1239C30.7125 23.3544 31.3298 24.8502 31.45 26.5614C31.5701 28.2722 31.1652 29.8495 30.2391 31.2567C29.3595 32.593 28.2612 33.6672 26.9422 34.452C25.7718 35.1484 24.5328 35.9091 23.2312 36.741C21.8002 37.6556 20.229 38.2409 18.5281 38.491C16.7301 38.7552 15.0164 38.3984 13.4266 37.452C12.8256 37.0946 12.3378 36.9495 11.95 36.9364C11.5812 36.9241 11.2419 37.0312 10.9031 37.2801C9.7015 38.1647 8.23824 38.6459 6.57499 38.7645C5.78465 38.8207 5.08078 38.8219 4.48124 38.7567C3.89455 38.6927 3.33645 38.5543 2.87968 38.2879C2.33844 37.9715 1.97795 37.4422 1.73124 36.8817C1.48012 36.3111 1.29767 35.6083 1.16874 34.8035C0.906196 33.1647 0.949917 31.5298 1.29374 29.9051C1.61283 28.3989 1.93737 26.8947 2.26249 25.3973C2.56619 23.9986 2.65448 22.5861 2.53593 21.1629C2.40881 19.6414 2.28153 18.1107 2.14531 16.5848C2.00557 15.0181 1.97587 13.5923 2.06718 12.3114C2.14519 11.2175 2.0191 10.2048 1.69999 9.26448C1.28832 8.0517 1.14872 6.79553 1.27812 5.50667C1.36007 4.69292 1.71287 3.97631 2.37187 3.47542C2.99695 3.00156 3.80093 2.78814 4.66874 2.73323C6.12588 2.64105 7.55008 2.40933 8.93437 2.03011C10.3482 1.64266 11.7823 1.16099 13.2312 0.592606ZM63.075 11.7176C64.5679 11.8214 66.0399 11.9669 67.4891 12.1473C68.9807 12.333 70.5223 12.6605 72.1062 13.1317C73.9149 13.6699 75.2484 14.8163 76.0437 16.5223C76.7348 18.0054 77.3192 19.4982 77.7937 20.991C78.2985 22.5802 78.4429 24.2081 78.2234 25.8582C78.0161 27.4161 77.6785 28.9438 77.2234 30.4364C76.7518 31.9819 76.0301 33.4542 75.0594 34.8426C73.9732 36.395 72.4435 37.2662 70.5516 37.4207C68.9207 37.5539 67.4981 37.5717 66.2937 37.4676C65.939 37.4369 65.6901 37.4563 65.5281 37.4676C65.4201 37.67 65.2712 37.8274 65.1219 37.9364C64.8754 38.1156 64.5876 38.2177 64.3406 38.2801C63.8337 38.4076 63.1493 38.4645 62.3484 38.4754C60.554 38.4996 58.9304 37.9479 57.5203 36.8348C56.19 35.7845 55.1374 34.5472 54.3797 33.1239C53.6824 31.8131 53.0209 30.4767 52.3953 29.1239C51.7358 27.6975 51.283 26.1734 51.0437 24.5535C50.7878 22.8184 51.0599 21.1453 51.8484 19.577C52.5931 18.0967 53.546 16.7954 54.7 15.6864C55.8212 14.6093 57.0443 13.6642 58.3719 12.8582C59.8141 11.9827 61.3932 11.6009 63.075 11.7176ZM39.2625 1.51448C41.0064 1.36718 42.508 1.84923 43.3953 3.22542C44.226 4.51637 44.258 6.06324 43.7391 7.70979C43.3034 9.09122 43.0681 10.4942 43.0281 11.9129C42.9845 13.4581 42.8648 14.9997 42.6687 16.5379C42.4846 17.9824 42.4405 19.4303 42.5281 20.8817C42.6159 22.3354 42.8272 23.765 43.1687 25.1707C43.503 26.5458 43.9754 27.1716 44.3875 27.4129C45.1517 27.8605 45.7075 28.1894 46.0516 28.3973C46.349 28.577 46.6827 28.9004 47.0125 29.2489C47.3652 29.6216 47.7942 30.1128 48.2937 30.7176C48.8707 31.4162 49.2625 32.1931 49.3094 33.0301C49.3565 33.8912 49.0278 34.6701 48.4656 35.3348C47.4192 36.5716 46.0295 37.2687 44.3641 37.4364C43.6629 37.5069 43.1852 37.583 42.9031 37.6551C42.8827 37.6604 42.8646 37.6662 42.8484 37.6707C42.8016 37.7268 42.7689 37.7914 42.7156 37.8348C42.5284 37.9872 42.3316 38.0483 42.2156 38.077C41.9796 38.1352 41.7219 38.1396 41.5047 38.1317C41.0415 38.1145 40.3957 38.0308 39.6062 37.8895C37.7106 37.5501 36.3476 36.4502 35.6141 34.6707C34.967 33.1008 34.6122 31.497 34.5672 29.866C34.5272 28.4182 34.3685 26.9773 34.0906 25.5457C33.8001 24.0486 33.5429 22.535 33.3094 21.0067C33.0619 19.3864 33.0719 17.7664 33.3406 16.1551C33.5915 14.6527 33.8252 13.15 34.0516 11.6551C34.2716 10.2017 34.3955 8.74126 34.4109 7.27229C34.4277 5.66544 34.7228 4.28024 35.4422 3.27229C36.242 2.15394 37.6332 1.65234 39.2625 1.51448ZM17.8484 2.19417C16.535 1.86397 15.2472 1.95399 13.9578 2.45979C12.446 3.05279 10.9444 3.55254 9.45781 3.95979C7.94065 4.3753 6.38423 4.63261 4.79374 4.73323C4.14287 4.77461 3.77776 4.92217 3.58281 5.06917C3.42222 5.19123 3.30449 5.36722 3.27031 5.70198C3.16857 6.71224 3.27226 7.68597 3.59062 8.62386C4.00122 9.8342 4.15476 11.1129 4.05937 12.452C3.9772 13.6042 4.00471 14.9255 4.13749 16.4129C4.2739 17.941 4.40081 19.4673 4.52812 20.991C4.66367 22.6135 4.5616 24.2257 4.21562 25.8192C3.89106 27.3139 3.56541 28.8155 3.24687 30.3192C2.95425 31.7023 2.92231 33.0885 3.14531 34.4832C3.25965 35.1969 3.40275 35.7211 3.55937 36.077C3.72041 36.4429 3.85653 36.5433 3.88749 36.5614C4.00248 36.6282 4.24826 36.7153 4.69999 36.7645C5.14131 36.8125 5.71498 36.8157 6.43437 36.7645C7.79445 36.6675 8.87323 36.2908 9.71562 35.6707C10.3976 35.1687 11.1724 34.9168 12.0125 34.9442C12.834 34.9715 13.6539 35.2597 14.45 35.7332C15.6581 36.4524 16.9102 36.7099 18.2391 36.5145C19.6648 36.3048 20.9645 35.8133 22.1531 35.0535C23.4711 34.2111 24.7272 33.4343 25.9187 32.7254C26.9617 32.1047 27.8438 31.2542 28.5672 30.1551C29.2439 29.1266 29.5404 27.9895 29.45 26.702C29.3596 25.4144 28.9081 24.3549 28.1062 23.4754C27.0566 22.324 26.3009 21.0425 25.8484 19.6395C25.5817 18.8119 25.5868 17.9752 25.9266 17.1864C26.2576 16.4184 26.8616 15.7883 27.6297 15.2723C28.6719 14.5721 29.1361 13.6545 29.0828 12.3973C29.0193 10.9074 28.7085 9.54623 28.1609 8.30354C27.6168 7.06884 26.8446 5.9943 25.8328 5.07698C24.8459 4.18278 23.6984 3.58871 22.3797 3.28792C20.8874 2.94782 19.3753 2.57864 17.8484 2.19417ZM89.8094 36.3192C90.3814 36.6226 90.7836 36.67 91.0594 36.6239C91.3176 36.5805 91.6054 36.4287 91.9187 36.0223C92.0082 35.9062 92.0829 35.7898 92.1609 35.6864C92.0625 35.6905 91.9568 35.6887 91.8484 35.6942C91.1664 35.7284 90.616 35.7399 90.2234 35.7176C90.0371 35.707 89.8246 35.6824 89.6375 35.6317C89.5498 35.6078 89.3889 35.5622 89.2312 35.452C89.2149 35.4405 89.2027 35.4198 89.1844 35.4051C89.1485 35.3994 89.1068 35.3955 89.0594 35.3895C88.787 35.3548 88.3855 35.3287 87.8484 35.3035C88.4919 35.6226 89.1451 35.9662 89.8094 36.3192ZM62.9344 13.7176C61.666 13.6299 60.4999 13.9081 59.4109 14.5692C58.2076 15.2997 57.0992 16.1548 56.0828 17.1317C55.0999 18.0763 54.2849 19.1889 53.6375 20.4754C53.0336 21.6764 52.8326 22.9296 53.0281 24.2567C53.2407 25.6982 53.6322 27.0431 54.2078 28.2879C54.8174 29.6062 55.4661 30.9017 56.1453 32.1785C56.7644 33.3423 57.633 34.3727 58.7625 35.2645C59.8121 36.0925 60.9839 36.493 62.3172 36.4754C63.0258 36.4659 63.5016 36.4125 63.7859 36.3504C63.8606 36.182 63.9743 36.0312 64.1141 35.9051C64.3564 35.6869 64.6471 35.5846 64.8719 35.5301C65.3175 35.4228 65.8755 35.4243 66.4656 35.4754C67.5234 35.5669 68.8272 35.5559 70.3875 35.4285C71.6885 35.3223 72.6753 34.7568 73.4187 33.6942C74.2771 32.4664 74.9104 31.1846 75.3172 29.8504C75.7402 28.463 76.0461 27.0434 76.2391 25.5926C76.4197 24.2341 76.304 22.9027 75.8875 21.5926C75.4401 20.1855 74.8878 18.775 74.2312 17.366C73.6792 16.1825 72.7982 15.4296 71.5359 15.0535C70.0472 14.6107 68.6168 14.3024 67.2469 14.1317C65.8341 13.9558 64.3926 13.819 62.9344 13.7176ZM39.4344 3.50667C38.0359 3.62479 37.3635 4.02113 37.0672 4.43636C36.6906 4.96417 36.4258 5.87059 36.4109 7.29573C36.3945 8.85596 36.2694 10.4084 36.0359 11.952C35.8081 13.457 35.5619 14.9709 35.3094 16.4832C35.0756 17.885 35.0702 19.2901 35.2859 20.702C35.5155 22.205 35.7739 23.6918 36.0594 25.1629C36.358 26.7015 36.5242 28.2532 36.5672 29.8114C36.6051 31.1863 36.9066 32.5483 37.4656 33.9051C37.9384 35.0523 38.7335 35.7013 39.9578 35.9207C40.7037 36.0543 41.2238 36.1168 41.5437 36.1317C41.6389 36.0501 41.7161 35.9861 41.7625 35.9598C41.9666 35.8442 42.2033 35.7707 42.4109 35.7176C42.8418 35.6075 43.4367 35.525 44.1609 35.452C45.3496 35.3323 46.2552 34.8576 46.9422 34.0457C47.2468 33.6856 47.323 33.3892 47.3094 33.1395C47.2934 32.8674 47.1633 32.4858 46.7547 31.991C46.2683 31.4021 45.8686 30.9507 45.5594 30.6239C45.4046 30.4603 45.2761 30.3311 45.1766 30.241L45.0203 30.116C44.689 29.9159 44.1366 29.5873 43.3719 29.1395C42.2558 28.4843 41.601 27.1999 41.2234 25.6473C40.8532 24.1245 40.623 22.5715 40.5281 20.9989C40.4333 19.4248 40.4849 17.8541 40.6844 16.2879C40.8721 14.8153 40.9863 13.3369 41.0281 11.8582C41.0735 10.2513 41.3425 8.66316 41.8328 7.10823C42.2384 5.8211 42.1166 4.93753 41.7078 4.30354C41.3529 3.75595 40.7159 3.39886 39.4344 3.50667ZM90.7781 34.577L90.7312 34.2879C90.7284 34.2792 90.7186 34.273 90.7156 34.2645C90.7455 34.3578 90.7778 34.4595 90.7781 34.577ZM63.6531 17.4598C65.4983 17.1336 67.2313 17.5063 68.8016 18.5614C70.4096 19.643 71.3166 21.1686 71.4266 23.0692C71.5251 24.7755 71.2854 26.4086 70.7078 27.952C70.0702 29.6542 68.839 30.7904 67.0906 31.2957C66.3832 31.4999 65.9013 31.6748 65.6141 31.8114C65.5741 31.8304 65.5386 31.8442 65.5125 31.8582C65.4919 31.9017 65.4866 31.9549 65.4578 31.9989C65.2766 32.2723 65.0017 32.4196 64.7469 32.4676C64.5258 32.5091 64.3364 32.4802 64.2234 32.452C64.1017 32.4213 63.9904 32.376 63.9031 32.3348C63.5811 32.1828 63.1915 31.9006 62.7781 31.5692C61.9254 30.8854 61.0213 30.0745 60.0672 29.1395C58.9786 28.0726 58.2311 26.677 57.7859 25.0145C57.2859 23.147 57.7285 21.4348 59.0516 19.991C60.3004 18.6289 61.8466 17.7797 63.6531 17.4598ZM14.8953 20.5145C16.1379 20.4457 17.5676 20.6185 19.1609 21.0067C20.9633 21.4458 22.286 22.4819 22.9891 24.116C23.6377 25.6245 23.7582 27.1475 23.2859 28.6317C23.0262 29.4463 22.5334 30.1177 21.7625 30.4989C21.0203 30.8654 20.1597 30.8892 19.2781 30.7254C17.8854 30.4667 16.4838 30.4863 15.0672 30.7801C13.322 31.1425 11.7427 30.8804 10.6609 29.6551C9.76165 28.6355 9.14491 27.2718 8.75468 25.6395C8.54105 24.7458 8.53521 23.8474 8.94218 23.077C9.36051 22.2876 10.1053 21.8256 10.9656 21.5926C11.643 21.4095 12.1266 21.2652 12.4266 21.1551C12.4874 21.1328 12.5354 21.1092 12.575 21.0926C12.6022 21.063 12.6212 21.0281 12.6453 21.0067C12.7808 20.8866 12.9221 20.822 13.0047 20.7879C13.1766 20.717 13.3681 20.6752 13.5281 20.6473C13.8657 20.5884 14.3304 20.5458 14.8953 20.5145ZM63.9969 19.4285C62.6298 19.6711 61.4831 20.301 60.5281 21.3426C59.6475 22.3031 59.3992 23.3172 59.7156 24.4989C60.0871 25.8856 60.6804 26.9402 61.4656 27.7098C62.3831 28.609 63.2379 29.3729 64.0281 30.0067C64.1511 30.1052 64.2726 30.1732 64.3641 30.241C64.4936 30.1572 64.622 30.0698 64.7547 30.0067C65.1913 29.7989 65.7975 29.587 66.5359 29.3739C67.679 29.0433 68.4179 28.357 68.8328 27.2489C69.3079 25.9792 69.5097 24.6288 69.4266 23.1864C69.3546 21.9394 68.8037 20.9743 67.6922 20.2254C66.5418 19.4517 65.3243 19.1935 63.9969 19.4285ZM15.0047 22.5145C14.4788 22.5437 14.1161 22.5716 13.8953 22.6082C13.7998 22.692 13.7112 22.7587 13.6453 22.7957C13.4898 22.8829 13.3003 22.9617 13.1141 23.0301C12.7295 23.1713 12.1808 23.3353 11.4891 23.5223C10.9829 23.6592 10.7911 23.8568 10.7078 24.0145C10.6132 24.194 10.5481 24.5433 10.7 25.1785C11.0408 26.6021 11.5444 27.6274 12.1609 28.327C12.5962 28.8205 13.3219 29.0972 14.6609 28.8192C16.3273 28.4736 17.9931 28.4575 19.6453 28.7645C20.2852 28.883 20.665 28.8159 20.8797 28.7098C21.0653 28.6179 21.248 28.4362 21.3797 28.0223C21.69 27.047 21.6336 26.0224 21.1531 24.9051C20.7269 23.9149 19.9499 23.2603 18.6844 22.952C17.2105 22.5931 15.9877 22.46 15.0047 22.5145ZM84.8484 22.8348V22.8504C84.8743 22.7808 84.9173 22.6651 84.9734 22.4989C85.0844 22.1699 85.2428 21.67 85.4578 20.9989C85.7266 20.1596 86.1901 19.4473 86.8797 18.952C87.564 18.4609 88.394 18.2359 89.2937 18.2098C90.8965 18.1636 92.3213 18.3709 93.5281 18.8817C94.245 19.1852 94.8093 19.6892 95.1375 20.3973C95.4548 21.0836 95.5026 21.8685 95.3875 22.6785C95.169 24.2156 94.6199 25.6205 93.7312 26.8739C93.2421 27.5634 92.6237 28.089 91.8641 28.366C91.1045 28.6426 90.2924 28.6328 89.4734 28.4207C87.8752 28.006 86.6406 27.0578 85.8328 25.616C85.4956 25.0143 85.2413 24.5562 85.075 24.2489C84.9931 24.0976 84.9322 23.9705 84.8875 23.8817C84.8669 23.8408 84.8379 23.7895 84.8172 23.741C84.8091 23.7221 84.7819 23.6635 84.7625 23.5926C84.7558 23.5685 84.7268 23.4488 84.7312 23.2957C84.7333 23.2297 84.7356 23.0379 84.8484 22.8348ZM89.3484 20.2098C88.7422 20.2274 88.3285 20.3725 88.0437 20.577C87.7644 20.7779 87.527 21.0994 87.3641 21.6082C87.1482 22.2822 86.9802 22.7953 86.8641 23.1395C86.8491 23.1839 86.8308 23.2247 86.8172 23.2645C86.8226 23.2745 86.8271 23.2853 86.8328 23.2957C86.9922 23.5902 87.2458 24.0381 87.5828 24.6395C88.1249 25.607 88.9039 26.2135 89.9734 26.491C90.4863 26.6238 90.873 26.5938 91.1766 26.4832C91.4799 26.3728 91.7934 26.1473 92.0984 25.7176C92.7999 24.7283 93.2365 23.6241 93.4109 22.3973C93.4919 21.8273 93.4282 21.4658 93.325 21.241C93.2318 21.0396 93.0679 20.8614 92.7469 20.7254C91.8772 20.3575 90.7565 20.1689 89.3484 20.2098ZM85.7312 24.3192C85.8475 24.319 85.9581 24.2886 86.0672 24.2489C85.974 24.2829 85.8644 24.3189 85.7312 24.3192ZM86.1609 24.2098C86.1853 24.1979 86.2078 24.1846 86.2312 24.1707C86.2101 24.1832 86.1877 24.1968 86.1609 24.2098ZM86.3641 24.0848C86.391 24.0623 86.4174 24.04 86.4422 24.0145C86.4212 24.036 86.395 24.0591 86.3641 24.0848ZM84.8484 22.8504C84.8352 22.886 84.8303 22.8952 84.8328 22.8895C84.8341 22.8866 84.8357 22.8761 84.8406 22.866L84.8484 22.8504ZM85.1453 22.5067C85.1299 22.5177 85.1198 22.5348 85.1062 22.5457C85.1426 22.5166 85.176 22.4833 85.2156 22.4598C85.1864 22.4772 85.1627 22.4942 85.1453 22.5067ZM85.3875 22.3895C85.3569 22.4007 85.3273 22.4085 85.3016 22.4207C85.3292 22.4076 85.3588 22.4 85.3875 22.3895ZM18.5594 7.31136C19.314 7.29278 20.0255 7.46421 20.6531 7.85823C21.2742 8.24866 21.7611 8.81874 22.1297 9.50667C22.5064 10.2106 22.7027 10.9578 22.6297 11.7176C22.5558 12.4814 22.2155 13.1663 21.7 13.7645C20.6728 14.9557 19.2483 15.5491 17.5516 15.6239C16.1237 15.6863 14.6827 15.8595 13.2391 16.1395C12.4123 16.2995 11.5208 16.3054 10.825 15.827C10.066 15.3037 9.86204 14.4405 9.89531 13.6317C9.95251 12.2472 10.2283 10.9741 10.7391 9.82698C11.3894 8.36658 12.7733 7.66157 14.4891 7.49886C15.2421 7.42778 15.8161 7.38078 16.2 7.35042C16.39 7.33539 16.5434 7.3245 16.6531 7.31917C16.7037 7.31672 16.7628 7.31078 16.8172 7.31136C16.838 7.31162 16.8986 7.31029 16.9656 7.31917C16.9703 7.31981 16.9796 7.32552 16.9891 7.32698C17.0412 7.32872 17.1321 7.33544 17.2703 7.33479C17.5502 7.33344 17.9808 7.32559 18.5594 7.31136ZM17.2859 9.33479C17.1386 9.3355 17.0117 9.33017 16.9187 9.32698C16.8764 9.32551 16.8133 9.32585 16.7547 9.31917C16.7476 9.31835 16.7372 9.31331 16.7234 9.31136C16.6439 9.31569 16.5223 9.32947 16.3562 9.34261C15.9887 9.37169 15.4324 9.42045 14.6844 9.49104C13.3947 9.61277 12.8219 10.0687 12.5672 10.6395C12.1731 11.5247 11.9434 12.5472 11.8953 13.7176C11.8862 13.9429 11.9119 14.0702 11.9344 14.1317L11.9578 14.1785C11.9804 14.1941 12.2007 14.3072 12.8641 14.1785C14.3998 13.8808 15.931 13.6986 17.4578 13.6317C18.7165 13.5766 19.5837 13.1563 20.1844 12.4598C20.4815 12.1152 20.6098 11.8092 20.6375 11.5301C20.6649 11.2465 20.5992 10.8914 20.3641 10.452C20.1211 9.99858 19.8553 9.72012 19.5906 9.55354C19.3323 9.39113 19.0191 9.30195 18.6141 9.31136C18.0332 9.32566 17.5867 9.33331 17.2859 9.33479ZM16.4891 9.24886C16.4969 9.25182 16.5048 9.25401 16.5125 9.25667C16.493 9.24969 16.4738 9.23583 16.45 9.22542C16.4659 9.23223 16.4787 9.24494 16.4891 9.24886ZM16.1844 9.06917C16.2076 9.08936 16.2399 9.0997 16.2625 9.11604C16.2251 9.0884 16.1771 9.05547 16.1297 9.00667C16.1505 9.02832 16.1654 9.05258 16.1844 9.06917ZM15.9422 8.74104C15.9584 8.77512 15.9785 8.80495 15.9969 8.83479C15.9783 8.80489 15.9584 8.77519 15.9422 8.74104ZM15.8406 8.31917C15.8408 8.43267 15.8659 8.53331 15.8953 8.62386C15.8666 8.53378 15.8408 8.43368 15.8406 8.31917ZM17.7703 7.96761C17.7631 7.94854 17.7549 7.93082 17.7469 7.91292C17.755 7.93086 17.7631 7.94855 17.7703 7.96761ZM17.6609 7.76448C17.6431 7.73813 17.632 7.70826 17.6141 7.68636C17.5983 7.66711 17.5752 7.6562 17.5594 7.63948C17.5931 7.67545 17.6277 7.71557 17.6609 7.76448ZM17.3953 7.49886C17.3763 7.4861 17.3624 7.46804 17.3484 7.45979C17.3167 7.44118 17.2829 7.43356 17.2547 7.42073C17.294 7.43891 17.342 7.46275 17.3953 7.49886Z" fill="black"/>
</g>
<defs>
<filter id="filter0_d_52_126" x="0" y="0" width="103.377" height="44.8959" filterUnits="userSpaceOnUse" color-interpolation-filters="sRGB">
<feFlood flood-opacity="0" result="BackgroundImageFix"/>
<feColorMatrix in="SourceAlpha" type="matrix" values="0 0 0 0 0 0 0 0 0 0 0 0 0 0 0 0 0 0 127 0" result="hardAlpha"/>
<feOffset dx="-1" dy="0.15"/>
<feComposite in2="hardAlpha" operator="out"/>
<feColorMatrix type="matrix" values="0 0 0 0 0 0 0 0 0 0 0 0 0 0 0 0 0 0 1 0"/>
<feBlend mode="normal" in2="BackgroundImageFix" result="effect1_dropShadow_52_126"/>
<feBlend mode="normal" in="SourceGraphic" in2="effect1_dropShadow_52_126" result="shape"/>
</filter>
</defs>
</svg>
