<svg width="125" height="38" viewBox="0 0 125 38" fill="none" xmlns="http://www.w3.org/2000/svg">
<g filter="url(#filter0_d_52_117)">
<path d="M2.98428 35.7659C2.74428 34.2725 2.57095 32.4459 2.46428 30.2859C2.35762 28.1259 2.30428 25.7925 2.30428 23.2859C2.30428 20.6992 2.34428 18.0459 2.42428 15.3259C2.53095 12.6059 2.65095 9.99253 2.78428 7.48586C2.94428 4.95253 3.11762 2.71253 3.30428 0.765863L10.2643 0.885864C9.97095 2.75253 9.73095 4.83253 9.54428 7.12586C9.38428 9.39253 9.25095 11.7525 9.14428 14.2059C11.0376 13.9392 13.091 13.7392 15.3043 13.6059C17.5176 13.4725 19.651 13.4059 21.7043 13.4059C22.691 13.4059 23.6376 13.4325 24.5443 13.4859C24.5176 11.4859 24.4776 9.6192 24.4243 7.88586C24.371 6.15253 24.3043 4.68586 24.2243 3.48586C24.1443 2.28586 24.051 1.4592 23.9443 1.00586L30.8243 0.565863C31.0643 2.80586 31.251 5.48586 31.3843 8.60586C31.5443 11.7259 31.6243 15.0325 31.6243 18.5259C31.6243 21.3525 31.571 24.2325 31.4643 27.1659C31.3576 30.0725 31.171 32.8725 30.9043 35.5659H24.2243C24.331 34.7125 24.411 33.5525 24.4643 32.0859C24.5176 30.5925 24.5576 28.9125 24.5843 27.0459C24.611 25.1525 24.6243 23.1792 24.6243 21.1259C24.6243 20.7525 24.6243 20.3659 24.6243 19.9659C24.1176 19.9659 23.5976 19.9659 23.0643 19.9659C22.5576 19.9392 22.0376 19.9259 21.5043 19.9259C19.3976 19.9259 17.2643 20.0059 15.1043 20.1659C12.971 20.2992 10.931 20.4992 8.98428 20.7659C8.98428 21.6192 8.98428 22.4725 8.98428 23.3259C8.98428 25.6725 8.99762 27.8725 9.02428 29.9259C9.07762 31.9792 9.15762 33.8459 9.26428 35.5259L2.98428 35.7659ZM48.2643 36.1659C46.131 36.1659 44.2643 35.8192 42.6643 35.1259C41.091 34.4325 39.7843 33.4859 38.7443 32.2859C37.7043 31.0592 36.9309 29.6592 36.4243 28.0859C35.9176 26.5125 35.6643 24.8592 35.6643 23.1259C35.6643 21.3659 35.9709 19.7392 36.5843 18.2459C37.2243 16.7259 38.0909 15.4059 39.1843 14.2859C40.3043 13.1659 41.611 12.2992 43.1043 11.6859C44.5976 11.0459 46.2243 10.7259 47.9843 10.7259C49.8243 10.7259 51.531 11.0459 53.1043 11.6859C54.6776 12.3259 56.051 13.2192 57.2243 14.3659C58.3976 15.5125 59.3043 16.8592 59.9443 18.4059C60.611 19.9525 60.9443 21.6325 60.9443 23.4459C60.9443 27.4725 59.8376 30.6059 57.6243 32.8459C55.411 35.0592 52.291 36.1659 48.2643 36.1659ZM48.2243 29.6859C50.171 29.6859 51.651 29.1392 52.6643 28.0459C53.7043 26.9525 54.2243 25.3792 54.2243 23.3259C54.2243 21.4859 53.6643 20.0059 52.5443 18.8859C51.4243 17.7659 49.9576 17.2059 48.1443 17.2059C47.051 17.2059 46.051 17.4992 45.1443 18.0859C44.2376 18.6459 43.5043 19.4059 42.9443 20.3659C42.4109 21.2992 42.1443 22.3392 42.1443 23.4859C42.1443 24.4992 42.3443 25.4859 42.7443 26.4459C43.171 27.4059 43.8376 28.1925 44.7443 28.8059C45.6509 29.3925 46.811 29.6859 48.2243 29.6859ZM64.0796 36.0059C64.0529 35.6059 64.0263 34.9392 63.9996 34.0059C63.9729 33.0992 63.9463 32.0059 63.9196 30.7259C63.8929 29.4459 63.8796 28.0725 63.8796 26.6059C63.8796 25.1125 63.8796 23.6192 63.8796 22.1259C63.8796 20.4725 63.8796 18.8992 63.8796 17.4059C63.9063 15.9125 63.9196 14.6192 63.9196 13.5259C63.9463 12.4325 63.9596 11.6459 63.9596 11.1659L70.7196 11.0459C70.6663 11.7925 70.6263 12.6992 70.5996 13.7659C71.2929 12.8325 72.0929 12.0992 72.9996 11.5659C73.9063 11.0325 74.9463 10.7659 76.1196 10.7659C77.5329 10.7659 78.6929 11.1792 79.5996 12.0059C80.5329 12.8325 81.2929 13.9125 81.8796 15.2459C83.7996 12.2592 86.1596 10.7659 88.9596 10.7659C90.5329 10.7659 91.8263 11.1125 92.8396 11.8059C93.8796 12.4725 94.6929 13.3792 95.2796 14.5259C95.8663 15.6725 96.2929 16.9659 96.5596 18.4059C96.8529 19.8459 97.0396 21.3259 97.1196 22.8459C97.1996 24.3659 97.2396 25.8325 97.2396 27.2459C97.2396 28.9259 97.2129 30.4592 97.1596 31.8459C97.1063 33.2325 97.0929 34.5525 97.1196 35.8059H90.1996C90.1996 35.1659 90.1996 34.3525 90.1996 33.3659C90.1996 32.4059 90.1996 31.4325 90.1996 30.4459C90.2263 29.4325 90.2396 28.5659 90.2396 27.8459C90.2396 27.0992 90.2396 26.6592 90.2396 26.5259C90.2396 24.9259 90.1996 23.4192 90.1196 22.0059C90.0396 20.5925 89.8396 19.4459 89.5196 18.5659C89.1996 17.6859 88.6796 17.2459 87.9596 17.2459C87.2663 17.2459 86.6529 17.5792 86.1196 18.2459C85.5863 18.9125 85.1063 19.7792 84.6796 20.8459C84.2796 21.9125 83.9329 23.0459 83.6396 24.2459C83.6929 25.2859 83.7329 26.3259 83.7596 27.3659C83.7863 28.3792 83.7996 29.3659 83.7996 30.3259C83.7996 31.4192 83.7863 32.3659 83.7596 33.1659C83.7596 33.9925 83.7596 34.8725 83.7596 35.8059H77.0396C77.0396 33.6459 77.0263 31.7392 76.9996 30.0859C76.9729 28.4325 76.9196 26.8325 76.8396 25.2859C76.7063 22.5125 76.4129 20.4859 75.9596 19.2059C75.5329 17.8992 74.9329 17.2459 74.1596 17.2459C73.3063 17.2459 72.5863 17.7659 71.9996 18.8059C71.4129 19.8192 70.9329 21.0592 70.5596 22.5259C70.5863 24.6592 70.6396 26.8859 70.7196 29.2059C70.7996 31.5259 70.9063 33.7659 71.0396 35.9259L64.0796 36.0059ZM112.8 36.0859C110.24 36.0859 107.987 35.5792 106.04 34.5659C104.12 33.5792 102.614 32.1925 101.52 30.4059C100.454 28.6192 99.9202 26.5525 99.9202 24.2059C99.9202 22.7925 100.16 21.3125 100.64 19.7659C101.12 18.1925 101.894 16.7259 102.96 15.3659C104.027 14.0059 105.427 12.8992 107.16 12.0459C108.92 11.1925 111.054 10.7659 113.56 10.7659C115.374 10.7659 116.894 10.9659 118.12 11.3659C119.374 11.7659 120.387 12.2859 121.16 12.9259C121.96 13.5659 122.56 14.2459 122.96 14.9659C123.387 15.6859 123.667 16.3792 123.8 17.0459C123.96 17.6859 124.04 18.2192 124.04 18.6459C124.04 21.2325 122.947 23.2325 120.76 24.6459C118.6 26.0325 115.534 26.7259 111.56 26.7259C110.654 26.7259 109.787 26.6859 108.96 26.6059C108.16 26.5259 107.414 26.4325 106.72 26.3259C107.227 27.6592 108.067 28.6459 109.24 29.2859C110.414 29.8992 111.627 30.2059 112.88 30.2059C114.694 30.2059 116.294 29.8859 117.68 29.2459C119.067 28.5792 120.374 27.5659 121.6 26.2059L125.16 31.3259C124.307 32.0192 123.347 32.7392 122.28 33.4859C121.24 34.2325 119.96 34.8459 118.44 35.3259C116.92 35.8325 115.04 36.0859 112.8 36.0859ZM113.68 16.7659C112.107 16.7659 110.72 17.1659 109.52 17.9659C108.32 18.7659 107.44 19.8192 106.88 21.1259C107.547 21.2325 108.2 21.3259 108.84 21.4059C109.507 21.4592 110.16 21.4859 110.8 21.4859C111.387 21.4859 112.054 21.4325 112.8 21.3259C113.574 21.2192 114.32 21.0592 115.04 20.8459C115.787 20.6325 116.4 20.3659 116.88 20.0459C117.36 19.6992 117.6 19.2992 117.6 18.8459C117.6 18.6325 117.494 18.3659 117.28 18.0459C117.067 17.7259 116.68 17.4325 116.12 17.1659C115.56 16.8992 114.747 16.7659 113.68 16.7659Z" fill="#FFD633"/>
<path d="M88.2065 10.0109C89.9564 9.76531 91.5772 10.1493 93.0112 11.1593C94.3602 12.1096 95.4344 13.3165 96.2221 14.7687C96.9632 16.1352 97.595 17.581 98.1205 19.1046C98.695 20.7701 98.7551 22.4793 98.3002 24.2062C97.9033 25.7112 97.5952 27.1986 97.3862 28.6593C97.1888 30.0409 97.2404 31.435 97.5346 32.8468C97.716 33.7172 97.7109 34.6056 97.2768 35.339C96.8168 36.1129 96.0194 36.4768 95.1674 36.589C93.6909 36.7828 92.3501 36.5817 91.3315 35.7687C90.2143 34.8759 89.92 33.4032 90.0502 31.7765C90.1598 30.4078 89.9914 29.0274 89.5424 27.6281C89.0441 26.0759 88.6491 24.5453 88.3549 23.0421C88.1006 21.7429 87.7632 20.4978 87.3627 19.2999C86.7545 20.6245 86.3319 21.8917 86.0893 23.1046C85.8292 24.4063 85.6201 25.8086 85.4643 27.3077C85.3094 28.7985 85.2365 30.2842 85.2455 31.7609C85.2509 32.6302 85.1027 33.4408 84.7221 34.1202C84.3309 34.8183 83.7299 35.3098 82.9799 35.5968C81.7492 36.0669 80.3796 36.2813 78.894 36.2531C78.024 36.2362 77.2004 35.9743 76.6127 35.3234C76.041 34.6886 75.8369 33.8382 75.8315 32.9484C75.8222 31.4211 75.8425 29.8923 75.9018 28.3624C75.9583 26.9025 75.8956 25.45 75.7143 24.0031C75.5387 22.6028 75.1665 21.3457 74.6049 20.2296C74.3352 19.6942 74.1394 19.5793 74.1049 19.5656C74.1042 19.5652 74.1064 19.5622 74.0893 19.5656C74.0578 19.572 73.9708 19.5988 73.8315 19.6984C73.1232 20.2047 72.4095 21.0734 71.7221 22.3937C71.0869 23.6146 70.8774 24.8592 71.0737 26.1515C71.2947 27.6027 71.6494 29.0495 72.1362 30.4874C72.7358 32.2589 72.5246 33.9351 71.4408 35.3859C70.9113 36.0943 70.2519 36.6322 69.4643 36.9484C68.6812 37.262 67.8275 37.3345 66.933 37.214C66.1796 37.1121 65.5887 37.0452 65.1674 37.0031C64.959 36.9822 64.7994 36.9623 64.683 36.9562C64.6189 36.9528 64.5774 36.9563 64.558 36.9562C63.9066 37.0369 63.5328 36.5587 63.433 36.4171C63.2922 36.2171 63.1963 35.9741 63.1205 35.7609C62.9633 35.3176 62.8136 34.6971 62.6674 33.9327C62.3574 32.3115 62.3342 30.6826 62.5971 29.0499C62.8417 27.5324 63.0842 26.0154 63.3237 24.5031C63.5477 23.0884 63.5571 21.6749 63.3549 20.2609C63.1385 18.7478 62.917 17.2314 62.6987 15.714C62.4433 13.9371 62.8951 12.3991 64.269 11.4015C65.4538 10.5424 66.8298 10.1337 68.3471 10.1593C69.7056 10.1825 70.8991 10.3878 71.7143 10.9484C71.9199 11.09 72.5297 11.2378 73.8783 10.9952C75.4015 10.7218 76.8781 10.8077 78.2846 11.2609C79.5296 11.6621 80.5104 11.9969 81.2143 12.2687C81.2946 12.2995 81.498 12.3357 81.9096 12.2374C82.3157 12.1404 82.8431 11.9298 83.5033 11.5734C85.0095 10.76 86.5812 10.2393 88.2065 10.0109ZM46.6596 10.4406C48.1525 10.5444 49.6245 10.6899 51.0737 10.8702C52.5653 11.0559 54.1069 11.3835 55.6908 11.8546C57.4995 12.3929 58.833 13.5392 59.6283 15.2452C60.3194 16.7284 60.9038 18.2212 61.3783 19.714C61.8831 21.3032 62.0275 22.931 61.808 24.5812C61.6007 26.1391 61.2631 27.6668 60.808 29.1593C60.3364 30.7049 59.6147 32.1771 58.644 33.5656C57.5578 35.1179 56.0281 35.9892 54.1362 36.1437C52.5053 36.2768 51.0827 36.2946 49.8783 36.1906C49.5236 36.1598 49.2747 36.1792 49.1127 36.1906C49.0047 36.393 48.8558 36.5503 48.7065 36.6593C48.46 36.8386 48.1722 36.9407 47.9252 37.0031C47.4183 37.1305 46.7339 37.1875 45.933 37.1984C44.1386 37.2226 42.515 36.6708 41.1049 35.5577C39.7746 34.5074 38.722 33.2701 37.9643 31.8468C37.267 30.5361 36.6055 29.1997 35.9799 27.8468C35.3204 26.4205 34.8676 24.8963 34.6283 23.2765C34.3724 21.5414 34.6445 19.8682 35.433 18.2999C36.1777 16.8196 37.1306 15.5183 38.2846 14.4093C39.4058 13.3323 40.6289 12.3871 41.9565 11.5812C43.3987 10.7056 44.9778 10.3238 46.6596 10.4406ZM115.425 10.6281C116.96 10.6377 118.548 10.8197 120.183 11.1749C122.102 11.5918 123.427 12.7811 124.058 14.6437C124.615 16.2887 124.844 17.9399 124.746 19.589C124.639 21.3636 123.916 22.8699 122.589 24.0421C121.378 25.1113 120.017 25.9495 118.519 26.5577C117.081 27.1412 115.583 27.6337 114.027 28.0265C112.307 28.4604 110.595 28.3375 108.925 27.6749C108.935 27.698 108.946 27.7211 108.956 27.7452C109.221 28.3611 109.557 28.751 109.925 28.9874C110.294 29.2231 110.783 29.3624 111.441 29.339C112.994 29.2835 114.437 29.041 115.777 28.6202C117.128 28.1955 118.233 27.6565 119.105 27.0187C119.766 26.5348 120.571 26.2747 121.41 26.5577C122.18 26.8179 122.749 27.4631 123.183 28.1984C124.009 29.5998 124.442 30.9814 124.23 32.2687C124.007 33.6219 123.003 34.7569 121.605 35.7218C120.068 36.782 118.334 37.1432 116.472 36.8077C115.692 36.667 115.08 36.5938 114.628 36.5812C114.404 36.575 114.234 36.5884 114.113 36.6046C114.017 36.6175 113.97 36.6313 113.956 36.6359C113.566 36.8255 113.056 36.9345 112.519 37.0031C111.96 37.0744 111.272 37.1135 110.472 37.1281C108.693 37.1598 107.068 36.6458 105.628 35.5968C104.267 34.6042 103.157 33.4251 102.316 32.0656C101.529 30.7937 100.815 29.484 100.175 28.1359C99.4982 26.7088 99.0807 25.1655 98.9252 23.5187C98.7621 21.7875 99.0891 20.1379 99.894 18.5968C100.655 17.1398 101.6 15.8502 102.73 14.7296C103.834 13.6344 105.038 12.6658 106.347 11.8312C107.767 10.9262 109.337 10.4989 111.027 10.5499C112.509 10.5947 113.975 10.6189 115.425 10.6281ZM28.9565 0.0186768C29.8188 0.0668162 30.6335 0.356552 31.1752 1.05774C31.6974 1.73424 31.8243 2.60907 31.7533 3.49524C31.6329 5.00049 31.5502 6.50166 31.5112 7.99524C31.4753 9.37759 31.7043 10.7587 32.1987 12.1437C32.7538 13.6991 33.1444 15.2701 33.3705 16.8546C33.6128 18.554 33.3895 20.2429 32.7299 21.9015C32.2101 23.208 32.1476 24.5032 32.519 25.8156C32.9768 27.432 33.2027 29.0589 33.1908 30.6827C33.1771 32.4578 32.5535 33.9889 31.3158 35.1984C30.0879 36.3979 28.5633 37.0085 26.808 37.0343C25.8999 37.0473 25.0021 36.8241 24.394 36.1281C23.7958 35.442 23.675 34.52 23.769 33.6046C23.9226 32.1082 23.8996 30.6373 23.7065 29.1984C23.4968 27.6342 23.3964 26.07 23.4096 24.5109C23.4209 23.1385 23.1195 22.2442 22.644 21.6827C22.2391 21.2048 21.5063 20.8797 20.1674 20.9562C18.692 21.0412 17.2203 21.206 15.7612 21.4562C14.2252 21.7195 12.7666 21.8729 11.394 21.9093C10.9396 21.922 10.6271 22.0527 10.394 22.2609C10.1466 22.4823 9.90424 22.8629 9.72991 23.4952C9.34787 24.8834 9.25472 26.2663 9.44085 27.6437C9.63671 29.0926 9.97296 30.5332 10.4565 31.964C10.7613 32.8661 10.8112 33.79 10.4018 34.6202C9.99602 35.4409 9.23754 35.9749 8.33928 36.3156C6.75668 36.915 5.32209 37.1942 4.13616 36.9484C3.68549 36.8549 3.35563 36.7907 3.14397 36.7531C3.03615 36.7339 2.97528 36.725 2.94866 36.7218C2.93503 36.7202 2.94302 36.7207 2.96428 36.7218C2.82339 36.7187 2.69172 36.687 2.58928 36.6437C2.40727 36.5656 2.294 36.4524 2.25335 36.4093C2.16529 36.3153 2.11474 36.224 2.10491 36.2062C2.07372 36.1492 2.05364 36.0976 2.05022 36.089C2.04379 36.0726 2.03726 36.0576 2.0346 36.0499C2.02574 36.0244 2.02243 35.999 2.01897 35.9874C2.01013 35.9578 1.99238 35.9151 1.97991 35.8702C1.95426 35.778 1.91957 35.6381 1.87053 35.4562C1.77144 35.0884 1.62277 34.5289 1.42522 33.7843C0.996962 32.1687 0.891889 30.5266 1.11272 28.8702C1.31688 27.3391 1.5319 25.8154 1.76116 24.2999C1.97591 22.8804 1.99278 21.455 1.80803 20.0343C1.61114 18.5201 1.42109 17.0019 1.23772 15.4796C1.043 13.8631 1.08004 12.2503 1.35491 10.6515C1.61263 9.15361 1.85918 7.6534 2.08928 6.1593C2.32682 4.61763 2.64431 3.26742 3.05022 2.12024C3.32262 1.35053 3.84005 0.750365 4.60491 0.432739C5.32589 0.133698 6.15694 0.128957 7.01116 0.292114C7.83166 0.449291 8.56435 0.700572 9.12835 1.08899C9.71999 1.49732 10.1489 2.07873 10.2455 2.82336C10.3477 3.60927 10.5528 4.76534 10.8783 6.29993C11.2366 7.99015 11.2076 9.66381 10.7768 11.3077C10.6008 11.9785 10.6647 12.2619 10.6987 12.3312C10.7057 12.3455 10.7152 12.3496 10.7377 12.3624C10.7728 12.3821 10.8638 12.4177 11.0502 12.4327C12.1929 12.5238 13.5162 12.5849 15.019 12.6124C16.5037 12.6396 17.9878 12.5987 19.4643 12.4796C20.9244 12.3617 21.7045 12.0521 22.0502 11.7452C22.424 11.4134 22.8774 10.6242 23.3002 9.13586C23.7155 7.67374 23.9826 6.20689 24.0971 4.73743C24.2192 3.17045 24.5594 1.8118 25.3627 1.00305C26.2086 0.151491 27.5272 -0.0608576 28.9565 0.0186768ZM3.55022 36.5343C3.55665 36.5298 3.5672 36.5312 3.57366 36.5265C3.59732 36.5091 3.61154 36.4783 3.63616 36.4562C3.60815 36.4812 3.58384 36.5107 3.55022 36.5343ZM3.83147 36.2296C3.8487 36.201 3.87129 36.1753 3.88616 36.1437C3.87417 36.1696 3.85155 36.1958 3.83147 36.2296ZM3.92522 36.0343C3.93676 35.9994 3.94091 35.9628 3.94866 35.9249C3.94233 35.9556 3.9387 35.993 3.92522 36.0343ZM1.99553 35.589C1.9841 35.6713 1.97904 35.7369 1.97991 35.7609C1.97737 35.6889 1.9926 35.6218 2.00335 35.5577C2.0012 35.5702 1.99674 35.5803 1.99553 35.589ZM88.4877 11.9874C87.1095 12.1808 85.766 12.6318 84.4565 13.339C83.7114 13.7412 83.0137 14.0306 82.3783 14.1827C81.7494 14.333 81.0931 14.3658 80.4955 14.1359C79.8436 13.8841 78.9012 13.5569 77.6674 13.1593C76.5953 12.8142 75.4542 12.744 74.2299 12.964C72.8289 13.2159 71.4978 13.2281 70.5815 12.5968C70.2749 12.3857 69.5895 12.1812 68.3158 12.1593C67.2002 12.1402 66.2574 12.4329 65.4487 13.0187C64.8303 13.467 64.5022 14.1758 64.683 15.4327C64.9013 16.9497 65.1152 18.467 65.3315 19.9796C65.5618 21.5913 65.5553 23.2046 65.3002 24.8156C65.0606 26.3289 64.8106 27.8439 64.5658 29.3624C64.3396 30.7662 64.3621 32.1654 64.6283 33.5577C64.7525 34.2067 64.8756 34.668 64.9721 34.9718C65.0913 34.9807 65.2251 34.9963 65.3705 35.0109C65.8254 35.0564 66.437 35.1345 67.1987 35.2374C67.8173 35.3209 68.315 35.2524 68.7221 35.089C69.1263 34.9266 69.5006 34.6437 69.8393 34.1906C70.4915 33.318 70.6478 32.3393 70.2377 31.1281C69.7149 29.5834 69.3362 28.0257 69.0971 26.4562C68.8338 24.7281 69.1245 23.0559 69.9487 21.4718C70.7195 19.9908 71.6133 18.8274 72.6674 18.0734C73.2797 17.6358 74.0517 17.3895 74.8471 17.7062C75.5618 17.9913 76.0465 18.6407 76.394 19.3312C77.068 20.6707 77.5054 22.1492 77.7065 23.7531C77.9014 25.3085 77.9625 26.8718 77.9018 28.4406C77.8437 29.9406 77.8223 31.4432 77.8315 32.9406C77.8358 33.5593 77.9761 33.8533 78.0971 33.9874C78.2036 34.1054 78.4241 34.2432 78.933 34.2531C80.2066 34.2773 81.3103 34.0923 82.2612 33.7296C82.5996 33.6003 82.8228 33.4085 82.9721 33.1437C83.1322 32.8579 83.2493 32.4206 83.2455 31.7765C83.236 30.2256 83.3098 28.6671 83.4721 27.1046C83.6336 25.5502 83.8544 24.0846 84.1283 22.714C84.4131 21.2899 84.9047 19.8335 85.5971 18.3468C85.7798 17.9546 85.9878 17.595 86.2221 17.3156C86.4369 17.0594 86.8087 16.7072 87.3549 16.6671C87.9613 16.6227 88.3872 16.975 88.6205 17.2687C88.8521 17.5603 89.0203 17.9377 89.1518 18.3156C89.6352 19.7051 90.0212 21.1542 90.3158 22.6593C90.5938 24.0794 90.9731 25.5293 91.4487 27.0109C91.9732 28.6447 92.1734 30.2901 92.0424 31.9327C91.9315 33.3183 92.2427 33.9358 92.5815 34.2062C93.0194 34.5556 93.7338 34.7594 94.9096 34.6046C95.3757 34.5432 95.5035 34.3997 95.5502 34.3234C95.6185 34.2084 95.7095 33.9047 95.5737 33.2531C95.2336 31.6198 95.1781 29.9882 95.4096 28.3702C95.6301 26.8306 95.9475 25.273 96.3627 23.6984C96.7196 22.3451 96.6726 21.0365 96.2299 19.7531C95.7389 18.3303 95.1504 16.9869 94.4643 15.7218C93.8234 14.5404 92.9589 13.5645 91.8627 12.7921C90.8507 12.0793 89.7422 11.8115 88.4877 11.9874ZM46.519 12.4406C45.2506 12.3528 44.0845 12.631 42.9955 13.2921C41.7922 14.0226 40.6838 14.8778 39.6674 15.8546C38.6845 16.7993 37.8695 17.9119 37.2221 19.1984C36.6183 20.3993 36.4172 21.6525 36.6127 22.9796C36.8253 24.4211 37.2168 25.7661 37.7924 27.0109C38.402 28.3292 39.0507 29.6246 39.7299 30.9015C40.349 32.0653 41.2176 33.0957 42.3471 33.9874C43.3967 34.8155 44.5685 35.216 45.9018 35.1984C46.6104 35.1888 47.0862 35.1354 47.3705 35.0734C47.4452 34.9049 47.5589 34.7541 47.6987 34.6281C47.9411 34.4098 48.2317 34.3075 48.4565 34.2531C48.9021 34.1457 49.4601 34.1473 50.0502 34.1984C51.108 34.2898 52.4118 34.2788 53.9721 34.1515C55.2731 34.0452 56.2599 33.4797 57.0033 32.4171C57.8617 31.1893 58.495 29.9076 58.9018 28.5734C59.3248 27.1859 59.6307 25.7663 59.8237 24.3156C60.0043 22.957 59.8886 21.6257 59.4721 20.3156C59.0247 18.9084 58.4724 17.498 57.8158 16.089C57.2638 14.9055 56.3828 14.1525 55.1205 13.7765C53.6318 13.3337 52.2014 13.0254 50.8315 12.8546C49.4187 12.6787 47.9772 12.542 46.519 12.4406ZM2.29241 35.0187C2.22856 35.081 2.17988 35.1413 2.14397 35.1984C2.18902 35.1273 2.24073 35.0697 2.29241 35.0187ZM110.964 12.5499C109.673 12.511 108.503 12.8316 107.425 13.5187C106.237 14.2762 105.139 15.1491 104.136 16.1437C103.159 17.1126 102.337 18.2377 101.667 19.5187C101.041 20.7173 100.79 21.9844 100.917 23.3312C101.052 24.7599 101.409 26.0727 101.98 27.2765C102.588 28.559 103.27 29.8083 104.019 31.0187C104.715 32.1418 105.642 33.1292 106.808 33.9796C107.896 34.7725 109.097 35.1524 110.441 35.1281C111.201 35.1142 111.809 35.0774 112.269 35.0187C112.751 34.957 112.994 34.8815 113.081 34.839C113.546 34.6135 114.129 34.5737 114.683 34.589C115.275 34.6055 115.994 34.6894 116.824 34.839C118.179 35.0836 119.374 34.8322 120.464 34.0812C121.693 33.2335 122.161 32.4998 122.253 31.9406C122.356 31.3142 122.179 30.4265 121.464 29.214C121.128 28.6438 120.872 28.4909 120.769 28.4562C120.733 28.4441 120.608 28.3976 120.292 28.6281C119.207 29.4227 117.892 30.0506 116.378 30.5265C114.852 31.0061 113.229 31.2777 111.511 31.339C110.532 31.3739 109.623 31.1709 108.847 30.6749C108.073 30.1795 107.508 29.4376 107.121 28.5343C106.941 28.1163 106.807 27.6996 106.761 27.3156C106.718 26.9517 106.731 26.4173 107.113 25.9874C107.511 25.5403 108.061 25.4782 108.441 25.5031C108.828 25.5288 109.242 25.6526 109.652 25.8156C110.943 26.3294 112.229 26.4184 113.535 26.089C115.006 25.7178 116.419 25.2541 117.769 24.7062C119.058 24.1828 120.22 23.4615 121.261 22.5421C122.187 21.7247 122.678 20.7211 122.753 19.4718C122.836 18.0969 122.64 16.702 122.16 15.2843C121.753 14.0864 120.987 13.4034 119.761 13.1359C118.249 12.8074 116.799 12.637 115.417 12.6281C113.95 12.6188 112.463 12.5952 110.964 12.5499ZM28.8471 2.01086C27.5642 1.93926 26.9957 2.18893 26.7768 2.4093C26.5152 2.67351 26.2066 3.38753 26.0893 4.89368C25.9642 6.49884 25.6726 8.09667 25.2221 9.68274C24.7796 11.2399 24.2017 12.5054 23.3783 13.2374C22.5256 13.9946 21.1896 14.3457 19.6283 14.4718C18.0856 14.5964 16.5386 14.6407 14.9877 14.6124C13.4545 14.5844 12.0877 14.5279 10.894 14.4327C10.0889 14.3686 9.30976 14.0217 8.9096 13.2062C8.5557 12.4836 8.62415 11.6198 8.83928 10.7999C9.18925 9.46454 9.22043 8.10674 8.92522 6.71399C8.59649 5.1645 8.37372 3.94751 8.26116 3.08118C8.25058 2.99968 8.21129 2.88649 7.99553 2.73743C7.75198 2.56934 7.32291 2.39242 6.63616 2.26086C5.98576 2.13651 5.59235 2.18475 5.37053 2.27649C5.19172 2.35075 5.0403 2.48244 4.93303 2.7843C4.57989 3.78236 4.29022 5.0077 4.06585 6.46399C3.83405 7.96914 3.59105 9.47866 3.33147 10.9874C3.08927 12.3951 3.05037 13.8117 3.2221 15.2374C3.40484 16.7546 3.59618 18.2675 3.79241 19.7765C4.00126 21.3825 3.98034 22.9931 3.73772 24.5968C3.51006 26.1017 3.29985 27.6152 3.0971 29.1359C2.91078 30.5333 2.99321 31.9132 3.35491 33.2765C3.53393 33.9513 3.67172 34.4693 3.76897 34.8312C3.97868 34.8715 4.23705 34.9241 4.54241 34.9874C5.16856 35.1172 6.16584 35.0022 7.62835 34.4484C8.24874 34.2134 8.50821 33.9476 8.61272 33.7374C8.71288 33.5343 8.76415 33.192 8.56585 32.6046C8.04239 31.0557 7.66994 29.4891 7.45647 27.9093C7.2335 26.2578 7.35664 24.6042 7.80803 22.964C8.0502 22.0863 8.44733 21.3209 9.06585 20.7687C9.69957 20.2032 10.4854 19.9321 11.3471 19.9093C12.6107 19.8757 13.9704 19.7368 15.4252 19.4874C16.9577 19.2248 18.5004 19.0455 20.0502 18.9562C21.7338 18.8595 23.2022 19.2543 24.1674 20.3937C25.0611 21.4492 25.423 22.8771 25.4096 24.5265C25.3972 25.99 25.4935 27.4609 25.6908 28.9327C25.9054 30.532 25.9302 32.1601 25.7612 33.8077C25.6941 34.461 25.8238 34.7172 25.9018 34.8077C25.9696 34.8855 26.1723 35.0429 26.7768 35.0343C28.0461 35.0161 29.0727 34.5864 29.9174 33.7609C30.7508 32.9454 31.181 31.939 31.1908 30.6671C31.2013 29.2402 30.9977 27.8045 30.5893 26.3624C30.0952 24.617 30.1993 22.8739 30.8783 21.1671C31.417 19.8133 31.5758 18.4772 31.3862 17.1437C31.1797 15.6956 30.8279 14.2503 30.3158 12.8156C29.7425 11.2093 29.4682 9.58234 29.5112 7.94055C29.5512 6.41021 29.6378 4.87236 29.7612 3.33118C29.8116 2.69639 29.6842 2.40769 29.5893 2.2843C29.5138 2.18645 29.3409 2.03843 28.8471 2.01086ZM2.63616 34.7921C2.58153 34.8125 2.52663 34.8377 2.4721 34.8702C2.462 34.8763 2.4505 34.8797 2.44085 34.8859C2.51169 34.8399 2.58047 34.8131 2.63616 34.7921ZM47.2377 16.1827C49.0829 15.8566 50.8159 16.2293 52.3862 17.2843C53.9942 18.3659 54.9012 19.8916 55.0112 21.7921C55.1097 23.4984 54.87 25.1315 54.2924 26.6749C53.6548 28.3771 52.4236 29.5133 50.6752 30.0187C49.9678 30.2228 49.4859 30.3977 49.1987 30.5343C49.1587 30.5533 49.1232 30.5671 49.0971 30.5812C49.0765 30.6246 49.0712 30.6779 49.0424 30.7218C48.8612 30.9952 48.5863 31.1426 48.3315 31.1906C48.1105 31.2321 47.921 31.2032 47.808 31.1749C47.6863 31.1443 47.575 31.0989 47.4877 31.0577C47.1657 30.9057 46.7761 30.6236 46.3627 30.2921C45.51 29.6083 44.6059 28.7975 43.6518 27.8624C42.5632 26.7955 41.8157 25.4 41.3705 23.7374C40.8705 21.8699 41.3131 20.1577 42.6362 18.714C43.885 17.3518 45.4312 16.5026 47.2377 16.1827ZM47.5815 18.1515C46.2144 18.3941 45.0677 19.0239 44.1127 20.0656C43.2321 21.026 42.9838 22.0402 43.3002 23.2218C43.6717 24.6085 44.265 25.6631 45.0502 26.4327C45.9677 27.332 46.8225 28.0958 47.6127 28.7296C47.7357 28.8282 47.8572 28.8962 47.9487 28.964C48.0782 28.8802 48.2066 28.7928 48.3393 28.7296C48.7759 28.5219 49.3821 28.3099 50.1205 28.0968C51.2636 27.7662 52.0025 27.08 52.4174 25.9718C52.8925 24.7022 53.0943 23.3518 53.0112 21.9093C52.9392 20.6624 52.3883 19.6972 51.2768 18.9484C50.1264 18.1746 48.9089 17.9164 47.5815 18.1515ZM113.738 16.0812C113.909 16.1122 114.164 16.197 114.378 16.4249C114.388 16.4354 114.393 16.4534 114.402 16.464C114.479 16.4558 114.575 16.4516 114.683 16.4327C115.241 16.3358 115.909 16.3863 116.425 16.8781C116.908 17.3404 117.04 17.9938 117.05 18.5499C117.078 20.1381 115.803 21.0626 114.3 21.5656C112.848 22.0515 111.32 22.4125 109.722 22.6515C109.298 22.7147 108.886 22.7469 108.527 22.7062C108.196 22.6683 107.704 22.5411 107.371 22.1124C107 21.6351 107.061 21.0937 107.175 20.7374C107.289 20.3847 107.498 20.0373 107.738 19.7218C108.685 18.4738 109.882 17.5015 111.308 16.8077C111.959 16.4912 112.518 16.2554 112.941 16.1437C113.127 16.0947 113.429 16.0255 113.738 16.0812ZM112.183 18.6046C111.149 19.1074 110.287 19.7898 109.574 20.6437C111.01 20.4209 112.376 20.0995 113.667 19.6671C114.951 19.2374 115.054 18.7924 115.05 18.5812L115.027 18.4015C114.611 18.4743 114.166 18.5214 113.785 18.4484C113.616 18.4161 113.402 18.332 113.191 18.1749C112.955 18.2626 112.62 18.3924 112.183 18.6046ZM112.683 17.1984C112.683 17.2826 112.697 17.3861 112.738 17.4952C112.713 17.3958 112.683 17.2993 112.683 17.1984ZM2.73772 34.7531C2.70336 34.7617 2.67088 34.7791 2.63616 34.7921C2.67918 34.7759 2.71282 34.7594 2.73772 34.7531Z" fill="black"/>
</g>
<defs>
<filter id="filter0_d_52_117" x="0" y="0" width="124.771" height="37.4207" filterUnits="userSpaceOnUse" color-interpolation-filters="sRGB">
<feFlood flood-opacity="0" result="BackgroundImageFix"/>
<feColorMatrix in="SourceAlpha" type="matrix" values="0 0 0 0 0 0 0 0 0 0 0 0 0 0 0 0 0 0 127 0" result="hardAlpha"/>
<feOffset dx="-1" dy="0.15"/>
<feComposite in2="hardAlpha" operator="out"/>
<feColorMatrix type="matrix" values="0 0 0 0 0 0 0 0 0 0 0 0 0 0 0 0 0 0 1 0"/>
<feBlend mode="normal" in2="BackgroundImageFix" result="effect1_dropShadow_52_117"/>
<feBlend mode="normal" in="SourceGraphic" in2="effect1_dropShadow_52_117" result="shape"/>
</filter>
</defs>
</svg>
