<svg width="179" height="39" viewBox="0 0 179 39" fill="none" xmlns="http://www.w3.org/2000/svg">
<g filter="url(#filter0_d_52_128)">
<path d="M4.57074 36.6949C4.49074 34.8816 4.45074 32.8816 4.45074 30.6949C4.45074 28.5882 4.49074 26.3482 4.57074 23.9749C4.65074 21.6016 4.77074 19.2016 4.93074 16.7749C5.09074 14.3216 5.30407 11.9349 5.57074 9.6149C5.14407 9.72157 4.73074 9.82824 4.33074 9.93491C3.95741 10.0149 3.61074 10.1082 3.29074 10.2149L1.25074 3.8549C7.70407 2.33491 13.0774 1.57491 17.3707 1.57491C26.0907 1.57491 30.4507 4.89491 30.4507 11.5349C30.4507 14.6549 29.4107 17.1349 27.3307 18.9749C25.2507 20.7882 22.1974 21.9349 18.1707 22.4149C20.5974 24.4682 23.0374 26.1616 25.4907 27.4949C27.9707 28.8016 30.4774 29.9082 33.0107 30.8149L28.6107 36.6949C27.1974 36.1882 25.7174 35.4816 24.1707 34.5749C22.6241 33.6682 21.0907 32.6682 19.5707 31.5749C18.0507 30.4816 16.5974 29.3749 15.2107 28.2549C13.8507 27.1349 12.6374 26.0949 11.5707 25.1349C11.5441 26.9749 11.5174 28.8416 11.4907 30.7349C11.4907 32.6016 11.4907 34.5349 11.4907 36.5349L11.2507 36.7749C10.2374 36.7749 9.14407 36.7749 7.97074 36.7749C6.82407 36.8016 5.78407 36.8549 4.85074 36.9349L4.57074 36.6949ZM17.0107 7.9349C16.2641 7.9349 15.4907 7.9749 14.6907 8.05491C13.8907 8.10824 13.0907 8.18824 12.2907 8.2949C12.1841 9.78824 12.0907 11.2682 12.0107 12.7349C11.9307 14.1749 11.8641 15.6149 11.8107 17.0549C12.9841 17.0282 14.2507 16.9616 15.6107 16.8549C16.9974 16.7216 18.3041 16.4816 19.5307 16.1349C20.7574 15.7616 21.7574 15.2282 22.5307 14.5349C23.3307 13.8416 23.7307 12.9216 23.7307 11.7749C23.7307 10.4416 23.1841 9.46824 22.0907 8.8549C20.9974 8.24157 19.3041 7.9349 17.0107 7.9349ZM48.3754 37.1349C45.8154 37.1349 43.5621 36.6282 41.6154 35.6149C39.6954 34.6282 38.1888 33.2416 37.0954 31.4549C36.0288 29.6682 35.4954 27.6016 35.4954 25.2549C35.4954 23.8416 35.7354 22.3616 36.2154 20.8149C36.6954 19.2416 37.4688 17.7749 38.5354 16.4149C39.6021 15.0549 41.0021 13.9482 42.7354 13.0949C44.4954 12.2416 46.6288 11.8149 49.1354 11.8149C50.9488 11.8149 52.4688 12.0149 53.6954 12.4149C54.9488 12.8149 55.9621 13.3349 56.7354 13.9749C57.5354 14.6149 58.1354 15.2949 58.5354 16.0149C58.9621 16.7349 59.2421 17.4282 59.3754 18.0949C59.5354 18.7349 59.6154 19.2682 59.6154 19.6949C59.6154 22.2816 58.5221 24.2816 56.3354 25.6949C54.1754 27.0816 51.1088 27.7749 47.1354 27.7749C46.2288 27.7749 45.3621 27.7349 44.5354 27.6549C43.7354 27.5749 42.9888 27.4816 42.2954 27.3749C42.8021 28.7082 43.6421 29.6949 44.8154 30.3349C45.9888 30.9482 47.2021 31.2549 48.4554 31.2549C50.2688 31.2549 51.8688 30.9349 53.2554 30.2949C54.6421 29.6282 55.9488 28.6149 57.1754 27.2549L60.7354 32.3749C59.8821 33.0682 58.9221 33.7882 57.8554 34.5349C56.8154 35.2816 55.5354 35.8949 54.0154 36.3749C52.4954 36.8816 50.6154 37.1349 48.3754 37.1349ZM49.2554 17.8149C47.6821 17.8149 46.2954 18.2149 45.0954 19.0149C43.8954 19.8149 43.0154 20.8682 42.4554 22.1749C43.1221 22.2816 43.7754 22.3749 44.4154 22.4549C45.0821 22.5082 45.7354 22.5349 46.3754 22.5349C46.9621 22.5349 47.6288 22.4816 48.3754 22.3749C49.1488 22.2682 49.8954 22.1082 50.6154 21.8949C51.3621 21.6816 51.9754 21.4149 52.4554 21.0949C52.9354 20.7482 53.1754 20.3482 53.1754 19.8949C53.1754 19.6816 53.0688 19.4149 52.8554 19.0949C52.6421 18.7749 52.2554 18.4816 51.6954 18.2149C51.1354 17.9482 50.3221 17.8149 49.2554 17.8149ZM75.5945 37.2549C73.7812 37.2549 72.1012 37.0416 70.5545 36.6149C69.0078 36.1882 67.6078 35.6416 66.3545 34.9749C65.1012 34.3082 63.9812 33.6016 62.9945 32.8549L66.5945 27.0549C67.7145 28.0949 68.7945 28.8949 69.8345 29.4549C70.8745 30.0149 71.9545 30.4016 73.0745 30.6149C74.2212 30.8282 75.4612 30.9349 76.7945 30.9349C77.9412 30.9349 78.8612 30.7882 79.5545 30.4949C80.2478 30.1749 80.5945 29.7749 80.5945 29.2949C80.5945 28.8949 80.2612 28.5882 79.5945 28.3749C78.9278 28.1349 78.0745 27.9349 77.0345 27.7749C75.9945 27.5882 74.9012 27.3616 73.7545 27.0949C72.1278 26.6682 70.6078 26.1749 69.1945 25.6149C67.7812 25.0549 66.6345 24.2949 65.7545 23.3349C64.9012 22.3749 64.4745 21.0949 64.4745 19.4949C64.4745 18.2149 64.7812 17.0949 65.3945 16.1349C66.0078 15.1482 66.8212 14.3349 67.8345 13.6949C68.8745 13.0282 70.0478 12.5349 71.3545 12.2149C72.6612 11.8949 74.0078 11.7349 75.3945 11.7349C77.7945 11.7349 79.8612 12.0282 81.5945 12.6149C83.3545 13.1749 85.0345 13.9216 86.6345 14.8549L82.9945 20.3749C82.1945 19.8149 81.2745 19.3349 80.2345 18.9349C79.2212 18.5082 78.1945 18.1882 77.1545 17.9749C76.1412 17.7349 75.1945 17.6149 74.3145 17.6149C73.3545 17.6149 72.5945 17.7616 72.0345 18.0549C71.5012 18.3482 71.2345 18.7616 71.2345 19.2949C71.2345 19.6149 71.5678 19.9216 72.2345 20.2149C72.9278 20.4816 74.2345 20.8416 76.1545 21.2949C77.3012 21.5616 78.5145 21.8416 79.7945 22.1349C81.0745 22.4016 82.2745 22.7882 83.3945 23.2949C84.5412 23.7749 85.4612 24.4816 86.1545 25.4149C86.8745 26.3216 87.2345 27.5349 87.2345 29.0549C87.2345 31.6149 86.2078 33.6149 84.1545 35.0549C82.1012 36.5216 79.2478 37.2549 75.5945 37.2549ZM99.1989 37.2149C97.4922 37.2149 96.0789 36.9082 94.9589 36.2949C93.8655 35.7082 92.9855 34.8949 92.3189 33.8549C91.6789 32.8149 91.1989 31.6549 90.8789 30.3749C90.5855 29.0682 90.3855 27.7216 90.2789 26.3349C90.1989 24.9216 90.1589 23.5616 90.1589 22.2549C90.1589 20.7616 90.1989 19.2416 90.2789 17.6949C90.3855 16.1482 90.4922 14.4549 90.5989 12.6149L97.9189 12.1749C97.8389 12.7349 97.7189 13.5749 97.5589 14.6949C97.3989 15.8149 97.2522 17.0949 97.1189 18.5349C96.9855 19.9749 96.9189 21.4816 96.9189 23.0549C96.9189 25.6416 97.1455 27.5616 97.5989 28.8149C98.0522 30.0416 98.7322 30.6549 99.6389 30.6549C101.452 30.6549 102.786 29.3349 103.639 26.6949C104.492 24.0549 104.919 19.8816 104.919 14.1749V12.3349L108.319 12.2549L112.439 12.1749C112.066 14.6816 111.786 16.9882 111.599 19.0949C111.412 21.2016 111.292 22.9749 111.239 24.4149C111.186 25.8282 111.159 26.7749 111.159 27.2549C111.159 28.4816 111.266 29.3616 111.479 29.8949C111.692 30.4016 112.066 30.6549 112.599 30.6549C112.866 30.6549 113.159 30.6016 113.479 30.4949C113.799 30.3882 114.172 30.2016 114.599 29.9349L114.319 36.8149C113.306 36.9749 112.426 37.0549 111.679 37.0549C110.399 37.0549 109.346 36.8149 108.519 36.3349C107.719 35.8549 107.079 35.2149 106.599 34.4149C105.772 35.2949 104.746 35.9749 103.519 36.4549C102.319 36.9616 100.879 37.2149 99.1989 37.2149ZM117.897 37.0549C117.87 36.6549 117.844 35.9882 117.817 35.0549C117.79 34.1482 117.764 33.0549 117.737 31.7749C117.71 30.4949 117.697 29.1216 117.697 27.6549C117.697 26.1616 117.697 24.6682 117.697 23.1749C117.697 21.5216 117.697 19.9482 117.697 18.4549C117.724 16.9616 117.737 15.6682 117.737 14.5749C117.764 13.4816 117.777 12.6949 117.777 12.2149L124.537 12.0949C124.484 12.8416 124.444 13.7482 124.417 14.8149C125.11 13.8816 125.91 13.1482 126.817 12.6149C127.724 12.0816 128.764 11.8149 129.937 11.8149C131.35 11.8149 132.51 12.2282 133.417 13.0549C134.35 13.8816 135.11 14.9616 135.697 16.2949C137.617 13.3082 139.977 11.8149 142.777 11.8149C144.35 11.8149 145.644 12.1616 146.657 12.8549C147.697 13.5216 148.51 14.4282 149.097 15.5749C149.684 16.7216 150.11 18.0149 150.377 19.4549C150.67 20.8949 150.857 22.3749 150.937 23.8949C151.017 25.4149 151.057 26.8816 151.057 28.2949C151.057 29.9749 151.03 31.5082 150.977 32.8949C150.924 34.2816 150.91 35.6016 150.937 36.8549H144.017C144.017 36.2149 144.017 35.4016 144.017 34.4149C144.017 33.4549 144.017 32.4816 144.017 31.4949C144.044 30.4816 144.057 29.6149 144.057 28.8949C144.057 28.1482 144.057 27.7082 144.057 27.5749C144.057 25.9749 144.017 24.4682 143.937 23.0549C143.857 21.6416 143.657 20.4949 143.337 19.6149C143.017 18.7349 142.497 18.2949 141.777 18.2949C141.084 18.2949 140.47 18.6282 139.937 19.2949C139.404 19.9616 138.924 20.8282 138.497 21.8949C138.097 22.9616 137.75 24.0949 137.457 25.2949C137.51 26.3349 137.55 27.3749 137.577 28.4149C137.604 29.4282 137.617 30.4149 137.617 31.3749C137.617 32.4682 137.604 33.4149 137.577 34.2149C137.577 35.0416 137.577 35.9216 137.577 36.8549H130.857C130.857 34.6949 130.844 32.7882 130.817 31.1349C130.79 29.4816 130.737 27.8816 130.657 26.3349C130.524 23.5616 130.23 21.5349 129.777 20.2549C129.35 18.9482 128.75 18.2949 127.977 18.2949C127.124 18.2949 126.404 18.8149 125.817 19.8549C125.23 20.8682 124.75 22.1082 124.377 23.5749C124.404 25.7082 124.457 27.9349 124.537 30.2549C124.617 32.5749 124.724 34.8149 124.857 36.9749L117.897 37.0549ZM166.618 37.1349C164.058 37.1349 161.804 36.6282 159.858 35.6149C157.938 34.6282 156.431 33.2416 155.338 31.4549C154.271 29.6682 153.738 27.6016 153.738 25.2549C153.738 23.8416 153.978 22.3616 154.458 20.8149C154.938 19.2416 155.711 17.7749 156.778 16.4149C157.844 15.0549 159.244 13.9482 160.978 13.0949C162.738 12.2416 164.871 11.8149 167.378 11.8149C169.191 11.8149 170.711 12.0149 171.938 12.4149C173.191 12.8149 174.204 13.3349 174.978 13.9749C175.778 14.6149 176.378 15.2949 176.778 16.0149C177.204 16.7349 177.484 17.4282 177.618 18.0949C177.778 18.7349 177.858 19.2682 177.858 19.6949C177.858 22.2816 176.764 24.2816 174.578 25.6949C172.418 27.0816 169.351 27.7749 165.378 27.7749C164.471 27.7749 163.604 27.7349 162.778 27.6549C161.978 27.5749 161.231 27.4816 160.538 27.3749C161.044 28.7082 161.884 29.6949 163.058 30.3349C164.231 30.9482 165.444 31.2549 166.698 31.2549C168.511 31.2549 170.111 30.9349 171.498 30.2949C172.884 29.6282 174.191 28.6149 175.418 27.2549L178.978 32.3749C178.124 33.0682 177.164 33.7882 176.098 34.5349C175.058 35.2816 173.778 35.8949 172.258 36.3749C170.738 36.8816 168.858 37.1349 166.618 37.1349ZM167.498 17.8149C165.924 17.8149 164.538 18.2149 163.338 19.0149C162.138 19.8149 161.258 20.8682 160.698 22.1749C161.364 22.2816 162.018 22.3749 162.658 22.4549C163.324 22.5082 163.978 22.5349 164.618 22.5349C165.204 22.5349 165.871 22.4816 166.618 22.3749C167.391 22.2682 168.138 22.1082 168.858 21.8949C169.604 21.6816 170.218 21.4149 170.698 21.0949C171.178 20.7482 171.418 20.3482 171.418 19.8949C171.418 19.6816 171.311 19.4149 171.098 19.0949C170.884 18.7749 170.498 18.4816 169.938 18.2149C169.378 17.9482 168.564 17.8149 167.498 17.8149Z" fill="#FFD633"/>
<path d="M94.8989 11.5833C95.706 11.4735 96.6053 11.5003 97.2582 12.0287C97.9995 12.63 98.0523 13.5434 97.8989 14.3021C97.6667 15.4453 97.5475 16.759 97.5551 18.2396C97.5627 19.674 97.7757 21.0959 98.2036 22.5052C98.6855 24.0928 98.9335 25.6791 98.9379 27.263C98.9396 27.885 99.0752 28.193 99.1879 28.3333C99.2765 28.443 99.4436 28.5627 99.852 28.5833C100.649 28.6231 101.352 28.2857 101.993 27.2708C102.699 26.1512 103.122 24.9116 103.266 23.5521C103.418 22.1183 103.416 20.6811 103.25 19.2396C103.06 17.5783 103.225 15.922 103.75 14.2865C104.032 13.4111 104.493 12.648 105.219 12.1849C105.969 11.7076 106.834 11.6571 107.696 11.8724C109.025 12.205 110.103 12.4252 110.938 12.5365C111.721 12.6407 112.333 13.0864 112.664 13.8021C112.96 14.4416 113.003 15.2305 112.93 16.0521C112.792 17.609 112.542 19.1607 112.172 20.7005C111.823 22.1531 111.563 23.6227 111.399 25.1068C111.258 26.3843 111.581 27.3122 112.274 28.0208C113.208 28.9762 114.109 29.9008 114.977 30.7865C115.528 31.3499 115.901 32.0151 116 32.7787C116.099 33.5397 115.915 34.2927 115.539 34.9974C114.771 36.4412 113.418 37.3518 111.664 37.8099C110.005 38.2434 108.47 38.2486 107.297 37.474C106.864 37.1867 106.06 37.0668 104.618 37.5521C103.047 38.0809 101.73 38.4219 100.704 38.5443C100.229 38.6008 99.8087 38.6263 99.4848 38.6068C99.3351 38.5977 99.1137 38.5719 98.8989 38.4818C98.8108 38.4447 98.691 38.357 98.5629 38.2396C98.526 38.2314 98.4815 38.2256 98.4301 38.2162C98.0888 38.1537 97.5374 38.0892 96.7582 38.0287C94.8743 37.8824 93.3737 36.9957 92.3364 35.4193C91.3903 33.9816 90.8051 32.4403 90.602 30.8021C90.423 29.359 90.1689 27.9176 89.8442 26.4818C89.507 24.9906 89.223 23.4749 88.9926 21.9349C88.7496 20.3105 88.7715 18.6873 89.0629 17.0755C89.357 15.451 89.9504 14.1057 90.9457 13.2005C91.9217 12.3131 93.2813 11.8041 94.8989 11.5833ZM73.9301 10.4427C75.6802 10.0122 77.3981 10.1883 79.0395 10.9662C80.4924 11.6548 81.8723 12.3642 83.1801 13.0912C83.8718 13.4757 84.4636 13.8872 84.9067 14.3333C85.3491 14.7791 85.6952 15.3149 85.8051 15.9349C86.0171 17.135 85.3408 18.2802 84.3989 19.2787C83.811 19.9015 83.0836 20.2957 82.2348 20.349C81.4092 20.3997 80.5907 20.1163 79.8207 19.6458C78.6012 18.9011 77.2616 18.3845 75.7973 18.0912C75.1052 17.9527 74.6559 17.9878 74.3832 18.0833C74.1526 18.1647 73.9866 18.303 73.8676 18.5755C73.825 18.6735 73.8128 18.745 73.8051 18.7865C73.831 18.8037 73.869 18.8363 73.9379 18.8646C74.083 18.9237 74.3045 18.9872 74.6176 19.0287C76.255 19.2457 77.8065 19.856 79.2582 20.8412C80.4601 21.6562 81.7701 22.1529 83.2036 22.3255C85.1187 22.5555 86.631 23.558 87.6879 25.2396C88.7387 26.9125 89.0162 28.7126 88.4848 30.5755C87.9893 32.3104 87.1252 33.819 85.8911 35.0677C84.6203 36.3521 83.0805 37.0964 81.3051 37.2708C79.8079 37.418 78.5507 37.6405 77.5239 37.9349C76.9695 38.0939 76.5304 38.2095 76.227 38.2787C76.0826 38.3115 75.9328 38.3427 75.8051 38.3568C75.7528 38.3625 75.6293 38.3739 75.4926 38.3568C75.4618 38.3528 75.4134 38.3218 75.3442 38.3021C75.2838 38.2983 75.1732 38.3019 75.0082 38.3021C74.641 38.3026 74.0765 38.3238 73.3051 38.3568C71.5619 38.4313 69.9167 38.0354 68.3989 37.1771C67.0397 36.4085 65.8266 35.7015 64.7582 35.0599C64.0407 34.6289 63.5104 34.0037 63.3286 33.1771C63.1553 32.3858 63.3342 31.5541 63.6879 30.7474C64.3716 29.1892 65.3822 28.044 66.8051 27.599C68.2293 27.1543 69.6842 27.5218 71.0864 28.4271C72.2199 29.1593 73.4786 29.6547 74.8598 29.9193C76.1363 30.1635 77.2496 29.9701 78.2582 29.3646C78.3921 29.2841 78.4726 29.1938 78.5395 29.138C78.4467 29.0602 78.3107 28.9543 78.1098 28.8412C76.867 28.1418 75.5725 27.6956 74.2192 27.5052C72.7542 27.2995 71.2233 27.1311 69.6332 26.9896C67.7157 26.8188 66.2032 25.8884 65.1879 24.2552C64.2518 22.7485 63.7549 21.1316 63.7114 19.4271C63.6666 17.6454 64.2701 16.0888 65.5082 14.8177C66.6411 13.6552 67.9463 12.728 69.4145 12.0365C70.8372 11.3664 72.3443 10.8334 73.9301 10.4427ZM142.024 11.0599C143.774 10.8144 145.395 11.1983 146.829 12.2083C148.178 13.1586 149.252 14.3655 150.039 15.8177C150.781 17.1842 151.412 18.63 151.938 20.1537C152.512 21.8192 152.573 23.5284 152.118 25.2552C151.721 26.7603 151.413 28.2477 151.204 29.7083C151.006 31.09 151.058 32.4841 151.352 33.8958C151.533 34.7662 151.528 35.6546 151.094 36.388C150.634 37.162 149.837 37.5259 148.985 37.638C147.508 37.8319 146.168 37.6307 145.149 36.8177C144.032 35.9249 143.737 34.4522 143.868 32.8255C143.977 31.4568 143.809 30.0764 143.36 28.6771C142.861 27.1249 142.467 25.5943 142.172 24.0912C141.918 22.792 141.581 21.5468 141.18 20.349C140.572 21.6736 140.149 22.9407 139.907 24.1537C139.647 25.4553 139.438 26.8577 139.282 28.3568C139.127 29.8475 139.054 31.3332 139.063 32.8099C139.068 33.6792 138.92 34.4898 138.539 35.1693C138.148 35.8673 137.547 36.3589 136.797 36.6458C135.567 37.1159 134.197 37.3304 132.711 37.3021C131.841 37.2852 131.018 37.0233 130.43 36.3724C129.858 35.7376 129.654 34.8873 129.649 33.9974C129.64 32.4701 129.66 30.9413 129.719 29.4115C129.776 27.9516 129.713 26.4991 129.532 25.0521C129.356 23.6518 128.984 22.3948 128.422 21.2787C128.153 20.7433 127.957 20.6283 127.922 20.6146C127.922 20.6142 127.924 20.6113 127.907 20.6146C127.875 20.621 127.788 20.6478 127.649 20.7474C126.941 21.2537 126.227 22.1224 125.539 23.4427C124.904 24.6636 124.695 25.9082 124.891 27.2005C125.112 28.6517 125.467 30.0985 125.954 31.5365C126.553 33.3079 126.342 34.9842 125.258 36.4349C124.729 37.1434 124.069 37.6813 123.282 37.9974C122.499 38.311 121.645 38.3836 120.75 38.263C119.997 38.1612 119.406 38.0943 118.985 38.0521C118.776 38.0313 118.617 38.0114 118.5 38.0052C118.436 38.0019 118.395 38.0053 118.375 38.0052C117.724 38.086 117.35 37.6078 117.25 37.4662C117.11 37.2662 117.014 37.0231 116.938 36.8099C116.781 36.3667 116.631 35.7461 116.485 34.9818C116.175 33.3606 116.152 31.7316 116.414 30.099C116.659 28.5814 116.902 27.0644 117.141 25.5521C117.365 24.1374 117.374 22.7239 117.172 21.3099C116.956 19.7968 116.734 18.2804 116.516 16.763C116.261 14.9862 116.712 13.4482 118.086 12.4505C119.271 11.5914 120.647 11.1827 122.164 11.2083C123.523 11.2316 124.716 11.4369 125.532 11.9974C125.737 12.139 126.347 12.2868 127.696 12.0443C129.219 11.7709 130.696 11.8567 132.102 12.3099C133.347 12.7111 134.328 13.0459 135.032 13.3177C135.112 13.3485 135.315 13.3847 135.727 13.2865C136.133 13.1894 136.66 12.9788 137.321 12.6224C138.827 11.8091 140.399 11.2884 142.024 11.0599ZM75.3129 38.3021H75.3286C75.3038 38.2947 75.2779 38.2893 75.2504 38.2787C75.2811 38.2892 75.3023 38.2994 75.3129 38.3021ZM51.0004 11.6771C52.5355 11.6867 54.1232 11.8688 55.7582 12.224C57.6772 12.6409 59.0025 13.8301 59.6332 15.6927C60.1901 17.3377 60.4194 18.989 60.3207 20.638C60.2141 22.4126 59.4912 23.9189 58.1645 25.0912C56.9534 26.1603 55.5922 26.9986 54.0942 27.6068C52.6563 28.1903 51.158 28.6827 49.602 29.0755C47.8825 29.5094 46.1704 29.3865 44.5004 28.724C44.51 28.747 44.5213 28.7701 44.5317 28.7943C44.796 29.4102 45.132 29.8 45.5004 30.0365C45.8691 30.2722 46.3584 30.4115 47.0161 30.388C48.5689 30.3325 50.0125 30.09 51.352 29.6693C52.7034 29.2445 53.8078 28.7055 54.6801 28.0677C55.3412 27.5838 56.1459 27.3237 56.9848 27.6068C57.7555 27.867 58.3245 28.5121 58.7582 29.2474C59.584 30.6488 60.0174 32.0305 59.8051 33.3177C59.5818 34.6709 58.5783 35.8059 57.1801 36.7708C55.6428 37.8311 53.9092 38.1922 52.0473 37.8568C51.2675 37.7161 50.6554 37.6428 50.2036 37.6302C49.9791 37.624 49.8097 37.6374 49.6879 37.6537C49.592 37.6665 49.5448 37.6803 49.5317 37.6849C49.1417 37.8746 48.6308 37.9836 48.0942 38.0521C47.5351 38.1234 46.8477 38.1626 46.0473 38.1771C44.2681 38.2088 42.6429 37.6948 41.2036 36.6458C39.8421 35.6533 38.7326 34.4742 37.8911 33.1146C37.1039 31.8427 36.3901 30.533 35.7504 29.1849C35.0734 27.7578 34.6559 26.2146 34.5004 24.5677C34.3373 22.8365 34.6643 21.1869 35.4692 19.6458C36.2302 18.1888 37.1757 16.8992 38.3051 15.7787C39.4091 14.6834 40.6133 13.7148 41.9223 12.8802C43.3418 11.9752 44.9118 11.5479 46.602 11.599C48.0843 11.6437 49.5505 11.668 51.0004 11.6771ZM169.243 11.6771C170.778 11.6867 172.365 11.8688 174 12.224C175.919 12.6409 177.245 13.8301 177.875 15.6927C178.432 17.3377 178.662 18.989 178.563 20.638C178.456 22.4126 177.733 23.9189 176.407 25.0912C175.196 26.1603 173.834 26.9986 172.336 27.6068C170.899 28.1903 169.4 28.6827 167.844 29.0755C166.125 29.5094 164.413 29.3865 162.743 28.724C162.752 28.747 162.764 28.7701 162.774 28.7943C163.038 29.4102 163.374 29.8 163.743 30.0365C164.111 30.2722 164.601 30.4115 165.258 30.388C166.811 30.3325 168.255 30.09 169.594 29.6693C170.946 29.2445 172.05 28.7055 172.922 28.0677C173.583 27.5838 174.388 27.3237 175.227 27.6068C175.998 27.867 176.567 28.5121 177 29.2474C177.826 30.6488 178.26 32.0305 178.047 33.3177C177.824 34.6709 176.82 35.8059 175.422 36.7708C173.885 37.8311 172.151 38.1922 170.289 37.8568C169.51 37.7161 168.898 37.6428 168.446 37.6302C168.221 37.624 168.052 37.6374 167.93 37.6537C167.834 37.6665 167.787 37.6803 167.774 37.6849C167.384 37.8746 166.873 37.9836 166.336 38.0521C165.777 38.1234 165.09 38.1626 164.289 38.1771C162.51 38.2088 160.885 37.6948 159.446 36.6458C158.084 35.6533 156.975 34.4742 156.133 33.1146C155.346 31.8427 154.632 30.533 153.993 29.1849C153.316 27.7578 152.898 26.2146 152.743 24.5677C152.579 22.8365 152.906 21.1869 153.711 19.6458C154.472 18.1888 155.418 16.8992 156.547 15.7787C157.651 14.6834 158.856 13.7148 160.164 12.8802C161.584 11.9752 163.154 11.5479 164.844 11.599C166.326 11.6437 167.793 11.668 169.243 11.6771ZM74.7895 37.9349C74.8573 38.0256 74.9343 38.0856 74.9926 38.1302C74.9238 38.0754 74.8493 38.0175 74.7895 37.9349ZM98.1957 37.4662C98.196 37.5859 98.2261 37.6886 98.2582 37.7787C98.2299 37.684 98.1959 37.583 98.1957 37.4662ZM10.6801 33.4505C10.6811 31.9862 10.578 30.5204 10.3676 29.0521C10.308 28.6361 10.2824 28.2439 10.2973 27.8958C10.3119 27.5601 10.3669 27.1933 10.5317 26.8646C10.7132 26.5041 11.0297 26.1886 11.4848 26.0599C11.8987 25.9433 12.2975 26.0217 12.6098 26.1302C13.5953 26.4736 14.7205 27.1609 15.9536 28.1224C17.1766 29.0763 18.3577 30.0934 19.5004 31.1693C20.5602 32.1671 21.73 33.0166 23.0082 33.7162C24.2562 34.3992 25.4274 34.7446 26.5239 34.8021C27.5417 34.855 28.6641 34.5464 29.9067 33.763C30.4886 33.3959 30.7636 33.0487 30.8832 32.7708C30.991 32.5195 31.0164 32.2197 30.8598 31.8021C30.5571 30.995 29.9139 30.464 28.6098 30.3177C26.8685 30.1231 25.2755 29.5466 23.852 28.5912C22.5144 27.6932 21.2765 26.6785 20.1411 25.5443C19.5661 24.9698 19.0781 24.3376 18.9145 23.6693C18.8265 23.3072 18.8263 22.9071 18.9848 22.5208C19.142 22.1392 19.4196 21.8551 19.7192 21.6537L22.6176 19.6849C23.8459 18.8444 25.0369 18.0308 26.1879 17.2474C27.2288 16.5386 28.1879 15.5872 29.0629 14.3802C29.8269 13.3262 30.0556 12.2042 29.7582 10.9427C29.4198 9.50733 28.8629 8.22916 28.102 7.09897C27.3441 5.97362 26.392 5.02954 25.2426 4.27084C24.113 3.52587 22.8743 3.06472 21.5161 2.88803C19.9848 2.68885 18.4376 2.43707 16.8832 2.13022C15.5483 1.86747 14.2473 2.0023 12.9614 2.53647C11.4577 3.16092 9.95468 3.67336 8.45355 4.07553C6.92273 4.4856 5.35235 4.72446 3.75043 4.78647C3.43613 4.79881 3.23249 4.84219 3.1098 4.88803C3.04385 4.91268 3.01265 4.9331 3.00043 4.94272C3.04897 4.87548 2.9075 4.96107 3.12543 5.52866C3.59923 6.76102 4.17998 7.52416 4.78949 7.95053C6.08582 8.85858 6.32266 10.3795 5.99261 12.0052C5.71976 13.3504 5.64585 14.7405 5.76605 16.1771C5.89358 17.7013 6.02905 19.2245 6.1723 20.7396C6.32416 22.3492 6.25125 23.9519 5.95355 25.5443C5.67279 27.0447 5.39522 28.5555 5.12543 30.0677C4.87653 31.464 4.87711 32.8558 5.13324 34.2474C5.24575 34.8584 5.3339 35.3519 5.39886 35.724C5.61161 35.7195 5.86868 35.7165 6.16449 35.7083C7.19496 35.6798 8.31661 35.5238 9.53168 35.224C9.97676 35.1141 10.2272 34.9238 10.3832 34.7005C10.5499 34.4617 10.6797 34.0744 10.6801 33.4505ZM74.6567 37.6849C74.6635 37.7041 74.6724 37.7216 74.6801 37.7396C74.6724 37.7214 74.6634 37.704 74.6567 37.6849ZM5.30511 37.3802C5.36621 37.3089 5.43441 37.1887 5.4848 37.0365C5.46156 37.1069 5.41938 37.2469 5.30511 37.3802ZM76.5942 37.349C76.5938 37.2371 76.5628 37.1288 76.5239 37.0208C76.5578 37.1176 76.5938 37.2232 76.5942 37.349ZM76.477 36.8958C76.4627 36.8685 76.455 36.8362 76.4379 36.8099C76.4278 36.7944 76.4094 36.7852 76.3989 36.7708C76.4267 36.809 76.453 36.8496 76.477 36.8958ZM95.1645 13.5677C93.7766 13.7575 92.8583 14.1601 92.2895 14.6771C91.7399 15.1768 91.2825 16.0425 91.0317 17.4271C90.7788 18.8239 90.7583 20.2281 90.9692 21.638C91.1926 23.1315 91.4709 24.601 91.7973 26.0443C92.1363 27.5438 92.3993 29.0506 92.5864 30.5599C92.7497 31.8744 93.2133 33.1293 94.0004 34.3255C94.6966 35.3831 95.6452 35.938 96.9145 36.0365C97.7094 36.0982 98.3433 36.1657 98.7895 36.2474C99.0029 36.2865 99.2252 36.3373 99.4145 36.4115C99.496 36.4436 99.6235 36.5044 99.7504 36.599C99.9071 36.596 100.142 36.5911 100.469 36.5521C101.294 36.4536 102.455 36.1659 103.977 35.6537C105.626 35.0986 107.19 35.0023 108.399 35.8021C108.869 36.1134 109.709 36.2503 111.157 35.8724C112.511 35.5186 113.329 34.8881 113.774 34.0521C114.004 33.6179 114.049 33.2882 114.016 33.0365C113.984 32.7889 113.862 32.5063 113.547 32.1849C112.679 31.2988 111.779 30.375 110.844 29.4193C109.667 28.2159 109.219 26.6625 109.414 24.888C109.588 23.3203 109.858 21.766 110.227 20.2318C110.574 18.7874 110.808 17.3366 110.938 15.8802C110.999 15.1945 110.924 14.8189 110.844 14.6458C110.811 14.5737 110.786 14.5552 110.782 14.5521C110.777 14.5488 110.75 14.5312 110.672 14.5208C109.734 14.3958 108.578 14.1517 107.211 13.8099C106.725 13.6883 106.455 13.7667 106.289 13.8724C106.101 13.9937 105.858 14.2772 105.657 14.9037C105.216 16.278 105.078 17.6455 105.235 19.013C105.416 20.5991 105.425 22.183 105.258 23.763C105.083 25.4186 104.56 26.9488 103.688 28.3333C102.751 29.8198 101.424 30.6675 99.7504 30.5833C98.9238 30.5415 98.1573 30.2456 97.6254 29.5833C97.119 28.9517 96.9402 28.1299 96.9379 27.2708C96.9343 25.892 96.7184 24.4961 96.2895 23.0833C95.8069 21.493 95.5635 19.8796 95.5551 18.2474C95.547 16.6596 95.6731 15.2076 95.9379 13.9037C95.9734 13.728 95.9593 13.6222 95.9536 13.5677C95.9299 13.5612 95.8949 13.5504 95.852 13.5443C95.7061 13.5239 95.4808 13.5245 95.1645 13.5677ZM74.4067 12.388C72.9442 12.7483 71.5635 13.2302 70.2661 13.8412C69.0143 14.4307 67.9039 15.2172 66.9379 16.2083C66.0785 17.0903 65.6794 18.1303 65.7114 19.3802C65.7455 20.7079 66.1304 21.9768 66.8911 23.2005C67.5736 24.2983 68.5196 24.8823 69.8129 24.9974C71.4329 25.1416 72.9929 25.318 74.4926 25.5287C76.1032 25.7549 77.64 26.2802 79.0942 27.099C79.4802 27.3163 79.8305 27.5658 80.102 27.8568C80.3756 28.1505 80.6196 28.544 80.6567 29.0287C80.7323 30.0309 79.936 30.6948 79.2895 31.0833C77.8317 31.9584 76.2107 32.2179 74.4848 31.888C72.8609 31.5769 71.3638 30.9819 70.0082 30.1068C68.9216 29.4049 68.0785 29.2926 67.3989 29.5052C66.7174 29.7185 66.0605 30.3047 65.5161 31.5443C65.256 32.1369 65.2321 32.5209 65.2817 32.7474C65.3234 32.9369 65.4432 33.1369 65.7817 33.3412C66.8324 33.9722 68.0346 34.6723 69.3832 35.4349C70.5752 36.1089 71.8493 36.4153 73.2192 36.3568C73.9985 36.3235 74.5979 36.3026 75.0082 36.3021C75.2091 36.3019 75.3914 36.3062 75.5317 36.3177C75.5776 36.3215 75.6451 36.3275 75.7192 36.3412C75.7379 36.3371 75.7595 36.3384 75.7817 36.3333C76.0288 36.277 76.4227 36.1698 76.9692 36.013C78.1449 35.6758 79.5299 35.4339 81.1098 35.2787C82.4095 35.1509 83.5187 34.6221 84.4692 33.6615C85.4577 32.6613 86.1559 31.4537 86.5629 30.0287C86.9326 28.7337 86.7557 27.5163 85.9926 26.3021C85.2341 25.0952 84.2434 24.4631 82.9692 24.3099C81.2157 24.0994 79.5992 23.4919 78.1332 22.4974C76.9156 21.6711 75.6551 21.1778 74.352 21.0052C73.5593 20.8999 72.7414 20.6581 72.2348 20.0521C71.6413 19.3408 71.7273 18.4787 72.0317 17.7787C72.3604 17.023 72.931 16.4687 73.7114 16.1927C74.4518 15.9314 75.3042 15.9534 76.1879 16.1302C77.8757 16.4681 79.4395 17.07 80.8676 17.9427C81.4218 18.281 81.827 18.3742 82.1098 18.3568C82.3675 18.3406 82.6425 18.225 82.9457 17.9037C83.7869 17.0115 83.875 16.4963 83.8364 16.2787C83.8194 16.1883 83.7462 16.011 83.4848 15.7474C83.2204 15.481 82.8085 15.1731 82.2114 14.8412C80.943 14.1361 79.5983 13.4508 78.1801 12.7787C76.9482 12.1948 75.7041 12.0685 74.4067 12.388ZM142.305 13.0365C140.927 13.2299 139.583 13.6809 138.274 14.388C137.529 14.7902 136.831 15.0796 136.196 15.2318C135.567 15.3821 134.911 15.4148 134.313 15.1849C133.661 14.9331 132.719 14.6059 131.485 14.2083C130.413 13.8632 129.272 13.793 128.047 14.013C126.646 14.265 125.315 14.2771 124.399 13.6458C124.092 13.4347 123.407 13.2303 122.133 13.2083C121.018 13.1893 120.075 13.482 119.266 14.0677C118.648 14.5161 118.32 15.2248 118.5 16.4818C118.719 17.9987 118.933 19.5161 119.149 21.0287C119.379 22.6403 119.373 24.2536 119.118 25.8646C118.878 27.3779 118.628 28.8929 118.383 30.4115C118.157 31.8152 118.179 33.2144 118.446 34.6068C118.57 35.2558 118.693 35.717 118.789 36.0208C118.909 36.0297 119.042 36.0454 119.188 36.0599C119.643 36.1054 120.254 36.1835 121.016 36.2865C121.635 36.3699 122.132 36.3014 122.539 36.138C122.944 35.9757 123.318 35.6927 123.657 35.2396C124.309 34.367 124.465 33.3883 124.055 32.1771C123.532 30.6325 123.154 29.0747 122.914 27.5052C122.651 25.7771 122.942 24.1049 123.766 22.5208C124.537 21.0399 125.431 19.8765 126.485 19.1224C127.097 18.6849 127.869 18.4385 128.664 18.7552C129.379 19.0404 129.864 19.6897 130.211 20.3802C130.885 21.7198 131.323 23.1983 131.524 24.8021C131.719 26.3575 131.78 27.9208 131.719 29.4896C131.661 30.9897 131.64 32.4922 131.649 33.9896C131.653 34.6083 131.793 34.9024 131.914 35.0365C132.021 35.1544 132.242 35.2923 132.75 35.3021C134.024 35.3263 135.128 35.1414 136.079 34.7787C136.417 34.6494 136.64 34.4576 136.789 34.1927C136.95 33.9069 137.067 33.4696 137.063 32.8255C137.053 31.2747 137.127 29.7162 137.289 28.1537C137.451 26.5992 137.672 25.1337 137.946 23.763C138.23 22.3389 138.722 20.8825 139.414 19.3958C139.597 19.0037 139.805 18.6441 140.039 18.3646C140.254 18.1085 140.626 17.7563 141.172 17.7162C141.779 17.6718 142.205 18.024 142.438 18.3177C142.669 18.6094 142.838 18.9868 142.969 19.3646C143.453 20.7541 143.839 22.2032 144.133 23.7083C144.411 25.1285 144.79 26.5783 145.266 28.0599C145.791 29.6937 145.991 31.3392 145.86 32.9818C145.749 34.3674 146.06 34.9848 146.399 35.2552C146.837 35.6046 147.551 35.8084 148.727 35.6537C149.193 35.5922 149.321 35.4487 149.368 35.3724C149.436 35.2575 149.527 34.9538 149.391 34.3021C149.051 32.6688 148.995 31.0372 149.227 29.4193C149.447 27.8796 149.765 26.3221 150.18 24.7474C150.537 23.3942 150.49 22.0855 150.047 20.8021C149.556 19.3793 148.968 18.0359 148.282 16.7708C147.641 15.5894 146.776 14.6136 145.68 13.8412C144.668 13.1284 143.56 12.8606 142.305 13.0365ZM46.5395 13.599C45.2482 13.56 44.0784 13.8807 43.0004 14.5677C41.8123 15.3252 40.714 16.1982 39.7114 17.1927C38.7347 18.1617 37.9121 19.2867 37.2426 20.5677C36.6166 21.7664 36.3657 23.0334 36.4926 24.3802C36.6276 25.809 36.9841 27.1218 37.5551 28.3255C38.1636 29.6081 38.8449 30.8573 39.5942 32.0677C40.29 33.1908 41.2168 34.1782 42.3832 35.0287C43.4714 35.8215 44.6725 36.2015 46.0161 36.1771C46.7764 36.1632 47.3841 36.1265 47.8442 36.0677C48.3261 36.006 48.5693 35.9305 48.6567 35.888C49.1216 35.6625 49.7037 35.6227 50.2582 35.638C50.8497 35.6545 51.5695 35.7385 52.3989 35.888C53.7546 36.1326 54.949 35.8812 56.0395 35.1302C57.2687 34.2825 57.7363 33.5489 57.8286 32.9896C57.9312 32.3633 57.7539 31.4755 57.0395 30.263C56.7034 29.6929 56.4471 29.54 56.3442 29.5052C56.3083 29.4931 56.1834 29.4467 55.8676 29.6771C54.782 30.4718 53.4676 31.0996 51.9536 31.5755C50.4274 32.0552 48.8039 32.3267 47.0864 32.388C46.1077 32.4229 45.1982 32.22 44.4223 31.724C43.6485 31.2285 43.0833 30.4866 42.6957 29.5833C42.5166 29.1654 42.3824 28.7486 42.3364 28.3646C42.2931 28.0007 42.3064 27.4663 42.6879 27.0365C43.0857 26.5894 43.6362 26.5273 44.0161 26.5521C44.4033 26.5778 44.8173 26.7017 45.227 26.8646C46.518 27.3785 47.8043 27.4675 49.1098 27.138C50.5809 26.7668 51.994 26.3031 53.3442 25.7552C54.6328 25.2318 55.7949 24.5105 56.8364 23.5912C57.7622 22.7738 58.2535 21.7701 58.3286 20.5208C58.4111 19.1459 58.2147 17.751 57.7348 16.3333C57.3286 15.1355 56.5625 14.4524 55.3364 14.1849C53.8242 13.8564 52.3745 13.6861 50.9926 13.6771C49.5254 13.6679 48.0383 13.6442 46.5395 13.599ZM164.782 13.599C163.49 13.56 162.321 13.8807 161.243 14.5677C160.054 15.3252 158.956 16.1982 157.954 17.1927C156.977 18.1617 156.154 19.2867 155.485 20.5677C154.859 21.7664 154.608 23.0334 154.735 24.3802C154.87 25.809 155.226 27.1218 155.797 28.3255C156.406 29.6081 157.087 30.8573 157.836 32.0677C158.532 33.1908 159.459 34.1782 160.625 35.0287C161.714 35.8215 162.915 36.2015 164.258 36.1771C165.019 36.1632 165.626 36.1265 166.086 36.0677C166.568 36.006 166.812 35.9305 166.899 35.888C167.364 35.6625 167.946 35.6227 168.5 35.638C169.092 35.6545 169.812 35.7385 170.641 35.888C171.997 36.1326 173.191 35.8812 174.282 35.1302C175.511 34.2825 175.979 33.5489 176.071 32.9896C176.173 32.3633 175.996 31.4755 175.282 30.263C174.946 29.6929 174.689 29.54 174.586 29.5052C174.55 29.4931 174.426 29.4467 174.11 29.6771C173.024 30.4718 171.71 31.0996 170.196 31.5755C168.67 32.0552 167.046 32.3267 165.329 32.388C164.35 32.4229 163.44 32.22 162.664 31.724C161.891 31.2285 161.326 30.4866 160.938 29.5833C160.759 29.1654 160.625 28.7486 160.579 28.3646C160.535 28.0007 160.549 27.4663 160.93 27.0365C161.328 26.5894 161.878 26.5273 162.258 26.5521C162.645 26.5778 163.06 26.7017 163.469 26.8646C164.76 27.3785 166.047 27.4675 167.352 27.138C168.823 26.7668 170.236 26.3031 171.586 25.7552C172.875 25.2318 174.037 24.5105 175.079 23.5912C176.004 22.7738 176.496 21.7701 176.571 20.5208C176.653 19.1459 176.457 17.751 175.977 16.3333C175.571 15.1355 174.805 14.4524 173.579 14.1849C172.066 13.8564 170.617 13.6861 169.235 13.6771C167.768 13.6679 166.28 13.6442 164.782 13.599ZM49.3129 17.1302C49.4842 17.1612 49.7395 17.246 49.9536 17.474C49.9633 17.4844 49.9678 17.5024 49.977 17.513C50.0541 17.5049 50.1504 17.5007 50.2582 17.4818C50.8157 17.3848 51.4839 17.4354 52.0004 17.9271C52.4836 18.3895 52.615 19.0428 52.6254 19.599C52.6534 21.1872 51.3779 22.1116 49.8754 22.6146C48.4236 23.1005 46.8952 23.4616 45.2973 23.7005C44.8734 23.7638 44.4617 23.796 44.102 23.7552C43.7715 23.7174 43.2794 23.5901 42.9457 23.1615C42.5754 22.6841 42.6359 22.1427 42.7504 21.7865C42.8641 21.4337 43.0735 21.0863 43.3129 20.7708C44.2605 19.5229 45.457 18.5505 46.8832 17.8568C47.5344 17.5402 48.0937 17.3044 48.5161 17.1927C48.7018 17.1437 49.0044 17.0745 49.3129 17.1302ZM167.555 17.1302C167.726 17.1612 167.982 17.246 168.196 17.474C168.205 17.4844 168.21 17.5024 168.219 17.513C168.296 17.5049 168.393 17.5007 168.5 17.4818C169.058 17.3848 169.726 17.4354 170.243 17.9271C170.726 18.3895 170.857 19.0428 170.868 19.599C170.896 21.1872 169.62 22.1116 168.118 22.6146C166.666 23.1005 165.137 23.4616 163.539 23.7005C163.116 23.7638 162.704 23.796 162.344 23.7552C162.014 23.7174 161.522 23.5901 161.188 23.1615C160.818 22.6841 160.878 22.1427 160.993 21.7865C161.106 21.4337 161.316 21.0863 161.555 20.7708C162.503 19.5229 163.699 18.5505 165.125 17.8568C165.777 17.5402 166.336 17.3044 166.758 17.1927C166.944 17.1437 167.247 17.0745 167.555 17.1302ZM47.7582 19.6537C46.7245 20.1564 45.8621 20.8389 45.1489 21.6927C46.5857 21.47 47.951 21.1485 49.2426 20.7162C50.5259 20.2864 50.6294 19.8414 50.6254 19.6302L50.602 19.4505C50.1865 19.5233 49.7416 19.5704 49.3598 19.4974C49.1916 19.4652 48.9771 19.381 48.7661 19.224C48.5305 19.3116 48.1947 19.4415 47.7582 19.6537ZM166 19.6537C164.967 20.1564 164.104 20.8389 163.391 21.6927C164.828 21.47 166.193 21.1485 167.485 20.7162C168.768 20.2864 168.872 19.8414 168.868 19.6302L168.844 19.4505C168.429 19.5233 167.984 19.5704 167.602 19.4974C167.434 19.4652 167.219 19.381 167.008 19.224C166.773 19.3116 166.437 19.4415 166 19.6537ZM48.2582 18.2474C48.2586 18.3317 48.2723 18.4352 48.3129 18.5443C48.2883 18.4448 48.2585 18.3484 48.2582 18.2474ZM166.5 18.2474C166.501 18.3317 166.514 18.4352 166.555 18.5443C166.531 18.4448 166.501 18.3484 166.5 18.2474ZM19.7192 6.81772C20.6565 6.85195 21.5206 7.08969 22.1879 7.65366C22.8679 8.22971 23.2201 9.03803 23.3286 9.94272C23.5205 11.5534 23.2985 13.057 22.6254 14.4115C21.8667 15.9374 20.4827 16.7501 18.7036 16.9115C17.2779 17.0409 15.8568 17.3192 14.4457 17.763C13.5703 18.0381 12.6249 18.0871 11.8442 17.5365C11.0842 16.9994 10.7685 16.0927 10.6645 15.1615C10.47 13.418 10.565 11.7662 10.9692 10.2162C11.1961 9.34687 11.6214 8.59948 12.2817 8.05209C12.9406 7.5065 13.7591 7.21881 14.6645 7.13803C15.4119 7.07133 15.9721 7.01451 16.352 6.96616C16.544 6.9417 16.6777 6.91912 16.7582 6.90366C16.7906 6.89742 16.805 6.89582 16.8051 6.89584C16.8011 6.897 16.7752 6.906 16.7426 6.91928C16.7191 6.92887 16.6342 6.96436 16.5395 7.03647C16.6742 6.93392 16.8066 6.88998 16.8598 6.87241C16.9269 6.85026 16.9889 6.83367 17.0317 6.82553C17.1156 6.80971 17.2006 6.80017 17.2739 6.79428C17.4269 6.78207 17.6246 6.78012 17.8442 6.77866C18.288 6.77576 18.9175 6.78879 19.7192 6.81772ZM17.4067 8.78647C17.3822 8.79452 17.3692 8.81507 17.3598 8.81772C17.2849 8.83931 17.2027 8.85907 17.1332 8.87241C16.9926 8.89935 16.8147 8.9244 16.6098 8.95053C16.1924 9.0037 15.5992 9.06283 14.8442 9.13022C14.2441 9.18376 13.8342 9.36008 13.5551 9.59116C13.2798 9.81998 13.0497 10.1702 12.9067 10.7162C12.5708 12.0028 12.4778 13.411 12.6489 14.9427C12.7272 15.643 12.9207 15.8516 12.9926 15.9037C13.0415 15.9382 13.2507 16.0459 13.852 15.8568C15.3946 15.3718 16.9527 15.0618 18.5239 14.9193C19.7436 14.8087 20.4416 14.3148 20.8364 13.5208C21.3149 12.557 21.4953 11.456 21.3442 10.1849C21.2805 9.65042 21.1025 9.35829 20.8989 9.18491C20.682 9.00116 20.3 8.84149 19.6411 8.81772C18.8475 8.78911 18.2521 8.77598 17.852 8.77866C17.6529 8.78003 17.5186 8.78015 17.4379 8.78647C17.4249 8.78751 17.4133 8.79359 17.4067 8.79428V8.78647ZM12.6801 33.4505C12.6795 34.3392 12.4939 35.1665 12.0239 35.8412C11.5423 36.5314 10.8365 36.9571 10.0082 37.1615C8.67834 37.4895 7.41482 37.6753 6.21918 37.7083C5.66236 37.7236 5.23725 37.737 4.95355 37.7396C4.81538 37.7408 4.69614 37.7421 4.6098 37.7396C4.57319 37.7385 4.51269 37.7306 4.45355 37.724C4.44001 37.7224 4.34244 37.7125 4.2348 37.6771C4.21041 37.6693 3.9964 37.6077 3.81293 37.4115C3.69553 37.2851 3.54728 37.0472 3.5473 36.724C3.54766 36.5955 3.57462 36.4846 3.6098 36.388C3.60172 36.4105 3.59012 36.4301 3.58636 36.4427C3.56618 36.5114 3.55885 36.5693 3.55511 36.599C3.54766 36.6592 3.5472 36.7089 3.5473 36.724C3.54752 36.7429 3.54691 36.7568 3.5473 36.763C3.54591 36.752 3.54217 36.735 3.53949 36.7162C3.52734 36.6313 3.50919 36.4914 3.47699 36.3021C3.41303 35.9262 3.31105 35.3603 3.1723 34.6068C2.87295 32.9794 2.8658 31.3476 3.15668 29.7162C3.42745 28.1984 3.703 26.6831 3.9848 25.1771C4.24852 23.7668 4.31452 22.3513 4.18011 20.9271C4.03616 19.4047 3.902 17.8726 3.77386 16.3412C3.63873 14.7237 3.72723 13.1451 4.03949 11.6068C4.29473 10.3496 3.99932 9.84248 3.64105 9.59116C2.59429 8.85892 1.8248 7.69996 1.26605 6.24741C0.968694 5.47398 0.822148 4.53886 1.37543 3.77084C1.90822 3.03287 2.82779 2.81958 3.6723 2.78647C5.1275 2.73014 6.55282 2.51688 7.93793 2.14584C9.35036 1.76738 10.7686 1.27773 12.1957 0.684906C13.8416 0.00124294 15.5434 -0.172201 17.2739 0.169281C18.7865 0.467892 20.2871 0.71808 21.7739 0.911469C23.4314 1.1272 24.958 1.69205 26.3442 2.60678C27.7117 3.5095 28.8588 4.63425 29.7661 5.98178C30.6696 7.32404 31.3134 8.8281 31.7036 10.4818C32.1347 12.3108 31.7842 14.0287 30.6801 15.5521C29.6891 16.9191 28.5695 18.0399 27.3129 18.8958C26.1633 19.6783 24.9698 20.4936 23.7426 21.3333C22.5514 22.1485 21.5976 22.7874 20.8911 23.263C20.9149 23.3185 20.9506 23.4059 21.0239 23.513C21.1391 23.6809 21.3134 23.8887 21.5551 24.1302C22.599 25.1729 23.738 26.1085 24.9692 26.9349C26.1167 27.7046 27.3976 28.1733 28.8286 28.3333C30.6964 28.5421 32.1078 29.4268 32.7348 31.099C33.0427 31.9201 33.0716 32.7675 32.727 33.5677C32.3936 34.3413 31.7569 34.9539 30.9692 35.4505C29.4708 36.3951 27.9447 36.8824 26.4145 36.8021C24.963 36.7255 23.5039 36.2633 22.0473 35.4662C20.6211 34.6853 19.3162 33.7362 18.1332 32.6224C17.0342 31.5876 15.8938 30.6165 14.7192 29.7005C13.7429 28.9392 12.9404 28.4436 12.3051 28.1615C12.3093 28.3223 12.3174 28.5213 12.352 28.763C12.5758 30.3246 12.6811 31.8896 12.6801 33.4505ZM17.4848 8.77084C17.5147 8.76098 17.628 8.72268 17.7504 8.63022C17.6225 8.72689 17.4816 8.76187 17.4067 8.78647C17.4185 8.78409 17.4476 8.78303 17.4848 8.77084Z" fill="black"/>
</g>
<defs>
<filter id="filter0_d_52_128" x="0" y="0" width="178.589" height="38.7642" filterUnits="userSpaceOnUse" color-interpolation-filters="sRGB">
<feFlood flood-opacity="0" result="BackgroundImageFix"/>
<feColorMatrix in="SourceAlpha" type="matrix" values="0 0 0 0 0 0 0 0 0 0 0 0 0 0 0 0 0 0 127 0" result="hardAlpha"/>
<feOffset dx="-1" dy="0.15"/>
<feComposite in2="hardAlpha" operator="out"/>
<feColorMatrix type="matrix" values="0 0 0 0 0 0 0 0 0 0 0 0 0 0 0 0 0 0 1 0"/>
<feBlend mode="normal" in2="BackgroundImageFix" result="effect1_dropShadow_52_128"/>
<feBlend mode="normal" in="SourceGraphic" in2="effect1_dropShadow_52_128" result="shape"/>
</filter>
</defs>
</svg>
