<svg width="1453" height="209" viewBox="0 0 1453 209" fill="none" xmlns="http://www.w3.org/2000/svg">
<path d="M5.94843 41.2762C5.94843 21.9463 21.6185 6.27625 40.9484 6.27625H1410.95C1430.28 6.27625 1445.95 21.9463 1445.95 41.2762V167.276C1445.95 186.606 1430.28 202.276 1410.95 202.276H40.9485C21.6185 202.276 5.94843 186.606 5.94843 167.276V41.2762Z" fill="#FFF292"/>
<path d="M51.3084 5.49962L51.6074 9.48842L51.3084 5.49962ZM113.468 5.65791L113.344 1.65986L113.468 5.65791ZM134.188 4.58558L133.9 0.595985L134.188 4.58558ZM217.068 6.15835L216.533 10.1224L217.068 6.15835ZM279.228 6.23596L278.425 2.31743L279.228 6.23596ZM341.388 7.12112L341.221 11.1176L341.388 7.12112ZM424.268 5.97318L423.909 9.95697L424.268 5.97318ZM527.868 6.63327L528.59 10.5677L527.868 6.63327ZM652.188 6.0411L651.695 10.0106L652.188 6.0411ZM714.348 7.25796L714.742 3.27738L714.348 7.25796ZM1025.15 6.10566L1025.89 2.17587L1025.15 6.10566ZM1087.31 6.9945L1087.02 3.00461L1087.31 6.9945ZM1108.03 5.61467L1108.28 9.60702L1108.03 5.61467ZM1190.91 5.68958L1191.04 1.69177L1190.91 5.68958ZM1211.63 5.29594L1211.91 9.28587L1211.63 5.29594ZM1294.51 6.06036L1295.21 9.99866L1294.51 6.06036ZM1315.23 4.99986L1315.53 1.01117L1315.23 4.99986ZM1335.95 6.11302L1336.08 2.11507L1335.95 6.11302ZM1356.67 5.36941L1356.26 1.39081L1356.67 5.36941ZM1418.55 7.13493L1417.28 10.9303L1418.55 7.13493ZM1435.57 18.1066L1432.62 20.8021L1435.57 18.1066ZM1444.8 35.8505L1440.89 36.7279L1444.8 35.8505ZM1446.13 77.0561L1450.03 76.2077L1446.13 77.0561ZM1430.05 195.419L1432.31 198.724L1430.05 195.419ZM1411.12 201.324L1411.09 197.324L1411.12 201.324ZM1390.39 201.115L1390.28 205.113L1390.39 201.115ZM1307.51 201.06L1307.07 197.084L1307.51 201.06ZM1266.07 202.486L1266.88 206.402L1266.07 202.486ZM1245.35 202.288L1244.46 206.189L1245.35 202.288ZM1224.63 200.069L1224.58 196.07L1224.63 200.069ZM1203.91 201.569L1203.38 197.603L1203.91 201.569ZM1183.19 202.155L1183.49 198.166L1183.19 202.155ZM1162.47 202.029L1162.22 198.037L1162.47 202.029ZM1121.03 202.955L1121.26 198.961L1121.03 202.955ZM1100.31 203.04L1100.57 207.032L1100.31 203.04ZM1079.59 203.111L1079.82 199.118L1079.59 203.111ZM1058.87 203.468L1059.24 207.45L1058.87 203.468ZM1038.15 202.311L1037.35 206.23L1038.15 202.311ZM1017.43 202.21L1016.66 198.284L1017.43 202.21ZM996.709 203.4L997.028 199.412L996.709 203.4ZM955.269 204.083L955.497 208.077L955.269 204.083ZM934.549 202.901L933.873 206.843L934.549 202.901ZM872.389 200.648L872.597 196.653L872.389 200.648ZM789.509 200.428L789.291 204.422L789.509 200.428ZM768.789 201.117L768.309 197.146L768.789 201.117ZM748.069 201.296L747.657 205.275L748.069 201.296ZM727.349 202.119L728.069 206.054L727.349 202.119ZM685.909 200.475L686.041 204.473L685.909 200.475ZM623.749 201.375L624.26 205.342L623.749 201.375ZM603.029 202.408L602.912 206.406L603.029 202.408ZM540.869 202.482L541.564 198.543L540.869 202.482ZM520.149 200.366L520.26 196.368L520.149 200.366ZM395.829 202.671L395.901 206.67L395.829 202.671ZM188.629 200.886L188.247 204.868L188.629 200.886ZM43.5537 201.721L43.4409 197.723L43.5537 201.721ZM10.5028 182.278L13.9936 180.325L10.5028 182.278ZM15.195 20.2116L11.7772 18.1335L15.195 20.2116ZM51.3084 5.49962L51.6074 9.48842C58.3539 8.98268 65.0994 8.88467 71.845 9.19426L72.0284 5.19847L72.2118 1.20267C65.1441 0.878293 58.0763 0.981042 51.0094 1.51081L51.3084 5.49962ZM72.0284 5.19847L71.845 9.19426C78.793 9.51314 85.741 9.72415 92.6891 9.82727L92.7484 5.82771L92.8078 1.82815C85.9425 1.72626 79.0772 1.51777 72.2118 1.20267L72.0284 5.19847ZM92.7484 5.82771L92.6891 9.82727C99.6572 9.93069 106.625 9.87359 113.593 9.65596L113.468 5.65791L113.344 1.65986C106.498 1.87365 99.653 1.92975 92.8078 1.82815L92.7484 5.82771ZM113.468 5.65791L113.593 9.65596C120.555 9.43854 127.516 9.07828 134.477 8.57517L134.188 4.58558L133.9 0.595985C127.048 1.09124 120.196 1.44586 113.344 1.65986L113.468 5.65791ZM134.188 4.58558L134.477 8.57517C141.178 8.09083 147.879 8.12403 154.581 8.67484L154.908 4.68828L155.236 0.701726C148.125 0.117247 141.012 0.0819721 133.9 0.595985L134.188 4.58558ZM154.908 4.68828L154.581 8.67484C161.455 9.23983 168.329 9.88906 175.204 10.6225L175.628 6.64511L176.053 2.66768C169.114 1.92736 162.175 1.27203 155.236 0.701726L154.908 4.68828ZM175.628 6.64511L175.204 10.6225C182.444 11.395 189.685 11.2584 196.92 10.2143L196.348 6.25528L195.777 2.2963C189.199 3.24571 182.627 3.36906 176.053 2.66768L175.628 6.64511ZM196.348 6.25528L196.92 10.2143C203.46 9.27034 209.994 9.23987 216.533 10.1224L217.068 6.15835L217.603 2.19429C210.329 1.2125 203.05 1.24665 195.777 2.2963L196.348 6.25528ZM217.068 6.15835L216.533 10.1224C223.68 11.087 230.831 11.3948 237.984 11.0448L237.788 7.04957L237.593 3.05435C230.932 3.38034 224.27 3.09405 217.603 2.19429L217.068 6.15835ZM237.788 7.04957L237.984 11.0448C244.708 10.7157 251.433 10.8459 258.159 11.4357L258.508 7.45099L258.858 3.46628C251.77 2.8448 244.682 2.70742 237.593 3.05435L237.788 7.04957ZM258.508 7.45099L258.159 11.4357C265.458 12.0757 272.752 11.6465 280.032 10.1545L279.228 6.23596L278.425 2.31743C271.891 3.65673 265.373 4.03755 258.858 3.46628L258.508 7.45099ZM279.228 6.23596L280.032 10.1545C286.692 8.78922 293.344 8.0746 299.989 8.0072L299.948 4.00741L299.908 0.00761271C292.74 0.0803118 285.578 0.851389 278.425 2.31743L279.228 6.23596ZM299.948 4.00741L299.989 8.0072C306.702 7.93912 313.417 8.35617 320.136 9.25919L320.668 5.29485L321.201 1.3305C314.106 0.376842 307.008 -0.0643959 299.908 0.00761271L299.948 4.00741ZM320.668 5.29485L320.136 9.25919C327.163 10.2037 334.191 10.8233 341.221 11.1176L341.388 7.12112L341.556 3.12462C334.772 2.8406 327.988 2.24267 321.201 1.3305L320.668 5.29485ZM341.388 7.12112L341.221 11.1176C348.239 11.4115 355.257 11.412 362.275 11.1191L362.108 7.12261L361.942 3.12609C355.146 3.40962 348.351 3.40914 341.556 3.12462L341.388 7.12112ZM362.108 7.12261L362.275 11.1191C369.305 10.8258 376.334 10.2064 383.362 9.26121L382.828 5.29691L382.295 1.33261C375.509 2.24534 368.725 2.84306 361.942 3.12609L362.108 7.12261ZM382.828 5.29691L383.362 9.26121C390.021 8.36551 396.676 8.10035 403.33 8.46453L403.548 4.4705L403.767 0.476481C396.607 0.0846281 389.449 0.370403 382.295 1.33261L382.828 5.29691ZM403.548 4.4705L403.33 8.46453C410.189 8.83995 417.049 9.33743 423.909 9.95697L424.268 5.97318L424.628 1.98939C417.675 1.36139 410.721 0.85708 403.767 0.476481L403.548 4.4705ZM424.268 5.97318L423.909 9.95697C431.06 10.6029 438.213 10.5881 445.365 9.9127L444.988 5.93042L444.612 1.94814C437.95 2.57732 431.29 2.59105 424.628 1.98939L424.268 5.97318ZM444.988 5.93042L445.365 9.9127C452.219 9.26539 459.072 8.75498 465.926 8.38146L465.708 4.38738L465.491 0.393312C458.531 0.772617 451.572 1.2909 444.612 1.94814L444.988 5.93042ZM465.708 4.38738L465.926 8.38146C472.722 8.01106 479.518 7.92293 486.314 8.11702L486.428 4.11865L486.543 0.120285C479.525 -0.0801396 472.508 0.0108805 465.491 0.393312L465.708 4.38738ZM486.428 4.11865L486.314 8.11702C492.993 8.30778 499.677 9.06694 506.369 10.3969L507.148 6.47365L507.928 2.55039C500.806 1.13489 493.677 0.324053 486.543 0.120285L486.428 4.11865ZM507.148 6.47365L506.369 10.3969C513.769 11.8678 521.185 11.9253 528.59 10.5677L527.868 6.63327L527.147 2.69885C520.738 3.87385 514.341 3.82499 507.928 2.55039L507.148 6.47365ZM527.868 6.63327L528.59 10.5677C535.123 9.36975 541.645 9.119 548.166 9.81132L548.588 5.83368L549.011 1.85603C541.718 1.08185 534.427 1.36415 527.147 2.69885L527.868 6.63327ZM548.588 5.83368L548.166 9.81132C555.201 10.5582 562.237 10.9615 569.275 11.0208L569.308 7.02098L569.342 3.02113C562.566 2.96395 555.789 2.57566 549.011 1.85603L548.588 5.83368ZM569.308 7.02098L569.275 11.0208C576.218 11.0794 583.162 11.0421 590.105 10.9088L590.028 6.90952L589.952 2.91026C583.082 3.04214 576.212 3.0791 569.342 3.02113L569.308 7.02098ZM590.028 6.90952L590.105 10.9088C596.874 10.7788 603.643 10.9981 610.414 11.5668L610.748 7.58088L611.083 3.59491C604.04 3.0033 596.996 2.77502 589.952 2.91026L590.028 6.90952ZM610.748 7.58088L610.414 11.5668C617.671 12.1765 624.926 11.833 632.171 10.5402L631.468 6.6024L630.766 2.66461C624.197 3.83676 617.639 4.14561 611.083 3.59491L610.748 7.58088ZM631.468 6.6024L632.171 10.5402C638.686 9.3776 645.19 9.20215 651.695 10.0106L652.188 6.0411L652.682 2.07163C645.374 1.1635 638.064 1.36225 630.766 2.66461L631.468 6.6024ZM652.188 6.0411L651.695 10.0106C658.788 10.892 665.884 11.2683 672.981 11.1389L672.908 7.13957L672.835 3.14024C666.119 3.26272 659.402 2.90675 652.682 2.07163L652.188 6.0411ZM672.908 7.13957L672.981 11.1389C679.91 11.0125 686.838 10.8294 693.767 10.5895L693.628 6.59193L693.49 2.59433C686.605 2.8327 679.72 3.01467 672.835 3.14024L672.908 7.13957ZM693.628 6.59193L693.767 10.5895C700.495 10.3566 707.224 10.5728 713.955 11.2385L714.348 7.25796L714.742 3.27738C707.659 2.57682 700.575 2.34902 693.49 2.59433L693.628 6.59193ZM714.348 7.25796L713.955 11.2385C721.203 11.9554 728.451 11.7422 735.691 10.601L735.068 6.64982L734.446 2.69859C727.873 3.73458 721.307 3.92678 714.742 3.27738L714.348 7.25796ZM735.068 6.64982L735.691 10.601C742.419 9.54059 749.144 8.94633 755.865 8.81724L755.788 4.81797L755.712 0.81871C748.62 0.954918 741.531 1.58189 734.446 2.69859L735.068 6.64982ZM755.788 4.81797L755.865 8.81724C762.523 8.68937 769.184 9.17962 775.851 10.2901L776.508 6.3444L777.165 2.39875C770.02 1.20864 762.867 0.681273 755.712 0.81871L755.788 4.81797ZM776.508 6.3444L775.851 10.2901C783.21 11.5156 790.577 11.4703 797.932 10.1554L797.228 6.21787L796.525 2.28028C790.067 3.43466 783.62 3.47379 777.165 2.39875L776.508 6.3444ZM797.228 6.21787L797.932 10.1554C804.323 9.01304 810.704 9.12889 817.106 10.5078L817.948 6.59751L818.791 2.6872C811.379 1.09068 803.947 0.953428 796.525 2.28028L797.228 6.21787ZM817.948 6.59751L817.106 10.5078C824.584 12.1186 832.08 12.0749 839.554 10.3789L838.668 6.47812L837.783 2.5773C831.443 4.01598 825.126 4.05191 818.791 2.6872L817.948 6.59751ZM838.668 6.47812L839.554 10.3789C846.061 8.90222 852.548 8.46091 859.029 9.04562L859.388 5.06179L859.748 1.07797C852.416 0.416488 845.089 0.919403 837.783 2.5773L838.668 6.47812ZM859.388 5.06179L859.029 9.04562C866.008 9.67524 872.987 10.1133 879.967 10.3596L880.108 6.36212L880.249 2.36461C873.416 2.1234 866.582 1.69454 859.748 1.07797L859.388 5.06179ZM880.108 6.36212L879.967 10.3596C886.789 10.6004 893.611 11.0585 900.434 11.7341L900.828 7.75354L901.222 3.773C894.232 3.08088 887.241 2.61139 880.249 2.36461L880.108 6.36212ZM900.828 7.75354L900.434 11.7341C907.525 12.4361 914.617 12.6441 921.71 12.3578L921.548 8.36109L921.387 4.36434C914.666 4.63563 907.945 4.43863 901.222 3.773L900.828 7.75354ZM921.548 8.36109L921.71 12.3578C928.745 12.0739 935.778 11.4515 942.81 10.491L942.268 6.5278L941.727 2.5646C934.945 3.49092 928.165 4.09072 921.387 4.36434L921.548 8.36109ZM942.268 6.5278L942.81 10.491C949.601 9.56334 956.391 8.93738 963.179 8.61284L962.988 4.6174L962.797 0.621962C955.773 0.957807 948.749 1.60545 941.727 2.5646L942.268 6.5278ZM962.988 4.6174L963.179 8.61284C969.838 8.2945 976.498 8.59352 983.163 9.51118L983.708 5.54857L984.254 1.58595C977.105 0.60166 969.952 0.279906 962.797 0.621962L962.988 4.6174ZM983.708 5.54857L983.163 9.51118C990.43 10.5119 997.703 10.5147 1004.97 9.51983L1004.43 5.55679L1003.89 1.59375C997.34 2.48981 990.8 2.48723 984.254 1.58595L983.708 5.54857ZM1004.43 5.55679L1004.97 9.51983C1011.45 8.63351 1017.92 8.80403 1024.4 10.0354L1025.15 6.10566L1025.89 2.17587C1018.57 0.784477 1011.22 0.589096 1003.89 1.59375L1004.43 5.55679ZM1025.15 6.10566L1024.4 10.0354C1031.55 11.3934 1038.71 12.0634 1045.88 12.0425L1045.87 8.04247L1045.86 4.04249C1039.21 4.06192 1032.56 3.44068 1025.89 2.17587L1025.15 6.10566ZM1045.87 8.04247L1045.88 12.0425C1052.8 12.0222 1059.72 11.9654 1066.64 11.872L1066.59 7.87239L1066.53 3.87275C1059.64 3.96577 1052.75 4.02235 1045.86 4.04249L1045.87 8.04247ZM1066.59 7.87239L1066.64 11.872C1073.63 11.7778 1080.61 11.4819 1087.59 10.9844L1087.31 6.9945L1087.02 3.00461C1080.19 3.49122 1073.36 3.78058 1066.53 3.87275L1066.59 7.87239ZM1087.31 6.9945L1087.59 10.9844C1094.49 10.4932 1101.38 10.0341 1108.28 9.60702L1108.03 5.61467L1107.78 1.62233C1100.86 2.05092 1093.94 2.51168 1087.02 3.00461L1087.31 6.9945ZM1108.03 5.61467L1108.28 9.60702C1114.86 9.19916 1121.45 9.58279 1128.04 10.7614L1128.75 6.8238L1129.45 2.88614C1122.24 1.59699 1115.01 1.17453 1107.78 1.62233L1108.03 5.61467ZM1128.75 6.8238L1128.04 10.7614C1135.43 12.0815 1142.83 12.0357 1150.22 10.6253L1149.47 6.69634L1148.72 2.76733C1142.29 3.99477 1135.88 4.03392 1129.45 2.88614L1128.75 6.8238ZM1149.47 6.69634L1150.22 10.6253C1156.84 9.36033 1163.46 8.83001 1170.07 9.0306L1170.19 5.03244L1170.31 1.03428C1163.11 0.815643 1155.91 1.39459 1148.72 2.76733L1149.47 6.69634ZM1170.19 5.03244L1170.07 9.0306C1176.97 9.2401 1183.87 9.45903 1190.78 9.6874L1190.91 5.68958L1191.04 1.69177C1184.13 1.46316 1177.22 1.244 1170.31 1.03428L1170.19 5.03244ZM1190.91 5.68958L1190.78 9.6874C1197.82 9.92048 1204.87 9.7866 1211.91 9.28587L1211.63 5.29594L1211.34 1.306C1204.58 1.7871 1197.81 1.91566 1191.04 1.69177L1190.91 5.68958ZM1211.63 5.29594L1211.91 9.28587C1218.66 8.80627 1225.41 8.73127 1232.15 9.06081L1232.35 5.06557L1232.54 1.07034C1225.48 0.725194 1218.41 0.803778 1211.34 1.306L1211.63 5.29594ZM1232.35 5.06557L1232.15 9.06081C1239.02 9.39636 1245.89 9.8268 1252.76 10.3522L1253.07 6.36379L1253.37 2.37544C1246.43 1.84451 1239.49 1.40947 1232.54 1.07034L1232.35 5.06557ZM1253.07 6.36379L1252.76 10.3522C1259.72 10.8844 1266.68 11.2757 1273.64 11.5262L1273.79 7.52875L1273.93 3.53133C1267.08 3.28478 1260.23 2.89948 1253.37 2.37544L1253.07 6.36379ZM1273.79 7.52875L1273.64 11.5262C1280.84 11.785 1288.03 11.2748 1295.21 9.99866L1294.51 6.06036L1293.81 2.12207C1287.18 3.30076 1280.55 3.76951 1273.93 3.53133L1273.79 7.52875ZM1294.51 6.06036L1295.21 9.99866C1301.79 8.82914 1308.36 8.49365 1314.93 8.98855L1315.23 4.99986L1315.53 1.01117C1308.28 0.465246 1301.04 0.83676 1293.81 2.12207L1294.51 6.06036ZM1315.23 4.99986L1314.93 8.98855C1321.89 9.51328 1328.86 9.88742 1335.82 10.111L1335.95 6.11302L1336.08 2.11507C1329.23 1.89523 1322.38 1.52727 1315.53 1.01117L1315.23 4.99986ZM1335.95 6.11302L1335.82 10.111C1342.91 10.3385 1350 10.084 1357.08 9.348L1356.67 5.36941L1356.26 1.39081C1349.53 2.08965 1342.8 2.33094 1336.08 2.11507L1335.95 6.11302ZM1356.67 5.36941L1357.08 9.348C1363.83 8.64749 1370.57 8.36446 1377.31 8.49857L1377.39 4.49936L1377.47 0.500149C1370.4 0.359463 1363.32 0.65647 1356.26 1.39081L1356.67 5.36941ZM1377.39 4.49936L1377.31 8.49857C1384.3 8.63767 1391.29 8.55133 1398.29 8.23955L1398.11 4.24352L1397.93 0.247488C1391.11 0.55162 1384.29 0.635835 1377.47 0.500149L1377.39 4.49936ZM1398.11 4.24352L1398.29 8.23955C1404.69 7.95391 1411.02 8.84538 1417.28 10.9303L1418.55 7.13493L1419.81 3.33956C1412.64 0.953359 1405.34 -0.0827832 1397.93 0.247488L1398.11 4.24352ZM1418.55 7.13493L1417.28 10.9303C1423.37 12.9567 1428.46 16.2441 1432.62 20.8021L1435.57 18.1066L1438.53 15.4112C1433.42 9.81139 1427.16 5.7843 1419.81 3.33956L1418.55 7.13493ZM1435.57 18.1066L1432.62 20.8021C1436.78 25.364 1439.53 30.6509 1440.89 36.7279L1444.8 35.8505L1448.7 34.9731C1447.03 27.5494 1443.63 21.007 1438.53 15.4112L1435.57 18.1066ZM1444.8 35.8505L1440.89 36.7279C1442.3 42.9852 1442.51 49.3093 1441.52 55.7266L1445.47 56.3361L1449.43 56.9457C1450.57 49.5496 1450.33 42.2166 1448.7 34.9731L1444.8 35.8505ZM1445.47 56.3361L1441.52 55.7266C1440.38 63.1234 1440.61 70.5242 1442.22 77.9045L1446.13 77.0561L1450.03 76.2077C1448.64 69.7747 1448.44 63.3622 1449.43 56.9457L1445.47 56.3361ZM1446.13 77.0561L1442.22 77.9045C1443.65 84.5246 1444.33 91.1316 1444.26 97.7311L1448.26 97.7761L1452.26 97.8211C1452.34 90.6073 1451.6 83.401 1450.03 76.2077L1446.13 77.0561ZM1448.26 97.7761L1444.26 97.7311C1444.18 104.521 1443.81 111.312 1443.14 118.103L1447.12 118.496L1451.1 118.889C1451.79 111.867 1452.18 104.845 1452.26 97.8211L1448.26 97.7761ZM1447.12 118.496L1443.14 118.103C1442.46 125.009 1441.77 131.914 1441.08 138.82L1445.06 139.216L1449.04 139.612C1449.73 132.705 1450.42 125.797 1451.1 118.889L1447.12 118.496ZM1445.06 139.216L1441.08 138.82C1440.38 145.933 1440.22 153.04 1440.63 160.138L1444.62 159.91L1448.62 159.681C1448.24 153.002 1448.38 146.313 1449.04 139.612L1445.06 139.216ZM1444.62 159.91L1440.63 160.138C1441 166.519 1440.16 172.67 1438.13 178.621L1441.92 179.911L1445.71 181.201C1448.07 174.261 1449.04 167.078 1448.62 159.681L1444.62 159.91ZM1441.92 179.911L1438.13 178.621C1436.22 184.232 1432.81 188.699 1427.8 192.113L1430.05 195.419L1432.31 198.724C1438.73 194.351 1443.23 188.48 1445.71 181.201L1441.92 179.911ZM1430.05 195.419L1427.8 192.113C1422.74 195.559 1417.21 197.286 1411.09 197.324L1411.12 201.324L1411.14 205.324C1418.85 205.275 1425.93 203.065 1432.31 198.724L1430.05 195.419ZM1411.12 201.324L1411.09 197.324C1404.22 197.368 1397.36 197.299 1390.49 197.116L1390.39 201.115L1390.28 205.113C1397.23 205.298 1404.19 205.369 1411.14 205.324L1411.12 201.324ZM1390.39 201.115L1390.49 197.116C1383.41 196.928 1376.33 197.208 1369.25 197.957L1369.67 201.935L1370.09 205.913C1376.82 205.201 1383.55 204.934 1390.28 205.113L1390.39 201.115ZM1369.67 201.935L1369.25 197.957C1362.66 198.654 1356.07 198.558 1349.48 197.668L1348.95 201.633L1348.41 205.597C1355.64 206.571 1362.86 206.677 1370.09 205.913L1369.67 201.935ZM1348.95 201.633L1349.48 197.668C1342.42 196.715 1335.36 196.185 1328.29 196.076L1328.23 200.076L1328.17 204.075C1334.91 204.179 1341.66 204.686 1348.41 205.597L1348.95 201.633ZM1328.23 200.076L1328.29 196.076C1321.22 195.968 1314.14 196.304 1307.07 197.084L1307.51 201.06L1307.95 205.036C1314.69 204.292 1321.43 203.972 1328.17 204.075L1328.23 200.076ZM1307.51 201.06L1307.07 197.084C1300.43 197.816 1293.79 197.883 1287.15 197.284L1286.79 201.268L1286.43 205.251C1293.6 205.899 1300.78 205.827 1307.95 205.036L1307.51 201.06ZM1286.79 201.268L1287.15 197.284C1279.84 196.625 1272.54 197.056 1265.25 198.57L1266.07 202.486L1266.88 206.402C1273.41 205.046 1279.92 204.664 1286.43 205.251L1286.79 201.268ZM1266.07 202.486L1265.25 198.57C1258.91 199.888 1252.58 199.829 1246.23 198.388L1245.35 202.288L1244.46 206.189C1251.93 207.883 1259.41 207.955 1266.88 206.402L1266.07 202.486ZM1245.35 202.288L1246.23 198.388C1239.03 196.752 1231.81 195.978 1224.58 196.07L1224.63 200.069L1224.68 204.069C1231.26 203.985 1237.86 204.69 1244.46 206.189L1245.35 202.288ZM1224.63 200.069L1224.58 196.07C1217.51 196.159 1210.45 196.671 1203.38 197.603L1203.91 201.569L1204.43 205.535C1211.18 204.643 1217.93 204.155 1224.68 204.069L1224.63 200.069ZM1203.91 201.569L1203.38 197.603C1196.75 198.48 1190.12 198.667 1183.49 198.166L1183.19 202.155L1182.89 206.143C1190.07 206.686 1197.25 206.483 1204.43 205.535L1203.91 201.569ZM1183.19 202.155L1183.49 198.166C1176.4 197.63 1169.31 197.587 1162.22 198.037L1162.47 202.029L1162.72 206.021C1169.44 205.595 1176.16 205.635 1182.89 206.143L1183.19 202.155ZM1162.47 202.029L1162.22 198.037C1155.34 198.473 1148.46 198.834 1141.58 199.12L1141.75 203.116L1141.91 207.113C1148.85 206.824 1155.79 206.46 1162.72 206.021L1162.47 202.029ZM1141.75 203.116L1141.58 199.12C1134.81 199.401 1128.03 199.349 1121.26 198.961L1121.03 202.955L1120.8 206.948C1127.84 207.351 1134.88 207.405 1141.91 207.113L1141.75 203.116ZM1121.03 202.955L1121.26 198.961C1114.19 198.557 1107.12 198.586 1100.05 199.049L1100.31 203.04L1100.57 207.032C1107.31 206.591 1114.06 206.563 1120.8 206.948L1121.03 202.955ZM1100.31 203.04L1100.05 199.049C1093.31 199.49 1086.56 199.513 1079.82 199.118L1079.59 203.111L1079.35 207.104C1086.43 207.519 1093.5 207.495 1100.57 207.032L1100.31 203.04ZM1079.59 203.111L1079.82 199.118C1072.71 198.701 1065.61 198.824 1058.5 199.485L1058.87 203.468L1059.24 207.45C1065.95 206.826 1072.65 206.711 1079.35 207.104L1079.59 203.111ZM1058.87 203.468L1058.5 199.485C1051.99 200.09 1045.48 199.728 1038.95 198.392L1038.15 202.311L1037.35 206.23C1044.63 207.721 1051.93 208.13 1059.24 207.45L1058.87 203.468ZM1038.15 202.311L1038.95 198.392C1031.53 196.873 1024.09 196.837 1016.66 198.284L1017.43 202.21L1018.19 206.136C1024.58 204.891 1030.96 204.922 1037.35 206.23L1038.15 202.311ZM1017.43 202.21L1016.66 198.284C1010.11 199.561 1003.57 199.936 997.028 199.412L996.709 203.4L996.389 207.387C1003.66 207.969 1010.94 207.551 1018.19 206.136L1017.43 202.21ZM996.709 203.4L997.028 199.412C989.956 198.846 982.884 198.72 975.811 199.035L975.989 203.031L976.166 207.027C982.907 206.727 989.648 206.847 996.389 207.387L996.709 203.4ZM975.989 203.031L975.811 199.035C968.887 199.343 961.964 199.694 955.041 200.09L955.269 204.083L955.497 208.077C962.387 207.683 969.277 207.333 976.166 207.027L975.989 203.031ZM955.269 204.083L955.041 200.09C948.44 200.467 941.836 200.091 935.224 198.958L934.549 202.901L933.873 206.843C941.074 208.077 948.284 208.489 955.497 208.077L955.269 204.083ZM934.549 202.901L935.224 198.958C928.176 197.751 921.125 196.932 914.072 196.502L913.829 200.494L913.585 204.487C920.345 204.899 927.108 205.685 933.873 206.843L934.549 202.901ZM913.829 200.494L914.072 196.502C906.999 196.07 899.926 196.081 892.853 196.533L893.109 200.525L893.364 204.517C900.105 204.086 906.845 204.076 913.585 204.487L913.829 200.494ZM893.109 200.525L892.853 196.533C886.101 196.966 879.349 197.006 872.597 196.653L872.389 200.648L872.18 204.643C879.242 205.011 886.303 204.969 893.364 204.517L893.109 200.525ZM872.389 200.648L872.597 196.653C865.316 196.274 858.043 196.906 850.788 198.543L851.669 202.445L852.549 206.347C859.107 204.867 865.648 204.302 872.18 204.643L872.389 200.648ZM851.669 202.445L850.788 198.543C844.205 200.029 837.638 200.661 831.079 200.448L830.949 204.446L830.819 208.443C838.073 208.679 845.319 207.978 852.549 206.347L851.669 202.445ZM830.949 204.446L831.079 200.448C824.329 200.228 817.578 199.611 810.824 198.595L810.229 202.55L809.634 206.506C816.693 207.567 823.755 208.214 830.819 208.443L830.949 204.446ZM810.229 202.55L810.824 198.595C803.793 197.537 796.76 196.817 789.726 196.434L789.509 200.428L789.291 204.422C796.07 204.791 802.851 205.485 809.634 206.506L810.229 202.55ZM789.509 200.428L789.726 196.434C782.585 196.045 775.445 196.283 768.309 197.146L768.789 201.117L769.269 205.088C775.945 204.281 782.619 204.059 789.291 204.422L789.509 200.428ZM768.789 201.117L768.309 197.146C761.697 197.945 755.09 198.002 748.481 197.318L748.069 201.296L747.657 205.275C754.861 206.021 762.067 205.959 769.269 205.088L768.789 201.117ZM748.069 201.296L748.481 197.318C741.192 196.563 733.904 196.853 726.629 198.184L727.349 202.119L728.069 206.054C734.606 204.858 741.132 204.599 747.657 205.275L748.069 201.296ZM727.349 202.119L726.629 198.184C720.204 199.36 713.791 199.346 707.365 198.142L706.629 202.073L705.892 206.005C713.279 207.389 720.68 207.406 728.069 206.054L727.349 202.119ZM706.629 202.073L707.365 198.142C700.177 196.795 692.979 196.239 685.776 196.477L685.909 200.475L686.041 204.473C692.652 204.254 699.267 204.764 705.892 206.005L706.629 202.073ZM685.909 200.475L685.776 196.477C678.894 196.705 672.013 196.869 665.131 196.968L665.189 200.968L665.246 204.967C672.178 204.867 679.109 204.702 686.041 204.473L685.909 200.475ZM665.189 200.968L665.131 196.968C658.313 197.067 651.495 196.939 644.676 196.584L644.469 200.579L644.261 204.573C651.256 204.937 658.251 205.068 665.246 204.967L665.189 200.968ZM644.469 200.579L644.676 196.584C637.528 196.213 630.381 196.488 623.238 197.408L623.749 201.375L624.26 205.342C630.93 204.483 637.596 204.227 644.261 204.573L644.469 200.579ZM623.749 201.375L623.238 197.408C616.537 198.271 609.841 198.605 603.145 198.41L603.029 202.408L602.912 206.406C610.03 206.614 617.147 206.259 624.26 205.342L623.749 201.375ZM603.029 202.408L603.145 198.41C596.058 198.203 588.972 198.474 581.888 199.223L582.309 203.201L582.729 207.179C589.458 206.468 596.186 206.21 602.912 206.406L603.029 202.408ZM582.309 203.201L581.888 199.223C575.12 199.938 568.352 200.298 561.586 200.303L561.589 204.303L561.591 208.303C568.638 208.298 575.684 207.923 582.729 207.179L582.309 203.201ZM561.589 204.303L561.586 200.303C554.917 200.308 548.244 199.722 541.564 198.543L540.869 202.482L540.173 206.421C547.307 207.68 554.447 208.308 561.591 208.303L561.589 204.303ZM540.869 202.482L541.564 198.543C534.467 197.29 527.365 196.565 520.26 196.368L520.149 200.366L520.038 204.365C526.745 204.551 533.457 205.236 540.173 206.421L540.869 202.482ZM520.149 200.366L520.26 196.368C513.138 196.17 506.018 196.545 498.901 197.492L499.429 201.457L499.956 205.422C506.653 204.531 513.346 204.179 520.038 204.365L520.149 200.366ZM499.429 201.457L498.901 197.492C492.177 198.386 485.457 198.809 478.738 198.76L478.709 202.76L478.68 206.76C485.774 206.811 492.867 206.365 499.956 205.422L499.429 201.457ZM478.709 202.76L478.738 198.76C471.846 198.71 464.954 198.621 458.063 198.494L457.989 202.493L457.915 206.493C464.836 206.621 471.758 206.71 478.68 206.76L478.709 202.76ZM457.989 202.493L458.063 198.494C451.118 198.366 444.174 198.335 437.23 198.401L437.269 202.401L437.307 206.401C444.176 206.335 451.045 206.366 457.915 206.493L457.989 202.493ZM437.269 202.401L437.23 198.401C430.337 198.467 423.445 198.498 416.552 198.492L416.549 202.492L416.546 206.492C423.466 206.498 430.387 206.467 437.307 206.401L437.269 202.401ZM416.549 202.492L416.552 198.492C409.62 198.487 402.688 198.547 395.757 198.671L395.829 202.671L395.901 206.67C402.782 206.546 409.664 206.487 416.546 206.492L416.549 202.492ZM395.829 202.671L395.757 198.671C388.812 198.796 381.867 199.021 374.922 199.345L375.109 203.341L375.295 207.337C382.164 207.016 389.032 206.794 395.901 206.67L395.829 202.671ZM375.109 203.341L374.922 199.345C368.125 199.663 361.327 199.701 354.53 199.461L354.389 203.459L354.248 207.456C361.264 207.704 368.28 207.664 375.295 207.337L375.109 203.341ZM354.389 203.459L354.53 199.461C347.49 199.213 340.45 199.316 333.411 199.77L333.669 203.762L333.926 207.754C340.7 207.316 347.474 207.217 354.248 207.456L354.389 203.459ZM333.669 203.762L333.411 199.77C326.709 200.203 320.007 200.121 313.304 199.524L312.949 203.509L312.594 207.493C319.704 208.126 326.815 208.213 333.926 207.754L333.669 203.762ZM312.949 203.509L313.304 199.524C306.204 198.892 299.103 198.777 292.002 199.18L292.229 203.173L292.455 207.167C299.168 206.786 305.88 206.895 312.594 207.493L312.949 203.509ZM292.229 203.173L292.002 199.18C285.197 199.565 278.392 199.691 271.588 199.556L271.509 203.555L271.43 207.555C278.438 207.693 285.447 207.564 292.455 207.167L292.229 203.173ZM271.509 203.555L271.588 199.556C264.798 199.422 258.008 198.99 251.216 198.259L250.789 202.236L250.361 206.213C257.383 206.968 264.406 207.416 271.43 207.555L271.509 203.555ZM250.789 202.236L251.216 198.259C244.112 197.495 237.005 197.265 229.898 197.568L230.069 201.565L230.239 205.561C236.945 205.275 243.652 205.492 250.361 206.213L250.789 202.236ZM230.069 201.565L229.898 197.568C223.056 197.861 216.215 197.986 209.373 197.944L209.349 201.944L209.324 205.944C216.296 205.987 223.268 205.859 230.239 205.561L230.069 201.565ZM209.349 201.944L209.373 197.944C202.587 197.902 195.799 197.556 189.011 196.904L188.629 200.886L188.247 204.868C195.272 205.542 202.298 205.9 209.324 205.944L209.349 201.944ZM188.629 200.886L189.011 196.904C181.853 196.217 174.694 196.209 167.536 196.879L167.909 200.862L168.282 204.844C174.937 204.221 181.591 204.229 188.247 204.868L188.629 200.886ZM167.909 200.862L167.536 196.879C160.608 197.528 153.681 198.231 146.753 198.99L147.189 202.966L147.624 206.942C154.51 206.188 161.396 205.489 168.282 204.844L167.909 200.862ZM147.189 202.966L146.753 198.99C140.25 199.702 133.746 199.431 127.227 198.172L126.469 202.1L125.71 206.027C133.005 207.436 140.314 207.743 147.624 206.942L147.189 202.966ZM126.469 202.1L127.227 198.172C119.947 196.766 112.654 196.419 105.358 197.135L105.749 201.115L106.139 205.096C112.657 204.457 119.177 204.765 125.71 206.027L126.469 202.1ZM105.749 201.115L105.358 197.135C98.5826 197.799 91.8084 198.126 85.0349 198.116L85.0287 202.116L85.0224 206.116C92.0622 206.127 99.1013 205.787 106.139 205.096L105.749 201.115ZM85.0287 202.116L85.0349 198.116C78.1694 198.105 71.3039 197.988 64.4383 197.766L64.3087 201.764L64.1791 205.762C71.1269 205.987 78.0746 206.105 85.0224 206.116L85.0287 202.116ZM64.3087 201.764L64.4383 197.766C57.4506 197.539 50.4514 197.525 43.4409 197.723L43.5537 201.721L43.6665 205.72C50.516 205.526 57.3535 205.54 64.1791 205.762L64.3087 201.764ZM43.5537 201.721L43.4409 197.723C37.2734 197.897 31.6375 196.409 26.4379 193.249L24.3606 196.668L22.2832 200.086C28.8145 204.055 35.9741 205.937 43.6665 205.72L43.5537 201.721ZM24.3606 196.668L26.4379 193.249C21.166 190.045 17.032 185.755 13.9936 180.325L10.5028 182.278L7.01214 184.232C10.7198 190.858 15.8242 196.161 22.2832 200.086L24.3606 196.668ZM10.5028 182.278L13.9936 180.325C10.9238 174.839 9.23299 168.949 8.91435 162.606L4.91938 162.806L0.92442 163.007C1.30437 170.57 3.3359 177.661 7.01214 184.232L10.5028 182.278ZM4.91938 162.806L8.91435 162.606C8.57515 155.854 8.74587 149.126 9.42629 142.42L5.44673 142.017L1.46717 141.613C0.745869 148.721 0.565027 155.853 0.92442 163.007L4.91938 162.806ZM5.44673 142.017L9.42629 142.42C10.1291 135.495 10.7815 128.569 11.3835 121.643L7.39847 121.297L3.4135 120.95C2.81486 127.838 2.16608 134.725 1.46717 141.613L5.44673 142.017ZM7.39847 121.297L11.3835 121.643C12.0197 114.322 11.5249 107.007 9.90749 99.7109L6.0023 100.577L2.0971 101.442C3.54187 107.96 3.97782 114.458 3.4135 120.95L7.39847 121.297ZM6.0023 100.577L9.90749 99.7109C8.44712 93.1232 7.82724 86.5511 8.04115 79.9869L4.04328 79.8566L0.0453987 79.7263C-0.190837 86.9754 0.495296 94.2166 2.0971 101.442L6.0023 100.577ZM4.04328 79.8566L8.04115 79.9869C8.26096 73.2419 8.88933 66.4946 9.92698 59.7443L5.97342 59.1366L2.01986 58.5288C0.934137 65.5919 0.275743 72.6579 0.0453987 79.7263L4.04328 79.8566ZM5.97342 59.1366L9.92698 59.7443C10.9957 52.7922 11.919 45.9867 12.6968 39.3277L8.7238 38.8636L4.75081 38.3996C3.98479 44.9579 3.07457 51.6676 2.01986 58.5288L5.97342 59.1366ZM8.7238 38.8636L12.6968 39.3277C13.4002 33.3051 15.362 27.6365 18.6129 22.2896L15.195 20.2116L11.7772 18.1335C7.94354 24.4389 5.59117 31.2049 4.75081 38.3996L8.7238 38.8636ZM15.195 20.2116L18.6129 22.2896C21.6526 17.2902 26.0142 13.7861 31.8784 11.7374L30.5592 7.96123L29.24 4.18503C21.7031 6.81801 15.822 11.4808 11.7772 18.1335L15.195 20.2116ZM30.5592 7.96123L31.8784 11.7374C35.2057 10.5751 37.5977 9.82108 39.1252 9.43279C39.4985 9.33787 39.7935 9.27173 40.019 9.22833C40.1305 9.20686 40.2163 9.19264 40.2791 9.18358C40.3434 9.17431 40.3712 9.17226 40.3687 9.17244C40.3664 9.17261 40.3517 9.17365 40.3262 9.17425C40.3011 9.17484 40.2592 9.17515 40.2032 9.17284C40.1087 9.16893 39.8845 9.15439 39.5891 9.07865C39.1393 8.96333 37.2582 8.31553 36.8462 6.0919L40.7792 5.36313L44.7123 4.63436C44.2721 2.25854 42.2598 1.50464 41.576 1.32931C40.8264 1.13713 40.1426 1.16762 39.7854 1.19373C38.9811 1.25253 38.0565 1.45001 37.1541 1.6794C35.2748 2.15714 32.6133 3.00658 29.24 4.18503L30.5592 7.96123ZM40.7792 5.36313L36.8462 6.0919C37.2176 8.09641 38.7815 8.94335 39.2311 9.16206C39.8338 9.45518 40.4222 9.584 40.7898 9.6504C41.5754 9.79226 42.506 9.84131 43.4443 9.85347C45.3804 9.87857 48.1264 9.74938 51.6074 9.48842L51.3084 5.49962L51.0094 1.51081C47.5838 1.76761 45.1216 1.87454 43.548 1.85414C42.7314 1.84356 42.3318 1.79945 42.2117 1.77776C42.1265 1.76237 42.3683 1.79181 42.7304 1.96794C42.9395 2.06967 44.3691 2.78203 44.7123 4.63436L40.7792 5.36313Z" fill="black"/>
</svg>
