<svg width="60" height="60" viewBox="0 0 60 60" fill="none" xmlns="http://www.w3.org/2000/svg">
<g filter="url(#filter0_i_18_65)">
<path d="M21.0863 7.15271C22.4431 5.70411 24.5151 5.141 26.4144 5.71716C28.0466 6.21246 29.3336 7.47556 29.8597 9.09802L32.8353 18.2738L34.0599 15.0092C35.471 11.2465 39.3832 9.04288 43.3324 9.7865L45.3939 10.1752C47.3194 10.538 48.8567 11.9908 49.3265 13.8929C49.728 15.5191 49.2891 17.2389 48.1576 18.474L40.8412 26.4574L53.9681 28.4535C55.8898 28.7457 57.5109 30.0402 58.2201 31.85C59.099 34.0938 58.398 36.6487 56.4974 38.1302L53.6537 40.347C50.9521 42.4529 47.3782 43.0745 44.1244 42.0043L40.101 40.6801L40.6205 42.2816C41.3513 44.5358 40.9245 47.0055 39.4789 48.8832C37.5602 51.3751 34.2436 52.3302 31.2933 51.2406L31.1703 51.1947C28.7661 50.3066 26.9955 48.233 26.4965 45.7191L26.181 44.1312L22.4545 50.4135C21.4076 52.178 19.4081 53.1474 17.3744 52.8763C15.128 52.5766 13.3456 50.8348 12.9935 48.5961L12.5043 45.4867C11.9222 41.7848 13.6102 38.093 16.7904 36.1107L20.0443 34.0814L11.4008 31.2386C9.88487 30.74 8.59025 29.7264 7.74255 28.3744L6.8031 26.8754C5.73653 25.1737 5.92771 22.9711 7.27185 21.4789C8.37091 20.259 10.0479 19.7352 11.6459 20.1127L21.8949 22.5336L19.7601 11.7758C19.4306 10.1152 19.9291 8.38844 21.0863 7.15271ZM30.0004 25.6224C26.9628 25.6224 25.0004 29.5849 25.0004 32.6224C25.0004 35.66 27.9628 38.1224 31.0004 38.1224C34.0379 38.1223 38.0004 35.6599 38.0004 32.6224C38.0003 29.585 33.0379 25.6227 30.0004 25.6224Z" fill="#FFD633"/>
</g>
<path d="M24.1713 5.43982C24.5148 5.37068 24.8593 5.36582 25.2045 5.42517C25.5451 5.48377 25.8802 5.55655 26.2084 5.64294C26.5363 5.72929 26.8624 5.83028 27.1869 5.94568C27.5156 6.06261 27.8156 6.23157 28.0863 6.45251C28.3567 6.67317 28.5837 6.93058 28.767 7.22498C28.9454 7.51168 29.1566 7.77831 29.3988 8.0238C29.6493 8.27772 29.8231 8.57454 29.9193 8.91345C30.0126 9.24207 30.1268 9.5614 30.2621 9.87146C30.4001 10.1879 30.4923 10.5195 30.5385 10.8656C30.5835 11.2035 30.6655 11.5295 30.7845 11.8431C30.905 12.1604 31.0248 12.4779 31.1449 12.7953C31.2648 13.112 31.3924 13.4266 31.5267 13.7386C31.6637 14.0569 31.7418 14.3945 31.7611 14.7504C31.7797 15.0918 31.8811 15.4062 32.0658 15.6937C32.2587 15.9941 32.3855 16.3166 32.4457 16.6605C32.504 16.994 32.5977 17.3159 32.7269 17.6263C32.7588 17.7029 32.7901 17.7613 32.8197 17.8031C32.8498 17.8454 32.8759 17.8661 32.8959 17.8744C32.9127 17.8813 32.9286 17.8812 32.9486 17.8695C32.9712 17.8561 32.9992 17.8283 33.0297 17.7797C33.1537 17.5816 33.2318 17.311 33.2621 16.9652C33.2933 16.6091 33.3822 16.2738 33.5287 15.9603C33.6723 15.6529 33.8107 15.3429 33.9437 15.0306C34.0773 14.7171 34.2183 14.406 34.3666 14.098C34.5169 13.7857 34.7155 13.5059 34.9613 13.2582C35.2009 13.0166 35.4127 12.7548 35.598 12.474C35.7874 12.187 36.0098 11.9281 36.264 11.6967C36.519 11.4645 36.8035 11.2753 37.1176 11.1293C37.4229 10.9873 37.7058 10.8055 37.9662 10.5844C38.2351 10.3559 38.5371 10.1926 38.8715 10.0941C39.2012 9.997 39.5345 9.92261 39.8715 9.87146C40.2047 9.82088 40.5367 9.75656 40.8666 9.6781C41.2017 9.59837 41.5423 9.55777 41.8871 9.55798C42.2335 9.55823 42.5723 9.61596 42.9027 9.73083C43.2212 9.84153 43.5516 9.88381 43.8949 9.85681C44.2534 9.82857 44.596 9.88891 44.9213 10.0375C45.2363 10.1814 45.5533 10.2942 45.8715 10.3754C46.1929 10.4574 46.5221 10.5441 46.8588 10.6371C47.2021 10.7319 47.51 10.8943 47.7816 11.1234C48.0529 11.3522 48.267 11.6263 48.4242 11.9447C48.5777 12.2557 48.7431 12.554 48.9193 12.8392C49.0987 13.1296 49.2348 13.4403 49.3275 13.7709C49.4202 14.1013 49.4706 14.4384 49.4779 14.7806C49.4852 15.1216 49.4589 15.4588 49.4008 15.7924C49.3425 16.1265 49.2492 16.4494 49.1195 16.7601C48.9916 17.0666 48.8682 17.3809 48.7504 17.7035C48.6297 18.0338 48.4448 18.3226 48.1957 18.5677C47.9541 18.8055 47.7344 19.062 47.5375 19.3373C47.336 19.6189 47.0975 19.8671 46.8217 20.0804C46.5524 20.2887 46.3091 20.5208 46.0931 20.7777C45.8744 21.0378 45.6509 21.2934 45.4222 21.5443C45.1947 21.7939 44.9758 22.0519 44.766 22.3177C44.5543 22.5859 44.3297 22.8428 44.0922 23.0873C43.8559 23.3304 43.6189 23.573 43.3822 23.8158C43.1456 24.0585 42.9104 24.3025 42.6771 24.5482C42.4444 24.7932 42.2205 25.047 42.0052 25.308C41.7893 25.5697 41.5725 25.8311 41.3558 26.0922C41.3031 26.1557 41.2669 26.2102 41.2445 26.2552C41.2218 26.301 41.2164 26.3326 41.2191 26.3529C41.2214 26.3698 41.2299 26.3843 41.2523 26.3969C41.277 26.4107 41.3172 26.4216 41.3773 26.4252C41.6344 26.4405 41.9309 26.4779 42.266 26.5385C42.6021 26.5991 42.9345 26.6847 43.2631 26.7943C43.586 26.9021 43.9141 26.9756 44.2474 27.014C44.5825 27.0526 44.921 27.0706 45.2621 27.0697C45.6074 27.0688 45.9489 27.0945 46.2865 27.1449C46.6235 27.1953 46.958 27.2639 47.2894 27.351C47.6182 27.4373 47.9488 27.5135 48.2806 27.5795C48.6131 27.6456 48.9462 27.7084 49.2797 27.7679C49.6134 27.8275 49.947 27.8873 50.2806 27.9476C50.613 28.0077 50.9481 28.054 51.2845 28.0873C51.6235 28.1208 51.961 28.1672 52.2963 28.225C52.631 28.2827 52.9648 28.3474 53.2972 28.4203C53.6262 28.4924 53.96 28.5353 54.2982 28.5492C54.6437 28.5634 54.9822 28.6252 55.3138 28.7328C55.6468 28.8408 55.9531 29.001 56.2308 29.2142C56.5058 29.4254 56.7639 29.6536 57.0052 29.8978C57.2465 30.142 57.4683 30.4029 57.6713 30.6801C57.8749 30.9581 58.0491 31.2545 58.1927 31.5687C58.3374 31.8851 58.4241 32.2168 58.4525 32.5629C58.4804 32.9015 58.5246 33.2373 58.5853 33.5697C58.6473 33.9094 58.6499 34.2503 58.5922 34.5912C58.5349 34.9288 58.4536 35.2604 58.348 35.5853C58.2421 35.9113 58.1017 36.2217 57.9281 36.517C57.7539 36.8131 57.5437 37.0805 57.2982 37.3177C57.0584 37.5496 56.838 37.806 56.6371 38.0873C56.4289 38.3788 56.1571 38.594 55.8226 38.7308C55.501 38.8624 55.2094 39.0318 54.9486 39.2406C54.6854 39.4513 54.4337 39.6778 54.1937 39.9183C53.9519 40.1607 53.7027 40.3958 53.4467 40.6244C53.1888 40.8547 52.911 41.0581 52.6127 41.2328C52.316 41.4066 52.0117 41.568 51.7015 41.7172C51.3873 41.8683 51.0533 41.9613 50.7006 41.9955C50.3573 42.0288 50.0276 42.0988 49.7113 42.2054C49.3873 42.3147 49.0548 42.3821 48.7142 42.4086C48.3783 42.4346 48.042 42.4678 47.7064 42.5072C47.3666 42.5471 47.0263 42.5499 46.6859 42.516C46.3509 42.4826 46.0115 42.4661 45.6683 42.4662C45.3147 42.4663 44.9811 42.3776 44.6693 42.2006C44.3706 42.031 44.0536 41.9249 43.7181 41.8822C43.3717 41.8381 43.0389 41.7513 42.7201 41.6215C42.4061 41.4935 42.0897 41.3725 41.7709 41.2592C41.4544 41.1466 41.1283 41.063 40.7924 41.0092C40.6246 40.9823 40.5098 40.9868 40.4418 41.0131C40.4095 41.0256 40.3897 41.0422 40.3783 41.0609C40.3667 41.08 40.3606 41.1067 40.3636 41.1439C40.378 41.3182 40.4333 41.5664 40.5306 41.89C40.6292 42.2175 40.6955 42.5506 40.7308 42.889C40.7655 43.2212 40.8325 43.5509 40.9301 43.8773C41.0301 44.2121 41.0675 44.5528 41.0424 44.8988C41.0173 45.2427 40.9551 45.5796 40.8558 45.9086C40.7572 46.2355 40.6433 46.5551 40.515 46.8666C40.3871 47.1772 40.2507 47.4837 40.1068 47.7865C39.9627 48.0897 39.8065 48.3897 39.6381 48.6859C39.4686 48.9841 39.2707 49.2635 39.0433 49.5228C38.8166 49.7815 38.5717 50.0235 38.309 50.2484C38.0426 50.4764 37.7385 50.641 37.3988 50.7435C37.0709 50.8425 36.7671 50.9915 36.4877 51.1898C36.1979 51.3954 35.8799 51.5298 35.5345 51.5922C35.1955 51.6534 34.8555 51.7032 34.515 51.7406C34.1718 51.7783 33.8289 51.7759 33.4867 51.7347C33.1484 51.6941 32.8105 51.6542 32.473 51.6136C32.1302 51.5725 31.8012 51.4795 31.4867 51.3353C31.1779 51.1937 30.8655 51.0622 30.5502 50.9418C30.228 50.8187 29.9386 50.641 29.683 50.4076C29.4352 50.1814 29.1586 49.9893 28.8529 49.8314C28.5341 49.6668 28.2936 49.4231 28.1332 49.1019C27.9784 48.792 27.8083 48.5002 27.6215 48.2279C27.4342 47.955 27.2286 47.6841 27.0052 47.4154C26.7764 47.14 26.6175 46.8315 26.5287 46.4906C26.4411 46.1544 26.3808 45.8149 26.348 45.472C26.316 45.1366 26.2387 44.8479 26.1166 44.6058C26.0865 44.5463 26.0582 44.5085 26.0336 44.4877C26.0103 44.4681 25.9935 44.4668 25.9799 44.4701C25.9629 44.4743 25.9381 44.4896 25.9076 44.5287C25.8776 44.5672 25.8453 44.6235 25.8119 44.6996C25.6734 45.0144 25.5134 45.3168 25.3314 45.6058C25.1513 45.8919 24.9784 46.1822 24.8129 46.4769C24.647 46.7722 24.4835 47.0693 24.3226 47.3676C24.1606 47.6678 23.9803 47.9577 23.7826 48.2367C23.5866 48.5132 23.4003 48.7965 23.225 49.0853C23.0486 49.3758 22.8629 49.6608 22.6674 49.9398C22.4736 50.2163 22.3 50.505 22.1478 50.8051C21.9907 51.1147 21.7676 51.3672 21.4799 51.5609C21.1991 51.7498 20.9197 51.9342 20.642 52.1146C20.3606 52.2973 20.0605 52.4415 19.7416 52.5463C19.4256 52.65 19.1042 52.7433 18.7777 52.8265C18.4494 52.9102 18.1117 52.9645 17.765 52.9896C17.4157 53.0149 17.0704 52.9836 16.7299 52.8959C16.3891 52.8081 16.0724 52.6672 15.7806 52.473C15.4942 52.2825 15.2058 52.0976 14.9154 51.9183C14.6184 51.735 14.3705 51.4987 14.1722 51.2113C13.9777 50.9293 13.787 50.6468 13.601 50.3636C13.4128 50.0773 13.264 49.7709 13.1547 49.4447C13.046 49.1206 12.9569 48.7912 12.8881 48.4564C12.8198 48.1245 12.7434 47.7941 12.6586 47.4652C12.5728 47.1329 12.5137 46.7961 12.4808 46.4554C12.4481 46.1159 12.4305 45.7744 12.4281 45.431C12.4257 45.0901 12.4158 44.7515 12.3978 44.4154C12.3797 44.0759 12.3854 43.7364 12.4154 43.3978C12.445 43.0634 12.4576 42.7232 12.4545 42.3783C12.4513 42.0237 12.5316 41.6885 12.6947 41.3734C12.8521 41.0692 12.9689 40.7512 13.0453 40.4193C13.1236 40.0791 13.2432 39.754 13.4027 39.4447C13.5617 39.1364 13.7476 38.8455 13.9603 38.5717C14.1742 38.2963 14.424 38.0557 14.7103 37.851C14.991 37.6503 15.2526 37.4365 15.4945 37.2094C15.7369 36.9818 15.9725 36.7392 16.2015 36.4818C16.4362 36.2182 16.7127 36.0128 17.0306 35.8676C17.3415 35.7256 17.6484 35.5778 17.9506 35.4232C18.2504 35.2699 18.5326 35.0878 18.7963 34.8763C19.0633 34.6621 19.3248 34.4669 19.5814 34.2914C19.6434 34.249 19.6842 34.2115 19.7064 34.181C19.7281 34.1512 19.728 34.134 19.725 34.1244C19.7212 34.1124 19.707 34.0933 19.6654 34.0717C19.6245 34.0505 19.5641 34.0302 19.4828 34.0131C19.1479 33.9425 18.8171 33.8592 18.4906 33.7631C18.1603 33.6658 17.8462 33.5183 17.5492 33.3217C17.2602 33.1303 16.9558 32.9865 16.6361 32.89C16.3125 32.7924 15.9855 32.7042 15.6556 32.6254C15.3229 32.5459 14.9956 32.4483 14.6752 32.3314C14.356 32.215 14.0392 32.0917 13.724 31.9633C13.4109 31.8357 13.0924 31.7243 12.7689 31.6283C12.4435 31.5317 12.119 31.4311 11.7963 31.3275C11.4736 31.2239 11.153 31.1165 10.8344 31.0052C10.5144 30.8936 10.1979 30.7648 9.88513 30.6185C9.57036 30.4713 9.27696 30.2885 9.00525 30.0697C8.73321 29.8506 8.49314 29.5999 8.2865 29.3187C8.08288 29.0417 7.87635 28.7684 7.66638 28.4994C7.454 28.2273 7.26948 27.9377 7.11267 27.6322C6.95794 27.3307 6.79075 27.0346 6.61169 26.7435C6.42847 26.4457 6.31022 26.1236 6.2572 25.7777C6.20532 25.439 6.1457 25.101 6.07947 24.765C6.01182 24.4216 6.01749 24.0785 6.09509 23.7367C6.17202 23.398 6.28597 23.0747 6.43689 22.767C6.58806 22.4587 6.77641 22.1787 7.00232 21.9271C7.22599 21.6781 7.456 21.4376 7.69275 21.2074C7.93143 20.9753 8.19524 20.7735 8.48376 20.6019C8.77396 20.4294 9.08492 20.3107 9.41541 20.2455C9.74095 20.1813 10.0684 20.1248 10.3978 20.0765C10.7305 20.0278 11.0677 20.0187 11.4086 20.0492C11.747 20.0795 12.0839 20.1253 12.4193 20.1859C12.7567 20.2469 13.0864 20.3413 13.4076 20.4701C13.7225 20.5963 14.0455 20.6889 14.3763 20.7474C14.7093 20.8063 15.0457 20.8516 15.3851 20.8832C15.7291 20.9152 16.0659 20.9788 16.3949 21.0746C16.7209 21.1696 17.0469 21.266 17.3724 21.3627C17.6978 21.4593 18.0235 21.5557 18.349 21.6517C18.6717 21.7469 19.0011 21.8134 19.3373 21.8519C19.6808 21.8912 20.0145 21.975 20.3373 22.1019C20.6525 22.2259 20.9761 22.3143 21.308 22.3676C21.4712 22.3938 21.5793 22.3751 21.6439 22.3275C21.7057 22.2818 21.7413 22.199 21.7357 22.0619C21.7239 21.7761 21.6558 21.4749 21.5316 21.1586C21.4035 20.8322 21.3395 20.4927 21.3392 20.141C21.339 19.8022 21.2738 19.4764 21.1429 19.1635C21.0071 18.8388 20.9336 18.5012 20.9222 18.1517C20.9112 17.8104 20.8794 17.473 20.8265 17.14C20.774 16.8092 20.6792 16.4868 20.5433 16.1722C20.4029 15.8473 20.3375 15.5072 20.3461 15.1527C20.3544 14.8095 20.3213 14.4745 20.2474 14.1478C20.1726 13.8171 20.0974 13.4862 20.0219 13.1556C19.9458 12.8226 19.8954 12.4849 19.8705 12.1429C19.8461 11.8084 19.7733 11.4785 19.6527 11.1527C19.5276 10.8148 19.4913 10.4692 19.5433 10.1176C19.595 9.76876 19.7019 9.43822 19.8646 9.12732C20.0238 8.82314 20.1654 8.51271 20.2885 8.19568C20.4138 7.87277 20.5668 7.60544 20.7494 7.39587C20.8384 7.29376 20.9073 7.21789 20.9554 7.16833C20.9793 7.14376 20.9997 7.12436 21.015 7.11169C21.0221 7.10583 21.0302 7.09956 21.0385 7.09509C21.0424 7.09298 21.0499 7.08878 21.059 7.08728H21.0619C21.0639 7.08589 21.0667 7.08468 21.0697 7.0824C21.0851 7.0706 21.1078 7.05035 21.139 7.02185C21.2014 6.96497 21.2935 6.87638 21.4144 6.75623C21.6612 6.511 21.9472 6.32555 22.2719 6.19958C22.5886 6.0767 22.8978 5.93741 23.1986 5.78162C23.5051 5.62288 23.8292 5.50865 24.1713 5.43982ZM29.9984 25.5922C30.0029 25.5927 30.0119 25.5945 30.0209 25.599C30.0229 25.6 30.025 25.6019 30.0277 25.6039C30.0291 25.6042 30.0309 25.6054 30.0336 25.6058C30.048 25.608 30.0718 25.6104 30.1058 25.6117C30.1735 25.6143 30.2764 25.6141 30.4144 25.6117C30.6961 25.6068 31.0065 25.6431 31.3441 25.7201C31.6819 25.7971 32.0085 25.9069 32.3236 26.0492C32.6406 26.1923 32.9305 26.3823 33.1918 26.6185C33.4469 26.8492 33.7178 27.0493 34.0043 27.2191C34.2959 27.3919 34.5724 27.5868 34.8344 27.8021C35.0944 28.0159 35.3542 28.2316 35.6127 28.4486C35.8724 28.6667 36.1197 28.899 36.3539 29.1459C36.5877 29.3925 36.8125 29.6485 37.0277 29.9144C37.2452 30.1832 37.4186 30.4787 37.5482 30.7992C37.6767 31.1171 37.7816 31.4397 37.8627 31.767C37.9446 32.0977 37.9672 32.4306 37.931 32.765C37.8955 33.0936 37.8597 33.43 37.8226 33.7728C37.7845 34.1251 37.653 34.4387 37.4291 34.7123C37.2126 34.9769 37.0121 35.2539 36.8275 35.5433C36.6392 35.8385 36.4125 36.1008 36.1478 36.3295C35.8842 36.5572 35.6008 36.7567 35.2982 36.9271C34.9977 37.0964 34.6922 37.2539 34.3822 37.4008C34.0713 37.548 33.7523 37.6762 33.4261 37.7845C33.1002 37.8928 32.7694 37.9839 32.434 38.057C32.0969 38.1305 31.7559 38.1684 31.4115 38.1703C31.0681 38.1722 30.7282 38.1471 30.392 38.0951C30.0595 38.0437 29.7201 38.0037 29.3744 37.976C29.0197 37.9475 28.6917 37.8395 28.391 37.6527C28.0952 37.469 27.8162 37.268 27.5541 37.0492C27.295 36.8329 27.0239 36.629 26.7426 36.4369C26.4548 36.2405 26.2129 35.998 26.016 35.7113C25.8225 35.4296 25.6283 35.1452 25.434 34.8578C25.2349 34.5634 25.1197 34.2382 25.0892 33.8832C25.0743 33.709 25.0642 33.5359 25.058 33.3646L25.0521 32.8558C25.0573 32.5226 25.0473 32.185 25.0219 31.8441C24.9959 31.4957 25.035 31.1555 25.1381 30.8236C25.239 30.4988 25.3287 30.1704 25.4076 29.8392C25.4882 29.5008 25.6301 29.1886 25.8324 28.9027C26.03 28.6235 26.2087 28.3364 26.3695 28.0433C26.5322 27.747 26.7128 27.4593 26.9105 27.1801C27.1104 26.8978 27.351 26.655 27.6312 26.4515C27.9105 26.2488 28.2096 26.0866 28.5277 25.9652C28.8439 25.8445 29.1671 25.7485 29.4974 25.6781C29.6616 25.6431 29.7863 25.6186 29.8695 25.6049C29.9107 25.5981 29.9433 25.5938 29.9662 25.5922C29.977 25.5914 29.9885 25.591 29.9984 25.5922ZM29.973 25.6918C29.9549 25.6931 29.9258 25.6968 29.8851 25.7035C29.8043 25.7169 29.6824 25.7409 29.5189 25.7758C29.1934 25.8451 28.8745 25.94 28.5629 26.059C28.2531 26.1772 27.9621 26.3349 27.6898 26.5326C27.4185 26.7296 27.1861 26.9645 26.9926 27.2377C26.7969 27.5139 26.6182 27.7991 26.4574 28.0922C26.2947 28.3885 26.1132 28.6781 25.9135 28.9603C25.7186 29.2358 25.5829 29.5368 25.5052 29.8627C25.4258 30.196 25.3344 30.526 25.2328 30.8529C25.1334 31.1726 25.0965 31.5004 25.1215 31.8363C25.1471 32.18 25.1579 32.5205 25.1527 32.8568C25.1476 33.1899 25.1593 33.5293 25.1888 33.8744C25.2179 34.2126 25.3274 34.5219 25.517 34.8021C25.7111 35.0892 25.9048 35.3733 26.098 35.6547C26.2879 35.9312 26.5217 36.1644 26.7992 36.3539C27.0831 36.5477 27.356 36.7538 27.6176 36.972C27.8761 37.1878 28.1518 37.3864 28.4437 37.5677C28.7308 37.746 29.0433 37.8491 29.3822 37.8763C29.7301 37.9043 30.0718 37.9437 30.4066 37.9955C30.7375 38.0467 31.0724 38.0715 31.4105 38.0697C31.7479 38.0679 32.0822 38.0313 32.4125 37.9594C32.7444 37.887 33.0723 37.797 33.3949 37.6898C33.7171 37.5827 34.032 37.4564 34.3392 37.3109C34.6473 37.165 34.9508 37.0074 35.2494 36.8392C35.5461 36.6721 35.8239 36.4766 36.0824 36.2533C36.3396 36.031 36.5595 35.7765 36.7426 35.4896C36.9293 35.1968 37.1328 34.9165 37.3519 34.6488C37.5634 34.3903 37.687 34.0951 37.723 33.7621C37.76 33.4192 37.7958 33.0829 37.8314 32.7543C37.8663 32.4317 37.8451 32.1108 37.766 31.7914C37.686 31.4686 37.5823 31.15 37.4554 30.8363C37.3296 30.525 37.1609 30.239 36.9496 29.9779C36.736 29.714 36.5127 29.4599 36.2806 29.2152C36.049 28.9709 35.8052 28.7405 35.5482 28.5248C35.29 28.308 35.0307 28.0929 34.7709 27.8793C34.5129 27.6671 34.2397 27.4753 33.9525 27.3051C33.6603 27.1318 33.3842 26.9276 33.1244 26.6927C32.8707 26.4634 32.5899 26.2798 32.2826 26.141C31.9735 26.0014 31.6531 25.8933 31.3217 25.8177C30.9901 25.7422 30.6883 25.7076 30.4164 25.7123C30.2778 25.7147 30.1726 25.7141 30.1019 25.7113C30.0671 25.7099 30.039 25.7085 30.0189 25.7054C30.0094 25.704 29.9989 25.7011 29.9896 25.6976C29.9869 25.6966 29.9832 25.6943 29.9789 25.6918C29.9772 25.6918 29.9752 25.6916 29.973 25.6918ZM30.0502 25.6459L30.0443 25.6224C30.0434 25.6208 30.0414 25.6199 30.0404 25.6185C30.0452 25.6258 30.0502 25.6341 30.0502 25.6459ZM21.0365 7.17419C21.0451 7.18213 21.0543 7.18487 21.0619 7.18591C21.0539 7.18438 21.0448 7.18192 21.0365 7.17419ZM21.4398 20.141C21.44 20.4802 21.5019 20.8068 21.6254 21.1215C21.7528 21.4463 21.8229 21.7584 21.8353 22.057C21.8417 22.2116 21.8022 22.3351 21.7025 22.4086C21.6054 22.4799 21.4645 22.4938 21.2924 22.4662C20.9532 22.4117 20.6222 22.3214 20.3002 22.1947C19.9856 22.071 19.6612 21.9899 19.3265 21.9515C18.9846 21.9124 18.6491 21.8443 18.3207 21.7474C17.9951 21.6514 17.6695 21.555 17.3441 21.4584C17.0187 21.3617 16.6924 21.2662 16.3666 21.1713C16.0439 21.0773 15.7139 21.0142 15.3763 20.9828C15.0342 20.9509 14.6945 20.9054 14.3588 20.8461C14.0211 20.7864 13.6917 20.6916 13.3705 20.5629C13.0554 20.4366 12.7324 20.3443 12.4017 20.2845C12.0692 20.2244 11.7353 20.1789 11.3998 20.1488C11.0666 20.1189 10.7373 20.1276 10.4125 20.1752C10.0847 20.2232 9.75885 20.2792 9.43494 20.3431C9.11576 20.4061 8.81587 20.5212 8.53552 20.6879C8.25358 20.8555 7.99614 21.053 7.76306 21.2797C7.52795 21.5083 7.29872 21.7461 7.07654 21.9935C6.85684 22.2382 6.67393 22.5108 6.52673 22.8109C6.37923 23.1117 6.26701 23.4278 6.19177 23.7592C6.11727 24.0874 6.1131 24.4167 6.1781 24.7465C6.24456 25.0836 6.30377 25.4222 6.35583 25.7621C6.4068 26.0948 6.52047 26.4043 6.69666 26.6908C6.8771 26.9841 7.04558 27.2834 7.20154 27.5873C7.35542 27.887 7.53607 28.1708 7.74451 28.4379C7.95525 28.7079 8.1632 28.9821 8.36755 29.2601C8.56903 29.5342 8.80253 29.7779 9.06775 29.9916C9.33319 30.2054 9.6197 30.3839 9.92712 30.5277C10.2368 30.6725 10.5508 30.801 10.8676 30.9115C11.1852 31.0224 11.5049 31.1295 11.8265 31.2328C12.1486 31.3362 12.4725 31.4362 12.7972 31.5326C13.1238 31.6296 13.445 31.7427 13.7611 31.8715C14.0751 31.9994 14.3915 32.1208 14.7094 32.2367C15.0261 32.3522 15.3492 32.4501 15.6781 32.5287C16.0098 32.608 16.3389 32.6961 16.6644 32.7943C16.9938 32.8937 17.307 33.0421 17.6039 33.2386C17.8929 33.43 18.1985 33.573 18.5189 33.6674C18.8428 33.7628 19.171 33.8453 19.5033 33.9154C19.5887 33.9334 19.659 33.9557 19.7113 33.9828C19.7624 34.0093 19.804 34.045 19.8197 34.0941C19.8361 34.1457 19.8187 34.1964 19.7865 34.2406C19.7545 34.2844 19.7037 34.3285 19.6381 34.3734C19.3838 34.5473 19.124 34.7407 18.8588 34.9535C18.5899 35.1692 18.3023 35.3556 17.9965 35.5121C17.6929 35.6673 17.3849 35.8168 17.0726 35.9594C16.7674 36.0987 16.5023 36.2948 16.2767 36.5482C16.0456 36.8078 15.8076 37.0528 15.5629 37.2826C15.3177 37.5127 15.0529 37.729 14.7689 37.932C14.4904 38.1312 14.2463 38.3646 14.0385 38.6322C13.8295 38.9013 13.6478 39.1877 13.4916 39.4906C13.3359 39.7925 13.2194 40.1097 13.1429 40.4418C13.0646 40.7819 12.9448 41.1078 12.7836 41.4193C12.6279 41.7201 12.5519 42.0399 12.5551 42.3783C12.5582 42.7262 12.5449 43.069 12.515 43.4066C12.4854 43.7404 12.4796 44.0748 12.4974 44.4095C12.5155 44.7473 12.5253 45.0875 12.5277 45.4301C12.5301 45.7704 12.548 46.1092 12.5804 46.4457C12.6128 46.781 12.6708 47.1126 12.7552 47.4398C12.8405 47.7703 12.9181 48.1024 12.9867 48.4359C13.0547 48.7668 13.142 49.0932 13.2494 49.4135C13.356 49.7314 13.5015 50.0299 13.6849 50.309C13.8705 50.5914 14.0602 50.8733 14.2543 51.1547C14.4446 51.4305 14.6821 51.6564 14.9672 51.8324C15.2588 52.0124 15.5487 52.1987 15.8363 52.39C16.1187 52.5779 16.4253 52.7142 16.7552 52.7992C17.0851 52.8841 17.419 52.9145 17.7572 52.89C18.0982 52.8653 18.4308 52.812 18.7533 52.7299C19.0776 52.6472 19.3966 52.5545 19.7103 52.4515C20.0211 52.3495 20.3132 52.2087 20.5873 52.0306C20.8646 51.8505 21.1438 51.6666 21.4242 51.4779C21.6977 51.2938 21.9095 51.0546 22.059 50.7601C22.2133 50.4559 22.3889 50.1635 22.5853 49.8832C22.7798 49.6057 22.9647 49.3223 23.14 49.0336C23.3166 48.7428 23.5032 48.4575 23.7006 48.1791C23.896 47.9034 24.0737 47.6173 24.2338 47.3207C24.395 47.0219 24.5588 46.724 24.725 46.4281C24.8914 46.1318 25.0653 45.8398 25.2465 45.5521C25.4258 45.2673 25.5846 44.9699 25.7211 44.6595C25.7562 44.5797 25.7914 44.5147 25.8285 44.4672C25.8651 44.4203 25.9077 44.3843 25.9564 44.3724C26.0085 44.3598 26.057 44.3769 26.098 44.4115C26.1375 44.4449 26.1728 44.4963 26.2054 44.5609C26.3342 44.8163 26.4147 45.1172 26.4476 45.4623C26.4798 45.7998 26.5391 46.1342 26.6254 46.4652C26.7104 46.7917 26.8627 47.0876 27.0824 47.3519C27.3074 47.6227 27.5145 47.8958 27.7035 48.1713C27.8931 48.4476 28.0663 48.7432 28.223 49.057C28.374 49.3593 28.5989 49.5876 28.8988 49.7426C29.212 49.9043 29.496 50.1012 29.7504 50.3334C29.9969 50.5584 30.2758 50.7304 30.5863 50.849C30.9036 50.9702 31.218 51.1021 31.5287 51.2445C31.8337 51.3843 32.1524 51.4741 32.4847 51.514C32.8222 51.5546 33.1601 51.5954 33.4984 51.6361C33.8331 51.6763 34.1686 51.6779 34.5043 51.641C34.8425 51.6038 35.1801 51.5543 35.517 51.4935C35.8476 51.4338 36.1521 51.306 36.4301 51.1088C36.7184 50.9041 37.0322 50.7499 37.3705 50.6478C37.6969 50.5493 37.9879 50.391 38.2435 50.1722C38.5028 49.9504 38.7446 49.7115 38.9681 49.4564C39.1909 49.2023 39.3851 48.9291 39.5511 48.6371C39.7184 48.3429 39.8739 48.0446 40.017 47.7435C40.1601 47.4423 40.2959 47.1375 40.4232 46.8285C40.5503 46.52 40.6624 46.2032 40.7601 45.8793C40.8572 45.5575 40.9182 45.2284 40.9427 44.892C40.9671 44.5578 40.9301 44.2292 40.8334 43.9056C40.7341 43.5735 40.6676 43.2381 40.6322 42.8998C40.5975 42.5676 40.5317 42.24 40.4349 41.9183C40.337 41.5929 40.2792 41.3366 40.264 41.1517C40.2598 41.0993 40.2682 41.0505 40.2933 41.0092C40.3187 40.9676 40.3583 40.938 40.4066 40.9193C40.5007 40.8832 40.6371 40.8831 40.808 40.9105C41.1499 40.9653 41.4818 41.0508 41.8041 41.1654C42.1243 41.2793 42.4428 41.4002 42.7582 41.5287C43.0687 41.6552 43.3929 41.7396 43.7308 41.7826C44.0796 41.827 44.4091 41.9376 44.7191 42.1136C45.0161 42.2823 45.3323 42.3667 45.6683 42.3666C46.0147 42.3665 46.3573 42.3827 46.6957 42.4164C47.0288 42.4496 47.362 42.4467 47.6947 42.4076C48.0316 42.368 48.3691 42.3351 48.7064 42.309C49.0387 42.2831 49.363 42.2173 49.6791 42.1107C50.003 42.0015 50.341 41.9299 50.6918 41.8959C51.0329 41.8627 51.3552 41.7732 51.6586 41.6273C51.9663 41.4793 52.2675 41.3183 52.5619 41.1459C52.8544 40.9745 53.1273 40.776 53.3802 40.5502C53.635 40.3227 53.8828 40.0882 54.1234 39.847C54.366 39.604 54.6201 39.3755 54.8861 39.1625C55.1546 38.9475 55.4544 38.7731 55.7845 38.6381C56.1018 38.5083 56.3589 38.3057 56.556 38.0297C56.7604 37.7435 56.9844 37.4818 57.2289 37.2455C57.4678 37.0145 57.6725 36.7546 57.8422 36.4662C58.0121 36.1772 58.1487 35.8732 58.2523 35.5541C58.3564 35.2337 58.4371 34.9065 58.4935 34.5736C58.5493 34.2442 58.5466 33.9155 58.4867 33.5873C58.4254 33.2516 58.381 32.9126 58.3529 32.5707C58.3254 32.2364 58.2417 31.9165 58.1019 31.6107C57.9611 31.3027 57.7907 31.0121 57.5912 30.7396C57.3911 30.4663 57.1719 30.2089 56.934 29.9681C56.6959 29.7272 56.4407 29.5027 56.1693 29.2943C55.9007 29.088 55.6056 28.9321 55.2836 28.8275C54.9603 28.7226 54.6298 28.6636 54.2933 28.6498C53.9495 28.6356 53.6103 28.5913 53.2758 28.5179C52.9447 28.4454 52.6121 28.3811 52.2787 28.3236C51.9459 28.2662 51.6113 28.2202 51.2748 28.1869C50.9356 28.1533 50.5981 28.1069 50.2631 28.0463C49.9294 27.9859 49.5958 27.9252 49.2621 27.8656C48.928 27.8059 48.5942 27.7433 48.2611 27.6771C47.9273 27.6108 47.5947 27.5345 47.264 27.4476C46.9361 27.3615 46.6053 27.2934 46.2719 27.2435C45.9392 27.1938 45.6025 27.1694 45.2621 27.1703C44.9173 27.1712 44.5755 27.1517 44.2367 27.1127C43.8962 27.0735 43.5604 26.999 43.2308 26.889C42.907 26.781 42.5795 26.6969 42.2484 26.6371C41.916 26.5771 41.6235 26.5398 41.3715 26.5248C41.3045 26.5208 41.2471 26.5082 41.2035 26.4838C41.1576 26.458 41.1266 26.4187 41.1195 26.3666C41.1129 26.3179 41.128 26.2652 41.1547 26.2113C41.1818 26.1566 41.2241 26.0956 41.2797 26.0287C41.4964 25.7676 41.7121 25.5053 41.9281 25.2435C42.1448 24.9809 42.3706 24.7265 42.6049 24.4799C42.8385 24.2339 43.074 23.9894 43.3109 23.7465C43.5477 23.5036 43.7845 23.2602 44.0209 23.017C44.2559 22.7751 44.4784 22.5216 44.6879 22.2562C44.8992 21.9885 45.1189 21.7283 45.348 21.4769C45.5759 21.2269 45.799 20.9724 46.017 20.7133C46.2375 20.451 46.4855 20.2139 46.7601 20.0013C47.0284 19.7938 47.2606 19.5524 47.4564 19.2787C47.6566 18.9989 47.8798 18.7382 48.1254 18.4965C48.3638 18.2618 48.541 17.9858 48.6566 17.6693C48.7749 17.3453 48.8982 17.029 49.0267 16.7211C49.1535 16.4174 49.2461 16.1025 49.3031 15.7758C49.3602 15.4485 49.3845 15.1173 49.3773 14.7826C49.3702 14.4488 49.3212 14.1206 49.2308 13.7982C49.1406 13.4766 49.0088 13.1744 48.8344 12.892C48.6564 12.604 48.4892 12.3024 48.3344 11.9886C48.1833 11.6827 47.9778 11.4195 47.7172 11.1996C47.4567 10.9799 47.1618 10.8248 46.8324 10.7338C46.4964 10.641 46.1678 10.5539 45.847 10.472C45.5229 10.3893 45.2003 10.2745 44.8802 10.1283C44.5705 9.98677 44.2445 9.9295 43.9027 9.95642C43.5459 9.98448 43.2013 9.94092 42.8695 9.82556C42.5496 9.71434 42.2222 9.65881 41.8871 9.65857C41.5501 9.65836 41.2175 9.69686 40.89 9.77478C40.5574 9.8539 40.2232 9.91908 39.8871 9.97009C39.5546 10.0206 39.2253 10.0939 38.8998 10.1898C38.5789 10.2843 38.2891 10.441 38.0306 10.6605C37.7635 10.8874 37.4731 11.0743 37.1595 11.2201C36.8547 11.3619 36.5788 11.5456 36.3314 11.7709C36.0834 11.9968 35.8668 12.2496 35.682 12.5297C35.493 12.816 35.2758 13.0823 35.0316 13.3285C34.7937 13.5684 34.6019 13.8399 34.4564 14.142C34.3089 14.4484 34.1694 14.7578 34.0365 15.0697C33.9031 15.383 33.7636 15.6938 33.6195 16.0023C33.4781 16.3049 33.3919 16.6291 33.3617 16.974C33.3306 17.3291 33.2489 17.6164 33.1136 17.8324C33.0794 17.8871 33.0417 17.9304 32.9994 17.9554C32.9546 17.9818 32.9059 17.9869 32.8578 17.9672C32.8127 17.9486 32.7737 17.9101 32.7386 17.8607C32.7031 17.8107 32.6686 17.7447 32.6351 17.6644C32.5031 17.3471 32.4066 17.0179 32.347 16.6771C32.2892 16.3467 32.1677 16.0369 31.9818 15.7474C31.7877 15.4452 31.681 15.1141 31.6615 14.7552C31.6428 14.4108 31.5671 14.0848 31.4349 13.7777C31.3001 13.4644 31.1725 13.1485 31.0521 12.8304C30.932 12.5131 30.8112 12.1955 30.6908 11.8783C30.5691 11.5575 30.4849 11.2245 30.4388 10.8793C30.3939 10.5422 30.3046 10.2194 30.1703 9.9115C30.0332 9.59729 29.9172 9.27369 29.8226 8.9408C29.731 8.61832 29.5663 8.3362 29.3275 8.09412C29.0802 7.84348 28.8644 7.57178 28.682 7.27869C28.5045 6.99348 28.2849 6.74354 28.0228 6.52966C27.761 6.31607 27.4715 6.15248 27.1537 6.03943C26.8316 5.92488 26.5074 5.82528 26.182 5.73962C25.8568 5.65403 25.5255 5.58189 25.1879 5.5238C24.8547 5.4665 24.5223 5.47075 24.1908 5.53748C23.858 5.60447 23.5425 5.7152 23.2445 5.86951C22.9405 6.02696 22.6281 6.16818 22.308 6.29236C21.996 6.41339 21.7218 6.59187 21.4847 6.82751C21.3636 6.94789 21.2704 7.03769 21.2064 7.09607C21.1748 7.12494 21.149 7.14707 21.1302 7.1615C21.1212 7.16846 21.1114 7.17546 21.1029 7.18005C21.0989 7.18219 21.0921 7.18515 21.0844 7.18689C21.0834 7.18709 21.0821 7.18665 21.0804 7.18689L21.0785 7.18884C21.0675 7.19793 21.0508 7.21386 21.0277 7.23767C20.9815 7.28522 20.9134 7.36031 20.8246 7.46228C20.6515 7.66112 20.5033 7.91719 20.3812 8.23181C20.2568 8.55243 20.1144 8.86667 19.9535 9.17419C19.796 9.47512 19.692 9.79443 19.642 10.1322C19.5924 10.467 19.6271 10.7952 19.7465 11.1176C19.8703 11.452 19.945 11.7917 19.9701 12.1361C19.9946 12.4729 20.0446 12.8052 20.1195 13.1332C20.195 13.4637 20.2703 13.7947 20.3451 14.1254C20.4208 14.4601 20.4542 14.8035 20.4457 15.1547C20.4374 15.4947 20.5005 15.8206 20.6351 16.1322C20.7743 16.4543 20.8713 16.7851 20.9252 17.1244C20.9787 17.4615 21.0107 17.8033 21.0219 18.1488C21.0328 18.4859 21.1037 18.811 21.2347 19.1244C21.3708 19.4496 21.4396 19.7888 21.4398 20.141Z" fill="black"/>
<defs>
<filter id="filter0_i_18_65" x="6.03253" y="5.38403" width="52.6012" height="47.6141" filterUnits="userSpaceOnUse" color-interpolation-filters="sRGB">
<feFlood flood-opacity="0" result="BackgroundImageFix"/>
<feBlend mode="normal" in="SourceGraphic" in2="BackgroundImageFix" result="shape"/>
<feColorMatrix in="SourceAlpha" type="matrix" values="0 0 0 0 0 0 0 0 0 0 0 0 0 0 0 0 0 0 127 0" result="hardAlpha"/>
<feOffset dx="0.5" dy="-0.5"/>
<feComposite in2="hardAlpha" operator="arithmetic" k2="-1" k3="1"/>
<feColorMatrix type="matrix" values="0 0 0 0 0 0 0 0 0 0 0 0 0 0 0 0 0 0 1 0"/>
<feBlend mode="normal" in2="shape" result="effect1_innerShadow_18_65"/>
</filter>
</defs>
</svg>
