<svg width="60" height="60" viewBox="0 0 60 60" fill="none" xmlns="http://www.w3.org/2000/svg">
<g filter="url(#filter0_i_1_28)">
<path d="M21.0863 7.15271C22.443 5.70413 24.5142 5.14116 26.4135 5.71716C28.0458 6.21235 29.3326 7.47538 29.8588 9.09802L32.8344 18.2728L34.059 15.0092C35.47 11.2465 39.3823 9.04301 43.3314 9.7865L45.3929 10.1742C47.3187 10.5368 48.8557 11.9905 49.3256 13.8929C49.7272 15.5194 49.2884 17.2389 48.1566 18.474L40.8412 26.4574L53.9672 28.4525C55.8891 28.7445 57.5099 30.04 58.2191 31.85C59.0982 34.0939 58.3973 36.6486 56.4965 38.1302L53.6527 40.347C50.9512 42.4526 47.3781 43.0744 44.1244 42.0043L40.101 40.6801L40.6205 42.2816C41.3514 44.5358 40.9236 47.0055 39.4779 48.8832C37.5591 51.3751 34.2426 52.3304 31.2924 51.2406L31.1693 51.1947C28.7653 50.3066 26.9955 48.2329 26.4965 45.7191L26.181 44.1302L22.4535 50.4135C21.4064 52.1779 19.4072 53.1477 17.3734 52.8763C15.1271 52.5764 13.3446 50.8348 12.9926 48.5961L12.5043 45.4867C11.9223 41.7849 13.6094 38.093 16.7894 36.1107L20.0433 34.0814L11.3998 31.2386C9.88386 30.7399 8.5902 29.7265 7.74255 28.3744L6.80212 26.8754C5.73561 25.1737 5.92768 22.971 7.27185 21.4789C8.37091 20.259 10.0479 19.7352 11.6459 20.1127L21.8939 22.5336L19.7592 11.7748C19.4297 10.1143 19.9291 8.38835 21.0863 7.15271ZM30.0004 25.6224C26.9628 25.6224 25.0004 29.5849 25.0004 32.6224C25.0004 35.66 27.9628 38.1224 31.0004 38.1224C34.0379 38.1223 38.0004 35.6599 38.0004 32.6224C38.0003 29.585 33.0379 25.6227 30.0004 25.6224Z" fill="#FFD633"/>
</g>
<defs>
<filter id="filter0_i_1_28" x="6.11597" y="5.49442" width="52.4786" height="47.427" filterUnits="userSpaceOnUse" color-interpolation-filters="sRGB">
<feFlood flood-opacity="0" result="BackgroundImageFix"/>
<feBlend mode="normal" in="SourceGraphic" in2="BackgroundImageFix" result="shape"/>
<feColorMatrix in="SourceAlpha" type="matrix" values="0 0 0 0 0 0 0 0 0 0 0 0 0 0 0 0 0 0 127 0" result="hardAlpha"/>
<feOffset dx="0.5" dy="-0.5"/>
<feComposite in2="hardAlpha" operator="arithmetic" k2="-1" k3="1"/>
<feColorMatrix type="matrix" values="0 0 0 0 0 0 0 0 0 0 0 0 0 0 0 0 0 0 1 0"/>
<feBlend mode="normal" in2="shape" result="effect1_innerShadow_1_28"/>
</filter>
</defs>
</svg>
